<?xml version="1.0" encoding="UTF-8"?>
<svg id="uuid-6d6786e0-815f-4132-a24b-1573d3df09b8" data-name="Capa 2" xmlns="http://www.w3.org/2000/svg" viewBox="0 0 167.6 167.6">
  <g id="uuid-3251a4e7-194d-4b8b-ae4b-da2288023236" data-name="Capa 1">
    <g>
      <path d="M98.95,68.64c-8.56-8.56-22.45-8.56-31.01,0-8.56,8.56-8.56,22.45,0,31.01,8.56,8.56,22.45,8.56,31.01,0,8.56-8.56,8.56-22.45,0-31.01M69.91,97.68c-7.47-7.47-7.47-19.59,0-27.07,7.47-7.47,19.59-7.48,27.07,0,7.47,7.47,7.47,19.59,0,27.07-7.47,7.47-19.59,7.47-27.07,0" fill="#fff"/>
      <path d="M95.01,72.59c-6.39-6.39-16.74-6.39-23.12,0-6.39,6.39-6.39,16.74,0,23.12,6.38,6.39,16.74,6.39,23.12,0,6.39-6.38,6.39-16.74,0-23.12M73.86,93.74c-5.3-5.3-5.3-13.88,0-19.18,5.3-5.3,13.88-5.3,19.18,0,5.3,5.3,5.3,13.88,0,19.18-5.3,5.3-13.88,5.3-19.18,0" fill="#fff"/>
      <path d="M161.68,153.19c-.52-1.4-.96-2.84-1.53-4.22-.42-1.02-.43-1.41.89-1.24,1.48.18,2.99.12,4.48.13.78,0,1.49-.22,1.87-1,.41-.83.15-1.55-.39-2.22-4.13-5.12-8.26-10.24-12.4-15.35-.86-1.06-1.91-1.85-3.14-2.48-5.76-2.97-11.5-6-17.24-9-.49-.25-.97-.51-1.29-.98-1.23-1.78-2.83-3.21-4.45-4.61-1.89-1.63-3.75-1.55-5.57.2-.97.93-1.93,1.88-2.86,2.86-.67.7-1.24.66-1.89-.02-1.14-1.19-2.31-2.35-3.49-3.49-.57-.55-.66-1.1-.41-1.87.73-2.3.47-4.44-1.33-6.22-1.78-1.75-3.89-2.16-6.2-1.36-.84.29-1.39.13-1.98-.48-1.47-1.5-2.97-2.97-4.45-4.46l-1.95,1.95c1.42,1.42,2.83,2.85,4.27,4.26.66.65.97,1.26.64,2.24-.78,2.31-.42,4.42,1.42,6.17,1.8,1.72,3.87,2.19,6.2,1.3.77-.29,1.32-.15,1.87.42,1.11,1.15,2.23,2.29,3.39,3.38.8.75.8,1.36,0,2.11-1.44,1.38-2.85,2.79-4.23,4.24-1.27,1.33-1.64,3.18-.68,4.53,1.45,2.03,3.2,3.84,5.28,5.22.79.52,1.38,1.05,1.8,1.88,2.86,5.54,5.76,11.06,8.63,16.59.6,1.16,1.35,2.16,2.44,2.96,1.8,1.33,3.48,2.82,5.23,4.23,2.98,2.42,5.96,4.83,8.96,7.23.84.67,1.81.9,2.8.42,1.04-.5,1.53-1.38,1.48-2.55-.02-.6.02-1.2-.04-1.79-.12-1.34.41-1.45,1.45-.87.83.46,1.71.82,2.57,1.22,1.86.84,2.9.69,4.34-.71,1.57-1.53,3.09-3.12,4.67-4.65,1.18-1.14,1.43-2.44.86-3.96M106.62,110c-1.17-1.13-1.18-3.1-.02-4.3,1.15-1.18,3.09-1.22,4.3-.08,1.15,1.08,1.16,3.15.02,4.31-1.15,1.17-3.13,1.2-4.3.06M116.93,130.09c-.94-.96-1.9-1.9-2.84-2.85-.69-.7-.68-1.41,0-2.09,3.55-3.56,7.11-7.11,10.66-10.67.68-.68,1.41-.75,2.11-.1,1.05.98,2.07,2.01,3.07,3.05.78.8.42,1.52-.25,2.2-1.73,1.72-3.45,3.45-5.17,5.17-1.76,1.76-3.53,3.5-5.27,5.28-.79.81-1.51.82-2.29.01M136.18,122.08c4.82,2.5,9.62,5.06,14.46,7.52,1.29.66,1.94,1.85,2.79,2.86,3.13,3.74,6.18,7.55,9.26,11.34.18.23.46.45.35.78-.15.43-.57.3-.9.32-.81.04-1.25-.47-1.67-1.07-1.9-2.74-3.85-5.45-5.72-8.23-.62-.93-1.4-1.48-2.44-1.83-7.47-2.51-14.92-5.05-22.38-7.58q-1.9-.64-.46-2.09c.39-.39.77-.78,1.16-1.16,2.45-2.45,2.45-2.46,5.55-.86M157.12,145.98c.73.84.7,1.89-.31,2.75-.66.56-1.18,1.09-1.97.21-1.07-1.2.32-1.58.66-2.34.61-.12.87-1.46,1.62-.61M151.59,153.88c-.47.42-.91.25-1.31-.15-.42-.41-.78-.88-.29-1.42.73-.82,1.52-1.58,2.3-2.35.51-.5.99-.31,1.43.14.43.44.65.91.19,1.44-.36.41-.77.78-1.16,1.17-.39.39-.76.8-1.16,1.16M146.58,155.67c.28-.28.55-.57.84-.84.32-.29.68-.44,1.07-.16.4.29.84.58.85,1.15,0,.87-2.12,2.44-2.94,2.2-1.2-.36-1.32-.8-.47-1.73.2-.22.42-.42.63-.63l.02.02ZM142.35,154.01c.24-.32.55-.57.84-.85,0,0,0,0,0,0,.39-.39.78-.77,1.16-1.16.59-.62,1.1-.47,1.65.09.53.54.5,1.03-.02,1.54-.67.66-1.35,1.32-2,2.01-.74.78-1.42.52-2.07-.09-.82-.77.11-1.09.44-1.54M147.29,150.72c-1.27-1.25.3-1.73.82-2.46.28-.4.7-.7,1.04-1.06.54-.58,1.05-.62,1.64-.04.57.57.61,1.08.02,1.64-.36.34-.7.7-1.15,1.15-.69.3-1.08,2.03-2.37.76M155.45,141.79c.52.47.91,1.22.39,1.86-.78.96-1.7,1.81-2.62,2.65-.49.45-.92.07-1.29-.29-.38-.38-.68-.8-.24-1.29.46-.52.98-.99,1.47-1.48,0,0-.02-.02-.03-.03.32-.32.62-.65.96-.95.39-.34.77-1,1.36-.47M141.46,149.24c.43-.51.83-.87,1.46-.24.53.53.79,1.04.17,1.66-.91.92-1.83,1.84-2.75,2.74-.62.61-1.21.31-1.72-.13-.64-.55-.11-.97.24-1.37.45-.53.93-1.03,1.39-1.55.02.02.04.04.06.06.39-.39.8-.75,1.16-1.17M144.29,147.76c-.6-.61-.46-1.13.08-1.66.61-.59,1.21-1.19,1.8-1.79.62-.63,1.19-.59,1.79.04.62.65.32,1.16-.2,1.66-.28.28-.56.56-.85.85-.28.28-.57.56-.85.85-.58.6-1.14.73-1.78.07M150.45,140.03c.46-.46.91-.92,1.37-1.37.44-.43.91-.61,1.42-.09.5.51.8,1.08.22,1.69-.96,1.01-1.95,1.98-2.94,2.96-.48.48-.96.42-1.43-.04-.48-.47-.73-.97-.2-1.55.5-.55,1.05-1.06,1.58-1.58,0,0-.01,0-.01-.01M143.1,145.07c-.53.53-1.03.48-1.54-.04-.49-.49-.69-.98-.14-1.54.69-.71,1.4-1.41,2.09-2.11.53-.54,1.02-.44,1.54.05.57.55.65,1.07.05,1.64-.36.34-.7.7-1.05,1.05,0,0,0,0,0,0-.32.32-.63.63-.95.95M146.22,140.32c-.58-.58-.58-1.1,0-1.66.79-.77,1.55-1.55,2.34-2.32.73-.71,1.49-.36,2.2,0,.5.26.37.65.06.98-.51.54-1.05,1.06-1.58,1.59,0,0,0,0,.01.01-.46.46-.93.91-1.37,1.38-.55.58-1.07.61-1.65.01M138.89,146.07c.55-.5,1-.09,1.4.32.39.39.61.82.17,1.29-.54.58-1.12,1.12-1.67,1.68,0,0,.02.01.02.02-.32.32-.6.67-.95.93-.39.28-.69,1.17-1.26.63-.53-.51-1.03-1.39-.42-2.14.81-.99,1.77-1.87,2.71-2.74M145.7,136.67c-.78.48-1.23,1.88-2.45.68-.98-.96-.09-1.48.47-2.06.88-.9,2.36-1.12,2.86-.32.58.92-.68,1.09-.88,1.7M134.95,146.41c-.75-.82-.71-1.89.33-2.71.61-.48,1.07-1.26,1.96-.39,1.21,1.17-.09,1.67-.63,2.44-.57.13-.83,1.56-1.65.66M140,142.25c-.54.47-1,.21-1.42-.21-.44-.43-.65-.9-.16-1.42.65-.68,1.33-1.33,1.98-2.02.57-.61,1.1-.75,1.76-.08.66.68.47,1.21-.12,1.76-.29.27-.56.56-.84.84,0,0-.01-.01-.02-.02-.39.38-.75.79-1.16,1.15M137.36,139.35c-.54.54-1.04.45-1.55-.07-.5-.51-.61-1.01-.08-1.56.35-.36.7-.71,1.05-1.06.35-.35.7-.71,1.06-1.06.49-.47.97-.4,1.43.06.48.48.72.99.18,1.56-.68.73-1.39,1.42-2.1,2.13M136.51,134.32c-.35.35-.7.7-1.05,1.05,0,0,0,0,0,0-.38.38-.76.78-1.16,1.15-.52.48-.99.26-1.42-.17-.43-.43-.67-.9-.18-1.42.71-.76,1.46-1.48,2.19-2.22.54-.55,1.03-.41,1.53.09.49.49.65.98.1,1.53M131.67,133.3c-.61.67-1.04.65-1.33-.29-.3-1-.66-1.98-.99-2.96-.23-.7,0-.95.71-.71.85.28,1.7.55,2.54.85,1.44.51,1.47.65.43,1.74-.21.22-.42.42-.63.63-.25.24-.5.48-.74.74M135.63,155.99c-.7-.56-1.36-1.18-2.1-1.67-2.71-1.8-4.37-4.37-5.77-7.25-2.02-4.16-4.23-8.24-6.44-12.31-.65-1.2-.7-2.06.42-2.97.88-.72,1.63-1.61,2.45-2.41,1.3-1.29,1.41-1.26,1.99.43,2.33,6.84,4.73,13.65,6.93,20.52.79,2.46,2.04,4.31,4.28,5.64,2.17,1.3,4.18,2.87,6.26,4.33q1.42.99,1.19,3.14c-3.19-2.58-6.2-5.01-9.21-7.44M155.6,155.47c-.26.4-.69.7-1.04,1.04-.61.6-1.13.4-1.65-.14-.52-.54-.45-1.04.05-1.54.35-.35.7-.7,1.16-1.16.66-.33,1.12-1.97,2.37-.76,1.35,1.31-.38,1.78-.89,2.55" fill="#fff"/>
      <path d="M153.19,5.91c-1.4.52-2.84.96-4.22,1.53-1.02.42-1.41.43-1.24-.89.19-1.48.12-2.99.13-4.48,0-.78-.22-1.49-1-1.87-.83-.41-1.55-.15-2.22.39-5.12,4.13-10.24,8.26-15.35,12.4-1.06.86-1.85,1.91-2.48,3.14-2.97,5.76-6,11.5-9,17.24-.25.49-.51.97-.98,1.29-1.78,1.23-3.21,2.83-4.61,4.45-1.63,1.89-1.55,3.75.2,5.57.93.97,1.88,1.93,2.86,2.86.7.67.66,1.24-.02,1.89-1.19,1.14-2.35,2.31-3.49,3.49-.55.57-1.1.66-1.87.41-2.3-.73-4.44-.47-6.22,1.33-1.75,1.78-2.16,3.89-1.36,6.2.29.84.13,1.39-.48,1.98-1.5,1.47-2.97,2.97-4.46,4.45l1.95,1.95c1.42-1.42,2.85-2.83,4.26-4.27.65-.66,1.26-.97,2.24-.64,2.31.78,4.42.42,6.17-1.42,1.72-1.8,2.19-3.87,1.3-6.2-.29-.77-.15-1.32.42-1.87,1.15-1.11,2.29-2.23,3.38-3.39.75-.8,1.36-.8,2.11,0,1.38,1.44,2.79,2.85,4.24,4.23,1.33,1.27,3.18,1.64,4.53.68,2.03-1.45,3.84-3.2,5.22-5.28.52-.79,1.05-1.38,1.88-1.8,5.54-2.86,11.06-5.76,16.59-8.63,1.16-.6,2.16-1.35,2.96-2.44,1.33-1.8,2.82-3.48,4.23-5.23,2.42-2.98,4.83-5.96,7.23-8.96.67-.84.9-1.81.42-2.8-.5-1.04-1.38-1.53-2.55-1.48-.6.02-1.2-.02-1.79.04-1.34.12-1.45-.41-.87-1.45.46-.83.82-1.71,1.22-2.57.84-1.86.69-2.9-.71-4.34-1.53-1.57-3.12-3.09-4.65-4.67-1.14-1.18-2.44-1.43-3.96-.86M110,60.98c-1.13,1.17-3.1,1.18-4.3.02-1.18-1.15-1.22-3.09-.08-4.3,1.08-1.15,3.15-1.16,4.31-.02,1.17,1.15,1.2,3.13.06,4.3M130.09,50.67c-.96.94-1.9,1.9-2.85,2.84-.7.69-1.41.68-2.09,0-3.56-3.55-7.11-7.11-10.67-10.66-.68-.68-.75-1.41-.1-2.11.98-1.05,2.01-2.07,3.05-3.07.8-.78,1.52-.42,2.2.25,1.72,1.73,3.45,3.45,5.17,5.17,1.76,1.76,3.5,3.53,5.28,5.27.81.79.82,1.51.01,2.29M122.08,31.42c2.5-4.82,5.06-9.62,7.52-14.46.66-1.29,1.85-1.94,2.86-2.79,3.74-3.13,7.55-6.18,11.34-9.26.23-.18.45-.46.78-.35.43.15.3.57.32.9.04.81-.47,1.25-1.07,1.67-2.74,1.9-5.45,3.85-8.23,5.72-.93.62-1.48,1.4-1.83,2.44-2.51,7.47-5.05,14.92-7.58,22.38q-.64,1.9-2.09.46c-.39-.39-.78-.77-1.16-1.16-2.45-2.45-2.46-2.45-.86-5.55M145.98,10.47c.84-.73,1.89-.7,2.75.31.56.66,1.09,1.18.21,1.97-1.2,1.07-1.58-.32-2.34-.66-.12-.61-1.46-.87-.61-1.62M153.88,16.01c.42.47.25.91-.15,1.31-.41.42-.88.78-1.42.29-.82-.73-1.58-1.52-2.35-2.3-.5-.51-.31-.99.14-1.43.44-.43.91-.65,1.44-.19.41.36.78.77,1.17,1.16.39.39.8.76,1.16,1.16M155.67,21.01c-.28-.28-.57-.55-.84-.84-.29-.32-.44-.68-.16-1.07.29-.4.58-.84,1.15-.85.87,0,2.44,2.12,2.19,2.94-.36,1.2-.8,1.32-1.73.47-.22-.2-.42-.42-.63-.63l.02-.02ZM154.01,25.24c-.32-.24-.57-.55-.85-.84,0,0,0,0,0,0-.39-.39-.77-.78-1.16-1.16-.62-.59-.47-1.1.09-1.65.54-.53,1.03-.5,1.54.02.66.67,1.32,1.35,2.01,2,.78.74.52,1.42-.09,2.07-.77.82-1.09-.11-1.54-.44M150.72,20.31c-1.25,1.27-1.73-.3-2.46-.82-.4-.28-.7-.7-1.06-1.04-.58-.54-.62-1.05-.04-1.64.57-.57,1.08-.61,1.64-.02.34.36.7.7,1.15,1.15.3.69,2.03,1.08.76,2.37M141.79,12.14c.47-.52,1.22-.91,1.86-.39.96.78,1.81,1.7,2.65,2.62.45.49.07.92-.29,1.29-.38.38-.8.68-1.29.24-.52-.46-.99-.98-1.48-1.47,0,.01-.02.02-.03.03-.32-.32-.65-.62-.95-.96-.34-.39-1-.77-.47-1.36M149.24,26.13c-.51-.43-.87-.83-.24-1.46.53-.53,1.04-.79,1.66-.17.92.91,1.84,1.83,2.74,2.75.61.62.31,1.21-.13,1.72-.55.64-.97.11-1.37-.24-.53-.45-1.03-.93-1.55-1.39.02-.02.04-.04.06-.06-.39-.39-.75-.8-1.17-1.16M147.76,23.31c-.61.6-1.13.46-1.66-.08-.59-.61-1.19-1.21-1.79-1.8-.63-.62-.59-1.19.04-1.79.65-.62,1.16-.32,1.66.2.28.28.56.57.85.85.28.28.56.57.85.85.6.58.73,1.14.07,1.78M140.02,17.15c-.46-.46-.92-.91-1.37-1.37-.43-.44-.61-.91-.09-1.42.51-.5,1.08-.8,1.69-.22,1.01.96,1.98,1.95,2.96,2.94.48.48.42.96-.04,1.43-.47.48-.97.73-1.55.2-.55-.5-1.06-1.05-1.58-1.58,0,0,0,.01-.01.01M145.07,24.49c.53.53.48,1.03-.04,1.54-.49.49-.98.69-1.54.14-.71-.69-1.41-1.4-2.11-2.09-.54-.53-.44-1.02.05-1.54.55-.57,1.07-.65,1.64-.05.34.36.7.7,1.05,1.05,0,0,0,0,0,0,.32.32.63.63.95.95M140.32,21.37c-.58.58-1.1.58-1.66,0-.77-.79-1.55-1.55-2.32-2.34-.71-.73-.36-1.49,0-2.2.26-.5.65-.37.98-.06.54.51,1.06,1.05,1.59,1.58,0,0,0,0,.01-.01.46.46.91.93,1.38,1.37.58.55.61,1.07.01,1.65M146.07,28.7c-.5-.55-.09-1,.32-1.4.39-.39.82-.61,1.29-.17.58.54,1.12,1.12,1.69,1.67,0,0,.01-.02.02-.02.32.32.67.6.93.95.28.39,1.17.69.63,1.26-.51.53-1.39,1.03-2.14.42-.99-.81-1.87-1.77-2.74-2.71M136.66,21.9c.48.78,1.88,1.23.68,2.45-.96.98-1.48.09-2.06-.47-.9-.88-1.12-2.36-.32-2.86.92-.58,1.09.68,1.7.88M146.41,32.65c-.82.75-1.89.71-2.71-.33-.48-.61-1.26-1.07-.39-1.96,1.17-1.21,1.67.09,2.44.63.13.57,1.56.83.66,1.65M142.25,27.59c.47.54.21,1-.21,1.42-.44.44-.9.65-1.42.16-.68-.65-1.33-1.33-2.02-1.98-.61-.57-.75-1.1-.08-1.76.68-.66,1.21-.47,1.76.12.27.29.56.56.84.84,0,0-.01.01-.02.02.38.39.79.75,1.15,1.16M139.35,30.24c.54.54.45,1.04-.07,1.55-.51.5-1.01.61-1.56.08-.36-.35-.71-.7-1.06-1.05-.35-.35-.71-.7-1.06-1.06-.47-.49-.4-.97.06-1.43.48-.48.99-.72,1.56-.18.73.68,1.42,1.39,2.13,2.1M134.32,31.09c.35.35.7.7,1.05,1.05,0,0,0,0,0,0,.38.38.78.76,1.15,1.16.48.52.26.99-.17,1.42-.43.43-.9.67-1.42.18-.76-.71-1.48-1.46-2.22-2.19-.55-.54-.41-1.03.09-1.53.49-.49.98-.65,1.53-.1M133.3,35.92c.67.61.65,1.04-.29,1.33-1,.3-1.98.66-2.96.99-.7.23-.95,0-.71-.71.28-.85.55-1.7.85-2.54.51-1.44.65-1.47,1.74-.43.22.21.42.42.63.63.24.25.48.5.74.74M155.99,31.97c-.56.7-1.18,1.36-1.67,2.1-1.8,2.71-4.37,4.37-7.25,5.77-4.16,2.02-8.24,4.23-12.31,6.44-1.2.65-2.06.7-2.97-.42-.72-.88-1.61-1.63-2.41-2.45-1.29-1.3-1.26-1.41.43-1.99,6.84-2.33,13.65-4.73,20.52-6.93,2.46-.79,4.31-2.04,5.64-4.28,1.3-2.17,2.87-4.18,4.33-6.26q.99-1.42,3.14-1.19c-2.58,3.19-5.01,6.2-7.44,9.21M155.47,11.99c.4.26.7.69,1.04,1.04.6.61.4,1.13-.14,1.65-.54.52-1.04.45-1.54-.05-.35-.35-.7-.7-1.16-1.16-.33-.66-1.97-1.12-.76-2.37,1.31-1.35,1.78.38,2.55.89" fill="#fff"/>
      <path d="M5.91,14.41c.52,1.4.96,2.84,1.53,4.22.42,1.02.43,1.41-.89,1.24-1.48-.18-2.99-.12-4.48-.13-.78,0-1.49.22-1.87,1-.41.83-.15,1.55.39,2.22,4.13,5.12,8.26,10.24,12.4,15.35.86,1.06,1.91,1.85,3.14,2.48,5.76,2.97,11.5,6,17.24,9,.49.25.97.51,1.29.98,1.23,1.78,2.83,3.21,4.45,4.61,1.89,1.63,3.75,1.55,5.57-.2.97-.93,1.93-1.88,2.86-2.86.67-.7,1.24-.66,1.89.02,1.14,1.19,2.31,2.35,3.49,3.49.57.55.66,1.1.41,1.87-.73,2.3-.47,4.44,1.33,6.22,1.78,1.75,3.89,2.16,6.2,1.36.84-.29,1.39-.13,1.98.48,1.47,1.5,2.97,2.97,4.45,4.46l1.95-1.95c-1.42-1.42-2.83-2.85-4.27-4.26-.66-.65-.97-1.26-.64-2.24.78-2.31.42-4.42-1.42-6.17-1.8-1.72-3.87-2.19-6.2-1.3-.77.29-1.32.15-1.87-.42-1.11-1.15-2.23-2.29-3.39-3.38-.8-.75-.8-1.36,0-2.11,1.44-1.38,2.85-2.79,4.23-4.24,1.27-1.33,1.64-3.18.68-4.53-1.45-2.03-3.2-3.84-5.28-5.22-.79-.52-1.38-1.05-1.8-1.88-2.86-5.54-5.76-11.06-8.63-16.59-.6-1.16-1.35-2.16-2.44-2.96-1.8-1.33-3.48-2.82-5.23-4.23-2.98-2.42-5.96-4.83-8.96-7.23-.84-.67-1.81-.9-2.8-.42-1.04.5-1.53,1.38-1.48,2.55.02.6-.02,1.2.04,1.79.12,1.34-.41,1.45-1.45.87-.83-.46-1.71-.82-2.57-1.22-1.86-.84-2.9-.69-4.34.71-1.57,1.53-3.09,3.12-4.67,4.65-1.18,1.14-1.43,2.44-.86,3.96M60.98,57.6c1.17,1.13,1.18,3.1.02,4.3-1.15,1.18-3.09,1.22-4.3.08-1.15-1.08-1.16-3.15-.02-4.31,1.15-1.17,3.13-1.2,4.3-.06M50.67,37.51c.94.96,1.9,1.9,2.84,2.85.69.7.68,1.41,0,2.09-3.55,3.56-7.11,7.11-10.66,10.67-.68.68-1.41.75-2.11.1-1.05-.98-2.07-2.01-3.07-3.05-.78-.8-.42-1.52.25-2.2,1.73-1.72,3.45-3.45,5.17-5.17,1.76-1.76,3.53-3.5,5.27-5.28.79-.81,1.51-.82,2.29-.01M31.42,45.52c-4.82-2.5-9.62-5.06-14.46-7.52-1.29-.66-1.94-1.85-2.79-2.86-3.13-3.74-6.18-7.55-9.26-11.34-.19-.23-.46-.45-.35-.78.15-.43.57-.3.9-.32.81-.04,1.25.47,1.67,1.07,1.9,2.74,3.85,5.45,5.72,8.23.62.93,1.4,1.48,2.44,1.83,7.47,2.51,14.92,5.05,22.38,7.58q1.9.64.46,2.09c-.39.39-.77.78-1.16,1.16-2.45,2.45-2.45,2.46-5.55.86M10.47,21.61c-.73-.84-.7-1.89.31-2.75.66-.56,1.18-1.09,1.97-.21,1.07,1.2-.32,1.58-.66,2.34-.61.12-.87,1.46-1.62.61M16.01,13.72c.47-.42.91-.25,1.32.15.42.41.78.88.29,1.42-.73.82-1.52,1.58-2.3,2.35-.51.5-.99.31-1.43-.14-.43-.44-.65-.91-.19-1.44.36-.41.77-.78,1.16-1.17.39-.39.76-.8,1.16-1.16M21.01,11.93c-.28.28-.55.57-.84.84-.32.29-.68.44-1.07.16-.4-.29-.84-.58-.85-1.15,0-.87,2.12-2.44,2.94-2.2,1.2.36,1.32.8.47,1.73-.2.22-.42.42-.63.63l-.02-.02ZM25.24,13.59c-.24.32-.55.57-.84.85,0,0,0,0,0,0-.39.39-.78.77-1.16,1.16-.59.62-1.1.47-1.65-.09-.53-.54-.5-1.03.02-1.54.67-.66,1.35-1.32,2-2.01.74-.78,1.42-.52,2.07.09.82.77-.11,1.09-.44,1.54M20.31,16.88c1.27,1.25-.3,1.73-.82,2.46-.28.4-.7.7-1.04,1.06-.54.58-1.05.62-1.64.04-.57-.57-.61-1.08-.02-1.64.36-.34.7-.7,1.15-1.15.69-.3,1.08-2.03,2.37-.76M12.14,25.8c-.52-.47-.91-1.22-.39-1.86.78-.96,1.7-1.81,2.62-2.65.49-.45.92-.07,1.29.29.38.38.68.8.24,1.29-.46.52-.98.99-1.47,1.48.01,0,.02.02.03.03-.32.32-.62.65-.96.95-.39.34-.77,1-1.36.47M26.13,18.36c-.43.51-.83.87-1.46.24-.53-.53-.79-1.04-.17-1.66.91-.92,1.83-1.84,2.75-2.74.62-.61,1.21-.31,1.72.13.64.55.11.97-.24,1.37-.45.53-.93,1.03-1.39,1.55-.02-.02-.04-.04-.06-.06-.39.39-.8.75-1.16,1.17M23.31,19.84c.6.61.46,1.13-.08,1.66-.61.59-1.21,1.19-1.8,1.79-.62.63-1.19.59-1.79-.04-.62-.65-.32-1.16.2-1.66.28-.28.57-.56.85-.85.28-.28.57-.56.85-.85.58-.6,1.14-.73,1.78-.07M17.15,27.57c-.46.46-.91.92-1.37,1.37-.44.43-.91.61-1.42.09-.5-.51-.8-1.08-.22-1.69.96-1.01,1.95-1.98,2.94-2.96.48-.48.96-.42,1.43.04.48.47.73.97.2,1.55-.5.55-1.05,1.06-1.58,1.58,0,0,.01,0,.01.01M24.49,22.53c.53-.53,1.03-.48,1.54.04.49.49.69.98.14,1.54-.69.71-1.4,1.41-2.09,2.11-.53.54-1.02.44-1.54-.05-.57-.55-.65-1.07-.05-1.64.36-.34.7-.7,1.05-1.05,0,0,0,0,0,0,.32-.32.63-.63.95-.95M21.37,27.27c.58.58.58,1.1,0,1.66-.79.77-1.55,1.55-2.34,2.32-.73.71-1.49.36-2.2,0-.5-.26-.37-.65-.06-.98.51-.54,1.05-1.06,1.58-1.59,0,0,0,0-.01-.01.46-.46.93-.91,1.37-1.38.55-.58,1.07-.61,1.65-.01M28.7,21.53c-.55.5-1,.09-1.4-.32-.39-.39-.61-.82-.17-1.29.54-.58,1.12-1.12,1.67-1.68,0,0-.02-.01-.02-.02.32-.32.6-.67.95-.93.39-.28.69-1.17,1.26-.63.53.51,1.03,1.39.42,2.14-.81.99-1.77,1.87-2.71,2.74M21.9,30.93c.78-.48,1.23-1.88,2.45-.68.98.96.09,1.48-.47,2.06-.88.9-2.36,1.12-2.86.32-.58-.92.68-1.09.88-1.7M32.65,21.18c.75.82.71,1.89-.33,2.71-.61.48-1.07,1.26-1.96.39-1.21-1.17.09-1.67.63-2.44.57-.13.83-1.56,1.65-.66M27.59,25.34c.54-.47,1-.21,1.42.21.44.43.65.9.16,1.42-.65.68-1.33,1.33-1.98,2.02-.57.61-1.1.75-1.76.08-.66-.68-.47-1.21.12-1.76.29-.27.56-.56.84-.84,0,0,.01.01.02.02.39-.38.75-.79,1.16-1.15M30.24,28.25c.54-.54,1.04-.45,1.55.07.5.51.61,1.01.08,1.56-.35.36-.7.71-1.05,1.06-.35.35-.7.71-1.06,1.06-.49.47-.97.4-1.43-.06-.48-.48-.72-.99-.18-1.56.68-.73,1.39-1.42,2.1-2.13M31.09,33.28c.35-.35.7-.7,1.05-1.05,0,0,0,0,0,0,.38-.38.76-.78,1.16-1.15.52-.48.99-.26,1.42.17.43.43.67.9.18,1.42-.71.76-1.46,1.48-2.19,2.22-.54.55-1.03.41-1.53-.09-.49-.49-.65-.98-.1-1.53M35.92,34.29c.61-.67,1.04-.65,1.33.29.3,1,.66,1.98.99,2.96.23.7,0,.95-.71.71-.85-.28-1.7-.55-2.54-.85-1.44-.51-1.47-.65-.43-1.74.21-.22.42-.42.63-.63.25-.24.5-.48.74-.74M31.97,11.6c.7.56,1.36,1.18,2.1,1.67,2.71,1.8,4.37,4.37,5.77,7.25,2.02,4.16,4.23,8.24,6.44,12.31.65,1.2.7,2.06-.42,2.97-.88.72-1.63,1.61-2.45,2.41-1.3,1.29-1.41,1.26-1.99-.43-2.33-6.84-4.73-13.65-6.93-20.52-.79-2.46-2.04-4.31-4.28-5.64-2.17-1.3-4.18-2.87-6.26-4.33q-1.42-.99-1.19-3.14c3.19,2.58,6.2,5.01,9.21,7.44M11.99,12.12c.26-.4.69-.7,1.04-1.04.61-.6,1.13-.4,1.65.14.52.54.45,1.04-.05,1.54-.35.35-.7.7-1.16,1.16-.66.33-1.12,1.97-2.37.76-1.35-1.31.38-1.78.89-2.55" fill="#fff"/>
      <path d="M14.41,161.68c1.4-.52,2.84-.96,4.22-1.53,1.02-.42,1.41-.43,1.24.89-.18,1.48-.12,2.99-.13,4.48,0,.78.22,1.49,1,1.87.83.41,1.55.15,2.22-.39,5.12-4.13,10.24-8.26,15.35-12.4,1.06-.86,1.85-1.91,2.48-3.14,2.97-5.76,6-11.5,9-17.24.25-.49.51-.97.98-1.29,1.78-1.23,3.21-2.83,4.61-4.45,1.63-1.89,1.55-3.75-.2-5.57-.93-.97-1.88-1.93-2.86-2.86-.7-.67-.66-1.24.02-1.89,1.19-1.14,2.35-2.31,3.49-3.49.55-.57,1.1-.66,1.87-.41,2.3.73,4.44.47,6.22-1.33,1.75-1.78,2.16-3.89,1.36-6.2-.29-.84-.13-1.39.48-1.98,1.5-1.47,2.97-2.97,4.46-4.45l-1.95-1.95c-1.42,1.42-2.85,2.83-4.26,4.27-.65.66-1.26.97-2.24.64-2.31-.78-4.42-.42-6.17,1.42-1.72,1.8-2.19,3.87-1.3,6.2.29.77.15,1.32-.42,1.87-1.15,1.11-2.29,2.23-3.38,3.39-.75.8-1.36.8-2.11,0-1.38-1.44-2.79-2.85-4.24-4.23-1.33-1.27-3.18-1.64-4.53-.68-2.03,1.45-3.84,3.2-5.22,5.28-.52.79-1.05,1.38-1.88,1.8-5.54,2.86-11.06,5.76-16.59,8.63-1.16.6-2.16,1.35-2.96,2.44-1.33,1.8-2.82,3.48-4.23,5.23-2.42,2.98-4.83,5.96-7.23,8.96-.67.84-.9,1.81-.42,2.8.5,1.04,1.38,1.53,2.55,1.48.6-.02,1.2.02,1.79-.04,1.34-.12,1.45.41.87,1.45-.46.83-.82,1.71-1.22,2.57-.84,1.86-.69,2.9.71,4.34,1.53,1.57,3.12,3.09,4.65,4.67,1.14,1.18,2.44,1.43,3.96.86M57.6,106.62c1.13-1.17,3.1-1.18,4.3-.02,1.18,1.15,1.22,3.09.08,4.3-1.08,1.15-3.15,1.16-4.31.02-1.17-1.15-1.2-3.13-.06-4.3M37.51,116.93c.96-.94,1.9-1.9,2.85-2.84.7-.69,1.41-.68,2.09,0,3.56,3.55,7.11,7.11,10.67,10.66.68.68.75,1.41.1,2.11-.98,1.05-2.01,2.07-3.05,3.07-.8.78-1.52.42-2.2-.25-1.72-1.73-3.45-3.45-5.17-5.17-1.76-1.76-3.5-3.53-5.28-5.27-.81-.79-.82-1.51-.01-2.29M45.52,136.18c-2.5,4.82-5.06,9.62-7.52,14.46-.66,1.29-1.85,1.94-2.86,2.79-3.74,3.13-7.55,6.18-11.34,9.26-.23.18-.45.46-.78.35-.43-.15-.3-.57-.32-.9-.04-.81.47-1.25,1.07-1.67,2.74-1.9,5.45-3.85,8.23-5.72.93-.62,1.48-1.4,1.83-2.44,2.51-7.47,5.05-14.92,7.58-22.38q.64-1.9,2.09-.46c.39.39.78.77,1.16,1.16,2.45,2.45,2.46,2.45.86,5.55M21.61,157.12c-.84.73-1.89.7-2.75-.31-.56-.66-1.09-1.18-.21-1.97,1.2-1.07,1.58.32,2.34.66.12.61,1.46.87.61,1.62M13.72,151.59c-.42-.47-.25-.91.15-1.31.41-.42.88-.78,1.42-.29.82.73,1.58,1.52,2.35,2.3.5.51.31.99-.14,1.43-.44.43-.91.65-1.44.19-.41-.36-.78-.77-1.17-1.16-.39-.39-.8-.76-1.16-1.16M11.93,146.58c.28.28.57.55.84.84.29.32.44.68.16,1.07-.29.4-.58.84-1.15.85-.87,0-2.44-2.12-2.2-2.94.36-1.2.8-1.32,1.73-.47.22.2.42.42.63.63l-.02.02ZM13.59,142.36c.32.24.57.55.85.84,0,0,0,0,0,0,.39.39.77.78,1.16,1.16.62.59.47,1.1-.09,1.65-.54.53-1.03.5-1.54-.02-.66-.67-1.32-1.35-2.01-2-.78-.74-.52-1.42.09-2.07.77-.82,1.09.11,1.54.44M16.88,147.29c1.25-1.27,1.73.3,2.46.82.4.28.7.7,1.06,1.04.58.54.62,1.05.04,1.64-.57.57-1.08.61-1.64.02-.34-.36-.7-.7-1.15-1.15-.3-.69-2.03-1.08-.76-2.37M25.8,155.45c-.47.52-1.22.91-1.86.39-.96-.78-1.81-1.7-2.65-2.62-.45-.49-.07-.92.29-1.29.38-.38.8-.68,1.29-.24.52.46.99.98,1.48,1.47,0-.01.02-.02.03-.03.32.32.65.62.95.96.34.39,1,.77.47,1.36M18.36,141.46c.51.43.87.83.24,1.46-.53.53-1.04.79-1.66.17-.92-.91-1.84-1.83-2.74-2.75-.61-.62-.31-1.21.13-1.72.55-.64.97-.11,1.37.24.53.45,1.03.93,1.55,1.39-.02.02-.04.04-.06.06.39.39.75.8,1.17,1.16M19.84,144.29c.61-.6,1.13-.46,1.66.08.59.61,1.19,1.21,1.79,1.8.63.62.59,1.19-.04,1.79-.65.62-1.16.32-1.66-.2-.28-.28-.56-.57-.85-.85-.28-.28-.56-.57-.85-.85-.6-.58-.73-1.14-.07-1.78M27.57,150.45c.46.46.92.91,1.37,1.37.43.44.61.91.09,1.42-.51.5-1.08.8-1.69.22-1.01-.96-1.98-1.95-2.96-2.94-.48-.48-.42-.96.04-1.43.47-.48.97-.73,1.55-.2.55.5,1.06,1.05,1.58,1.58,0,0,0-.01.01-.01M22.53,143.11c-.53-.53-.48-1.03.04-1.54.49-.49.98-.69,1.54-.14.71.69,1.41,1.4,2.11,2.09.54.53.44,1.02-.05,1.54-.55.57-1.07.65-1.64.05-.34-.36-.7-.7-1.05-1.05,0,0,0,0,0,0-.32-.32-.63-.63-.95-.95M27.27,146.22c.58-.58,1.1-.58,1.66,0,.77.79,1.55,1.55,2.32,2.34.71.73.36,1.49,0,2.2-.26.5-.65.37-.98.06-.54-.51-1.06-1.05-1.59-1.58,0,0,0,0-.01.01-.46-.46-.91-.93-1.38-1.37-.58-.55-.61-1.07-.01-1.65M21.53,138.89c.5.55.09,1-.32,1.4-.39.39-.82.61-1.29.17-.58-.54-1.12-1.12-1.68-1.67,0,0-.01.02-.02.02-.32-.32-.67-.6-.93-.95-.28-.39-1.17-.69-.63-1.26.51-.53,1.39-1.03,2.14-.42.99.81,1.87,1.77,2.74,2.71M30.93,145.7c-.48-.78-1.88-1.23-.68-2.45.96-.98,1.48-.09,2.06.47.9.88,1.12,2.36.32,2.86-.92.58-1.09-.68-1.7-.88M21.18,134.95c.82-.75,1.89-.71,2.71.33.48.61,1.26,1.07.39,1.96-1.17,1.21-1.67-.09-2.44-.63-.13-.57-1.56-.83-.66-1.65M25.34,140c-.47-.54-.21-1,.21-1.42.43-.44.9-.65,1.42-.16.68.65,1.33,1.33,2.02,1.98.61.57.75,1.1.08,1.76-.68.66-1.21.47-1.76-.12-.27-.29-.56-.56-.84-.84,0,0,.01-.01.02-.02-.38-.39-.79-.75-1.15-1.16M28.25,137.36c-.54-.54-.45-1.04.07-1.55.51-.5,1.01-.61,1.56-.08.36.35.71.7,1.06,1.05.35.35.71.7,1.06,1.06.47.49.4.97-.06,1.43-.48.48-.99.72-1.56.18-.73-.68-1.42-1.39-2.13-2.1M33.28,136.51c-.35-.35-.7-.7-1.05-1.05,0,0,0,0,0,0-.38-.38-.78-.76-1.15-1.16-.48-.52-.26-.99.17-1.42.43-.43.9-.67,1.42-.18.76.71,1.48,1.46,2.22,2.19.55.54.41,1.03-.09,1.53-.49.49-.98.65-1.53.1M34.29,131.67c-.67-.61-.65-1.04.29-1.33,1-.3,1.98-.66,2.96-.99.7-.23.95,0,.71.71-.28.85-.55,1.7-.85,2.54-.51,1.44-.65,1.47-1.74.43-.22-.21-.42-.42-.63-.63-.24-.25-.48-.5-.74-.74M11.6,135.63c.56-.7,1.18-1.36,1.67-2.1,1.8-2.71,4.37-4.37,7.25-5.77,4.16-2.02,8.24-4.23,12.31-6.44,1.2-.65,2.06-.7,2.97.42.72.88,1.61,1.63,2.41,2.45,1.29,1.3,1.26,1.41-.43,1.99-6.84,2.33-13.65,4.73-20.52,6.93-2.46.79-4.31,2.04-5.64,4.28-1.3,2.17-2.87,4.18-4.33,6.26q-.99,1.42-3.14,1.19c2.58-3.19,5.01-6.2,7.44-9.21M12.12,155.6c-.4-.26-.7-.69-1.04-1.04-.6-.61-.4-1.13.14-1.65.54-.52,1.04-.45,1.54.05.35.35.7.7,1.16,1.16.33.66,1.97,1.12.76,2.37-1.31,1.35-1.78-.38-2.55-.89" fill="#fff"/>
    </g>
  </g>
</svg>