<?xml version="1.0" encoding="UTF-8"?>
<svg id="uuid-210ef038-d1de-45bd-a665-9f8bf46ec889" data-name="Capa 2" xmlns="http://www.w3.org/2000/svg" viewBox="0 0 356.44 153.03">
  <g id="uuid-aca0a4ea-1d57-4e46-a77a-0ed42fcab971" data-name="Capa 1">
    <g>
      <polygon points="356.26 104.45 110.39 104.45 110.39 107.02 356.26 107.02 356.26 105.56 356.26 104.45" fill="#fff"/>
      <path d="M94.28,20.75c.84-.23,1.55-.72,2.31-1.13.99-.54,1.03-1.3.1-1.98-.61-.44-1.21-.89-1.82-1.32-.33-.23-.41-.48-.32-.88.36-1.66.69-3.32,1.02-4.98.1-.51.11-1-.42-1.31-.52-.3-.94-.06-1.33.28-.84.72-1.7,1.43-2.69,2.27.12-.54.19-.87.28-1.2.12-.46.17-.9-.25-1.24-.42-.34-.86-.27-1.33-.07-1.44.61-2.9,1.2-4.35,1.78-.24.09-.49.16-.74.2-.47.08-.73-.08-.71-.62.03-.68.02-1.37,0-2.06-.02-.78-.48-1.29-1.25-1.39-.27-.04-.56-.03-.84-.03-4.92,0-9.83,0-14.75,0-.61,0-.83-.18-.82-.81.04-1.59.02-3.18,0-4.77,0-.95-.52-1.46-1.47-1.52-.15,0-.3,0-.45,0H31.28c-.17,0-.34,0-.51,0-.94.08-1.39.55-1.4,1.5,0,1.5,0,3.01,0,4.51q0,1.07-1.07,1.07c-4.98,0-9.96,0-14.94,0-1.17,0-1.7.52-1.73,1.68-.01.45,0,.9,0,1.35-.01.68-.08.72-.71.47-1.16-.46-2.31-.94-3.46-1.4-.43-.17-.87-.29-1.27.08-.39.36-.33.8-.23,1.26.07.31.25.62.12,1.05-.91-.77-1.75-1.49-2.61-2.19-.38-.32-.81-.51-1.29-.19-.47.31-.5.74-.39,1.25.34,1.62.65,3.24,1.01,4.86.11.51,0,.85-.44,1.14-.64.43-1.27.89-1.87,1.37-.65.52-.64,1.24.04,1.66.73.45,1.48.9,2.28,1.19.59.21.54.42.35.87-.64,1.48-1.24,2.97-1.85,4.46-.3.73-.19,1.21.41,1.48.44.19.53.46.53.89-.01,2.96-.01,5.93,0,8.89,0,.43-.11.69-.52.92-1.8.99-1.87,3.34-.12,4.41.47.29.64.59.64,1.12-.01,8.14-.01,16.28,0,24.42,0,.5-.14.8-.61,1.07-1.76,1.02-1.73,3.46.05,4.41.44.24.55.51.55.96,0,8.16,0,16.32,0,24.48,0,.43-.11.69-.52.92-1.87,1.06-1.87,3.41,0,4.47.4.23.52.49.52.92,0,8.18,0,16.36,0,24.54,0,.46-.13.73-.56.97-1.81,1.03-1.81,3.42,0,4.45.42.24.55.52.55.97,0,.98-.03,1.97.09,2.96.43,3.55,3.5,6.33,7.06,6.36,1.44,0,2.88,0,4.31,0,.4,0,.68.09.88.49.46.94,1.22,1.47,2.31,1.45,1.07-.03,1.85-.51,2.28-1.49.15-.33.35-.45.69-.44.69.01,1.37.02,2.06,0,.47-.02.65.17.64.64-.02.86-.02,1.72,0,2.58.02.79.47,1.47,1.17,1.58,1.06.18,2.14.2,3.2-.02.4-.08.74-.1,1.12.02,2.56.81,5.12,1.61,7.67,2.42.54.17,1.07.25,1.64.16.95-.15,1.92-.2,2.88-.3,1.64-.17,3.28-.35,4.92-.53.46-.05.82-.28.98-.73.16-.47.04-.89-.33-1.23-.19-.17-.36-.37-.56-.53-.45-.37-.32-.56.18-.71.39-.11.77-.27,1.15-.41.82-.31,1.09-.67,1.1-1.54.01-.94,0-1.89,0-2.83,0-.71-.31-1.18-.94-1.47-.59-.27-1.16-.57-1.75-.82-.44-.18-.56-.3-.11-.65.51-.39.95-.87,1.4-1.33.24-.24.39-.52.27-.87-.13-.38-.43-.52-.79-.56-2.81-.3-5.63-.6-8.44-.9-.58-.06-1.14.02-1.71.2-2.66.85-5.32,1.67-7.99,2.51-.23.07-.45.14-.69.09-.92-.17-1.84-.12-2.76-.05-1.07.08-1.61.67-1.63,1.76-.01.58-.02,1.16,0,1.74,0,.42-.18.58-.58.57-.71-.01-1.42-.01-2.13,0-.34,0-.53-.13-.69-.44-.48-.92-1.21-1.49-2.3-1.49-1.07,0-1.84.52-2.3,1.47-.17.34-.38.46-.75.46-1.46-.01-2.92.02-4.38-.01-2.88-.07-5.25-2.09-5.82-4.92-.21-1.04-.05-2.1-.11-3.15-.03-.47.13-.76.56-1.04,1.88-1.18,1.82-3.41-.11-4.5-.44-.25-.44-.57-.44-.97,0-3.61,0-7.22,0-10.82,0-4.53,0-9.06,0-13.59,0-.39,0-.74.46-.95.94-.41,1.4-1.22,1.44-2.19.05-1.02-.45-1.84-1.35-2.32-.46-.25-.56-.56-.56-1.03,0-8.09,0-16.19,0-24.29,0-.5.13-.8.6-1.07,1.77-1.02,1.76-3.43-.02-4.41-.49-.27-.58-.6-.58-1.08,0-8.12.01-16.23,0-24.35,0-.52.13-.84.62-1.12,1.58-.9,1.84-3.17.36-4.09-.96-.59-1.04-1.27-.97-2.17.01-.21.02-.43,0-.64-.04-.42.15-.67.52-.86,1.48-.78,2.95-1.59,4.41-2.4.8-.44.84-.42.84.47-.04,4.34-.07,8.67-.08,13.01-.06,25.4-.03,50.81-.03,76.21,0,.62.03,1.24.1,1.86.52,4.65,4.05,8.5,8.65,9.38,3.4.64,6.87.65,10.31.88,2.76.18,5.52.37,8.25.81,3.73.59,7.34,1.6,10.7,3.37.97.51,1.84.56,2.8.04,1.55-.84,3.19-1.48,4.88-2,4.7-1.45,9.56-1.76,14.42-2.05,2.68-.16,5.35-.28,8.01-.68,2.81-.42,5.25-1.65,7.21-3.68,2.42-2.51,3.53-5.55,3.53-9.06-.02-22.85-.01-45.69-.01-68.54,0-6.53,0-13.06,0-19.58,0-.79.04-.82.73-.45,1.14.6,2.22,1.33,3.41,1.81,1.46.59,2.01,1.52,1.76,3.05-.07.41-.13.68-.54.9-1.8.94-1.9,3.41-.15,4.41.59.34.68.7.68,1.27-.01,8.05-.01,16.11,0,24.16,0,.55-.11.89-.64,1.17-.89.46-1.31,1.28-1.28,2.29.03.99.51,1.74,1.4,2.15.44.2.53.48.53.9,0,8.18,0,16.36,0,24.54,0,.06,0,.13,0,.19.02.31-.1.51-.41.64-.98.43-1.49,1.22-1.5,2.28-.02,1.07.5,1.85,1.45,2.32.37.18.47.43.47.81,0,8.22,0,16.45,0,24.67,0,.41-.12.66-.52.85-.94.45-1.41,1.24-1.41,2.28,0,1.04.48,1.82,1.44,2.25.39.17.49.41.48.8-.01.77,0,1.54,0,2.32-.03,2.86-2.21,5.41-5.04,5.84-1.81.27-3.64.07-5.46.12-.34,0-.47-.23-.6-.49-.48-.95-1.26-1.45-2.32-1.43-1.06.02-1.84.53-2.29,1.5-.13.29-.31.43-.64.42-.75-.01-1.5-.01-2.25,0-.39,0-.54-.17-.53-.55,0-.71,0-1.42,0-2.13-.02-.89-.47-1.49-1.35-1.62-1-.14-2.02-.16-3,.09-.38.1-.7.09-1.06-.02-2.52-.8-5.04-1.57-7.55-2.39-.68-.22-1.34-.26-2.03-.18-1.58.16-3.16.33-4.73.49-.94.1-1.88.19-2.81.3-.48.06-.87.29-1.02.78-.14.47,0,.89.37,1.22.22.2.43.43.65.62.28.25.27.4-.1.52-.47.15-.93.34-1.4.49-.76.25-1.09.79-1.1,1.55,0,.79.04,1.59-.01,2.38-.06,1.06.4,1.71,1.36,2.08.64.24,1.26.53,1.63.76-.43.53-.86,1.09-1.33,1.62-.29.33-.62.62-.44,1.12.18.49.64.54,1.06.59,2.52.27,5.04.51,7.55.79.98.11,1.9,0,2.84-.31,2.46-.82,4.95-1.57,7.43-2.34.2-.06.43-.14.62-.12.88.13,1.76.05,2.64.06,1.23,0,1.79-.57,1.8-1.82,0-.69.03-1.37,0-2.06-.03-.55.15-.79.73-.75.62.04,1.24.03,1.87,0,.44-.02.69.12.9.54.44.9,1.19,1.39,2.21,1.4,1.03,0,1.84-.42,2.29-1.37.21-.44.49-.58.95-.57,1.37.02,2.75.01,4.12,0,4.11-.02,7.26-3.16,7.28-7.26,0-.67.02-1.33,0-2-.02-.51.13-.8.62-1.05.86-.44,1.31-1.2,1.32-2.19.02-1.03-.44-1.8-1.33-2.25-.49-.25-.62-.55-.61-1.05.01-8.1.01-16.19,0-24.29,0-.53.13-.85.64-1.11.89-.46,1.33-1.24,1.3-2.27-.03-.99-.46-1.76-1.34-2.18-.51-.24-.6-.56-.6-1.06,0-8.07.01-16.15,0-24.22,0-.53.13-.84.64-1.1.86-.44,1.29-1.21,1.3-2.21,0-1-.43-1.77-1.29-2.21-.55-.27-.65-.62-.65-1.16.01-6.68,0-13.36,0-20.03,0-1.46,0-2.92,0-4.38,0-.36.04-.66.43-.84.98-.43,1.48-1.19,1.5-2.27.02-1.11-.51-1.88-1.48-2.36-.31-.15-.46-.35-.46-.7,0-3.09,0-6.18,0-9.28,0-.21.01-.4.25-.55,1.02-.62,1.06-.8.6-1.9-.62-1.46-1.21-2.94-1.82-4.41-.09-.21-.25-.43.15-.54M44.62,145.17c.1-.3-.26-.94.49-.95.81-.01.43.66.51,1.05.04.2,0,.42,0,.64,0,.37-.22.46-.54.46-.33,0-.45-.18-.45-.48,0-.21,0-.43,0-.71M29.54,141.01c2.23-.71,4.47-1.39,6.69-2.11.59-.19,1.15-.03,1.72.02,2.09.19,4.18.42,6.27.64.13.01.28,0,.34.13.09.18-.08.27-.18.37-.23.26-.52.24-.83.18-1.41-.26-2.83-.49-4.24-.76-.47-.09-.88-.02-1.3.19-3.04,1.51-6.08,3-9.12,4.5q-.77.38-.78-.5c0-.24,0-.47,0-.71,0-1.49,0-1.5,1.43-1.95M43.19,141.91c.48.03.79.36.74.93-.03.37-.03.69-.54.66-.69-.04-.38-.58-.51-.91.15-.22-.18-.71.3-.68M43.91,145.29c0,.24.01.47,0,.71-.01.27-.2.35-.44.36-.25,0-.5-.03-.52-.34-.02-.47-.02-.94-.01-1.42,0-.31.21-.39.48-.39.26,0,.48.08.5.38.02.23,0,.47,0,.71M42.93,148.07c0-.17,0-.34,0-.51,0-.18.07-.34.28-.37.21-.03.43-.08.61.09.27.26.1,1.39-.23,1.56-.47.25-.65.16-.67-.39,0-.13,0-.26,0-.38h0ZM41.13,148.85c-.02-.17,0-.34,0-.51h0c0-.24,0-.47,0-.71,0-.37.19-.48.53-.47.33,0,.47.16.46.47,0,.41,0,.81,0,1.22.01.46-.27.59-.66.6-.49.01-.3-.37-.33-.6M41.64,146.35c-.77,0-.43-.62-.5-1-.04-.21,0-.43,0-.64,0-.34.13-.51.49-.51.35,0,.51.14.5.5,0,.21,0,.43,0,.7-.12.3.29.95-.49.95M41.13,142.28c0-.19-.01-.39,0-.58.02-.22-.07-.54.27-.56.3-.02.65.09.68.45.05.53.03,1.07.01,1.6-.01.29-.26.3-.48.3-.23,0-.45-.04-.47-.32-.02-.3,0-.6,0-.9h-.02M39.41,147.67c-.02-.29-.01-.52.37-.52.32,0,.56.08.56.45,0,.56,0,1.11,0,1.67,0,.37-.27.46-.56.48-.36.03-.33-.26-.34-.49-.02-.3-.03-.6-.05-.9.01,0,.02,0,.04,0,0-.24.01-.47,0-.71M39.82,146.36c-.37,0-.48-.2-.48-.53,0-.36,0-.73,0-1.09,0-.38.18-.54.56-.53.39.01.45.26.45.57,0,.17,0,.34,0,.51,0,.17,0,.34,0,.51,0,.36-.13.57-.52.56M39.34,142.13c0-.28,0-.56,0-.83,0-.27.09-.46.4-.46.31,0,.57.08.58.45.02.6.01,1.2,0,1.79,0,.29-.16.42-.45.42-.29,0-.52-.07-.53-.41-.01-.32,0-.64,0-.96h0ZM38.64,145.9c0,.32-.17.46-.48.46-.3,0-.51-.09-.51-.43,0-.43,0-.85,0-1.28,0-.33.18-.45.48-.45.34,0,.53.13.52.48,0,.21,0,.43,0,.64h0c0,.19,0,.38,0,.58M38.15,143.51c-.35,0-.51-.16-.51-.51,0-.47,0-.94,0-1.42,0-.44.34-.56.67-.67.23-.08.31.09.32.28,0,.32,0,.64,0,.97h0c0,.28,0,.56,0,.84,0,.35-.14.51-.5.51M37.67,147.49c.01-.32.28-.33.52-.33.23,0,.43.06.44.34.01.34,0,.68,0,1.02h.01c0,.19.02.39,0,.57-.03.21.15.57-.19.57-.32,0-.74-.11-.78-.52-.05-.55-.03-1.11,0-1.66M36.87,142.56c-.09.38.2.95-.54.95-.59,0-.48-.42-.48-.77,0-.54.38-1.06.77-.97.46.1.12.54.25.78M36.57,148.79c-.48-.02-.79-.36-.72-.92.04-.33-.06-.71.47-.72.73,0,.48.53.55.94-.14.21.22.73-.3.7M35.85,144.76c0-.36.11-.56.51-.56.41,0,.51.23.5.57,0,.17,0,.34,0,.51h-.01c0,.23.01.47,0,.7-.02.31-.24.37-.5.37s-.47-.08-.48-.38c-.01-.4,0-.81-.01-1.21M35.15,145.91c0,.33-.18.45-.49.45-.31,0-.49-.12-.5-.45,0-.21,0-.43,0-.64s0-.43,0-.64c0-.3.17-.42.45-.42.29,0,.52.08.53.42.01.43,0,.86,0,1.29M33.36,144.64c0,.21,0,.43,0,.64h0c0,.23,0,.47,0,.7-.01.3-.22.38-.48.38-.26,0-.48-.07-.49-.38-.01-.45,0-.89,0-1.34,0-.33.19-.44.49-.44s.5.1.49.43M31.58,145.8c.02.39-.12.52-.49.32-.4-.21-.8-.4-1.2-.6-.28-.14-.29-.29,0-.43.34-.17.68-.35,1.03-.51.59-.28.64-.25.66.4,0,.13,0,.26,0,.38,0,.15,0,.3,0,.45M28.11,146.89c0-.79.04-.81.73-.47,2.79,1.37,5.59,2.72,8.36,4.14.99.51,1.93.69,3.02.42,1.06-.27,2.15-.4,3.22-.59q.73-.13,1.32.59c-1.76.19-3.41.36-5.07.54-.38.04-.77.05-1.15.13-1.37.28-2.66,0-3.96-.45-1.88-.65-3.79-1.22-5.71-1.78-.56-.17-.84-.42-.77-1.03.05-.49,0-.99,0-1.48M24.36,141.51c.62-.02,1.24-.02,1.86,0,.48,0,.59.34.59.75,0,1.05,0,2.1,0,3.15s0,2.14,0,3.21c0,.49-.21.71-.69.7-.58,0-1.16,0-1.73,0-.42,0-.64-.22-.64-.64,0-2.16,0-4.33,0-6.49,0-.41.2-.66.61-.67M16.84,143.7c.68-.02,1.31.61,1.32,1.3,0,.71-.59,1.32-1.29,1.33-.7.01-1.3-.59-1.31-1.3-.01-.71.57-1.31,1.29-1.33M53.31,139.55c2.28-.25,4.56-.47,6.83-.72.35-.04.68-.03,1.01.08,2.37.75,4.74,1.49,7.11,2.24,1.03.32,1.03.33,1.03,1.42v.45q0,1.58-1.44.87c-2.82-1.39-5.65-2.78-8.47-4.18-.46-.23-.9-.32-1.42-.22-1.34.27-2.7.5-4.05.74-.21.04-.43.08-.63.04-.26-.05-.54-.24-.54-.48,0-.34.36-.2.56-.22M67.61,145.45c-.17.09-.34.2-.51.26-.43.15-.94.74-1.24.44-.36-.35-.1-1.06-.12-1.61,0-.15.06-.25.32-.2.49.25,1.04.52,1.59.81.16.09.1.21-.04.29M64.94,145.28c0,.21,0,.43,0,.64,0,.29-.16.42-.44.42-.28,0-.45-.12-.45-.41,0-.43,0-.85,0-1.28,0-.31.16-.46.48-.45.3,0,.42.17.42.44,0,.21,0,.42,0,.64M63.25,145.79c.01.36-.12.56-.52.55-.42,0-.5-.24-.49-.58,0-.17,0-.34,0-.51h0c0-.21,0-.43,0-.64,0-.34.22-.42.51-.42.31,0,.48.12.48.45,0,.38,0,.77,0,1.15M60.44,148.05c.07-.38-.17-.9.51-.91.57,0,.5.4.5.76,0,.51-.36.99-.75.92-.47-.09-.15-.53-.27-.77M61.46,145.87c0,.36-.19.48-.53.48-.32,0-.47-.14-.47-.46,0-.36,0-.73,0-1.09-.01-.37.08-.62.53-.61.42.01.49.26.48.59,0,.15,0,.3,0,.45h0c0,.21,0,.43,0,.64M60.98,143.4c-.73,0-.44-.56-.55-.93.14-.22-.18-.71.27-.69.45.02.82.33.77.9-.03.34.03.71-.49.71M58.76,148.45h0v-.84c0-.36.21-.48.54-.47.33,0,.46.18.46.49,0,.45,0,.9,0,1.35,0,.12-.04.27-.12.35-.2.19-.45.4-.73.33-.25-.07-.12-.37-.14-.57-.02-.21,0-.43,0-.64M59.76,145.31h0c0,.21,0,.43,0,.64,0,.3-.19.4-.46.4-.29,0-.51-.07-.52-.41,0-.43,0-.85,0-1.28,0-.37.21-.47.54-.46.33,0,.46.16.46.47,0,.21,0,.43,0,.64M59.75,143.02c0,.3-.22.38-.49.38-.27,0-.47-.09-.49-.39-.01-.32,0-.64,0-.96h-.01c0-.17-.02-.34,0-.51.03-.22-.13-.61.26-.59.3.01.67.16.71.54.05.51.03,1.02.02,1.54M56.98,144.64c0-.33.17-.45.48-.45.3,0,.51.08.51.42,0,.43,0,.85,0,1.28,0,.33-.17.45-.48.45-.34,0-.52-.13-.51-.49,0-.21,0-.43,0-.64h0c0-.19,0-.38,0-.58M56.98,147.56c0-.35.23-.42.52-.42.28,0,.45.11.46.41,0,.3,0,.6,0,.9h0c0,.28,0,.56,0,.84,0,.23.02.52-.34.47-.29-.04-.64-.04-.64-.47,0-.58,0-1.16,0-1.73M57.96,142.05v.9c0,.33-.18.45-.49.45-.3,0-.5-.11-.5-.44,0-.53,0-1.07,0-1.6,0-.44.29-.51.64-.53.43-.03.34.29.35.53.01.23,0,.47,0,.7h0ZM55.19,145.31c-.04-.2,0-.42,0-.64,0-.31.13-.47.46-.48.33,0,.54.09.54.46v.71c-.11.31.29.99-.53.97-.76-.02-.39-.65-.47-1.03M55.18,141.76c-.03-.46.26-.6.63-.62.44-.02.36.33.38.59.01.17,0,.34,0,.51,0,.19,0,.38,0,.57,0,.34-.08.58-.49.59-.4,0-.52-.2-.51-.56,0-.36.02-.72,0-1.08M55.2,147.48c0-.28.22-.34.46-.34.26,0,.48.06.51.36.02.26,0,.51,0,.77h.01c0,.19,0,.39,0,.58-.01.25.02.56-.36.55-.3,0-.58-.12-.61-.46-.04-.49-.03-.98,0-1.48M54.23,148.7c-.43.05-.75-.37-.75-.91,0-.35.03-.65.5-.64.69,0,.45.53.52.91-.11.2.18.6-.27.65M53.94,143.4c-.1,0-.22-.03-.3-.09-.33-.24-.17-1.4.2-1.58.5-.25.63-.17.65.39,0,.11,0,.21,0,.37-.07.33.22.93-.55.91M54,144.19c.48,0,.49.3.49.65,0,.13,0,.26,0,.38,0,.19,0,.38,0,.58.01.36-.12.56-.51.56-.41,0-.5-.24-.49-.59,0-.32,0-.64,0-.96,0-.37.07-.62.52-.62M52.69,145.27c0,.24,0,.47,0,.7-.02.31-.23.37-.49.37s-.48-.06-.49-.37c-.01-.45,0-.9,0-1.35,0-.34.19-.44.5-.44s.5.1.5.44v.64h0M68.75,149.29c-2.56.8-5.11,1.61-7.67,2.41-.68.21-1.36,0-2.04-.06-2-.2-4-.42-6-.63-.1-.01-.22,0-.3-.15.23-.37.49-.61,1.01-.51,1.37.27,2.74.48,4.11.74.57.11,1.09.04,1.61-.23,3.05-1.52,6.11-3.03,9.17-4.53.64-.31.65-.3.66.42,0,.6-.01,1.2,0,1.8.01.41-.16.62-.55.74M73.57,148.43c0,.47-.24.65-.68.64-.51-.01-1.03-.02-1.54,0-.6.02-.86-.23-.85-.84.02-1.03,0-2.06,0-3.09s.02-2.02,0-3.03c-.02-.59.24-.81.81-.79.54.03,1.07.01,1.61,0,.45,0,.67.19.67.66,0,2.15,0,4.29,0,6.44M80.44,146.33c-.7-.03-1.21-.58-1.21-1.32,0-.76.55-1.32,1.29-1.31.69,0,1.29.65,1.27,1.36-.02.7-.66,1.3-1.35,1.28M93.97,10.58c.14-.11.26-.36.47-.25.21.11.08.35.05.53-.27,1.34-.59,2.68-.8,4.03-.11.71-.5.91-1.12.94-1.48.07-2.95.17-4.42.25-1.8.1-3.59.19-5.39.28v.02c-.21,0-.43-.01-.64,0-.62.04-.93-.29-.85-.91.06-.4.41-.34.66-.35,1.11-.07,2.22-.13,3.34-.15.94-.01,1.88-.07,2.82-.14.31-.02.57-.15.83-.31,1.86-1.09,3.4-2.6,5.06-3.95M72.42,18.8c-2.49-.42-4.99-.85-7.48-1.27-.38-.06-.64-.18-.66-.63-.01-.45.13-.7.62-.66.21.02.43,0,.64,0,0,0,0-.01,0-.02,1.62.13,3.25.25,4.87.38.32.02.64.03.96.03.35,0,.41-.25.43-.52.02-.28-.14-.37-.39-.4-.47-.04-.94-.12-1.41-.12-.54,0-.56-.33-.56-.73s.05-.68.55-.67c.71,0,1.47-.13,2.1.15.73.31,1.23,1.02,1.92,1.45.08.05.05.28.06.43.03.4.24.73.6.84,1.07.31,2.15.62,3.29.42.71-.13,1.34-.45,1.9-.91.14-.11.26-.39.45-.26.12.08.16.34.17.53.13,1.66-.38,3.11-1.34,4.45-.92,1.28-1.9,1.78-3.57,1.18-2.88-1.03-5.87-1.76-8.81-2.63-.22-.07-.47-.13-.65-.25-.25-.17-.49-.46-.39-.75.11-.3.45-.13.69-.09,1.97.33,3.93.66,5.9,1,.33.06.58.08.66-.36.08-.46-.17-.55-.53-.61M75.07,15.92c0-.21.2-.26.37-.3,1.37-.33,2.75-.65,4.12-.97.13-.03.26-.06.36.06.11.14.07.29-.03.41-.67.83-1.48,1.42-2.72,1.47-.48-.09-1.09-.2-1.7-.33-.18-.04-.4-.1-.39-.35M79.17,22.8c.24-.12.36.06.48.21,1.06,1.29,2.11,2.58,3.16,3.89.25.3.15,1.35-.13,1.61-.06.05-.15.09-.22.09-.11,0-.21-.02-.32-.05q-1.92-.39-2.46-2.31c-.28-.97-.54-1.94-.78-2.79-.04-.36.06-.53.28-.64M82.81,25.42c-.73-1.15-1.68-2.17-2.58-3.21-.34-.39-.1-.59.07-.88.2-.34.41-.19.64-.05,2.68,1.58,5.36,3.17,8.04,4.74.31.18.43.34.07.6-.36.26-.7.56-1.06.84-.15.12-.32.22-.68.19-1.48-.57-3.39-.47-4.5-2.24M88.71,24.74c-2.43-1.45-4.86-2.88-7.3-4.31-.27-.16-.54-.31-.31-.69.07-.11.14-.22.34-.18.09.05.22.12.35.19,2.43,1.44,4.86,2.88,7.29,4.33.21.12.63.18.43.57-.19.38-.49.28-.81.09M84.6,12.13c.48-.01.93-.11,1.37-.29,1.24-.52,2.49-1.03,3.74-1.54.19-.08.41-.25.6-.12.21.15.04.4,0,.6-.03.17-.11.33-.11.5-.01,1.28-.85,1.93-1.85,2.46-.17.09-.35.15-.55.16-2.1.09-4.19.18-6.29.27-.35.02-.67,0-.95-.28-.37-.36-.83-.28-1.28-.17-1.36.31-2.72.62-4.06.97-.57.15-1.04,0-1.62-.38,1.12-.63,2.14-1.22,3.17-1.78.16-.09.37-.11.56-.12,2.42-.1,4.84-.19,7.26-.26M12.91,9.22c0-.81.03-.84.82-.84,1.8,0,3.61,0,5.41,0,3.18,0,6.35,0,9.53,0,1.44,0,1.89-.45,1.89-1.89,0-1.48.02-2.96,0-4.44,0-.55.15-.76.73-.76,11.05.01,22.11.01,33.16,0,.57,0,.74.21.73.76-.03,1.48,0,2.96,0,4.44,0,1.49.41,1.89,1.92,1.89,4.87,0,9.74,0,14.62,0,.21,0,.43,0,.64,0,.32,0,.46.17.46.48,0,.62,0,1.24,0,1.87,0,.32-.16.47-.46.49-.41.03-.81.08-1.22.09-1.37.05-2.74.1-4.11.14-.33.01-.63.13-.91.29-.69.4-1.38.78-2.06,1.19-.4.24-.81.35-1.28.34-1.05-.02-2.1-.03-3.16-.02-.81,0-1.07.27-1.1,1.08,0,.13-.02.26,0,.39.08.64-.25.76-.81.7-1.05-.1-2.09-.18-3.14-.22-.93-.04-1.29.33-1.31,1.26,0,.32,0,.64.02.97.02.28.09.61.37.71.73.28.98.93,1.27,1.54.26.55.67.85,1.24,1.02,3.53,1.01,7.05,2.04,10.57,3.07.14.04.3.13.43.11.79-.15.95.35,1.11.96.28,1.12.63,2.23.94,3.35.12.44.36.74.8.83,1.08.2,2.1.79,3.26.53.11-.03.26.03.37.09.93.49,1.85,1,2.78,1.5.27.15.39.36.39.68,0,3.33,0,6.66-.01,9.98,0,.04-.02.08-.05.17-.27-.12-.4-.38-.56-.58-4.56-5.72-9.13-11.44-13.68-17.17-.49-.62-1.08-.88-1.85-.8-.62.07-1.24.11-1.86.17-.59.05-1.02.37-1.46.74-2,1.7-3.43,3.83-4.65,6.11-.43.8-.96,1.07-1.85,1.02-1.78-.1-3.56-.09-5.34-.15-.71-.02-1.32.17-1.79.7-.42.48-.89.55-1.44.27-.15-.08-.33-.11-.48-.2-1.42-.81-2.95-.55-4.46-.45-.39.03-.74.2-1.06.43-.53.37-1.07.72-1.6,1.08-.42.29-.75.28-1.11-.13-1.05-1.21-2.74-1.1-3.68.21-.65.91-1.31,1.81-1.97,2.7-.5.67-.75.71-1.43.2-2.69-2.07-5.37-4.15-8.05-6.22-.8-.62-1.6-1.23-2.39-1.85-.57-.44-1.16-.49-1.87-.36-1.86.32-3.1,1.35-4.2,2.86-2.91,4.02-5.96,7.93-8.96,11.87-.12.16-.19.39-.44.44-.16-.19-.09-.42-.09-.62,0-3.37,0-6.74-.01-10.11,0-.56.12-.95.68-1.16.24-.09.47-.22.67-.38,1.33-1.11,3.01-1,4.57-1.28,1.16-.21,1.77-.73,2-1.89.21-1.05.58-2.07.86-3.1.09-.34.19-.55.61-.43.3.09.59-.05.88-.13,3.38-.98,6.75-2,10.14-2.94.85-.24,1.4-.66,1.74-1.45.2-.47.42-.93.98-1.13.32-.12.46-.43.47-.79,0-.3,0-.6,0-.9,0-1.05-.34-1.39-1.41-1.34-.98.04-1.97.12-2.95.2-.71.06-.79,0-.81-.69-.03-1.24-.27-1.48-1.48-1.47-.6,0-1.21-.03-1.8.02-1.13.1-2.18-.07-3.08-.8-1.35-1.09-2.98-1.07-4.58-1.13-1.46-.06-2.91-.12-4.37-.14-.51,0-.69-.21-.66-.7.03-.43,0-.86,0-1.29M60.51,40.11c-.86-.56-1.77-.96-2.81-1-2.52-.08-4.67-1.22-6.71-2.54-1.21-.79-2.48-.83-3.82-.77-.27.01-.48.16-.7.3-.78.5-1.59.94-2.33,1.5-2.3,1.74-4.95,2.71-7.62,3.67-.2.07-.41.14-.6.23-2.17,1.04-4.44,1.37-6.86,1.32-5.3-.11-10.6-.03-15.91-.04-.24,0-.58.14-.7-.13-.1-.21.18-.41.32-.59,3.03-4,6.08-8,9.09-12.02.4-.54.96-.65,1.51-.89,1.12-.49,1.98-.26,2.9.54,1.43,1.23,2.96,2.34,4.45,3.5.11.09.27.14.31.44h-.74c-1.57,0-3.13,0-4.7,0-.44,0-.61.19-.6.62,0,.43.2.56.6.56,1.78,0,3.57.07,5.34-.03,1.33-.07,2.43.21,3.38,1.15.5.49,1.11.88,1.67,1.31,1,.74,1.93.63,2.69-.36.73-.95,1.42-1.94,2.13-2.91.59-.8,1.3-.81,1.95-.05.6.69,1.47.86,2.26.4.5-.29.98-.63,1.45-.96,1.28-.9,2.69-.72,4.08-.46.54.1,1.04.39,1.57.58.76.29,1.5.28,2.08-.34.56-.6,1.22-.72,1.98-.64,1.82.19,3.65.1,5.47.12.4,0,.75.08,1.11.25,3.84,1.82,7.68,3.63,11.52,5.45.4.19.69.27.93-.23.26-.53-.05-.66-.43-.84-3.63-1.71-7.25-3.45-10.88-5.15-.57-.27-.6-.5-.26-.99.49-.7.95-1.43,1.34-2.2.81-1.57,2.14-2.67,3.37-3.86.54-.52,1.31-.27,1.97-.42.66-.14,1.11.12,1.53.66,2.01,2.57,4.06,5.11,6.08,7.67.14.17.43.34.3.58-.1.18-.4.08-.61.08-1.2,0-2.4,0-3.61,0-.42,0-.71.09-.72.6-.01.52.28.59.7.59,1.61,0,3.22,0,4.83,0,.4,0,.68.13.93.45,1.82,2.31,3.66,4.6,5.49,6.91.12.15.35.28.27.48-.1.25-.38.12-.58.15-.08.01-.17,0-.26,0-6.33,0-12.66,0-19,.01-.61,0-1.12-.15-1.63-.47-1.18-.75-2.39-1.45-3.56-2.2M62.23,42.74h-25.9s-.02-.07-.03-.11c.69-.26,1.37-.56,2.07-.78,2.45-.75,4.64-2,6.73-3.45.4-.28.84-.52,1.24-.81,1.24-.88,2.48-.87,3.78-.12,1.21.7,2.44,1.35,3.66,2.02.97.53,2.07.61,3.12.66,2.17.12,3.67,1.5,5.34,2.58M8.49,25.97c1.77-1.06,3.54-2.1,5.31-3.16.85-.5,1.69-1.01,2.55-1.51.21-.12.43-.35.67-.03.2.28.43.53.12.91-1.17,1.42-2.33,2.86-3.5,4.29-.05.07-.12.14-.19.17-1.16.46-2.38.7-3.47,1.04-.34-.01-1.79-1.05-1.85-1.26-.08-.31.2-.35.36-.45M7.75,24.59c-.1-.22.13-.29.27-.37,2.56-1.52,5.11-3.04,7.67-4.55.14-.08.3-.24.46-.08.1.09.14.25.18.34-.01.29-.2.38-.36.48-2.43,1.44-4.86,2.88-7.29,4.31-.13.08-.27.15-.41.17-.24.04-.43-.1-.52-.3M17.93,16.89c.87.56,1.82.74,2.83.6.36-.05.71-.16,1.07-.21.85-.11,1.49-.42,1.52-1.41,0-.06.02-.15.06-.18.62-.37,1.08-.99,1.65-1.31.68-.39,1.63-.26,2.46-.16.47.05.31.49.33.79.02.31-.08.54-.45.56-.47.03-.94.09-1.41.13-.31.02-.48.15-.46.48.02.32.19.47.5.45.81-.05,1.62-.12,2.44-.17,1.33-.08,2.65-.15,3.98-.22.34-.02.65-.01.67.47.02.44-.06.73-.58.81-2.52.41-5.03.85-7.54,1.28-.3.05-.63.06-.6.5.03.46.26.56.7.48,1.96-.35,3.93-.68,5.9-1,.24-.04.58-.23.68.06.1.27-.14.57-.38.76-.14.12-.35.16-.53.21-3.33.98-6.67,1.93-10,2.93-.64.19-1.08.07-1.55-.39-1.67-1.64-2.29-2.92-2.31-4.96.03-.32-.17-.88.11-1.04.32-.18.61.34.92.54M17.39,14.81c.08-.17.22-.19.38-.15,1.4.33,2.79.66,4.19.99.15.04.29.12.3.3.02.23-.16.28-.33.32-.61.13-1.22.24-1.7.33-1.23-.05-2.06-.61-2.75-1.43-.09-.1-.14-.22-.07-.35M18.46,23.48c-.29,1.01-.57,2.02-.86,3.03-.48,1.7-.65,1.85-2.43,2.06-.04,0-.09.01-.13.02-.21.02-.39-.04-.45-.27-.13-.48-.45-.94-.02-1.45.92-1.1,1.81-2.23,2.72-3.34.12-.15.23-.31.36-.45.15-.17.27-.43.57-.25.25.15.33.37.25.66M7.46,10.22c.95.4,1.93.72,2.85,1.19,1.29.66,2.65.78,4.05.83,1.84.06,3.68.11,5.52.15.38,0,.71.1,1.03.29.75.45,1.53.87,2.29,1.31.14.08.37.13.36.32,0,.24-.26.24-.42.34-.28.17-.56.14-.87.06-1.35-.33-2.71-.64-4.07-.96-.23-.05-.46-.09-.71-.14-.16.03-.38,0-.48.11-.77.75-1.7.42-2.57.4-1.58-.02-3.16-.15-4.75-.23-.98-.05-2.17-1.02-2.41-1.98-.11-.44-.2-.88-.31-1.31-.13-.49.03-.58.48-.39M2.74,10.26l.16-.08c1.08.91,2.18,1.8,3.24,2.72.75.65,1.58,1.19,2.42,1.7.65.4,1.42.29,2.14.33,1.54.09,3.09.1,4.63.18.76.04.83.19.68.93-.08.38-.28.39-.6.37-2.72-.16-5.44-.31-8.16-.46-.9-.05-1.8-.11-2.7-.16-.49-.03-.75-.25-.85-.77-.29-1.6-.64-3.18-.97-4.77M1.18,18.71c-.18-.09,0-.22.09-.29.71-.52,1.41-1.04,2.14-1.53.36-.24.79-.1,1.24-.13,3.53.21,7.09.43,10.66.64.27.02.52.04.54.4.03.37-.19.49-.5.53-1.49.18-2.97.36-4.46.54-2.44.29-4.89.58-7.34.85-.96.1-1.6-.63-2.37-1M2.19,26.37c.51-1.24,1.15-2.45,1.5-3.74.46-1.65,1.38-2.27,3.09-2.34,2.36-.1,4.71-.52,7.11-.69-3.86,2.29-7.71,4.58-11.57,6.86-.04-.03-.09-.06-.13-.09M4.15,133.12c-.01.76-.55,1.28-1.32,1.26-.73-.02-1.27-.61-1.24-1.35.03-.73.55-1.22,1.3-1.21.77,0,1.28.54,1.27,1.31M4.15,102.18c0,.77-.52,1.28-1.29,1.28-.74,0-1.27-.51-1.28-1.23,0-.74.54-1.32,1.27-1.33.76-.01,1.29.51,1.3,1.28M4.15,71.36c0,.74-.5,1.28-1.22,1.29-.77.01-1.35-.56-1.34-1.32,0-.72.53-1.24,1.26-1.24.77,0,1.29.51,1.3,1.27M4.15,40.44c0,.74-.57,1.29-1.31,1.28-.73-.02-1.27-.6-1.25-1.35.02-.68.6-1.25,1.29-1.26.71,0,1.27.59,1.27,1.33M4.19,33.67c-.65.35-.67.34-.68-.44,0-.49,0-.99,0-1.48-.49-1.72.36-2.66,1.86-3.25.22-.09.4-.25.61-.36.26-.14.32-.31.16-.57-.15-.24-.31-.41-.62-.23-.52.3-1.04.6-1.55.91-.29.17-.41.11-.45-.23-.07-.7-.03-1.27.76-1.61.7-.3,1.34-.76,2-1.16.25-.15.45-.2.7,0,.27.21.22.4.1.67-.22.48-.04.88.33,1.21.29.26.59.5.9.72.35.25.33.45-.03.66-.58.33-1.14.68-1.72,1-.29.16-.42.31-.21.65.19.32.4.34.68.16.07-.05.15-.08.22-.13,1.68-1.23,3.61-1.84,5.6-2.32.27-.06.54-.21.68.21.12.36-.02.54-.34.71-3,1.62-5.99,3.25-8.99,4.88M86.83,121.07c0,6.05-4.08,10.69-10.08,11.52-2.6.36-5.21.48-7.82.64-5.08.31-10.15.67-15.03,2.29-1.53.51-3.03,1.1-4.45,1.86-.58.32-1.1.33-1.7.01-4.12-2.17-8.56-3.25-13.16-3.8-3.54-.43-7.09-.58-10.64-.78-1.82-.1-3.64-.24-5.44-.52-4.25-.66-7.62-4.2-8.07-8.46-.07-.66-.1-1.33-.1-1.99,0-23.04-.02-46.08.02-69.11,0-2.4.08-4.8.11-7.2,0-.89.71-1.55,1.6-1.55,6.87,0,13.74.02,20.6.02,17.41,0,34.81-.01,52.22-.02.13,0,.26,0,.39,0,1.17.02,1.53.38,1.53,1.55,0,12.71,0,25.42,0,38.13h0c0,12.47,0,24.95,0,37.42M91.43,28.24c.63.37,1.25.76,1.89,1.1.43.23.61.53.59,1.03-.03,1.05-.02,2.1,0,3.16,0,.48-.13.57-.55.34-2.57-1.41-5.16-2.82-7.74-4.23-.47-.26-.94-.52-1.41-.77-.36-.19-.5-.44-.33-.84.18-.42.47-.18.71-.13,1.89.43,3.7,1.09,5.3,2.22.14.1.3.16.45.25.27.16.43.03.57-.2.15-.25.14-.44-.12-.59-.59-.35-1.18-.7-1.78-1.04-.33-.19-.39-.36-.05-.61.34-.26.67-.53,1-.81.4-.34.58-.76.3-1.25-.14-.26-.07-.43.13-.61.22-.2.41-.16.64-.02.81.49,1.61.99,2.44,1.45.45.25.46.63.42,1.14-.04.15.15.48-.12.62-.22.11-.42-.15-.62-.26-.43-.24-.86-.48-1.28-.74-.3-.18-.51-.25-.74.12-.24.41.04.54.29.69M95.83,133.09c0,.73-.58,1.28-1.33,1.28-.69,0-1.26-.57-1.28-1.27-.02-.71.57-1.29,1.31-1.3.75,0,1.3.54,1.3,1.29M95.83,102.21c-.01.75-.56,1.26-1.33,1.26-.7,0-1.27-.57-1.28-1.25,0-.71.59-1.32,1.3-1.31.71,0,1.32.62,1.31,1.31M95.83,71.41c-.02.7-.58,1.23-1.3,1.24-.72,0-1.31-.59-1.31-1.3,0-.71.6-1.27,1.34-1.26.74,0,1.29.58,1.26,1.32M95.83,40.42c0,.68-.58,1.28-1.26,1.3-.73.02-1.34-.55-1.35-1.27-.01-.68.61-1.33,1.3-1.34.71-.01,1.3.58,1.31,1.31M95.16,26.34s-.08.09-.12.13c-3.84-2.28-7.69-4.56-11.53-6.83.02-.04.03-.08.05-.13,1.91.22,3.81.44,5.72.66.96.11,1.91.23,2.87.34.33.04.64.08.79.44.74,1.8,1.48,3.59,2.23,5.39M92.68,19.63c-3.39-.51-6.8-.83-10.21-1.23-.17-.02-.34-.06-.51-.08-.31-.03-.54-.13-.51-.51.03-.41.32-.39.6-.41,3.04-.17,6.07-.35,9.11-.52.53-.03,1.06-.17,1.63-.09.72-.18,1.3.11,1.86.58.41.35.86.65,1.3.95.3.21.4.36,0,.58-1.02.57-2,.93-3.26.74" fill="#fff"/>
      <path d="M84.26,49.87c-.08-1.41-1.34-2.27-2.39-1.99-.28.08-.6.03-.9.03-11.05-.07-22.1.05-33.15-.09-10.82-.13-21.63-.03-32.45-.03-.15,0-.3,0-.45.01-.99.1-1.76.82-1.91,1.81-.06.4-.09.81-.09,1.22,0,2.15,0,4.29,0,6.44,0,20.59,0,41.18,0,61.77,0,1.87.32,3.68,1.26,5.33,1.97,3.48,5.1,4.97,8.97,5.26,3.29.24,6.6.29,9.89.48,5.06.29,9.98,1.07,14.52,3.49.69.37,1.4.35,2.1,0,.52-.26,1.04-.51,1.57-.75,4.13-1.85,8.54-2.33,12.99-2.57,3.12-.17,6.25-.21,9.37-.52,6.29-.63,10.68-5.42,10.68-11.74,0-11.19,0-22.37,0-33.56,0-11.27,0-22.54,0-33.81,0-.26,0-.52,0-.77M73.97,128.46c-2.54.3-5.09.39-7.63.49-4.29.17-8.57.42-12.72,1.69-1.44.44-2.84.98-4.17,1.69-.58.31-1.11.29-1.7-.02-3.09-1.58-6.38-2.49-9.81-2.96-3.13-.43-6.27-.56-9.42-.68-2.46-.09-4.94-.09-7.37-.58-4.06-.81-6.94-4.3-6.94-8.43,0-11.49,0-22.97,0-34.46v-34.46c0-.26,0-.52,0-.77.03-.56.31-.88.89-.89.24,0,.47,0,.71,0,10.62,0,21.25.09,31.87-.03,11.05-.12,22.1-.01,33.15-.08.24,0,.47,0,.71,0,1.16.03,1.44.31,1.44,1.45,0,22.61-.04,45.22.03,67.82.01,4.83-3.59,9.55-9.04,10.2" fill="#fff"/>
      <path d="M34.91,11.11c-.1.16-.18.34-.25.52-.72,1.75-.08,3,1.75,3.44.13.03.25.07.38.08.56.06.61.3.36.77-.68,1.28-.74,2.58-.09,3.89.14.28.13.5-.03.78-.48.85-.42,1.69.23,2.37.39.4.66.79.78,1.34.14.64.62,1,1.28.94.52-.04.94,0,1.26.48.14.2.44.31.7.28.61-.07,1.17-.05,1.64.44.17.18.5.16.74.1.47-.11.85.16,1.25.23,1.12.19,2.26.41,3.42.33.18-.01.35-.13.56-.05.55.24,1.09.18,1.61-.1.18-.1.35-.14.56-.08.64.21,1.23.12,1.75-.32.12-.1.27-.12.43-.08,1.22.34,2.15-.87,3.36-.63.08.02.23-.12.3-.22.23-.35.51-.5.87-.37.98.03,1.46-.29,1.61-1.17.07-.42.26-.69.56-.96.83-.77.94-1.64.35-2.59-.15-.24-.13-.41-.01-.64.64-1.3.61-2.61,0-3.91q-.34-.71.44-.87c.13-.03.25-.04.38-.07,1.95-.43,2.12-1.82,1.63-3.36-.05-.16-.13-.32-.22-.46-.5-.76-.34-1.39.23-2.09,1.09-1.34.59-2.56-1.12-2.88-.25-.05-.51-.06-.77-.07-.22-.01-.41-.07-.58-.22-1.67-1.48-2.71-1.57-4.62-.39-.27.17-.42.16-.65-.08-1.02-1.05-2.34-1.08-3.34-.06-.24.24-.35.27-.62.04-1.55-1.29-3.08-1.3-4.66-.04-.26.21-.4.27-.67,0-1.01-1.01-2.25-1.02-3.23,0-.32.33-.48.37-.86.07-1.18-.94-2.85-.98-3.92-.02-.55.49-1.1.69-1.81.78-1.89.25-2.38,1.53-1.17,2.98.51.61.64,1.19.21,1.87M50.08,16.38c.3.27.61.53.92.81.09.08.2.19.16.33-.05.15-.21.14-.33.14-1.44,0-2.87,0-4.31,0-.12,0-.28.03-.34-.12-.07-.17.07-.28.18-.38.35-.32.72-.61,1.05-.94.58-.57.65-.99.32-1.68-.32-.65-.93-1.06-1.59-.98-.42.05-.86.13-1.25.29-.64.27-1.15.13-1.64-.35,3.62-1.17,7.2-1.16,10.84,0-.39.38-.77.64-1.34.44-.4-.14-.82-.25-1.24-.34-.83-.17-1.51.17-1.87.89-.35.71-.22,1.29.44,1.89M43.48,14.7c.31.22.6.26.96.17.54-.14,1.05-.39,1.61-.43.39-.03.73.06.91.45.18.39-.04.66-.31.89-.61.51-1.22,1.01-1.6,1.74-.14.27-.47.3-.74.29-.29-.02-.23-.32-.28-.51-.45-1.62-1.98-2.53-3.51-2.08-1.48.44-2.26,2.13-1.72,3.71.09.26.37.55-.14.71-.41.13-.74.16-.92-.35-.17-.45-.27-.9-.24-1.39.03-1.63.91-2.73,2.27-3.46,1.26-.67,2.52-.58,3.7.25M42.46,18.72c-.44.22-.89.42-1.32.66-.54.3-.94.13-1.29-.3-.51-.64-.5-1.35-.18-2.06.31-.68.83-1.07,1.62-1.04.77-.06,1.3.35,1.69.96.45.7.23,1.4-.52,1.78M41.51,25.11c-.52.02-.61-.35-.64-.76-.05-.64.47-.62.86-.7.44-.09.38.27.41.53-.03.44,0,.91-.62.93M44.18,25.1c0,.39-.21.6-.58.62-.35.03-.6-.17-.62-.51-.04-.62-.08-1.25,0-1.85.07-.49.6-.62.99-.81.19-.09.21.16.21.3,0,.38,0,.77,0,1.15,0,.36,0,.73,0,1.09M46.26,24.01c0,.49,0,.99,0,1.48,0,.37-.15.63-.56.64-.41,0-.66-.2-.67-.61-.02-1.01-.02-2.01,0-3.02,0-.47.38-.43.71-.44.34-.01.53.12.53.48,0,.49,0,.98,0,1.48M48.2,25.73c0,.32-.06.63-.47.62-.35,0-.56-.22-.56-.57,0-1.09,0-2.18,0-3.28,0-.32.18-.45.49-.45.33,0,.54.1.54.47,0,.58,0,1.16,0,1.73h0c0,.49,0,.98,0,1.48M50.24,25.67c0,.44-.2.7-.64.7-.44,0-.49-.33-.49-.68,0-.51,0-1.03,0-1.54,0-.51.01-1.03,0-1.54-.01-.43.19-.56.59-.56.38,0,.55.14.54.53,0,1.03,0,2.06,0,3.09M52.3,25.52c0,.42-.24.63-.65.62-.39,0-.58-.23-.59-.61-.01-.51,0-1.03,0-1.54h0c0-.47,0-.94,0-1.41-.01-.39.18-.53.55-.52.37,0,.71.03.71.52,0,.98,0,1.97,0,2.95M54.38,23.9c-.03.12,0,.26,0,.38h-.02c0,.32.02.64,0,.96-.03.32-.23.5-.56.49-.32,0-.54-.18-.55-.51-.02-.79-.02-1.58-.02-2.37,0-.33.18-.33.42-.19.48.27.92.57.74,1.24M55.88,25.12c-.6,0-.6-.41-.6-.88.05-.2-.13-.65.37-.57.35.06.9-.01.86.6-.03.39-.05.84-.64.85M59.57,22.27c-.36.52-.88.74-1.49.77-1.32.08-2.57-.15-3.68-.9-1-.67-2.07-.96-3.28-.92-1.69.06-3.39.04-5.08,0-1.07-.02-2.04.21-2.92.82-1.14.78-2.41,1.09-3.78,1-.6-.04-1.14-.22-1.52-.72-.47-.62-.33-1.23.35-1.61.45-.26.95-.23,1.54-.23.81.07,1.66-.16,2.42-.64,1.7-1.07,3.52-1.45,5.52-1.31,1.41.1,2.83,0,4.25,0,.37,0,.72.07,1.06.22.62.29,1.26.55,1.86.89,1.07.61,2.18.98,3.43.86.35-.04.68.07.98.25.6.35.74.96.34,1.54M54.13,17.84c-.03-1.03.86-1.88,1.95-1.86.81.01,1.37.37,1.63,1.11.26.75.23,1.48-.33,2.11-.29.32-.63.43-1.04.24-.6-.29-1.19-.58-1.79-.87-.31-.15-.42-.4-.43-.73M59.55,19.42c-.13.28-.3.36-.61.29-.48-.1-.62-.23-.41-.77.6-1.49-.21-3.29-1.59-3.71-1.66-.49-3.24.45-3.6,2.15-.04.19-.03.43-.29.43-.28,0-.6-.03-.75-.3-.42-.75-1.05-1.29-1.7-1.82-.23-.19-.38-.42-.25-.73.13-.33.35-.53.73-.53.59,0,1.14.21,1.68.39.41.13.77.13,1.15-.14,1.23-.88,2.53-.88,3.82-.17,1.37.74,2.09,1.93,2.18,3.34,0,.65-.14,1.12-.35,1.58M60.96,7.77c0-.22-.22-.56.17-.65.41-.09.81,0,1.13.32.22.23.28.49.11.76-.2.31-.42.6-.64.89-.48.65-.54,1.33-.18,2.05.29.58.58,1.15.56,1.82-.02.55-.26.96-.8,1.11-.58.16-1.17.28-1.75.41-.18.04-.35-.02-.48-.13-1.4-1.11-3.14-1.32-4.79-1.74-1.05-.27-2.12-.48-3.31-.75.81-.54,1.49-1.01,1.92-1.77.21-.37.34-.04.44.12,1.01,1.7,3.55,2.24,5.45,1.38,1.46-.66,2.24-2.04,2.19-3.83M53.94,9.26c2.16,1.82,4.09,1.47,5.89-.58-.02,1.23-1.02,2.16-2.41,2.36-1.56.23-3.03-.49-3.48-1.78M55.61,7.13c.27-.78,1.23-1.43,2.11-1.44.89,0,1.78.57,2.12,1.41.07.18.27.42-.02.56-.27.13-.41-.09-.52-.33-.48-.96-1.19-1.3-2.06-1.03-.53.16-.9.5-1.05,1.03-.08.27-.22.44-.5.34-.3-.11-.14-.36-.08-.55M58.33,8.68c-.66,1.08-2.41,1.11-3.49,0h3.49ZM52.53,5.87c.48-.33,1.03-.32,1.52,0,.49.33.61.86.55,1.43-.03.28-.22.41-.49.41-.28,0-.56,0-.84,0h0c-.09,0-.17.02-.26,0-.37-.05-.88.18-1-.42-.12-.57.04-1.09.52-1.42M46.39,7.06c.28-.89,1.31-1.62,2.26-1.63,1.05,0,2.03.7,2.33,1.69.05.18.23.43-.07.55-.3.11-.47-.05-.56-.35-.23-.74-.7-1.21-1.51-1.28-.9-.07-1.5.33-1.78,1.22-.09.28-.18.5-.51.42-.39-.1-.23-.39-.16-.63M50.65,8.53c-.88,1.12-3.06,1.17-3.68.16,1.2-.26,2.41-.15,3.68-.16M45.66,8.91c1.67,1.88,4.23,1.93,5.96.14.18-.19.34-.66.67-.41.24.18,0,.56-.13.82-.54,1.19-1.8,1.88-3.85,1.88-1.03-.03-2.3-.46-3.04-1.87-.09-.17-.15-.36-.21-.54-.04-.12-.07-.26.08-.34.11-.05.21,0,.29.08.08.07.15.16.22.24M42.87,6.44c.28-.66,1.03-.96,1.71-.69.61.24.95,1.01.75,1.66-.07.23-.22.3-.43.3-.3,0-.6,0-.89,0h0c-.11,0-.21,0-.32,0-.92,0-1.19-.42-.82-1.28M43.33,9.32c-.32,1.19-1.77,1.91-3.29,1.73-1.37-.17-2.55-1.1-2.47-2.37,1.77,1.93,3.66,2.16,5.75.64M42.06,8.53c.13,0,.28,0,.32.15.04.15-.09.22-.19.3-.89.67-2.48.51-3.32-.45,1.15,0,2.17,0,3.19,0M37.47,7.2c.24-.8,1.3-1.52,2.2-1.49.93.03,1.88.72,2.1,1.53.02.06.03.12.05.19-.02.28-.2.31-.4.23-.09-.03-.15-.14-.2-.23-1-1.65-2.27-1.65-3.2,0-.11.2-.24.31-.46.21-.21-.09-.14-.28-.09-.45M35.06,7.48c.25-.35.65-.39,1.04-.38.28,0,.33.18.33.44,0,1.7.38,3.24,2.08,4.02,1.69.77,3.34.63,4.84-.53.33-.26.56-.59.78-.94.11-.17.26-.28.38-.04.4.77,1.07,1.26,1.94,1.81-1.24.28-2.28.49-3.31.74-1.7.41-3.46.67-4.91,1.8-.17.13-.36.12-.55.07-.46-.11-.92-.19-1.38-.31-.88-.23-1.18-.73-1.01-1.63.09-.47.27-.91.5-1.32.44-.79.36-1.52-.21-2.2-.14-.17-.26-.34-.39-.51-.23-.31-.38-.65-.13-1.01" fill="#fff"/>
      <path d="M76.98,90.17c-5.39,0-10.78,0-16.16,0-.21,0-.43,0-.64,0-.31,0-.46-.16-.5-.47-.13-.94-.16-1.88-.15-2.83,0-.33.13-.52.47-.57,1.58-.24,2.41-1.67,1.43-3.39-.98-1.71-2.03-3.39-3.03-5.09-.19-.33-.4-.39-.74-.24-.65.29-1.33.5-2.02.65-1.99.45-3.87.28-5.59-.94-.56-.39-.82-.83-.81-1.54.03-5,.02-10.01.02-15.01,0-.21,0-.43,0-.64,0-.29-.15-.42-.43-.45-.56-.06-.73.12-.73.83,0,4.81-.07,9.62.04,14.43.03,1.46-.62,2.22-1.76,2.81-.52.27-1.05.49-1.62.61-1.8.37-3.5-.03-5.15-.69-.38-.15-.66-.21-.91.23-.99,1.71-2.05,3.38-3.01,5.1-.89,1.6-.32,2.87,1.44,3.31.39.1.51.28.52.66.03.78-.09,1.54-.15,2.31-.07.89-.13.92-1.02.92-5.26,0-10.52,0-15.78,0-.21,0-.43,0-.64,0-.29,0-.42.15-.45.43-.06.59.08.73.81.73,5.26,0,10.52,0,15.78,0,.94,0,.94,0,.7.94-.27,1.08-.67,2.13-.88,3.23-.66,3.46.76,6.09,4,7.44,1.24.51,2.52.83,3.84,1.03.64.1,1.27.18,1.91.27.89.13,1.51.7,2.1,1.29.39.39.19.95.2,1.42.02,2.73,0,5.45,0,8.18,0,2.96,0,5.93,0,8.89,0,.33-.06.71.44.79.56.09.73-.08.73-.79,0-5.82,0-11.64,0-17.46,0-1.17.54-1.89,1.68-2.22.21-.06.42-.11.63-.14,1.38-.2,2.77-.35,4.11-.76,1.73-.53,3.35-1.28,4.46-2.77,1.4-1.88,1.3-3.97.76-6.1-.19-.73-.43-1.44-.63-2.16-.29-1.08-.28-1.09.81-1.09,5.17,0,10.35,0,15.52,0,.21,0,.43,0,.64,0,.45,0,.6-.24.59-.65-.01-.62-.46-.51-.83-.51M58.18,100.96c-1.1.83-2.37,1.29-3.7,1.57-1.03.21-2.07.36-3.11.51-.92.13-1.73.48-2.4,1.13-.29.28-.54.31-.83.02-.88-.9-2.02-1.14-3.22-1.27-1.84-.2-3.64-.58-5.29-1.5-.28-.16-.54-.34-.8-.53-.11-.08-.31-.15-.24-.33.06-.15.25-.15.4-.17,3.28-.34,6.53-1.04,9.82-.75,3.14-.25,6.18.3,9.24.72.16.02.4-.04.45.16.05.22-.17.32-.32.43M40.6,95.59c0-.84.01-1.67,0-2.51,0-.46.23-.58.64-.59.43,0,.63.14.63.6-.01,1.54,0,3.09-.01,4.63,0,.41-.64.9-1.03.83-.29-.05-.22-.28-.22-.46,0-.84,0-1.67,0-2.51M45.75,97.34c.01.47-.13.69-.65.7-2.06.05-2.06.06-2.06-1.99,0-1.33.02-2.66,0-3.99-.01-.57.24-.84.76-.91.25-.04.51-.05.77-.05,1,.03,1.19.23,1.19,1.22,0,.77,0,1.54,0,2.32,0,.9-.02,1.8,0,2.7M50.39,97.76h-.11c0-.83,0-1.68,0-2.51-.01-.98-.72-1.71-1.62-1.71-.88,0-1.55.72-1.58,1.68-.02.6-.03,2.54-.03,2.54h-.11c0-2.14,0-4.28,0-6.42,0-.35.16-.51.51-.51.77,0,1.54.01,2.32,0,.48-.01.64.2.63.66-.01,2.08,0,4.2,0,6.28M49.21,97.14c0,.34-.13.51-.49.51-.34,0-.52-.13-.52-.48,0-.64,0-1.28,0-1.92,0-.28.11-.51.44-.52.33,0,.53.18.55.5l.02,1.92ZM54.36,94.69c0,.92,0,1.84,0,2.76,0,.41-.15.59-.57.58-.58-.02-1.16,0-1.73,0-.35,0-.51-.15-.51-.5,0-1.88,0-3.77,0-5.65,0-.06,0-.13.02-.19.13-.46.88-.71,1.82-.57.5.07.97.2.96.88-.02.9,0,1.8,0,2.7M56.8,97.81c0,.24.16.61-.27.68-.41.07-.96-.34-.97-.73-.02-.81,0-1.63-.01-2.45,0-.73.02-1.46,0-2.19-.01-.48.2-.64.66-.64.44,0,.62.18.61.62-.02.81,0,1.63,0,2.44,0,.75.01,1.5,0,2.25M59.87,98.64c-.17.72-.58.75-1.18.68-.6-.08-.84-.3-.82-.94.04-2.08,0-4.16.03-6.25,0-.62-.21-.86-.82-.8-.28.03-.56,0-.84,0-.34.01-.54-.11-.79-.39-.85-.93-1.97-1.16-3.18-.96-.31.05-.6.22-.81-.21-.08-.17-.35-.12-.54-.12-1.5,0-3,0-4.51,0-.13,0-.33-.03-.37.04-.42.58-.96.22-1.45.23-1.07.03-2.1.18-2.74,1.2-.13.2-.32.2-.51.2-.41,0-.82.02-1.22,0-.5-.03-.69.17-.69.67.02,1.09,0,2.19,0,3.28h0c0,1.09-.02,2.19,0,3.28,0,.49-.21.68-.67.74-1.3.17-1.4.07-1.65-1.24-.25-1.32.05-2.56.43-3.8.75-2.47,1.34-4.97,1.25-7.58,0-.15,0-.3-.02-.45q-.11-1.08-1.19-1.11c-1-.03-1.41-.66-.91-1.56.82-1.48,1.73-2.91,2.59-4.38.22-.38.5-.22.78-.13,1.53.5,3.08.73,4.69.46,1.28-.22,2.42-.75,3.39-1.6.3-.27.52-.29.82-.03,2.26,1.92,4.84,2.08,7.58,1.33,1.34-.37.96-.55,1.71.67.73,1.19,1.44,2.39,2.13,3.6.21.37.44.77.13,1.2-.3.42-.77.43-1.22.41-.82-.03-.84,0-.93.86-.28,2.97.43,5.79,1.28,8.59.41,1.33.55,2.67.23,4.06" fill="#fff"/>
      <path d="M19.6,69.34c0,.82.06.88.88.88,1.33,0,2.66,0,3.99,0,.17,0,.39-.07.48.09.11.2-.11.34-.21.5-.26.42-.62.17-.93.1-1.57-.33-1.57-.34-1.9,1.24-.34,1.62-.6,1.52,1.21,1.88.44.09.62.3.8.75.37.97.01,1.52-.76,1.99-.15.09-.27.21-.41.31-.23.17-.27.36-.08.6.49.6.97,1.2,1.45,1.81.2.26.4.28.65.07.31-.26.64-.5.95-.77.29-.25.57-.35.91-.07.13.11.29.21.45.23.65.11.77.51.77,1.11-.02,1.52-.17,1.38,1.37,1.38q1.69,0,1.75-1.72c0-.26,0-.49.3-.65,1.26-.69,1.26-.7,2.41.21.12.09.25.17.36.27.25.22.45.17.65-.08.45-.57.91-1.14,1.37-1.71.23-.29.2-.54-.1-.77-.34-.26-.67-.54-1.02-.79-.28-.21-.29-.43-.25-.77.12-.97.58-1.51,1.58-1.55.17,0,.33-.08.5-.12.31-.08.41-.28.34-.58-.17-.71-.33-1.42-.49-2.13-.09-.38-.32-.46-.67-.37-.41.11-.83.21-1.25.29-.5.09-.78-.31-.81-.64-.03-.42.43-.2.65-.21,1.29-.03,2.57-.04,3.86-.02.62.01.84-.23.82-.84-.03-.88,0-1.76,0-2.64,0-1.61,0-3.22,0-4.83,0-.26.03-.68-.43-.43-.67.35-.69,0-.71-.52-.11-2.14-.26-4.28-.37-6.42-.02-.45-.22-.6-.64-.59-.75.01-1.5.03-2.25,0-.55-.02-.74.18-.77.74-.11,2.37-.27,4.75-.43,7.32-.11-1.01-.53-.5-.81-.34-.38.22-.51.19-.53-.28-.11-2.25-.26-4.49-.38-6.74-.02-.48-.18-.71-.69-.69-.47.03-.94,0-1.42,0-1.69.05-1.5-.38-1.64,1.6-.19,2.63-.3,5.26-.44,7.89-.03,0-.06,0-.09.01,0-.28.02-.55,0-.83-.03-.4.2-.94-.14-1.15-.35-.22-.72.24-1.06.43-.69.38-.79.32-.83-.45-.12-2.31-.26-4.62-.38-6.93-.02-.4-.19-.58-.6-.57-.77.01-1.54.02-2.32,0-.51-.02-.71.15-.74.69-.18,3.25-.41,6.5-.6,9.76-.03.52-.19.86-.67,1.05-.52.2-.67.58-.65,1.12.03.97,0,1.93,0,2.9M34.94,71.83c.86-.21.9-.17,1.07.65.09.4-.07.59-.42.62-1.09.08-1.76.53-1.66,1.74,0,.08-.04.17-.06.25q-.35,1.16.63,1.93c.53.42.43,1.17-.18,1.43-.14.06-.25,0-.35-.08-.14-.1-.27-.21-.41-.31-.32-.25-.62-.6-.98-.71-.39-.11-.59.41-.93.58-.35.18-.71.32-1.09.37-.38.05-.51.25-.51.6,0,.32-.02.64,0,.97.03.5-.19.66-.68.7-.53.05-.78-.08-.73-.64.02-.17-.02-.35,0-.51.08-.68-.04-1.16-.9-1.18-.43,0-.82-.28-1.07-.65-.28-.4-.51-.35-.82-.06-.23.22-.5.4-.75.61-.33.27-.59.51-.98,0-.38-.49-.38-.81.15-1.13.07-.04.14-.1.21-.16q.81-.64.44-1.59c-.15-.37-.21-.76-.15-1.14.09-.51-.15-.69-.61-.76-.36-.05-.71-.15-1.07-.24-.54-.14-.36-.53-.29-.89.07-.38.23-.62.65-.45,1.06.44,1.84.27,2.34-.88.31-.72.99-.79,1.79-.61-2.68,1.84-2.26,4.77-.92,6.14,1.61,1.65,4.23,1.52,5.75-.28,1.56-1.85,1.02-4.22-1.37-5.95,1.11-.25,1.55-.05,2.26,1.02q.58.87,1.63.62M29.4,70.81c1.69,0,2.97,1.29,2.95,2.99-.02,1.65-1.31,2.89-2.99,2.87-1.58-.02-2.9-1.33-2.88-2.87.02-1.65,1.32-2.99,2.92-2.99M34.45,62.61c.13-2.4.25-4.79.39-7.19.04-.75.2-.79,1.35-.77.64,0,.64.38.67.84.1,2.03.22,4.07.36,6.1.03.41-.06.69-.45.89-.59.3-1.15.66-1.73.99-.56.31-.6.28-.61-.34,0-.17,0-.34,0-.51h.02M29.02,55.19c.02-.38.21-.51.57-.54,1.26-.09,1.4.03,1.46,1.27.08,1.71.18,3.42.28,5.31.41.89-.26,1.34-1.07,1.73-.44.21-.86.49-1.28.74-.26.15-.45.18-.42-.23.16-2.76.33-5.52.48-8.28M22.32,55.24c.04-.73.55-.56.94-.59.99,0,1.04.06,1.1,1.01.12,2.14.24,4.28.38,6.41.03.44-.09.72-.49.93-.68.35-1.35.75-2.01,1.14-.3.18-.42.12-.4-.24.17-2.89.35-5.77.5-8.66M22.36,65.11c1.27-.53,2.42-1.38,3.62-2.07.67-.39.68-.38.68.37,0,.64.02,1.29,0,1.93-.02.54.16.66.64.39,1.54-.9,3.08-1.79,4.62-2.67.18-.1.36-.34.56-.24.22.11.1.39.11.59.01.6,0,1.2,0,1.8,0,.61.09.66.62.36,1.49-.85,2.98-1.7,4.45-2.57.45-.26.61-.27.6.33-.03,1.71-.02,3.43,0,5.15,0,.53-.17.72-.7.71-1.84-.02-3.69,0-6.45,0-2.64-.09-6.19.19-9.75.13-.84-.01-.75-.03-.87-.87-.25-1.64.3-2.66,1.87-3.32" fill="#fff"/>
      <path d="M42.52,120.27c-1.69-1.29-3.34-2.63-5.02-3.93-.33-.26-.52-.53-.5-.97.04-.75-.18-1.45-.51-2.1-.41-.8-.95-1.46-1.76-1.91-.79-.44-1.51-.99-2.46-1.05-.2-.01-.32-.27-.45-.44-1.19-1.55-2.38-3.1-3.57-4.64-.26-.34-.49-.69-.61-1.12-.11-.4-.33-.79-.72-.95-.99-.41-1.27-1.41-1.79-2.19-.28-.42.31-.56.55-.8.12-.12.23-.12.35.07.35.58.93.66,1.33.11.85-1.18,1.96-2.02,3.31-2.52.17-.06.38-.22.53-.03.12.15-.01.33-.08.48-.32.75-.6,1.52-.75,2.32-.26,1.4-.09,2.73.61,3.99.14.26.31.5.63.47.36-.03.48.19.62.44.68,1.18,1.47,2.28,2.6,3.07,1.47,1.02,2.49,2.34,2.88,4.12.06.29.2.6.58.6.38,0,.57-.26.67-.59.12-.39.21-.79.34-1.27.83,1.19,1.38,2.39,1.74,3.68.07.24.14.47.48.37.31-.09.32-.32.25-.56-.46-1.65-1.21-3.16-2.28-4.51-.18-.22-.41-.32-.69-.22-.28.1-.38.33-.39.61,0,.34,0,.69,0,1.03-.66-1.58-1.64-2.81-3-3.77-1.2-.84-2.06-1.99-2.7-3.31-.19-.4-.37-.78-.93-.73-.23.02-.32-.19-.39-.37-.13-.36-.25-.73-.31-1.11-.26-1.66.38-3.12,1.02-4.58.15-.33.42-.64.11-1-.29-.34-.67-.2-1.02-.11-1.73.47-3.17,1.38-4.27,2.81-.46-.69-.71-.76-1.38-.33-.21.13-.43.28-.61.45-.29.26-.5.24-.7-.11-.21-.35-.46-.67-.69-1.01-.98-1.44-.97-1.44-2.37-.38-.32.24-.34.44-.12.74.54.77,1.05,1.57,1.6,2.34.27.37.31.69.09,1.12-.58,1.12-.81,2.39-.83,3.65-.02,1.6.13,3.17.62,4.79-.45-.04-.81-.13-1.01.26-.19.36.06.61.24.88.91,1.37,1.48,2.84,1.63,4.49.05.54.05,1.07-.02,1.6-.04.28.03.53.37.56.34.03.36-.23.39-.47,0-.06,0-.13.01-.19.14-1.98-.26-3.84-1.24-5.57-.13-.22-.33-.42.13-.55.48-.14.48-.55.33-.95-.65-1.81-.72-3.7-.63-5.59.04-.77.2-1.54.54-2.24.07-.14.17-.49.37-.22.36.49.91.92.9,1.58,0,.6.28.99.71,1.32.2.15.37.32.5.53,1.39,2.15,2.77,4.3,4.16,6.44.18.28.18.63.02.92-.28.53-.36,1.13-.22,1.71.23,1-.21,1.7-.91,2.32-2.15,1.89-4.35,3.71-6.83,5.15-.25.15-.27.5-.03.67.13.09.31.09.45,0,.92-.62,1.8-1.2,2.66-1.79.88-.6,1.75-1.24,2.52-1.98.37-.35.59-.38.81.11.53,1.2,1.31,2.22,2.35,3.02.3.24.37.44.08.73-.13.13-.24.26-.35.41-.07.09-.09.2-.07.3.06.3.44.41.65.18.33-.36.65-.71.97-1.07.07-.08.19-.2.16-.26-.19-.51.18-.75.47-1.01.32-.3.45-.56.04-.88-.23-.18-.2-.39-.09-.63.17-.36.37-.66.75-.85.53-.26.96-.65,1.3-1.13.55-.77.42-.54,1.43.67.98,1.17,1.88,2.4,2.77,3.63.33.45.6.44,1.05.04.69-.6,1.41-1.17,2.2-1.64.84-.5,1.05-.69.46-1.14M25.34,103.71c-.31.12-.35-.28-.52-.36-.45-.2-.72-.66-.9-1.13-.31-.82-.83-1.5-1.31-2.2-.13-.19-.12-.35.08-.5.32-.23.66-.18.73,1.1.07,1.21.98,2.08,2.13,2.5.1.04.11.15.13.23-.03.21-.18.3-.34.36M35.97,114.35c-.08-.1-.2-.18-.23-.29-.21-.78-.88-1.08-1.5-1.38-.44-.21-.57-.5-.62-.92,1.33.36,2.1,1.24,2.35,2.59M28.51,109.27c-.68-1.06-1.37-2.12-2.04-3.18-.1-.16-.34-.35-.11-.56.2-.18.45-.32.63-.44.25.02.32.16.41.28.88,1.15,1.75,2.32,2.64,3.47.28.36.15.54-.2.73-.83.46-.82.48-1.32-.29M29.68,111.09c-.17-.24-.09-.54.18-.67.2-.1.4-.22.59-.33.29-.18.53-.14.71.16.33.57.81.92,1.52.99-.67.3-.93.89-1.24,1.44-.24.42-.42.5-.7.03-.33-.55-.68-1.09-1.05-1.61M31.03,122.21c-1.06-.83-1.75-1.93-2.2-3.19-.08-.23.05-.37.24-.47.19-.09.28.05.35.19.55,1.07,1.31,1.95,2.26,2.69.1.07.15.19.2.26,0,.39-.58.74-.85.52M35.21,115.53c-.41.52-.61,1.1-.74,1.75-.17.87-.74,1.51-1.52,1.88-.46.22-.77.51-.95.97-.05.13-.09.3-.32.3-.08-.07-.18-.14-.27-.23-.43-.43-.77-.92-1.1-1.42-.37-.55-.6-1.06-.04-1.66.29-.32.22-.81.21-1.24,0-.43-.04-.86,0-1.28.02-.26.04-.64.47-.23.29.28.42-.06.5-.26.23-.61.69-1.08.99-1.65.07-.13.14-.3.32-.28.22.02.22.23.26.39.05.21.08.42.11.63.04.21.15.41.37.36,1.05-.23,1.32.65,1.78,1.24.17.22.1.49-.07.72M41.26,121.1c-.53.36-1.07.73-1.57,1.14-.53.43-.61-.17-1.55-1.86-.61-1.09-1.5-1.98-2.48-2.75-.23-.18-.34-.4-.32-.65,0-.32.15-.6.4-.77.29-.19.47.1.66.25,1.62,1.27,3.22,2.56,4.86,3.8.49.37.41.57,0,.86" fill="#fff"/>
      <path d="M48.61,80.45c-2.08.03-3.65,1.62-3.66,3.69,0,2.09,1.63,3.73,3.7,3.72,1.97,0,3.68-1.74,3.67-3.73,0-1.99-1.74-3.71-3.71-3.68M48.6,86.7c-1.4,0-2.54-1.11-2.57-2.52-.03-1.36,1.19-2.59,2.58-2.6,1.38,0,2.53,1.14,2.54,2.55,0,1.46-1.09,2.57-2.55,2.57" fill="#fff"/>
      <path d="M76.86,97.04c-.17-.09-.39-.02-.48.15-1.43,2.72-3.95,5.91-6.16,8.73-.53.67-1.03,1.31-1.49,1.91-1.65.63-3.02,1.94-3.76,3.55,0-.09-.03-.18-.04-.28.09-.62.22-1.26.37-1.96,3.27-.99,2.65-5.3,2.35-7.41-.02-.11-.08-.2-.17-.26-.09-.05-.21-.06-.31-.02l-.04.02c-1.38.55-2.45,1.73-2.95,3.24-.48,1.48-.33,3.04.43,4.29-.04.16-.07.31-.1.46-.71-1.86-2.11-3.46-3.92-4.33-.12-.06-.26-.04-.37.04-.11.08-.16.22-.13.35.48,2.48,1.42,5.77,4.02,6.39-.17,1.63-.12,3.22.19,5.39.03.18.18.3.35.3.02,0,.03,0,.05,0,.19-.03.33-.21.3-.4-.17-1.19-.26-2.21-.27-3.15,0,0,.02,0,.03,0h0c3.57-.01,5.21-4.29,5.74-6.12,0,0,0,0,0-.01.03-.11,0-.23-.07-.31-.08-.09-.2-.14-.32-.13-.08.01-.17.03-.25.04.29-.37.59-.76.91-1.16,2.24-2.84,4.77-6.06,6.23-8.84.09-.17.02-.39-.15-.48M64.85,104.92c.38-1.16,1.16-2.1,2.16-2.63.33,2.58.32,5.15-1.53,6.03.11-.47.24-.97.37-1.5.05-.19-.07-.38-.25-.43-.19-.05-.38.07-.43.26-.11.44-.22.85-.31,1.25-.33-.92-.34-1.97-.01-2.97M60.94,106.12c1.45.92,2.54,2.37,3.05,4.01-.26-.38-.54-.74-.86-1.08-.13-.14-.36-.15-.5-.02-.14.13-.15.36-.02.5.42.45.77.95,1.08,1.48-1.58-.77-2.33-2.96-2.76-4.88M65.65,113.21c.48-.51,1.03-1,1.69-1.39.17-.1.23-.32.13-.48-.1-.17-.31-.23-.48-.13-.66.39-1.21.87-1.7,1.36.55-2.07,2.26-3.8,4.35-4.3-.55,1.65-1.78,4.34-3.99,4.94" fill="#fff"/>
      <path d="M75.31,109.86l-5.64,5.52c-.15-.52-.43-.98-.84-1.38-.14-.14-.36-.13-.5,0-.14.14-.13.36,0,.5.61.6.86,1.38.73,2.27-.28,1.81-2.04,3.74-4.58,5.02-.82.36-1.73.54-2.6.69-.48.08-.95.15-1.41.19-.06-.13-.14-.23-.22-.33-.08-.1-.15-.19-.18-.28-.06-.2-.05-.36.04-.51.33-.54,1.55-.77,1.96-.84.14-.03.3-.06.46-.12.19-.08.35-.19.49-.29.1-.07.2-.14.3-.19.26-.12.56-.2.85-.21.05,0,.14,0,.24-.06.11-.06.17-.15.2-.2.17-.29.46-.5.78-.59.19-.05.3-.24.25-.43-.05-.19-.24-.3-.43-.25-.47.12-.88.42-1.16.83-.35.03-.7.12-1.02.27-.16.07-.29.17-.41.26-.12.08-.23.16-.34.21-.09.04-.21.06-.33.08-.9.17-1.99.45-2.43,1.17-.19.32-.23.69-.12,1.08.05.18.15.32.24.44-.27,0-.53-.03-.79-.09-.13-.03-.26-.07-.36-.12-.12-.05-.16-.1-.16-.12,0,0,0-.03.02-.11.05-.16.17-.29.31-.45.07-.08.13-.16.2-.24.01,0,.01-.02.02-.03,0-.01.02-.02.03-.03,0,0,0-.01,0-.02.03-.04.06-.06.07-.11.19-.72,1.06-1.21,1.91-1.69.63-.35,1.28-.72,1.7-1.21.13-.15.11-.37-.04-.5-.15-.13-.37-.11-.5.04-.34.39-.9.71-1.51,1.05-.81.46-1.64.93-2.05,1.66-.03-.03-.05-.05-.06-.06-.12-.15-.19-.32-.22-.49-.03-.22.03-.4.21-.55.13-.11.29-.21.46-.31.14-.09.28-.17.41-.27l.27-.21c.21-.16.42-.32.64-.47.43-.3.88-.6,1.28-.99.7-.68,1.14-1.6,1.27-2.65.02-.13-.04-.25-.14-.33-.1-.08-.24-.09-.36-.04-.36.16-1.06.3-1.46.29-.11,0-.21.04-.29.13-.07.08-.1.2-.07.3.17.74-.4,1.22-.58,1.35-.34.25-.75.36-1.06.31.03-.12.07-.25.1-.36.61-2.24.89-3.26,3.42-4.14.18-.06.28-.26.22-.45-.06-.18-.26-.28-.45-.22-2.88,1-3.23,2.29-3.87,4.62-.06.21-.12.44-.19.67-.04.15.02.31.16.4.56.34,1.4.24,2.09-.25.59-.43.92-1.03.91-1.67.25-.03.52-.07.77-.14-.17.65-.49,1.21-.95,1.66-.36.34-.78.63-1.19.91-.23.16-.45.32-.67.49l-.27.2c-.12.09-.24.16-.36.24-.18.11-.37.23-.54.37-.37.31-.53.73-.46,1.2.04.28.17.56.35.81,0,0,.1.13.23.26-.16.18-.34.4-.43.69-.06.2-.06.38-.01.53.07.23.26.41.54.54.15.07.32.12.51.16.36.08.73.11,1.1.11.71,0,1.44-.11,2.19-.24.91-.15,1.87-.35,2.78-.74,2.75-1.39,4.66-3.52,4.97-5.56.03-.22.04-.43.04-.64,0,0,.01,0,.02,0l5.99-5.86c.14-.14.14-.36,0-.5-.14-.14-.36-.14-.5,0" fill="#fff"/>
      <path d="M54.07,56.37h.01c.6,0,.96.47,1.39,1.02.49.62,1.04,1.33,2.03,1.33h.01c1.04,0,1.48-.78,1.84-1.4.36-.63.6-.99,1.14-.99.6,0,.97.47,1.4,1.02.49.63,1.04,1.32,2.05,1.33,1.04,0,1.48-.78,1.84-1.4.36-.63.6-.99,1.14-.99h0c.6,0,.96.47,1.39,1.02.49.63,1.04,1.35,2.05,1.33,1.04,0,1.48-.78,1.84-1.4.36-.63.6-.99,1.14-.99.23,0,.41-.18.41-.41,0-.22-.18-.41-.41-.41h0c-1.04,0-1.48.78-1.84,1.4-.36.63-.6.99-1.14.99-.6.02-.97-.47-1.4-1.02-.49-.62-1.04-1.33-2.03-1.33h-.01c-1.04,0-1.48.78-1.84,1.4-.36.63-.6.99-1.14.99h0c-.6,0-.96-.47-1.39-1.02-.49-.63-1.05-1.33-2.05-1.33-1.04,0-1.48.78-1.84,1.4-.36.63-.6.99-1.14.99h0c-.6,0-.96-.47-1.39-1.02-.49-.63-1.04-1.35-2.05-1.33-.23,0-.41.19-.41.41,0,.22.18.41.41.41" fill="#fff"/>
      <path d="M54.07,60.09h.01c.6,0,.96.47,1.39,1.02.49.62,1.04,1.33,2.03,1.33h.01c1.04,0,1.48-.78,1.84-1.4.36-.63.6-.99,1.14-.99h0c.6,0,.96.47,1.39,1.02.49.62,1.04,1.33,2.03,1.33h.01c1.04,0,1.48-.78,1.84-1.4.36-.63.6-.99,1.14-.99h0c.6,0,.96.47,1.39,1.02.49.62,1.04,1.33,2.03,1.33h.01c1.04,0,1.48-.78,1.84-1.4.36-.63.6-.99,1.14-.99.23,0,.41-.19.41-.41,0-.22-.18-.39-.41-.41-1.04,0-1.48.78-1.84,1.4-.36.63-.6.99-1.14.99h0c-.6,0-.96-.47-1.39-1.02-.49-.62-1.04-1.33-2.03-1.33h-.01c-1.04,0-1.48.78-1.84,1.4-.36.63-.6.99-1.14.99h0c-.6,0-.96-.47-1.39-1.02-.49-.62-1.04-1.33-2.03-1.33h-.02c-1.04,0-1.48.78-1.84,1.4-.36.63-.6.99-1.14.99h0c-.6,0-.96-.47-1.39-1.02-.49-.62-1.04-1.33-2.03-1.33h-.01c-.23,0-.41.19-.41.41,0,.22.18.41.41.41" fill="#fff"/>
      <path d="M54.07,64.01h.01c.6,0,.96.47,1.39,1.02.49.62,1.04,1.33,2.03,1.33h.01c1.04,0,1.48-.78,1.84-1.4.36-.63.6-.99,1.14-.99.6,0,.97.47,1.4,1.02.49.63,1.04,1.33,2.05,1.33,1.04,0,1.48-.78,1.84-1.4.36-.63.6-.99,1.14-.99h0c.6,0,.96.47,1.39,1.02.49.63,1.04,1.35,2.05,1.33,1.04,0,1.48-.78,1.84-1.4.36-.63.6-.99,1.14-.99.23,0,.41-.18.41-.41,0-.22-.18-.41-.41-.41h0c-1.04,0-1.48.78-1.84,1.4-.36.63-.6.99-1.14.99-.6.02-.97-.47-1.4-1.02-.49-.62-1.04-1.33-2.03-1.33h-.01c-1.04,0-1.48.78-1.84,1.4-.36.63-.6.99-1.14.99h0c-.6,0-.96-.47-1.39-1.02-.49-.63-1.05-1.33-2.05-1.33-1.04,0-1.48.78-1.84,1.4-.36.63-.6.99-1.14.99h0c-.6,0-.96-.47-1.39-1.02-.49-.62-1.04-1.33-2.03-1.33h-.01c-.23,0-.41.19-.41.41,0,.22.18.41.41.41" fill="#fff"/>
      <path d="M54.07,68.22h.01c.6,0,.96.47,1.39,1.02.49.62,1.04,1.33,2.03,1.33h.01c1.04,0,1.48-.78,1.84-1.4.36-.63.6-.99,1.14-.99h0c.6,0,.96.47,1.39,1.02.49.62,1.04,1.33,2.03,1.33h.01c1.04,0,1.48-.78,1.84-1.4.36-.63.6-.99,1.14-.99.61-.01.97.47,1.4,1.02.49.62,1.04,1.33,2.03,1.33h.02c1.04,0,1.48-.78,1.84-1.4.36-.63.6-.99,1.14-.99.23,0,.41-.19.41-.41,0-.22-.18-.41-.41-.41h0c-1.04,0-1.48.78-1.84,1.4-.36.63-.6.99-1.14.99-.6,0-.97-.47-1.4-1.02-.49-.63-1.05-1.35-2.05-1.33-1.04,0-1.48.78-1.84,1.4-.36.63-.6.99-1.14.99-.61.01-.97-.47-1.4-1.02-.49-.63-1.05-1.35-2.05-1.33-1.04,0-1.48.78-1.84,1.4-.36.63-.6.99-1.14.99-.61,0-.97-.47-1.4-1.02-.49-.62-1.04-1.33-2.03-1.33h-.01c-.23,0-.41.19-.41.41,0,.22.18.41.41.41" fill="#fff"/>
      <path d="M54.07,72.43h0c.6-.02.97.47,1.4,1.02.49.62,1.04,1.33,2.03,1.33h.01c1.04,0,1.48-.78,1.84-1.4.36-.63.6-.99,1.14-.99h0c.6,0,.96.47,1.39,1.02.49.62,1.04,1.33,2.03,1.33h.01c1.04,0,1.48-.78,1.84-1.4.36-.63.6-.99,1.14-.99h0c.6,0,.96.47,1.39,1.02.49.62,1.04,1.33,2.03,1.33h.01c1.04,0,1.48-.78,1.84-1.4.36-.63.6-.99,1.14-.99.23,0,.41-.18.41-.41,0-.22-.18-.41-.41-.41h0c-1.04,0-1.48.78-1.84,1.4-.36.63-.6.99-1.14.99h0c-.6,0-.96-.47-1.39-1.02-.49-.62-1.04-1.33-2.03-1.33h-.01c-1.04,0-1.48.78-1.84,1.4-.36.63-.6.99-1.14.99-.61,0-.97-.47-1.4-1.02-.49-.62-1.04-1.33-2.03-1.33h-.01c-1.04,0-1.48.78-1.84,1.4-.36.63-.6.99-1.14.99h0c-.6,0-.96-.47-1.39-1.02-.49-.63-1.04-1.34-2.05-1.33-.23,0-.41.19-.41.41,0,.22.18.41.41.41" fill="#fff"/>
      <path d="M78.51,52.83c-.23,0-.41.18-.41.41v1.74l-1.36-1.97s-.02-.01-.03-.02c-.02-.02-.04-.04-.06-.06-.02-.02-.04-.03-.06-.04-.02-.01-.04-.02-.07-.03-.03,0-.05-.01-.08-.02-.01,0-.02,0-.03,0-.01,0-.03,0-.04,0-.03,0-.05,0-.08.02-.03,0-.05.02-.08.03-.01,0-.03,0-.04.02-.01,0-.02.02-.03.03-.02.02-.04.04-.06.06-.02.02-.03.04-.04.06-.01.02-.02.05-.03.07,0,.03-.01.05-.02.08,0,.01,0,.02,0,.04v22.02c0,.23.18.41.41.41s.41-.18.41-.41v-2.71l1.27,1.85s0,0,.01.01v.85c0,.23.18.41.41.41s.41-.18.41-.41v-22.02c0-.23-.18-.41-.41-.41M76.88,65.2l1.22-1.78v3.55l-1.22-1.78ZM76.82,63.85v-3.3l1.14,1.65-1.14,1.65ZM76.88,59.2l1.22-1.78v3.55l-1.22-1.78ZM76.82,57.85v-3.3l1.14,1.65-1.14,1.65ZM76.82,66.54l1.14,1.65-1.14,1.65v-3.3ZM76.88,71.19l1.22-1.78v3.55l-1.22-1.78Z" fill="#fff"/>
      <path d="M110.69,26.95h19.4c10.74,0,18.03,4.88,18.03,15.95v.46c0,11.72-8.01,16.27-18.03,16.27h-6.44v12.89h-12.95V26.95ZM128.85,48.11c4.1,0,6.44-1.17,6.44-4.75v-.2c0-3.38-2.28-4.49-6.44-4.49h-5.21v9.44h5.21Z" fill="#fff"/>
      <path d="M151.18,57.42v-30.47h12.95v27.6c0,3.84,2.54,6.25,6.77,6.25h.19c4.62,0,6.84-2.34,6.84-6.25v-27.6h12.96v30.4c0,10.22-7.16,15.88-19.6,15.88h-.2c-12.76,0-19.92-5.66-19.92-15.82" fill="#fff"/>
      <polygon points="195.58 26.95 229.3 26.95 229.3 38.67 208.54 38.67 208.54 44.98 228.72 44.98 228.72 54.23 208.54 54.23 208.54 60.8 229.24 60.8 229.24 72.52 195.58 72.52 195.58 26.95" fill="#fff"/>
      <path d="M233.34,26.95h21.94c9.44,0,14.32,4.04,14.32,11.13,0,5.99-3.51,9.63-8.72,10.42v.33c5.4.59,10.61,3.58,10.61,11.39s-5.53,12.3-16.8,12.3h-21.35V26.95ZM252.15,45.44c2.8,0,4.17-1.17,4.17-3.65,0-2.34-1.37-3.38-4.43-3.38h-5.6v7.03h5.86ZM252.61,61.06c3.64,0,5.27-.91,5.27-3.64s-1.56-3.84-4.88-3.84h-6.71v7.49h6.31Z" fill="#fff"/>
      <polygon points="275.2 26.95 288.15 26.95 288.15 60.8 307.62 60.8 307.62 72.52 275.2 72.52 275.2 26.95" fill="#fff"/>
      <path d="M324.67,26.95h15.56l16.08,45.57h-13.67l-2.99-8.92h-15.36l-2.8,8.92h-13.61l16.79-45.57ZM337.24,53.71l-5.27-16.47-5.14,16.47h10.42Z" fill="#fff"/>
      <path d="M116.4,116.07v-.05c0-.8-.45-1.5-1.64-1.5h-.09c-.99,0-1.69.49-1.86,1.82l-2.05-.27c.27-2.3,1.66-3.29,3.95-3.29h.14c2.55,0,3.76,1.3,3.76,3.15v.05c0,3.34-4.32,4.45-5.45,6.25h5.33v1.77h-7.82v-.8c0-3.62,5.75-4.43,5.75-7.13" fill="#fff"/>
      <path d="M140.37,118.67v-.19c0-3.7,1.99-5.65,4.56-5.65h.11c2.46,0,4.45,1.9,4.45,5.64v.19c0,3.64-1.88,5.55-4.53,5.55h-.11c-2.49,0-4.48-1.86-4.48-5.53M147.31,118.56v-.16c0-2.11-.94-3.6-2.37-3.6h-.11c-1.39,0-2.4,1.38-2.4,3.65v.16c0,2.18.95,3.62,2.4,3.62h.11c1.43,0,2.37-1.38,2.37-3.67" fill="#fff"/>
      <path d="M176.89,116.07v-.05c0-.8-.45-1.5-1.64-1.5h-.09c-.99,0-1.69.49-1.86,1.82l-2.05-.27c.27-2.3,1.66-3.29,3.95-3.29h.14c2.55,0,3.76,1.3,3.76,3.15v.05c0,3.34-4.32,4.45-5.45,6.25h5.33v1.77h-7.82v-.8c0-3.62,5.75-4.43,5.75-7.13" fill="#fff"/>
      <path d="M205.29,121.57h-5.2v-1.66l5-6.88h2.3v6.8h1.3v1.74h-1.38v2.43h-2.02v-2.43ZM205.4,119.85v-4.32l-3.21,4.32h3.21Z" fill="#fff"/>
      <rect x="230.55" y="119.05" width="3.76" height="1.19" fill="#fff"/>
      <path d="M262.25,116.07v-.05c0-.8-.45-1.5-1.64-1.5h-.09c-.99,0-1.69.49-1.86,1.82l-2.05-.27c.27-2.3,1.66-3.29,3.95-3.29h.14c2.55,0,3.76,1.3,3.76,3.15v.05c0,3.34-4.32,4.45-5.45,6.25h5.33v1.77h-7.82v-.8c0-3.62,5.75-4.43,5.75-7.13" fill="#fff"/>
      <path d="M286.22,118.67v-.19c0-3.7,1.99-5.65,4.56-5.65h.11c2.46,0,4.45,1.9,4.45,5.64v.19c0,3.64-1.88,5.55-4.53,5.55h-.11c-2.49,0-4.48-1.86-4.48-5.53M293.16,118.56v-.16c0-2.11-.94-3.6-2.37-3.6h-.11c-1.39,0-2.4,1.38-2.4,3.65v.16c0,2.18.95,3.62,2.4,3.62h.11c1.43,0,2.37-1.38,2.37-3.67" fill="#fff"/>
      <path d="M316.96,121.02l2.08-.41c.22,1.41,1.05,1.91,2.11,1.91h.03c1,0,1.89-.56,1.89-1.75v-.08c0-1.25-.7-1.71-2.4-1.71h-.5v-1.25l.33-.02c1.47-.02,2.3-.58,2.3-1.64v-.05c0-.8-.45-1.5-1.55-1.5h-.08c-.99,0-1.72.45-1.91,1.72l-2.1-.33c.31-2.21,1.99-3.13,4.02-3.13h.11c2.27,0,3.6,1.3,3.6,2.91v.05c0,1.27-.64,2.07-1.77,2.48v.03c1.46.27,2.16,1.14,2.16,2.69v.05c0,2.08-1.77,3.26-4.15,3.26h-.03c-2.35,0-3.92-1.11-4.17-3.23" fill="#fff"/>
      <path d="M347.01,118.67v-.19c0-3.7,1.99-5.65,4.56-5.65h.11c2.46,0,4.45,1.9,4.45,5.64v.19c0,3.64-1.88,5.55-4.53,5.55h-.11c-2.49,0-4.48-1.86-4.48-5.53M353.95,118.56v-.16c0-2.11-.94-3.6-2.37-3.6h-.11c-1.39,0-2.4,1.38-2.4,3.65v.16c0,2.18.96,3.62,2.4,3.62h.11c1.43,0,2.37-1.38,2.37-3.67" fill="#fff"/>
      <g>
        <g>
          <path d="M110.56,88.54v-.19c0-6.03,2.33-9.65,8.28-9.65,4.88,0,7.23,2.38,7.62,6.71l-3.73.69c-.3-3.04-1.67-3.92-3.84-3.92h-.11c-3.01,0-4.44,1.89-4.44,6.47v.11c0,4.44,1.15,6.47,4.36,6.47h.11c2.36,0,3.81-1.23,4-4.41h-3.59v-2.19h7.4v9.7h-3.29v-2.63c-.93,2.16-2.71,3.07-5.21,3.07h-.08c-5.56,0-7.48-3.97-7.48-10.22ZM118.87,78.7h-.05.05Z" fill="#fff"/>
          <path d="M128.35,91.86v-.3c0-4.38,2.74-7.37,7.51-7.37h.33c4.66,0,7.12,2.9,7.12,7.07v.25c0,4.11-2.44,7.26-7.43,7.26h-.25c-4.9,0-7.29-2.9-7.29-6.91ZM139.8,91.47v-.19c0-2.3-1.12-4.11-3.81-4.11h-.25c-2.71,0-4.03,1.75-4.03,4.22v.22c0,2.33,1.15,4.14,3.92,4.14h.14c2.9,0,4.03-1.95,4.03-4.27Z" fill="#fff"/>
          <path d="M148.82,96.24v2.08h-3.59v-19.46h3.59v7.84c1.01-1.56,2.71-2.52,4.77-2.52h.3c3.29,0,5.78,2.8,5.78,6.93v.27c0,5.01-2.41,7.37-6,7.37h-.22c-2.41,0-3.81-1.07-4.63-2.52ZM156.13,91.42v-.19c0-2.38-1.21-4.03-3.51-4.03h-.14c-2.22,0-3.45,1.7-3.67,3.23v2.03c.25,1.78,1.53,3.15,3.53,3.15h.19c2.47,0,3.59-1.59,3.59-4.19Z" fill="#fff"/>
          <path d="M161.26,79.12c0-1.26.99-2.14,2.14-2.14s2.11.96,2.11,2.14-.96,2.14-2.11,2.14-2.14-.96-2.14-2.14ZM161.56,84.62h3.59v13.7h-3.59v-13.7Z" fill="#fff"/>
          <path d="M167.09,91.5v-.3c0-3.92,2.36-7.04,6.96-7.04h.19c4.44,0,7.01,2.49,7.1,6.66l.03,1.29h-11.04c.27,2.58,1.78,3.84,3.97,3.84h.11c1.7,0,3.12-.77,3.48-2.41l3.1,1.21c-.88,2.55-3.1,4.03-6.58,4.03h-.14c-4.33,0-7.18-2.49-7.18-7.26ZM177.89,90.16v-.3c-.03-2-1.29-3.23-3.51-3.23h-.14c-2.38,0-3.7,1.26-3.95,3.54h7.59Z" fill="#fff"/>
          <path d="M183.1,84.62h3.59v2.6c.88-1.7,2.63-2.6,4.88-2.6h.55v3.34h-1.15c-2.38,0-3.7.82-4.27,2.79v7.56h-3.59v-13.7Z" fill="#fff"/>
          <path d="M200.33,87.58c-1.84,0-3.04.93-3.67,2.6v8.14h-3.59v-13.7h3.59v2.11c1.07-1.64,2.77-2.55,5.07-2.55,3.37,0,5.12,1.78,5.12,5.1v9.04h-3.62v-8.03c0-1.78-1.04-2.71-2.9-2.71Z" fill="#fff"/>
          <path d="M208.77,91.86v-.3c0-4.38,2.74-7.37,7.51-7.37h.33c4.66,0,7.12,2.9,7.12,7.07v.25c0,4.11-2.44,7.26-7.43,7.26h-.25c-4.9,0-7.29-2.9-7.29-6.91ZM220.23,91.47v-.19c0-2.3-1.12-4.11-3.81-4.11h-.25c-2.71,0-4.03,1.75-4.03,4.22v.22c0,2.33,1.15,4.14,3.92,4.14h.14c2.9,0,4.03-1.95,4.03-4.27Z" fill="#fff"/>
          <path d="M239.84,96.24c-.82,1.45-2.14,2.52-4.55,2.52h-.22c-3.59,0-6.06-2.36-6.06-7.37v-.27c0-4.25,2.6-6.93,6.03-6.93h.3c2.05,0,3.51.96,4.49,2.52v-7.84h3.59v19.46h-3.59v-2.08ZM239.84,92.46v-1.86c-.14-1.53-1.32-3.4-3.53-3.4h-.16c-2.3,0-3.59,1.53-3.59,3.97v.19c0,2.66,1.18,4.25,3.64,4.25h.19c2,0,3.23-1.37,3.45-3.15Z" fill="#fff"/>
          <path d="M245.35,91.5v-.3c0-3.92,2.36-7.04,6.96-7.04h.19c4.44,0,7.01,2.49,7.1,6.66l.03,1.29h-11.04c.27,2.58,1.78,3.84,3.97,3.84h.11c1.7,0,3.12-.77,3.48-2.41l3.1,1.21c-.88,2.55-3.1,4.03-6.58,4.03h-.14c-4.33,0-7.18-2.49-7.18-7.26ZM256.15,90.16v-.3c-.03-2-1.29-3.23-3.51-3.23h-.14c-2.38,0-3.7,1.26-3.95,3.54h7.59Z" fill="#fff"/>
          <path d="M261.35,78.87h3.59v19.46h-3.59v-19.46Z" fill="#fff"/>
          <path d="M285.85,94.9l3.4-.36c.44,1.23,1.89,1.75,3.84,1.75h.14c2.55,0,3.21-.9,3.21-1.95v-.03c0-3.12-10.19-.77-10.19-6v-.16c0-2.66,2.63-3.97,6.38-3.97h.19c3.32,0,5.95,1.21,6.36,4.36l-3.12.25c-.3-1.95-1.92-2.41-3.43-2.41h-.14c-2.05,0-2.93.71-2.93,1.73v.03c0,2.69,9.95.55,9.95,6.25v.08c0,2.69-1.75,4.3-6.41,4.3h-.11c-4.41,0-6.66-1.42-7.12-3.86Z" fill="#fff"/>
          <path d="M302.68,93.75v-6.38h-2.93v-2.74h3.04v-5.48h3.48v5.48h2.99v2.74h-2.99v5.84c0,1.53.36,2.16,1.56,2.16h.99v2.96h-1.51c-3.18,0-4.63-1.37-4.63-4.58Z" fill="#fff"/>
          <path d="M319.78,95.47c-.79,1.89-2.93,3.26-5.18,3.26h-.22c-2.88,0-4.8-1.42-4.8-3.92v-.14c0-2.85,2.08-3.92,6-4.41l4.06-.44v-.19c.03-1.78-1.07-2.82-2.9-2.82h-.16c-1.53,0-2.88.58-3.21,2.38l-3.18-.66c.69-3.01,3.37-4.36,6.49-4.36h.25c4.11,0,6.3,1.75,6.3,5.26v8.88h-3.45v-2.85ZM319.56,91.53l-3.07.36c-2.38.3-3.32.99-3.32,2.25v.16c0,.93.82,1.86,2.27,1.86h.25c1.89,0,3.62-1.64,3.86-4.63Z" fill="#fff"/>
          <path d="M335.97,96.24c-.82,1.45-2.14,2.52-4.55,2.52h-.22c-3.59,0-6.06-2.36-6.06-7.37v-.27c0-4.25,2.6-6.93,6.03-6.93h.3c2.05,0,3.51.96,4.49,2.52v-7.84h3.59v19.46h-3.59v-2.08ZM335.97,92.46v-1.86c-.14-1.53-1.32-3.4-3.54-3.4h-.16c-2.3,0-3.59,1.53-3.59,3.97v.19c0,2.66,1.18,4.25,3.64,4.25h.19c2,0,3.23-1.37,3.45-3.15Z" fill="#fff"/>
          <path d="M341.48,91.86v-.3c0-4.38,2.74-7.37,7.51-7.37h.33c4.66,0,7.12,2.9,7.12,7.07v.25c0,4.11-2.44,7.26-7.43,7.26h-.25c-4.9,0-7.29-2.9-7.29-6.91ZM352.93,91.47v-.19c0-2.3-1.12-4.11-3.81-4.11h-.25c-2.71,0-4.03,1.75-4.03,4.22v.22c0,2.33,1.15,4.14,3.92,4.14h.14c2.9,0,4.03-1.95,4.03-4.27Z" fill="#fff"/>
        </g>
        <path d="M272.48,79.42h12.48v3.27h-8.86v4.73h8.51v2.65h-8.51v5h8.89v3.27h-12.51v-18.91Z" fill="#fff"/>
      </g>
    </g>
  </g>
</svg>