<?xml version="1.0" encoding="UTF-8"?>
<svg id="uuid-71d2bfbb-0b4c-409e-ae50-79f6048d0a18" data-name="Capa 2" xmlns="http://www.w3.org/2000/svg" viewBox="0 0 713.04 447.61">
  <g id="uuid-463da3cf-2615-46ee-9f3a-524a843f5858" data-name="Capa 1">
    <g>
      <polygon points="712.94 208.56 222 208.56 222 213.69 712.94 213.69 712.94 210.77 712.94 208.56" fill="#cf9a5d"/>
      <path d="M189.83,41.43c1.67-.47,3.1-1.44,4.61-2.26,1.99-1.08,2.06-2.59.19-3.95-1.21-.88-2.41-1.78-3.64-2.64-.65-.45-.81-.96-.64-1.75.73-3.31,1.38-6.63,2.04-9.95.2-1.01.23-2-.83-2.61-1.05-.6-1.87-.12-2.67.57-1.69,1.44-3.39,2.86-5.38,4.53.24-1.07.38-1.74.55-2.4.24-.91.33-1.8-.5-2.48-.84-.68-1.71-.53-2.65-.14-2.88,1.22-5.78,2.39-8.68,3.56-.47.19-.98.32-1.48.4-.94.16-1.46-.15-1.41-1.23.06-1.37.04-2.74,0-4.12-.04-1.55-.97-2.57-2.5-2.77-.55-.07-1.11-.05-1.67-.05-9.81,0-19.63-.02-29.44.02-1.21,0-1.66-.36-1.63-1.61.07-3.17.04-6.35.01-9.52-.02-1.89-1.05-2.92-2.93-3.03-.3-.02-.6-.01-.9-.01h-66.22c-.34,0-.69,0-1.03.02-1.88.16-2.78,1.09-2.79,2.99-.02,3,0,6,0,9q0,2.14-2.14,2.14c-9.94,0-19.88,0-29.83,0-2.34,0-3.39,1.04-3.46,3.35-.03.9,0,1.8-.01,2.7-.02,1.35-.15,1.44-1.42.93-2.31-.92-4.6-1.87-6.91-2.8-.86-.34-1.73-.58-2.53.15-.78.72-.66,1.6-.45,2.51.14.62.49,1.24.23,2.1-1.82-1.53-3.5-2.97-5.21-4.38-.77-.63-1.62-1.03-2.58-.39-.93.62-.99,1.49-.77,2.5.69,3.23,1.3,6.47,2.01,9.7.22,1.02,0,1.7-.89,2.28-1.29.85-2.53,1.77-3.73,2.74-1.29,1.05-1.28,2.47.08,3.31,1.45.9,2.95,1.81,4.54,2.38,1.17.42,1.08.84.69,1.74-1.27,2.95-2.49,5.93-3.7,8.9-.59,1.46-.39,2.42.82,2.95.88.39,1.06.93,1.06,1.78-.02,5.92-.02,11.83,0,17.75,0,.85-.21,1.38-1.03,1.83-3.59,1.99-3.72,6.67-.24,8.81.93.57,1.28,1.17,1.28,2.24-.03,16.25-.03,32.5,0,48.75,0,1.01-.29,1.6-1.21,2.13-3.52,2.04-3.45,6.91.11,8.81.88.47,1.1,1.02,1.1,1.92-.02,16.29-.02,32.59,0,48.88,0,.85-.23,1.38-1.04,1.84-3.72,2.11-3.72,6.81,0,8.93.8.45,1.04.98,1.04,1.84-.02,16.34-.02,32.67,0,49.01,0,.91-.27,1.46-1.11,1.94-3.62,2.07-3.61,6.82,0,8.89.84.48,1.11,1.04,1.1,1.94,0,1.97-.07,3.93.18,5.9.87,7.09,6.99,12.65,14.11,12.7,2.87.02,5.74.02,8.61,0,.8,0,1.35.17,1.75.97.93,1.88,2.43,2.94,4.61,2.89,2.14-.05,3.69-1.02,4.56-2.97.29-.65.71-.89,1.39-.88,1.37.02,2.75.04,4.12,0,.94-.03,1.31.34,1.29,1.28-.04,1.71-.04,3.43,0,5.15.04,1.58.94,2.93,2.34,3.16,2.11.36,4.28.39,6.38-.04.8-.16,1.48-.2,2.24.05,5.1,1.62,10.22,3.22,15.32,4.84,1.08.34,2.13.49,3.28.32,1.9-.29,3.83-.4,5.75-.6,3.28-.34,6.55-.69,9.83-1.05.92-.1,1.65-.55,1.96-1.45.33-.93.09-1.77-.65-2.45-.38-.35-.72-.74-1.11-1.07-.89-.74-.63-1.13.35-1.41.78-.23,1.54-.54,2.3-.82,1.64-.62,2.18-1.35,2.2-3.07.02-1.89-.01-3.77.01-5.66.02-1.41-.62-2.35-1.88-2.93-1.17-.53-2.31-1.14-3.49-1.63-.88-.36-1.12-.59-.22-1.3,1.01-.79,1.89-1.74,2.8-2.65.48-.47.77-1.04.53-1.74-.26-.75-.86-1.04-1.58-1.11-5.62-.6-11.24-1.2-16.86-1.79-1.16-.12-2.28.04-3.41.4-5.31,1.7-10.63,3.34-15.94,5.01-.45.14-.9.28-1.38.19-1.83-.34-3.67-.23-5.51-.1-2.14.16-3.22,1.34-3.26,3.51-.02,1.16-.03,2.32,0,3.47.02.83-.35,1.15-1.16,1.13-1.41-.03-2.83-.02-4.24,0-.68.01-1.06-.26-1.39-.89-.95-1.84-2.42-2.98-4.59-2.97-2.14.01-3.68,1.05-4.59,2.94-.33.69-.76.92-1.5.92-2.91-.03-5.83.04-8.74-.02-5.75-.14-10.49-4.18-11.62-9.83-.41-2.08-.11-4.19-.23-6.29-.05-.95.25-1.53,1.11-2.07,3.76-2.36,3.64-6.81-.22-8.98-.87-.49-.88-1.15-.88-1.93,0-7.2,0-14.41,0-21.61,0-9.05,0-18.09,0-27.14,0-.79,0-1.48.92-1.89,1.87-.82,2.79-2.43,2.88-4.38.09-2.04-.89-3.67-2.7-4.63-.92-.49-1.12-1.13-1.12-2.06.02-16.16.02-32.33,0-48.49,0-1,.27-1.6,1.2-2.14,3.53-2.03,3.51-6.84-.05-8.8-.97-.54-1.15-1.19-1.15-2.16.02-16.21.02-32.41,0-48.62,0-1.05.25-1.68,1.24-2.24,3.15-1.8,3.67-6.33.72-8.17-1.91-1.19-2.08-2.54-1.94-4.33.03-.43.04-.86,0-1.29-.08-.84.3-1.33,1.04-1.72,2.95-1.57,5.88-3.18,8.81-4.79,1.59-.87,1.69-.84,1.67.94-.08,8.66-.14,17.31-.16,25.97-.11,50.72-.05,101.44-.05,152.17,0,1.24.06,2.48.2,3.72,1.04,9.28,8.08,16.98,17.27,18.72,6.8,1.29,13.71,1.29,20.59,1.75,5.51.37,11.02.75,16.48,1.62,7.45,1.18,14.66,3.19,21.36,6.73,1.93,1.02,3.68,1.12,5.59.08,3.1-1.68,6.36-2.96,9.73-4,9.38-2.89,19.09-3.52,28.8-4.1,5.34-.32,10.69-.57,15.99-1.36,5.61-.84,10.48-3.29,14.39-7.36,4.82-5.01,7.05-11.08,7.04-18.08-.04-45.62-.02-91.24-.02-136.86,0-13.03,0-26.07.01-39.1,0-1.58.09-1.64,1.47-.9,2.27,1.21,4.44,2.66,6.81,3.61,2.91,1.17,4.02,3.04,3.51,6.09-.14.83-.26,1.37-1.09,1.79-3.59,1.87-3.8,6.8-.29,8.8,1.18.67,1.36,1.4,1.36,2.54-.02,16.08-.02,32.16,0,48.24,0,1.09-.22,1.78-1.29,2.33-1.78.92-2.62,2.55-2.56,4.56.06,1.97,1.01,3.47,2.79,4.29.88.4,1.05.96,1.05,1.8-.01,16.33,0,32.67,0,49,0,.13,0,.26,0,.39.03.63-.21,1.01-.82,1.29-1.95.87-2.97,2.44-2.99,4.55-.03,2.13,1.01,3.7,2.9,4.63.75.37.93.86.93,1.62-.01,16.42-.01,32.84,0,49.26,0,.82-.24,1.31-1.03,1.69-1.87.9-2.81,2.48-2.81,4.55,0,2.07.96,3.64,2.87,4.49.77.35.98.83.97,1.59-.03,1.54,0,3.08,0,4.63-.06,5.71-4.41,10.79-10.07,11.65-3.62.55-7.27.13-10.91.23-.69.02-.95-.45-1.21-.97-.96-1.91-2.51-2.91-4.64-2.86-2.12.04-3.67,1.06-4.57,3-.27.58-.63.86-1.28.85-1.5-.03-3-.02-4.5,0-.77.01-1.07-.34-1.07-1.09.02-1.41.02-2.83,0-4.24-.03-1.77-.95-2.98-2.69-3.23-2-.29-4.03-.32-6,.18-.76.19-1.4.18-2.12-.05-5.02-1.59-10.06-3.14-15.08-4.77-1.35-.44-2.68-.51-4.05-.37-3.15.33-6.3.65-9.45.98-1.87.2-3.75.37-5.62.6-.96.12-1.73.58-2.03,1.55-.29.94-.01,1.77.73,2.44.44.4.85.85,1.29,1.25.55.49.54.8-.21,1.04-.94.3-1.85.69-2.79.98-1.52.49-2.18,1.57-2.2,3.1-.02,1.59.07,3.18-.03,4.76-.13,2.11.8,3.41,2.72,4.14,1.27.49,2.51,1.05,3.26,1.52-.87,1.06-1.73,2.18-2.67,3.23-.58.66-1.24,1.24-.88,2.23.36.99,1.27,1.08,2.11,1.17,5.02.54,10.05,1.01,15.07,1.59,1.96.23,3.79,0,5.66-.62,4.92-1.63,9.89-3.13,14.84-4.67.4-.12.85-.29,1.25-.23,1.75.25,3.51.11,5.26.12,2.46.01,3.58-1.15,3.6-3.64,0-1.37.05-2.75-.01-4.12-.05-1.09.29-1.58,1.45-1.51,1.24.08,2.49.06,3.73,0,.87-.04,1.38.23,1.79,1.07.88,1.79,2.38,2.77,4.42,2.79,2.06.01,3.68-.83,4.58-2.73.42-.88.98-1.15,1.91-1.13,2.74.04,5.49.02,8.23.01,8.2-.03,14.5-6.31,14.54-14.49,0-1.33.05-2.66-.01-3.99-.05-1.01.26-1.61,1.23-2.1,1.72-.87,2.61-2.39,2.64-4.38.03-2.06-.88-3.6-2.65-4.5-.98-.49-1.23-1.09-1.23-2.1.02-16.17.02-32.33,0-48.49,0-1.06.27-1.7,1.28-2.23,1.78-.91,2.65-2.47,2.6-4.53-.05-1.99-.91-3.51-2.67-4.36-1.01-.48-1.2-1.13-1.2-2.11.02-16.12.02-32.24,0-48.36,0-1.06.25-1.68,1.28-2.2,1.72-.88,2.58-2.41,2.6-4.4.02-2-.86-3.54-2.58-4.41-1.09-.55-1.29-1.24-1.29-2.32.03-13.34.02-26.67.02-40,0-2.91,0-5.83,0-8.75,0-.72.07-1.33.86-1.68,1.95-.86,2.95-2.38,3-4.54.05-2.23-1.02-3.75-2.95-4.71-.61-.3-.91-.7-.91-1.39.01-6.17,0-12.35,0-18.52,0-.43.03-.81.49-1.09,2.03-1.24,2.11-1.6,1.19-3.79-1.23-2.92-2.43-5.86-3.63-8.8-.17-.42-.5-.85.29-1.08M90.68,289.86c.2-.61-.52-1.88.97-1.9,1.62-.02.85,1.31,1.01,2.09.08.41,0,.84,0,1.27,0,.73-.44.93-1.09.91-.65-.01-.91-.36-.9-.97,0-.42,0-.85,0-1.41M60.57,281.56c4.45-1.41,8.92-2.77,13.36-4.22,1.18-.39,2.3-.06,3.43.04,4.18.37,8.34.84,12.52,1.27.25.03.56,0,.68.26.17.36-.16.53-.35.74-.47.52-1.05.48-1.66.36-2.82-.51-5.66-.97-8.47-1.53-.95-.18-1.75-.05-2.59.37-6.07,3.01-12.14,6-18.21,8.99q-1.55.76-1.55-.99c0-.47,0-.94,0-1.41,0-2.98,0-2.99,2.85-3.89M87.82,283.36c.95.06,1.58.72,1.48,1.86-.06.74-.06,1.38-1.07,1.32-1.38-.08-.76-1.15-1.02-1.83.3-.45-.36-1.42.61-1.35M89.26,290.11c0,.47.02.94,0,1.41-.03.55-.4.71-.89.71-.5,0-1-.06-1.04-.69-.05-.94-.04-1.88-.02-2.83,0-.61.41-.78.95-.78.53,0,.95.16.99.76.03.47,0,.94,0,1.41M87.3,295.65c0-.34-.01-.68,0-1.02.02-.37.15-.68.56-.75.42-.06.87-.16,1.21.18.53.53.19,2.77-.46,3.12-.95.51-1.29.31-1.33-.77-.01-.25,0-.51,0-.77h.02ZM83.73,297.21c-.05-.33,0-.68,0-1.02h0c0-.47,0-.94,0-1.41-.02-.73.38-.96,1.05-.95.65.01.93.32.92.95,0,.81-.02,1.62,0,2.44.02.92-.55,1.18-1.31,1.2-.97.03-.6-.73-.66-1.21M84.73,292.21c-1.53.01-.87-1.24-1-2-.07-.41,0-.85,0-1.27-.02-.68.26-1.02.98-1.02.69,0,1.03.29,1.01.99-.01.42,0,.85,0,1.4-.24.6.58,1.89-.97,1.9M83.72,284.1c0-.38-.02-.77,0-1.15.03-.44-.14-1.08.54-1.11.6-.03,1.3.19,1.37.9.11,1.06.07,2.13.02,3.2-.02.57-.51.6-.96.6-.46,0-.9-.07-.93-.64-.04-.6,0-1.2,0-1.8h-.03M80.29,294.85c-.04-.57-.03-1.03.74-1.03.64,0,1.11.15,1.11.91,0,1.11,0,2.23,0,3.34,0,.74-.55.92-1.13.97-.73.06-.65-.52-.69-.98-.05-.59-.07-1.19-.1-1.79.02,0,.05,0,.07,0,0-.47.03-.94,0-1.41M81.1,292.24c-.74,0-.97-.41-.96-1.06,0-.73,0-1.46,0-2.18,0-.76.36-1.08,1.11-1.06.77.02.89.51.89,1.13,0,.34,0,.68,0,1.03,0,.34,0,.69,0,1.03.02.72-.25,1.13-1.05,1.13M80.15,283.8c0-.56,0-1.11,0-1.67,0-.53.18-.92.81-.91.62,0,1.14.17,1.16.89.03,1.19.02,2.39.02,3.58,0,.58-.33.84-.89.84-.58,0-1.04-.15-1.06-.82-.03-.64,0-1.28,0-1.92h-.02ZM78.75,291.32c0,.65-.33.91-.96.91-.59,0-1.01-.18-1.02-.85-.01-.85,0-1.7,0-2.56,0-.65.35-.89.97-.9.68-.01,1.05.25,1.03.97-.01.43,0,.85,0,1.28h0c0,.38,0,.77,0,1.15M77.76,286.54c-.71,0-1.02-.32-1.01-1.01,0-.94,0-1.89.01-2.83,0-.88.68-1.12,1.34-1.34.46-.15.62.17.64.56.02.64,0,1.29,0,1.93h.01c0,.56,0,1.12,0,1.67.02.69-.28,1.02-.99,1.01M76.8,294.49c.02-.64.55-.66,1.04-.66.47,0,.87.13.89.68.03.68,0,1.36,0,2.04h.03c0,.38.05.77-.01,1.15-.07.41.29,1.13-.38,1.14-.64.01-1.47-.22-1.55-1.05-.11-1.09-.06-2.21-.02-3.31M75.22,284.64c-.18.77.4,1.89-1.07,1.9-1.18,0-.96-.85-.97-1.54-.01-1.08.75-2.11,1.54-1.93.91.21.25,1.08.49,1.57M74.61,297.1c-.95-.04-1.58-.72-1.45-1.84.08-.66-.11-1.41.95-1.43,1.45-.02.96,1.07,1.1,1.87-.27.43.44,1.45-.6,1.4M73.17,289.04c-.02-.72.22-1.12,1.02-1.12.81,0,1.02.45,1,1.15-.01.34,0,.68,0,1.02h-.03c0,.47.02.94,0,1.4-.04.61-.48.74-.99.74s-.94-.16-.96-.77c-.02-.81,0-1.62-.03-2.43M71.78,291.34c0,.65-.36.9-.98.9-.61,0-.98-.24-1-.9,0-.43,0-.85,0-1.28s0-.86,0-1.28c0-.59.34-.83.9-.84.58,0,1.04.16,1.06.83.03.86.02,1.71.01,2.57M68.21,288.8c0,.42,0,.85,0,1.27h0c0,.47.02.94,0,1.4-.03.61-.44.76-.97.76-.52,0-.95-.14-.97-.75-.03-.89-.01-1.78-.02-2.67,0-.67.37-.88.98-.88s.99.2.99.87M64.66,291.12c.03.78-.24,1.03-.98.64-.79-.42-1.6-.8-2.4-1.2-.57-.29-.57-.58,0-.86.69-.34,1.37-.7,2.06-1.03,1.18-.57,1.29-.5,1.32.8,0,.25,0,.51,0,.77,0,.3-.01.6,0,.89M57.72,293.29c0-1.57.09-1.62,1.47-.95,5.57,2.74,11.16,5.42,16.68,8.26,1.97,1.02,3.85,1.38,6.03.83,2.11-.54,4.29-.8,6.44-1.18q1.47-.26,2.63,1.18c-3.51.37-6.81.72-10.12,1.07-.76.08-1.54.11-2.29.26-2.74.55-5.31,0-7.91-.9-3.76-1.3-7.58-2.43-11.39-3.56-1.12-.33-1.67-.83-1.55-2.06.1-.97.01-1.97.02-2.95M50.22,282.55c1.24-.04,2.48-.04,3.72-.01.96.02,1.18.67,1.18,1.49,0,2.1,0,4.19,0,6.29s-.02,4.28,0,6.41c.01.98-.42,1.42-1.38,1.4-1.15-.02-2.31,0-3.46,0-.84,0-1.27-.44-1.27-1.27,0-4.32,0-8.64,0-12.96,0-.83.4-1.31,1.22-1.34M35.22,286.93c1.35-.04,2.62,1.21,2.63,2.6.01,1.41-1.18,2.63-2.58,2.66-1.4.02-2.6-1.17-2.62-2.6-.02-1.42,1.13-2.62,2.57-2.66M108.04,278.64c4.55-.49,9.1-.95,13.64-1.45.7-.08,1.35-.06,2.02.16,4.73,1.5,9.47,2.98,14.2,4.47,2.05.65,2.05.65,2.05,2.83v.9q0,3.16-2.87,1.74c-5.64-2.78-11.29-5.55-16.92-8.35-.92-.45-1.79-.65-2.83-.43-2.68.55-5.38,1-8.08,1.47-.42.07-.86.15-1.27.08-.52-.09-1.08-.48-1.07-.96,0-.68.71-.41,1.13-.45M136.59,290.43c-.33.19-.67.4-1.03.52-.86.3-1.88,1.47-2.48.89-.72-.71-.2-2.11-.24-3.21,0-.3.13-.5.63-.4.97.49,2.09,1.04,3.18,1.62.32.17.2.43-.07.58M131.26,290.08c0,.42,0,.85,0,1.27-.01.57-.32.84-.89.84-.57,0-.89-.24-.9-.82-.01-.85-.01-1.7,0-2.55,0-.63.32-.92.96-.9.59.02.83.34.84.89,0,.42,0,.85,0,1.27M127.88,291.11c.02.72-.23,1.11-1.03,1.1-.83,0-1-.48-.98-1.16,0-.34,0-.68,0-1.02h.01c0-.42,0-.85,0-1.28,0-.68.43-.84,1.02-.84.62,0,.97.24.96.9,0,.77,0,1.53,0,2.3M122.27,295.61c.15-.75-.33-1.8,1.03-1.81,1.13-.01,1.01.8,1.01,1.52,0,1.02-.72,1.98-1.5,1.83-.94-.18-.31-1.06-.54-1.54M124.3,291.25c0,.72-.38.96-1.05.95-.64,0-.95-.28-.94-.92,0-.73.01-1.45,0-2.17-.02-.74.15-1.24,1.05-1.21.84.02.98.51.96,1.18,0,.3,0,.6,0,.89h0c0,.42,0,.85,0,1.28M123.34,286.32c-1.46.01-.88-1.13-1.1-1.85.29-.45-.35-1.42.55-1.37.9.04,1.63.65,1.53,1.8-.06.68.06,1.42-.97,1.42M118.91,296.41h.01v-1.67c0-.73.42-.95,1.08-.94.66.01.91.37.91.98,0,.9.01,1.8-.02,2.69,0,.24-.08.55-.24.7-.4.39-.9.81-1.45.66-.5-.14-.24-.74-.28-1.14-.04-.42,0-.85,0-1.28M120.91,290.13h0c0,.43,0,.85,0,1.28-.01.6-.38.79-.93.8-.58,0-1.03-.14-1.04-.82-.02-.85,0-1.7-.01-2.55,0-.73.42-.93,1.07-.92.65,0,.92.33.92.95,0,.42,0,.85,0,1.27M120.89,285.57c-.01.61-.45.75-.97.75-.53,0-.94-.17-.97-.77-.03-.64,0-1.28,0-1.92h-.03c0-.34-.04-.69.01-1.02.07-.44-.27-1.21.52-1.18.59.02,1.35.31,1.42,1.07.1,1.01.06,2.04.03,3.07M115.36,288.81c0-.65.33-.9.95-.9.59,0,1.01.16,1.01.84,0,.85,0,1.7,0,2.55,0,.65-.33.89-.96.91-.69.01-1.04-.26-1.02-.97,0-.43,0-.85,0-1.28h0c0-.38,0-.77,0-1.15M115.36,294.63c0-.69.45-.84,1.04-.83.55,0,.91.22.92.82,0,.6,0,1.2,0,1.79h.01c0,.56.01,1.11,0,1.67-.01.46.05,1.04-.69.95-.57-.07-1.27-.07-1.28-.94,0-1.15,0-2.31,0-3.46M117.32,283.63v1.79c0,.65-.36.9-.97.9-.61,0-.99-.22-.99-.88,0-1.07,0-2.13,0-3.2,0-.89.58-1.02,1.28-1.07.85-.05.68.57.7,1.05.02.47,0,.94,0,1.41h-.01ZM111.78,290.13c-.08-.4,0-.85,0-1.27,0-.62.25-.95.91-.95.65,0,1.08.19,1.08.92v1.42c-.22.62.58,1.97-1.05,1.93-1.53-.04-.78-1.3-.93-2.05M111.76,283.05c-.05-.92.51-1.2,1.26-1.24.87-.04.71.65.75,1.18.03.34,0,.68,0,1.02,0,.38,0,.76,0,1.14.01.68-.17,1.16-.98,1.18-.79.01-1.04-.4-1.03-1.11.01-.72.03-1.45,0-2.17M111.81,294.47c.02-.55.44-.67.91-.67.52,0,.97.11,1.01.73.04.51,0,1.03,0,1.54h.03c0,.39.01.77,0,1.16-.02.51.04,1.12-.73,1.11-.59-.01-1.16-.24-1.21-.91-.07-.98-.05-1.97-.02-2.95M109.88,296.91c-.87.1-1.5-.74-1.5-1.83,0-.7.07-1.29,1-1.28,1.37.01.9,1.05,1.04,1.81-.21.4.36,1.19-.54,1.3M109.29,286.32c-.2,0-.44-.05-.6-.17-.65-.49-.34-2.79.4-3.15,1-.49,1.26-.33,1.29.77,0,.21,0,.42,0,.74-.15.66.44,1.86-1.1,1.81M109.42,287.9c.95,0,.98.61.97,1.29,0,.25,0,.51,0,.77,0,.39-.01.77,0,1.15.03.73-.23,1.12-1.03,1.11-.83,0-1-.48-.98-1.17.01-.64.01-1.28,0-1.92-.02-.73.14-1.24,1.05-1.23M106.79,290.06c0,.47.02.94,0,1.41-.03.62-.46.74-.98.74s-.96-.13-.97-.75c-.02-.89,0-1.79-.01-2.69,0-.67.39-.87.99-.87s.99.21.99.88v1.28h0M138.87,298.08c-5.11,1.59-10.21,3.22-15.32,4.8-1.36.42-2.72.01-4.08-.12-4-.4-7.99-.84-11.99-1.26-.2-.02-.44,0-.6-.3.45-.75.97-1.23,2.02-1.02,2.73.54,5.48.96,8.21,1.48,1.15.22,2.17.07,3.22-.45,6.09-3.04,12.2-6.04,18.3-9.05,1.27-.63,1.3-.6,1.31.84,0,1.2-.03,2.4,0,3.6.03.82-.33,1.24-1.1,1.48M148.48,296.36c0,.94-.47,1.29-1.36,1.27-1.03-.02-2.06-.04-3.08,0-1.19.05-1.72-.45-1.7-1.67.04-2.06.01-4.12.01-6.17s.04-4.03-.02-6.04c-.03-1.19.47-1.62,1.61-1.57,1.07.05,2.14.03,3.21,0,.91-.01,1.33.38,1.33,1.31-.01,4.29-.01,8.57,0,12.86M162.21,292.18c-1.4-.05-2.41-1.16-2.41-2.64,0-1.52,1.1-2.63,2.58-2.62,1.38.02,2.57,1.29,2.53,2.71-.04,1.4-1.31,2.6-2.7,2.55M189.22,21.13c.28-.23.53-.73.94-.51.41.22.17.7.1,1.05-.54,2.68-1.17,5.35-1.61,8.06-.23,1.42-.99,1.81-2.25,1.87-2.95.14-5.89.34-8.83.5-3.58.2-7.17.37-10.75.56v.05c-.43,0-.86-.02-1.28,0-1.23.09-1.86-.57-1.69-1.81.11-.81.82-.68,1.31-.71,2.22-.14,4.44-.27,6.66-.3,1.88-.03,3.76-.13,5.64-.27.63-.05,1.14-.31,1.66-.61,3.72-2.18,6.79-5.19,10.11-7.88M146.2,37.54c-4.98-.84-9.96-1.7-14.94-2.54-.75-.13-1.29-.36-1.31-1.26-.02-.9.26-1.4,1.24-1.33.42.03.86,0,1.28,0,0-.01,0-.03,0-.04,3.24.25,6.48.51,9.72.75.64.05,1.28.07,1.92.07.7,0,.81-.5.86-1.05.04-.56-.29-.75-.78-.79-.94-.08-1.87-.24-2.81-.25-1.07,0-1.12-.65-1.12-1.45s.1-1.35,1.09-1.34c1.41.02,2.94-.25,4.2.29,1.45.63,2.46,2.04,3.83,2.9.16.1.09.57.12.87.07.8.47,1.47,1.21,1.68,2.14.61,4.3,1.24,6.56.83,1.41-.26,2.67-.89,3.79-1.81.28-.23.51-.77.9-.51.24.16.31.69.34,1.06.25,3.31-.75,6.22-2.68,8.89-1.84,2.56-3.79,3.55-7.12,2.36-5.76-2.06-11.72-3.52-17.6-5.25-.45-.13-.93-.25-1.31-.51-.51-.34-.98-.92-.78-1.49.21-.6.89-.25,1.37-.17,3.93.65,7.85,1.31,11.77,1.99.66.11,1.16.16,1.31-.71.16-.92-.35-1.09-1.06-1.21M151.48,31.79c.02-.41.4-.52.73-.6,2.74-.65,5.48-1.29,8.23-1.94.25-.06.53-.13.71.11.21.27.14.58-.06.83-1.34,1.66-2.95,2.84-5.44,2.94-.96-.18-2.18-.4-3.39-.65-.37-.08-.81-.19-.78-.69M159.66,45.53c.48-.24.71.12.95.41,2.11,2.58,4.22,5.16,6.31,7.76.49.61.31,2.7-.25,3.22-.11.1-.29.17-.45.18-.21,0-.42-.05-.63-.09q-3.82-.78-4.92-4.62c-.55-1.93-1.09-3.87-1.57-5.57-.08-.72.13-1.07.55-1.28M166.94,50.75c-1.46-2.3-3.35-4.34-5.15-6.4-.67-.77-.21-1.18.13-1.77.4-.69.82-.38,1.28-.11,5.35,3.16,10.7,6.32,16.05,9.47.62.36.85.68.13,1.2-.73.53-1.4,1.13-2.11,1.69-.31.24-.64.44-1.35.39-2.95-1.14-6.76-.95-8.99-4.47M178.71,49.4c-4.85-2.89-9.71-5.75-14.57-8.61-.55-.32-1.08-.62-.62-1.38.14-.23.28-.43.69-.37.18.1.45.24.7.39,4.85,2.88,9.71,5.75,14.56,8.64.41.25,1.25.36.87,1.14-.38.76-.99.57-1.62.19M170.51,24.23c.96-.03,1.85-.21,2.74-.58,2.49-1.05,4.98-2.06,7.48-3.08.39-.16.82-.51,1.2-.23.42.31.08.79,0,1.2-.06.34-.21.67-.22,1-.03,2.55-1.69,3.85-3.69,4.91-.35.19-.7.29-1.1.31-4.19.18-8.37.36-12.56.54-.7.03-1.34-.02-1.9-.56-.73-.72-1.66-.56-2.55-.35-2.71.63-5.42,1.24-8.12,1.94-1.15.3-2.08.02-3.23-.77,2.24-1.26,4.28-2.43,6.33-3.56.32-.17.74-.22,1.12-.24,4.83-.19,9.66-.38,14.49-.53M27.37,18.41c0-1.62.06-1.68,1.65-1.69,3.6,0,7.2,0,10.8,0,6.34,0,12.69,0,19.03,0,2.87,0,3.77-.9,3.78-3.77,0-2.96.04-5.92-.02-8.87-.02-1.09.3-1.52,1.46-1.52,22.07.02,44.14.02,66.21,0,1.15,0,1.48.43,1.46,1.52-.05,2.96-.02,5.91-.02,8.87,0,2.97.81,3.78,3.84,3.78,9.73,0,19.46,0,29.19,0,.43,0,.86,0,1.29.01.64,0,.93.34.92.97,0,1.24,0,2.49,0,3.73,0,.64-.31.94-.93.98-.81.06-1.62.16-2.43.19-2.74.11-5.48.19-8.22.28-.67.02-1.25.25-1.82.58-1.37.79-2.76,1.56-4.12,2.38-.8.49-1.63.69-2.56.67-2.1-.05-4.2-.06-6.3-.05-1.62,0-2.14.55-2.19,2.17,0,.26-.03.52,0,.77.16,1.29-.5,1.51-1.62,1.41-2.09-.2-4.18-.35-6.28-.44-1.86-.08-2.57.66-2.61,2.52-.01.64,0,1.29.05,1.93.05.56.19,1.21.73,1.42,1.45.56,1.95,1.85,2.53,3.08.51,1.1,1.33,1.7,2.48,2.03,7.04,2.02,14.07,4.08,21.11,6.12.29.08.6.27.86.22,1.58-.3,1.9.7,2.21,1.92.56,2.24,1.27,4.45,1.87,6.68.24.87.72,1.49,1.6,1.65,2.16.4,4.2,1.57,6.52,1.05.22-.05.51.07.73.18,1.85.99,3.7,2,5.54,2.99.55.29.79.73.79,1.36-.01,6.64-.02,13.29-.02,19.93,0,.08-.05.16-.11.34-.54-.24-.8-.75-1.13-1.16-9.11-11.42-18.22-22.85-27.31-34.29-.98-1.23-2.15-1.76-3.69-1.59-1.23.14-2.47.23-3.71.33-1.18.1-2.04.74-2.91,1.48-3.99,3.4-6.84,7.66-9.29,12.2-.86,1.59-1.92,2.13-3.69,2.03-3.55-.2-7.11-.17-10.66-.29-1.42-.05-2.63.33-3.57,1.41-.83.95-1.78,1.1-2.88.53-.3-.16-.65-.22-.95-.39-2.84-1.62-5.9-1.09-8.91-.89-.78.05-1.48.4-2.12.85-1.05.73-2.14,1.43-3.19,2.16-.83.58-1.5.57-2.22-.27-2.1-2.43-5.48-2.2-7.36.41-1.3,1.81-2.62,3.61-3.94,5.4-.99,1.34-1.5,1.43-2.85.39-5.36-4.13-10.72-8.28-16.07-12.42-1.59-1.23-3.19-2.46-4.78-3.7-1.13-.88-2.32-.97-3.74-.73-3.71.64-6.19,2.69-8.38,5.72-5.8,8.02-11.9,15.83-17.89,23.71-.24.32-.38.78-.88.88-.31-.39-.17-.83-.17-1.24,0-6.73.02-13.46-.03-20.19,0-1.12.23-1.9,1.35-2.31.48-.17.95-.44,1.34-.76,2.65-2.23,6.02-1.99,9.12-2.55,2.32-.42,3.54-1.46,3.99-3.77.41-2.1,1.15-4.12,1.71-6.2.18-.67.39-1.1,1.21-.85.59.17,1.18-.09,1.76-.26,6.75-1.96,13.48-3.99,20.25-5.86,1.69-.47,2.8-1.31,3.48-2.89.4-.94.84-1.85,1.95-2.26.63-.23.92-.87.93-1.57,0-.6.01-1.2,0-1.8,0-2.1-.67-2.77-2.81-2.67-1.97.09-3.93.24-5.89.4-1.41.12-1.57.01-1.61-1.37-.06-2.47-.54-2.95-2.95-2.94-1.2,0-2.41-.07-3.6.04-2.26.21-4.36-.14-6.16-1.6-2.7-2.18-5.95-2.13-9.14-2.26-2.91-.12-5.82-.23-8.73-.27-1.02-.02-1.37-.42-1.32-1.4.05-.85,0-1.71.01-2.57M122.41,80.1c-1.73-1.12-3.53-1.92-5.61-1.99-5.04-.17-9.33-2.43-13.39-5.08-2.42-1.58-4.96-1.66-7.63-1.54-.55.02-.97.32-1.4.6-1.55.99-3.18,1.88-4.65,2.99-4.59,3.48-9.89,5.41-15.21,7.33-.4.15-.82.27-1.2.46-4.34,2.07-8.87,2.73-13.69,2.63-10.58-.22-21.17-.07-31.76-.08-.48,0-1.16.28-1.41-.25-.2-.43.36-.81.64-1.18,6.05-8,12.13-15.97,18.15-24,.81-1.08,1.92-1.29,3.01-1.77,2.23-.99,3.96-.51,5.79,1.07,2.85,2.46,5.92,4.67,8.89,6.98.23.18.54.28.61.88h-1.48c-3.13,0-6.26.01-9.39,0-.89,0-1.21.38-1.2,1.25.01.85.41,1.11,1.19,1.11,3.56-.01,7.12.15,10.67-.05,2.65-.15,4.84.42,6.76,2.29,1,.98,2.21,1.76,3.34,2.61,1.99,1.48,3.85,1.26,5.36-.72,1.46-1.91,2.83-3.88,4.26-5.81,1.18-1.6,2.59-1.62,3.9-.11,1.2,1.38,2.94,1.72,4.52.81,1-.58,1.95-1.25,2.9-1.91,2.55-1.79,5.36-1.43,8.15-.92,1.08.2,2.09.77,3.13,1.17,1.52.58,2.99.57,4.16-.69,1.11-1.2,2.44-1.44,3.95-1.29,3.63.37,7.28.19,10.92.24.79,0,1.51.17,2.22.51,7.66,3.64,15.34,7.25,23,10.89.8.38,1.37.54,1.86-.46.52-1.06-.09-1.32-.86-1.68-7.25-3.42-14.47-6.89-21.73-10.28-1.14-.53-1.21-1.01-.53-1.98.97-1.41,1.9-2.86,2.68-4.39,1.61-3.14,4.26-5.34,6.72-7.71,1.07-1.03,2.62-.54,3.94-.83,1.31-.29,2.22.25,3.06,1.32,4.01,5.13,8.1,10.2,12.14,15.31.27.34.86.68.6,1.16-.2.36-.79.16-1.21.16-2.4.01-4.8.02-7.2,0-.84,0-1.41.19-1.43,1.19-.02,1.04.57,1.18,1.4,1.17,3.22-.02,6.43.01,9.64-.02.8,0,1.35.25,1.86.89,3.63,4.61,7.3,9.19,10.95,13.79.23.29.7.56.54.96-.2.49-.75.24-1.15.3-.17.02-.34,0-.51,0-12.64,0-25.29-.01-37.93.02-1.22,0-2.25-.3-3.26-.94-2.35-1.49-4.77-2.89-7.1-4.4M125.85,85.34h-51.72c-.02-.07-.04-.15-.06-.22,1.37-.52,2.73-1.13,4.13-1.56,4.89-1.49,9.26-3.99,13.43-6.88.81-.56,1.67-1.05,2.47-1.62,2.47-1.75,4.95-1.73,7.54-.23,2.41,1.39,4.87,2.69,7.31,4.03,1.94,1.06,4.14,1.21,6.23,1.33,4.33.23,7.32,3,10.66,5.16M18.55,51.85c3.53-2.11,7.07-4.2,10.6-6.3,1.7-1,3.38-2.02,5.08-3.01.41-.24.87-.7,1.34-.06.41.56.85,1.06.24,1.81-2.34,2.84-4.65,5.71-6.98,8.57-.1.13-.24.27-.39.33-2.31.92-4.76,1.39-6.93,2.09-.69-.02-3.57-2.1-3.69-2.52-.16-.61.4-.7.72-.89M17.07,49.09c-.19-.44.26-.57.54-.73,5.1-3.04,10.21-6.07,15.32-9.09.28-.16.6-.47.92-.16.2.19.27.51.36.68-.03.58-.39.77-.72.96-4.85,2.88-9.7,5.75-14.56,8.61-.25.15-.54.3-.82.34-.47.07-.85-.2-1.03-.6M37.39,33.73c1.74,1.12,3.63,1.48,5.65,1.19.72-.1,1.42-.32,2.14-.41,1.7-.22,2.97-.84,3.03-2.81,0-.12.04-.31.12-.35,1.23-.73,2.16-1.97,3.29-2.62,1.37-.78,3.26-.52,4.92-.33.93.11.62.97.66,1.57.05.63-.16,1.08-.9,1.13-.94.06-1.87.19-2.81.26-.62.05-.96.3-.92.96.03.64.38.94.99.9,1.62-.1,3.24-.24,4.86-.34,2.65-.16,5.29-.31,7.94-.45.67-.04,1.31-.02,1.34.93.03.87-.12,1.45-1.16,1.62-5.03.82-10.04,1.69-15.06,2.55-.59.1-1.26.13-1.2,1,.06.91.53,1.11,1.39.96,3.92-.7,7.85-1.35,11.77-2,.47-.08,1.16-.46,1.37.12.2.55-.29,1.14-.75,1.53-.28.23-.69.32-1.06.43-6.66,1.95-13.33,3.86-19.97,5.85-1.29.39-2.15.13-3.09-.79-3.33-3.28-4.57-5.83-4.61-9.9.06-.64-.33-1.76.21-2.07.63-.36,1.22.68,1.84,1.08M36.31,29.56c.16-.33.43-.38.75-.31,2.79.66,5.58,1.31,8.36,1.98.3.07.57.24.6.59.03.45-.33.57-.67.64-1.21.25-2.43.48-3.4.67-2.46-.1-4.12-1.21-5.5-2.85-.17-.21-.27-.44-.15-.71M38.46,46.88c-.58,2.02-1.14,4.04-1.71,6.06-.96,3.4-1.29,3.69-4.86,4.11-.08,0-.17.02-.25.03-.43.03-.78-.09-.9-.54-.25-.96-.9-1.88-.05-2.9,1.83-2.2,3.62-4.45,5.42-6.67.24-.3.47-.61.72-.9.3-.33.54-.86,1.13-.5.5.3.66.73.49,1.32M16.49,20.4c1.89.81,3.86,1.44,5.68,2.37,2.57,1.31,5.29,1.57,8.08,1.66,3.68.12,7.35.22,11.03.3.75.02,1.41.2,2.06.58,1.51.9,3.05,1.74,4.57,2.61.29.16.73.26.73.65,0,.48-.53.48-.84.67-.55.33-1.13.27-1.74.13-2.7-.65-5.41-1.28-8.12-1.91-.46-.11-.92-.18-1.41-.27-.32.07-.76.02-.97.22-1.53,1.49-3.4.83-5.12.81-3.16-.05-6.32-.3-9.48-.46-1.95-.09-4.34-2.04-4.81-3.95-.21-.87-.39-1.76-.62-2.62-.25-.98.06-1.16.95-.78M7.06,20.48l.33-.15c2.16,1.81,4.35,3.59,6.48,5.44,1.5,1.3,3.15,2.37,4.83,3.4,1.29.79,2.83.57,4.26.65,3.08.17,6.16.21,9.24.36,1.52.07,1.66.39,1.35,1.86-.16.77-.56.78-1.2.74-5.43-.32-10.85-.61-16.28-.91-1.79-.1-3.59-.21-5.38-.31-.99-.06-1.5-.49-1.69-1.54-.59-3.19-1.28-6.36-1.94-9.53M3.95,37.36c-.35-.17-.02-.45.17-.59,1.42-1.03,2.83-2.08,4.28-3.06.72-.48,1.59-.2,2.47-.25,7.04.42,14.16.86,21.28,1.28.54.03,1.03.08,1.08.8.06.74-.37.98-.99,1.05-2.97.36-5.94.72-8.91,1.07-4.88.57-9.76,1.16-14.65,1.7-1.91.21-3.2-1.25-4.74-2M5.96,52.66c1.02-2.48,2.29-4.9,2.99-7.46.91-3.3,2.76-4.53,6.17-4.68,4.71-.21,9.4-1.04,14.2-1.38-7.7,4.57-15.4,9.14-23.1,13.71-.09-.06-.17-.13-.26-.19M9.87,265.79c-.02,1.53-1.11,2.55-2.64,2.51-1.46-.04-2.53-1.21-2.48-2.7.05-1.45,1.1-2.44,2.59-2.43,1.53.01,2.55,1.07,2.53,2.61M9.87,204.02c0,1.53-1.03,2.57-2.57,2.56-1.48,0-2.53-1.02-2.55-2.45-.01-1.49,1.08-2.64,2.53-2.66,1.52-.02,2.59,1.03,2.59,2.55M9.87,142.49c0,1.48-1,2.55-2.43,2.58-1.53.03-2.69-1.11-2.68-2.64,0-1.43,1.05-2.47,2.52-2.48,1.54-.01,2.59,1.01,2.59,2.54M9.87,80.75c0,1.48-1.13,2.59-2.62,2.55-1.45-.03-2.53-1.21-2.5-2.7.03-1.37,1.2-2.5,2.57-2.51,1.41,0,2.54,1.18,2.54,2.66M9.95,67.24c-1.3.71-1.34.67-1.35-.87,0-.98,0-1.97,0-2.96-.98-3.43.72-5.32,3.71-6.49.43-.17.8-.49,1.22-.71.53-.28.64-.63.31-1.14-.31-.49-.63-.83-1.24-.47-1.03.61-2.07,1.21-3.1,1.82-.57.34-.83.23-.9-.47-.15-1.39-.05-2.53,1.52-3.21,1.4-.61,2.68-1.51,4-2.31.49-.3.9-.39,1.4,0,.54.41.44.81.19,1.34-.44.95-.08,1.76.65,2.41.58.51,1.18,1,1.81,1.45.7.5.67.9-.07,1.32-1.15.66-2.28,1.36-3.44,2-.58.32-.83.63-.43,1.3.39.64.8.69,1.36.32.14-.09.31-.16.44-.26,3.36-2.45,7.22-3.67,11.19-4.63.53-.13,1.08-.41,1.35.41.24.72-.04,1.08-.67,1.42-5.99,3.23-11.97,6.49-17.95,9.74M174.96,241.74c0,12.08-8.14,21.34-20.13,23-5.18.72-10.4.96-15.61,1.27-10.14.61-20.27,1.33-30.01,4.56-3.05,1.01-6.05,2.19-8.88,3.72-1.17.63-2.2.65-3.39.03-8.23-4.34-17.1-6.48-26.27-7.59-7.06-.85-14.16-1.15-21.25-1.56-3.63-.21-7.26-.48-10.86-1.04-8.49-1.32-15.2-8.39-16.1-16.89-.14-1.33-.2-2.65-.2-3.97,0-46-.03-92,.05-138,0-4.79.17-9.59.22-14.38.02-1.77,1.42-3.1,3.19-3.1,13.71.01,27.43.04,41.14.04,34.75,0,69.51-.03,104.26-.04.26,0,.51,0,.77,0,2.34.03,3.05.75,3.05,3.1,0,25.38,0,50.76,0,76.14h.02c0,24.91,0,49.81,0,74.72M184.14,56.39c1.25.74,2.49,1.51,3.78,2.19.87.46,1.21,1.06,1.18,2.05-.06,2.1-.04,4.2,0,6.3.02.95-.25,1.14-1.11.67-5.14-2.83-10.3-5.63-15.45-8.44-.94-.51-1.87-1.04-2.82-1.54-.72-.38-.99-.88-.66-1.68.35-.83.95-.36,1.42-.25,3.78.87,7.39,2.17,10.59,4.44.28.2.61.32.9.49.55.32.86.06,1.15-.4.31-.49.28-.88-.24-1.18-1.18-.7-2.36-1.4-3.55-2.08-.66-.38-.77-.73-.11-1.23.68-.51,1.34-1.07,1.99-1.62.8-.68,1.15-1.51.61-2.5-.29-.52-.15-.86.26-1.22.44-.39.82-.31,1.27-.04,1.61.98,3.22,1.97,4.86,2.89.89.5.91,1.26.84,2.27-.08.3.3.96-.24,1.24-.44.23-.84-.29-1.24-.51-.86-.48-1.72-.96-2.56-1.48-.59-.37-1.03-.49-1.47.25-.49.81.07,1.07.59,1.38M192.93,265.75c0,1.45-1.16,2.56-2.65,2.55-1.37,0-2.52-1.14-2.56-2.53-.04-1.41,1.13-2.57,2.61-2.59,1.49-.02,2.6,1.08,2.6,2.57M192.93,204.07c-.03,1.5-1.12,2.52-2.66,2.51-1.39-.02-2.53-1.13-2.55-2.51-.02-1.42,1.17-2.63,2.59-2.62,1.42,0,2.64,1.23,2.61,2.61M192.93,142.59c-.05,1.39-1.16,2.46-2.59,2.48-1.43.01-2.62-1.18-2.61-2.6.01-1.42,1.2-2.53,2.68-2.52,1.49.01,2.57,1.15,2.52,2.64M192.93,80.71c0,1.36-1.16,2.56-2.51,2.59-1.46.03-2.67-1.1-2.7-2.53-.03-1.37,1.22-2.65,2.59-2.68,1.43-.02,2.6,1.15,2.61,2.62M191.59,52.59c-.08.08-.16.17-.24.25-7.68-4.55-15.35-9.1-23.03-13.65.03-.08.07-.17.1-.25,3.8.44,7.61.88,11.41,1.33,1.91.22,3.82.45,5.73.67.65.08,1.28.16,1.58.88,1.48,3.59,2.96,7.18,4.45,10.77M186.65,39.19c-6.76-1.02-13.58-1.67-20.38-2.46-.34-.04-.67-.13-1.01-.16-.62-.06-1.07-.26-1.02-1.02.05-.82.65-.78,1.2-.81,6.06-.35,12.13-.7,18.19-1.04,1.07-.06,2.12-.33,3.25-.19,1.43-.36,2.6.22,3.71,1.15.81.69,1.71,1.29,2.59,1.9.6.41.79.71,0,1.15-2.03,1.13-3.99,1.86-6.52,1.48" fill="#fff"/>
      <path d="M169.83,99.58c-.17-2.81-2.67-4.53-4.78-3.97-.56.15-1.19.06-1.79.06-22.06-.15-44.13.1-66.19-.17-21.59-.27-43.19-.06-64.79-.06-.3,0-.6,0-.9.03-1.97.21-3.51,1.64-3.81,3.61-.12.8-.17,1.62-.17,2.43-.02,4.29,0,8.57,0,12.86,0,41.11,0,82.22,0,123.33,0,3.74.64,7.35,2.51,10.64,3.94,6.95,10.18,9.93,17.9,10.5,6.58.48,13.17.58,19.75.96,10.1.58,19.93,2.13,28.99,6.97,1.38.74,2.79.69,4.2-.02,1.03-.52,2.07-1.03,3.13-1.5,8.25-3.69,17.05-4.66,25.94-5.12,6.24-.33,12.49-.41,18.71-1.03,12.57-1.25,21.33-10.82,21.33-23.45,0-22.33,0-44.67,0-67,0-22.51,0-45.01,0-67.52,0-.51.01-1.03-.02-1.54M149.29,256.49c-5.07.6-10.16.78-15.24.98-8.57.34-17.11.85-25.39,3.37-2.88.88-5.67,1.96-8.32,3.38-1.17.63-2.21.57-3.4-.04-6.17-3.16-12.75-4.98-19.59-5.92-6.24-.85-12.53-1.12-18.82-1.35-4.91-.18-9.86-.18-14.71-1.15-8.1-1.61-13.86-8.58-13.86-16.84-.01-22.94,0-45.87,0-68.81v-68.81c0-.51-.01-1.03.02-1.54.07-1.11.61-1.75,1.78-1.77.47,0,.94,0,1.41,0,21.21,0,42.43.18,63.64-.05,22.07-.24,44.13-.03,66.2-.16.47,0,.94,0,1.41,0,2.32.06,2.87.61,2.87,2.91,0,45.14-.07,90.28.06,135.43.03,9.65-7.16,19.08-18.04,20.37" fill="#fff"/>
      <path d="M71.3,22.18c-.2.32-.35.69-.5,1.04-1.43,3.49-.15,6,3.49,6.87.25.06.5.14.75.16,1.12.11,1.21.61.71,1.54-1.36,2.55-1.47,5.16-.19,7.78.27.56.26,1-.05,1.55-.96,1.7-.84,3.38.47,4.73.77.79,1.31,1.58,1.56,2.68.28,1.27,1.23,1.99,2.55,1.89,1.03-.08,1.87,0,2.51.95.27.4.88.61,1.39.55,1.22-.15,2.33-.11,3.27.87.35.36,1,.31,1.49.2.94-.21,1.69.32,2.51.46,2.24.39,4.52.81,6.82.66.37-.02.71-.27,1.11-.09,1.1.48,2.18.36,3.21-.2.35-.19.71-.28,1.11-.15,1.28.41,2.45.24,3.5-.63.25-.21.54-.24.85-.16,2.43.67,4.29-1.74,6.71-1.26.17.03.47-.24.6-.44.46-.69,1.03-1,1.74-.74,1.96.07,2.92-.58,3.22-2.34.14-.83.52-1.37,1.11-1.92,1.65-1.55,1.89-3.28.71-5.17-.3-.49-.26-.82-.03-1.29,1.29-2.6,1.22-5.2-.01-7.8q-.68-1.42.89-1.74c.25-.05.51-.09.76-.15,3.9-.86,4.23-3.63,3.26-6.7-.1-.32-.25-.64-.44-.93-1.01-1.52-.68-2.78.45-4.17,2.18-2.68,1.18-5.11-2.23-5.75-.5-.09-1.02-.11-1.53-.14-.44-.02-.81-.13-1.16-.44-3.33-2.96-5.42-3.14-9.22-.79-.54.33-.83.32-1.29-.16-2.04-2.1-4.68-2.16-6.68-.12-.47.48-.7.53-1.23.09-3.09-2.58-6.15-2.6-9.3-.07-.52.42-.79.54-1.34-.01-2.01-2.02-4.5-2.03-6.46-.01-.65.67-.97.74-1.72.13-2.35-1.88-5.7-1.95-7.82-.05-1.09.98-2.19,1.38-3.61,1.57-3.77.49-4.76,3.05-2.34,5.94,1.01,1.21,1.27,2.37.42,3.74M101.6,32.7c.6.55,1.23,1.06,1.83,1.61.19.17.4.37.31.65-.1.3-.41.28-.66.28-2.87,0-5.74,0-8.6,0-.24,0-.56.06-.67-.23-.14-.34.15-.57.36-.76.69-.64,1.43-1.23,2.1-1.89,1.15-1.14,1.29-1.98.64-3.35-.63-1.31-1.86-2.11-3.18-1.95-.84.1-1.71.26-2.49.58-1.29.54-2.3.25-3.27-.7,7.23-2.33,14.39-2.33,21.65-.01-.79.76-1.54,1.28-2.68.88-.81-.29-1.64-.5-2.48-.67-1.65-.34-3.02.33-3.73,1.78-.7,1.43-.43,2.59.88,3.78M88.4,29.35c.62.44,1.2.52,1.92.34,1.08-.27,2.09-.77,3.22-.86.79-.06,1.46.13,1.82.9.36.78-.07,1.32-.62,1.78-1.22,1.01-2.44,2.01-3.19,3.47-.28.54-.95.61-1.48.58-.59-.03-.45-.65-.56-1.02-.9-3.24-3.95-5.06-7-4.15-2.95.88-4.51,4.26-3.43,7.42.18.51.73,1.1-.28,1.42-.82.26-1.47.31-1.85-.7-.33-.9-.53-1.8-.49-2.77.05-3.26,1.81-5.46,4.54-6.91,2.51-1.33,5.04-1.16,7.39.5M86.37,37.38c-.88.44-1.78.83-2.63,1.32-1.07.61-1.88.27-2.57-.6-1.01-1.28-1-2.69-.37-4.11.61-1.36,1.66-2.14,3.23-2.07,1.55-.11,2.6.71,3.38,1.91.9,1.4.45,2.8-1.04,3.55M84.48,50.13c-1.03.04-1.22-.7-1.29-1.52-.1-1.28.93-1.24,1.71-1.4.88-.17.75.55.81,1.05-.07.87-.02,1.82-1.23,1.86M89.81,50.12c0,.78-.42,1.19-1.17,1.24-.71.05-1.2-.34-1.25-1.01-.08-1.23-.16-2.49,0-3.7.14-.98,1.21-1.24,1.99-1.61.38-.18.41.31.42.6.02.77,0,1.54,0,2.3,0,.73,0,1.45,0,2.18M93.95,47.94c0,.98,0,1.97,0,2.95,0,.73-.31,1.26-1.12,1.28-.82.02-1.33-.41-1.34-1.22-.04-2.01-.04-4.02,0-6.03.02-.93.77-.86,1.42-.88.67-.02,1.06.23,1.06.96,0,.98,0,1.97,0,2.95M97.84,51.38c0,.65-.13,1.25-.94,1.24-.7,0-1.11-.43-1.12-1.14-.01-2.18,0-4.36,0-6.54,0-.65.36-.89.98-.9.66,0,1.08.21,1.08.93,0,1.15,0,2.31,0,3.46h0c0,.98,0,1.97,0,2.95M101.91,51.25c0,.88-.39,1.4-1.29,1.4-.89,0-.98-.66-.97-1.35,0-1.03,0-2.05,0-3.08,0-1.03.03-2.06,0-3.08-.02-.85.39-1.12,1.18-1.11.75,0,1.09.29,1.09,1.06-.02,2.05-.01,4.11,0,6.16M106.02,50.95c0,.83-.47,1.25-1.3,1.23-.78-.02-1.17-.47-1.18-1.22-.02-1.03,0-2.05,0-3.07h0c0-.94.02-1.88,0-2.82-.02-.78.35-1.06,1.09-1.05.73.01,1.41.06,1.41,1.04,0,1.96.01,3.93,0,5.89M110.17,47.72c-.06.24,0,.51,0,.76h-.04c0,.64.04,1.28-.01,1.92-.06.64-.47,1-1.12.98-.64-.02-1.09-.37-1.11-1.01-.05-1.57-.04-3.15-.03-4.73,0-.66.35-.67.84-.39.96.55,1.83,1.13,1.48,2.47M113.16,50.16c-1.19,0-1.2-.82-1.19-1.76.1-.4-.26-1.29.74-1.13.71.11,1.8-.02,1.72,1.21-.05.78-.09,1.68-1.27,1.69M120.54,44.47c-.71,1.03-1.75,1.47-2.97,1.54-2.63.15-5.14-.3-7.36-1.79-1.99-1.34-4.13-1.92-6.55-1.84-3.38.11-6.77.08-10.15,0-2.14-.05-4.07.43-5.83,1.63-2.28,1.56-4.81,2.18-7.55,1.99-1.19-.08-2.28-.43-3.04-1.43-.94-1.25-.65-2.45.71-3.22.91-.51,1.9-.46,3.08-.46,1.62.14,3.31-.32,4.83-1.28,3.39-2.14,7.03-2.9,11.01-2.62,2.81.2,5.65,0,8.48-.02.74,0,1.45.13,2.11.45,1.24.59,2.52,1.1,3.71,1.77,2.14,1.21,4.36,1.96,6.86,1.71.7-.07,1.36.13,1.97.49,1.19.71,1.48,1.92.69,3.07M109.68,35.62c-.05-2.06,1.71-3.75,3.9-3.71,1.62.03,2.74.74,3.26,2.22.53,1.49.47,2.96-.66,4.21-.57.64-1.26.87-2.08.47-1.19-.58-2.38-1.16-3.57-1.74-.62-.3-.83-.79-.85-1.45M120.49,38.78c-.26.56-.59.71-1.22.57-.95-.21-1.24-.47-.81-1.53,1.2-2.98-.41-6.57-3.18-7.4-3.31-.99-6.46.9-7.2,4.3-.08.37-.06.86-.58.85-.55,0-1.19-.06-1.49-.6-.83-1.5-2.09-2.59-3.4-3.64-.46-.37-.75-.83-.51-1.46.25-.66.71-1.05,1.45-1.06,1.19-.02,2.27.42,3.36.78.82.27,1.54.26,2.29-.29,2.45-1.75,5.05-1.75,7.63-.35,2.73,1.49,4.17,3.85,4.36,6.66-.02,1.31-.28,2.25-.71,3.15M123.31,15.52c-.01-.45-.45-1.12.33-1.3.82-.18,1.62,0,2.25.64.44.45.55.98.21,1.52-.39.61-.84,1.19-1.27,1.77-.97,1.29-1.09,2.65-.37,4.1.57,1.15,1.15,2.3,1.11,3.64-.03,1.11-.51,1.91-1.6,2.22-1.15.32-2.33.55-3.49.82-.36.08-.69-.04-.96-.25-2.8-2.22-6.27-2.63-9.56-3.48-2.1-.54-4.23-.96-6.6-1.49,1.61-1.07,2.97-2.02,3.83-3.53.42-.74.69-.08.87.23,2.01,3.4,7.08,4.47,10.88,2.75,2.91-1.32,4.48-4.08,4.38-7.64M109.3,18.48c4.3,3.63,8.17,2.93,11.76-1.16-.04,2.46-2.03,4.31-4.82,4.72-3.12.46-6.06-.99-6.95-3.56M112.64,14.24c.53-1.55,2.46-2.85,4.21-2.87,1.78-.01,3.56,1.14,4.23,2.82.14.35.53.85-.04,1.11-.55.25-.81-.19-1.05-.65-.97-1.91-2.37-2.6-4.12-2.07-1.06.32-1.79.99-2.09,2.06-.15.55-.45.88-.99.68-.61-.22-.28-.73-.15-1.09M118.07,17.33c-1.31,2.15-4.82,2.21-6.96,0h6.96ZM106.47,11.73c.96-.65,2.07-.65,3.03,0,.98.66,1.22,1.72,1.09,2.85-.06.55-.44.81-.98.81-.56,0-1.11,0-1.67,0h0c-.17.01-.34.03-.51.01-.74-.09-1.75.36-2-.83-.23-1.14.08-2.18,1.05-2.84M94.22,14.09c.56-1.78,2.61-3.24,4.51-3.24,2.1-.01,4.06,1.39,4.64,3.37.11.36.47.87-.14,1.1-.59.23-.94-.11-1.12-.7-.46-1.48-1.4-2.42-3.01-2.55-1.79-.14-3,.67-3.55,2.44-.17.56-.36,1-1.02.83-.79-.21-.46-.79-.31-1.25M102.73,17.03c-1.75,2.23-6.11,2.33-7.35.32,2.4-.52,4.81-.29,7.35-.32M92.75,17.78c3.33,3.74,8.44,3.85,11.89.28.37-.38.68-1.31,1.33-.83.48.35,0,1.12-.25,1.65-1.08,2.37-3.6,3.76-7.68,3.76-2.06-.07-4.59-.92-6.06-3.74-.18-.34-.29-.71-.41-1.08-.08-.24-.15-.52.16-.67.22-.11.42.02.58.16.16.14.3.31.44.47M87.19,12.85c.56-1.31,2.06-1.91,3.42-1.38,1.21.48,1.89,2.02,1.5,3.32-.14.46-.44.59-.85.6-.59,0-1.19,0-1.78,0h0c-.21.01-.42.01-.64.01-1.84,0-2.38-.84-1.65-2.55M88.12,18.61c-.65,2.37-3.53,3.82-6.56,3.45-2.73-.33-5.09-2.19-4.92-4.74,3.53,3.85,7.3,4.31,11.48,1.28M85.57,17.03c.25,0,.56,0,.65.3.08.29-.18.44-.39.6-1.77,1.34-4.95,1.01-6.63-.9,2.3,0,4.34,0,6.38,0M76.41,14.37c.48-1.61,2.59-3.04,4.4-2.98,1.86.06,3.75,1.44,4.2,3.06.03.12.07.25.1.37-.04.56-.4.62-.81.46-.17-.06-.3-.28-.4-.46-1.99-3.3-4.53-3.3-6.39,0-.23.4-.48.62-.91.43-.42-.19-.29-.56-.19-.89M71.59,14.95c.49-.7,1.29-.78,2.08-.76.56.01.65.36.65.87,0,3.39.75,6.47,4.15,8.02,3.37,1.53,6.66,1.26,9.67-1.06.66-.51,1.12-1.18,1.55-1.87.22-.35.51-.56.76-.08.79,1.54,2.14,2.51,3.88,3.61-2.47.55-4.55.98-6.62,1.48-3.4.82-6.92,1.34-9.79,3.59-.34.26-.71.23-1.1.14-.92-.22-1.85-.38-2.75-.62-1.76-.47-2.35-1.45-2.02-3.25.17-.94.54-1.81,1-2.63.89-1.57.71-3.03-.42-4.4-.27-.33-.52-.68-.78-1.02-.46-.62-.76-1.31-.26-2.01" fill="#fff"/>
      <path d="M155.3,180.04c-10.76,0-21.51,0-32.27,0-.43,0-.86,0-1.29-.01-.62,0-.91-.32-1-.93-.27-1.87-.32-3.75-.3-5.64,0-.66.26-1.03.94-1.14,3.15-.49,4.82-3.33,2.85-6.76-1.96-3.42-4.05-6.77-6.06-10.16-.39-.65-.8-.77-1.47-.47-1.29.58-2.65.99-4.03,1.3-3.97.9-7.73.56-11.17-1.88-1.12-.79-1.63-1.65-1.62-3.07.06-9.99.03-19.98.03-29.97,0-.43,0-.86-.01-1.29,0-.57-.29-.84-.86-.9-1.12-.12-1.46.23-1.46,1.65,0,9.61-.13,19.21.07,28.81.06,2.92-1.23,4.43-3.51,5.6-1.03.53-2.09.98-3.24,1.21-3.59.73-6.98-.05-10.29-1.37-.75-.3-1.31-.41-1.81.46-1.98,3.41-4.1,6.74-6.01,10.19-1.78,3.2-.64,5.73,2.88,6.61.78.19,1.02.57,1.05,1.33.05,1.55-.18,3.08-.3,4.61-.14,1.77-.25,1.83-2.03,1.83-10.5,0-21,0-31.5,0-.43,0-.86,0-1.29.02-.57,0-.83.3-.89.87-.12,1.17.15,1.45,1.62,1.45,10.5,0,21,0,31.5,0,1.88,0,1.87,0,1.41,1.87-.53,2.16-1.33,4.25-1.75,6.45-1.32,6.9,1.51,12.17,8,14.86,2.47,1.03,5.04,1.66,7.68,2.06,1.27.2,2.54.36,3.81.54,1.77.25,3.02,1.39,4.2,2.58.78.79.39,1.89.39,2.84.03,5.44.01,10.89.01,16.34,0,5.92,0,11.83,0,17.75,0,.66-.12,1.42.87,1.58,1.12.18,1.46-.16,1.46-1.59,0-11.62,0-23.24,0-34.86,0-2.34,1.08-3.77,3.35-4.43.41-.12.83-.21,1.25-.27,2.75-.4,5.53-.71,8.2-1.53,3.46-1.05,6.68-2.55,8.91-5.53,2.79-3.74,2.6-7.93,1.52-12.18-.37-1.45-.86-2.87-1.25-4.32-.59-2.16-.57-2.17,1.62-2.17,10.33,0,20.66,0,30.98,0,.43,0,.86-.01,1.29,0,.9.01,1.19-.47,1.17-1.31-.03-1.23-.92-1.02-1.66-1.02M117.75,201.6c-2.2,1.66-4.73,2.58-7.39,3.14-2.05.43-4.13.73-6.2,1.02-1.84.26-3.46.97-4.79,2.26-.58.56-1.09.62-1.65.05-1.77-1.8-4.04-2.28-6.42-2.54-3.68-.4-7.28-1.15-10.55-2.99-.56-.31-1.08-.69-1.61-1.06-.23-.16-.62-.3-.48-.66.11-.29.5-.3.79-.33,6.55-.68,13.03-2.07,19.61-1.5,6.26-.5,12.35.6,18.45,1.43.32.04.79-.09.89.32.11.44-.35.64-.65.87M82.66,190.86c0-1.67.02-3.34,0-5.01-.02-.92.46-1.16,1.28-1.17.85,0,1.26.28,1.25,1.19-.03,3.08,0,6.17-.02,9.25,0,.81-1.28,1.79-2.07,1.66-.58-.09-.43-.57-.43-.91-.02-1.67,0-3.34,0-5.01M92.94,194.35c.02.95-.25,1.38-1.3,1.4-4.12.1-4.12.13-4.12-3.98,0-2.66.04-5.31-.02-7.97-.03-1.14.48-1.68,1.52-1.83.5-.07,1.02-.11,1.53-.09,2,.06,2.37.46,2.38,2.44,0,1.54,0,3.08,0,4.63,0,1.8-.03,3.6.01,5.4M102.2,195.2h-.21c0-1.67.02-3.36,0-5.02-.03-1.97-1.43-3.42-3.24-3.4-1.76.02-3.09,1.44-3.15,3.35-.03,1.2-.06,5.08-.06,5.08h-.23c0-4.28,0-8.55,0-12.83,0-.7.33-1.02,1.02-1.02,1.54,0,3.08.02,4.62-.01.96-.02,1.27.41,1.26,1.32-.02,4.15,0,8.39,0,12.54M99.85,193.95c.02.68-.26,1.02-.98,1.01-.68,0-1.05-.26-1.04-.97,0-1.28,0-2.55.01-3.82,0-.57.22-1.02.87-1.04.66-.02,1.05.37,1.1,1l.04,3.82ZM110.14,189.07c0,1.84-.02,3.68,0,5.51.01.81-.3,1.18-1.13,1.15-1.15-.03-2.31-.02-3.46,0-.7,0-1.01-.31-1.01-1,0-3.76,0-7.52,0-11.28,0-.13,0-.26.04-.38.26-.92,1.76-1.42,3.63-1.14,1.01.15,1.94.4,1.92,1.76-.04,1.79,0,3.59,0,5.39M115,195.3c-.01.49.32,1.21-.54,1.36-.82.13-1.92-.68-1.94-1.45-.04-1.63-.02-3.25-.02-4.88,0-1.46.03-2.91,0-4.37-.03-.96.4-1.28,1.31-1.27.88,0,1.23.36,1.21,1.23-.03,1.63,0,3.25,0,4.88,0,1.5.03,3-.01,4.5M121.13,196.95c-.33,1.44-1.16,1.51-2.36,1.35-1.19-.16-1.67-.6-1.64-1.88.08-4.16,0-8.32.05-12.47.02-1.25-.42-1.72-1.64-1.6-.55.06-1.11,0-1.67.01-.68.03-1.09-.22-1.59-.77-1.69-1.86-3.92-2.31-6.35-1.91-.62.1-1.21.43-1.62-.42-.16-.35-.7-.23-1.08-.23-3,0-6,0-9,0-.25,0-.65-.06-.74.07-.83,1.16-1.91.44-2.9.46-2.15.05-4.19.37-5.46,2.4-.25.4-.63.39-1.01.4-.81.01-1.63.05-2.44,0-.99-.06-1.39.34-1.37,1.35.04,2.18.01,4.37.01,6.56h0c0,2.18-.03,4.37.01,6.56.02.98-.41,1.37-1.34,1.49-2.59.33-2.8.14-3.29-2.47-.49-2.63.11-5.11.86-7.58,1.5-4.94,2.67-9.93,2.49-15.14,0-.3,0-.6-.04-.9q-.21-2.16-2.38-2.22c-2.01-.06-2.81-1.31-1.81-3.11,1.65-2.95,3.45-5.82,5.17-8.74.45-.76,1-.43,1.56-.25,3.06,1,6.16,1.46,9.37.91,2.56-.44,4.82-1.5,6.77-3.19.61-.53,1.04-.57,1.64-.05,4.52,3.84,9.67,4.16,15.13,2.65,2.67-.73,1.93-1.09,3.42,1.34,1.46,2.37,2.87,4.77,4.26,7.19.43.73.88,1.54.26,2.4-.6.83-1.54.86-2.44.82-1.64-.06-1.69,0-1.85,1.72-.57,5.94.85,11.57,2.56,17.16.81,2.66,1.11,5.34.46,8.11" fill="#fff"/>
      <path d="M40.72,138.44c0,1.64.12,1.76,1.75,1.77,2.66,0,5.31-.01,7.97,0,.33,0,.77-.14.95.19.22.4-.22.69-.41,1-.52.84-1.24.33-1.85.2-3.14-.67-3.13-.68-3.8,2.47-.69,3.23-1.21,3.03,2.41,3.76.88.18,1.24.6,1.59,1.51.74,1.93.03,3.04-1.52,3.97-.29.17-.55.41-.82.62-.45.34-.55.73-.16,1.2.97,1.2,1.94,2.4,2.9,3.61.4.51.81.56,1.3.14.63-.52,1.28-1.01,1.89-1.54.59-.5,1.15-.7,1.82-.14.26.21.58.41.91.47,1.29.22,1.55,1.02,1.53,2.22-.05,3.04-.33,2.75,2.74,2.76q3.37,0,3.49-3.44c.02-.52,0-.98.59-1.3,2.52-1.37,2.51-1.39,4.81.42.24.19.49.35.72.55.5.44.9.33,1.29-.17.9-1.15,1.82-2.27,2.73-3.41.46-.57.4-1.09-.2-1.54-.68-.52-1.34-1.07-2.03-1.58-.56-.41-.58-.86-.49-1.55.24-1.93,1.16-3.01,3.15-3.09.33-.01.66-.16.99-.25.62-.16.82-.55.67-1.16-.33-1.42-.66-2.84-.98-4.26-.17-.76-.63-.92-1.34-.73-.82.22-1.66.41-2.51.57-1,.18-1.56-.61-1.62-1.29-.06-.83.86-.4,1.3-.41,2.57-.06,5.14-.09,7.71-.03,1.24.03,1.68-.46,1.63-1.67-.07-1.76-.01-3.51-.01-5.27,0-3.21,0-6.43-.01-9.64,0-.52.07-1.35-.86-.86-1.33.71-1.37,0-1.42-1.04-.22-4.28-.52-8.55-.74-12.82-.05-.9-.43-1.19-1.27-1.18-1.5.03-3,.05-4.5,0-1.1-.05-1.48.36-1.54,1.47-.23,4.74-.55,9.48-.86,14.61-.23-2.01-1.05-1.01-1.61-.69-.75.43-1.01.38-1.06-.56-.22-4.49-.52-8.97-.75-13.46-.05-.96-.36-1.43-1.37-1.37-.94.05-1.89-.01-2.83.01-3.37.1-2.99-.75-3.28,3.19-.38,5.25-.6,10.51-.89,15.76-.06,0-.12.02-.18.03,0-.55.04-1.1,0-1.65-.07-.79.4-1.88-.28-2.3-.71-.44-1.44.48-2.12.86-1.38.76-1.57.65-1.66-.9-.24-4.61-.52-9.23-.77-13.85-.04-.81-.39-1.15-1.19-1.14-1.54.02-3.08.04-4.62-.01-1.02-.04-1.42.29-1.48,1.38-.36,6.49-.82,12.99-1.19,19.48-.06,1.03-.38,1.73-1.34,2.09-1.04.4-1.34,1.16-1.3,2.23.06,1.93.01,3.86.02,5.79M71.36,143.43c1.72-.42,1.79-.34,2.14,1.3.17.8-.14,1.19-.84,1.24-2.17.16-3.52,1.05-3.32,3.47.01.16-.07.33-.12.49q-.7,2.31,1.26,3.85c1.06.83.86,2.34-.37,2.85-.29.12-.5-.01-.71-.16-.28-.2-.54-.42-.81-.63-.65-.49-1.23-1.2-1.96-1.41-.79-.23-1.18.82-1.86,1.16-.7.35-1.41.64-2.18.73-.76.09-1.02.5-1.01,1.21.02.64-.04,1.29,0,1.93.07.99-.38,1.32-1.35,1.4-1.06.09-1.56-.17-1.45-1.28.03-.34-.03-.69,0-1.03.16-1.37-.09-2.32-1.79-2.35-.87-.01-1.64-.57-2.14-1.29-.55-.81-1.02-.71-1.63-.11-.46.45-1,.8-1.5,1.21-.66.55-1.18,1.01-1.96-.01-.76-.99-.76-1.62.3-2.25.15-.09.28-.2.41-.31q1.62-1.29.88-3.18c-.29-.73-.42-1.51-.29-2.27.18-1.03-.3-1.39-1.21-1.52-.72-.11-1.43-.29-2.13-.48-1.08-.29-.71-1.05-.58-1.77.14-.76.46-1.24,1.29-.9,2.12.88,3.67.54,4.67-1.76.62-1.44,1.98-1.58,3.57-1.21-5.34,3.68-4.51,9.52-1.84,12.26,3.22,3.3,8.44,3.03,11.48-.56,3.12-3.69,2.03-8.42-2.74-11.89,2.21-.49,3.1-.09,4.52,2.03q1.17,1.75,3.25,1.24M60.29,141.38c3.38,0,5.94,2.58,5.9,5.96-.04,3.3-2.61,5.77-5.97,5.73-3.16-.04-5.79-2.65-5.76-5.73.03-3.29,2.64-5.96,5.83-5.96M70.37,125.01c.26-4.78.5-9.57.79-14.35.09-1.49.39-1.57,2.69-1.55,1.28.02,1.28.75,1.33,1.69.21,4.06.44,8.12.72,12.17.06.83-.12,1.37-.89,1.78-1.18.61-2.3,1.32-3.46,1.97-1.11.63-1.21.57-1.22-.67,0-.34,0-.69,0-1.03h.05M59.54,110.2c.04-.77.41-1.02,1.13-1.07,2.52-.19,2.8.06,2.92,2.53.16,3.42.35,6.84.55,10.6.81,1.78-.51,2.68-2.14,3.45-.89.42-1.71.98-2.56,1.47-.52.3-.89.37-.85-.45.32-5.51.65-11.02.95-16.53M46.17,110.31c.08-1.46,1.1-1.11,1.87-1.17,1.97,0,2.09.13,2.19,2.01.23,4.27.47,8.54.75,12.8.06.88-.17,1.44-.99,1.86-1.37.7-2.69,1.5-4.02,2.28-.61.35-.84.24-.8-.49.34-5.76.7-11.53,1-17.29M46.25,130.01c2.54-1.07,4.82-2.75,7.23-4.14,1.34-.77,1.35-.75,1.36.75,0,1.29.03,2.57,0,3.85-.03,1.07.32,1.32,1.27.77,3.07-1.79,6.15-3.57,9.23-5.33.36-.21.72-.67,1.13-.47.44.21.2.77.21,1.18.03,1.2,0,2.4.02,3.6.02,1.22.18,1.31,1.23.71,2.97-1.7,5.95-3.39,8.89-5.13.89-.53,1.22-.53,1.2.65-.05,3.42-.05,6.85,0,10.28.01,1.05-.34,1.43-1.41,1.42-3.68-.05-7.36-.02-12.88-.02-5.27-.17-12.37.38-19.47.26-1.68-.03-1.49-.05-1.74-1.74-.49-3.28.6-5.31,3.74-6.63" fill="#fff"/>
      <path d="M86.49,240.15c-3.37-2.58-6.67-5.25-10.02-7.85-.66-.52-1.04-1.06-1-1.94.08-1.49-.35-2.89-1.02-4.2-.81-1.59-1.9-2.91-3.51-3.81-1.57-.88-3.01-1.99-4.92-2.09-.41-.02-.64-.54-.9-.88-2.38-3.09-4.75-6.18-7.14-9.27-.53-.68-.99-1.38-1.22-2.23-.22-.79-.65-1.58-1.43-1.9-1.99-.83-2.53-2.82-3.57-4.37-.57-.84.62-1.12,1.09-1.59.24-.24.47-.23.69.13.71,1.16,1.86,1.32,2.66.22,1.7-2.35,3.91-4.03,6.62-5.04.33-.12.75-.44,1.06-.06.24.3-.03.66-.16.96-.64,1.5-1.2,3.04-1.5,4.64-.52,2.79-.18,5.46,1.21,7.97.29.51.62,1,1.26.94.73-.07.96.38,1.24.88,1.35,2.36,2.93,4.56,5.19,6.13,2.94,2.04,4.96,4.68,5.74,8.22.13.58.4,1.2,1.15,1.21.76.01,1.14-.52,1.34-1.18.23-.78.42-1.58.67-2.54,1.65,2.38,2.76,4.78,3.48,7.36.13.48.28.93.95.73.63-.18.64-.64.5-1.12-.92-3.3-2.42-6.32-4.56-9-.35-.44-.82-.64-1.37-.44-.56.19-.76.65-.77,1.21,0,.69,0,1.38,0,2.06-1.31-3.15-3.27-5.6-5.99-7.52-2.39-1.69-4.11-3.98-5.4-6.6-.39-.79-.74-1.56-1.85-1.45-.47.05-.64-.38-.78-.74-.27-.72-.5-1.45-.63-2.22-.52-3.32.76-6.23,2.04-9.14.29-.66.84-1.29.22-2-.59-.68-1.33-.4-2.04-.21-3.45.93-6.33,2.75-8.53,5.61-.92-1.38-1.42-1.51-2.76-.66-.43.27-.85.56-1.22.89-.57.51-.99.48-1.41-.22-.42-.7-.93-1.34-1.38-2.01-1.95-2.88-1.94-2.87-4.73-.77-.63.48-.67.87-.24,1.49,1.08,1.54,2.1,3.14,3.19,4.67.53.74.63,1.39.19,2.24-1.15,2.24-1.61,4.77-1.65,7.3-.05,3.2.27,6.34,1.24,9.55-.89-.09-1.62-.26-2.02.53-.37.72.12,1.22.47,1.75,1.81,2.73,2.96,5.67,3.25,8.96.1,1.08.11,2.13-.04,3.2-.08.56.05,1.06.74,1.11.67.05.73-.46.79-.94.02-.13.01-.26.02-.39.27-3.96-.51-7.67-2.49-11.13-.25-.44-.67-.83.26-1.1.97-.28.96-1.1.66-1.9-1.3-3.62-1.45-7.38-1.26-11.17.08-1.55.39-3.07,1.07-4.47.14-.28.35-.98.75-.45.72.97,1.81,1.84,1.79,3.16-.01,1.21.55,1.98,1.42,2.63.39.29.74.65,1,1.06,2.77,4.29,5.53,8.59,8.32,12.87.36.56.35,1.25.04,1.84-.56,1.07-.72,2.25-.45,3.41.47,2-.42,3.4-1.81,4.63-4.29,3.78-8.69,7.41-13.65,10.29-.5.29-.54,1-.06,1.34.27.18.62.18.89,0,1.85-1.24,3.59-2.39,5.31-3.57,1.76-1.21,3.48-2.48,5.03-3.95.74-.71,1.18-.77,1.61.22,1.05,2.39,2.61,4.43,4.69,6.03.61.47.74.88.15,1.45-.25.25-.49.53-.71.81-.13.17-.18.39-.14.6.12.6.88.82,1.29.36.65-.71,1.3-1.43,1.94-2.14.14-.16.37-.4.32-.52-.38-1.01.36-1.49.93-2.02.64-.59.9-1.13.08-1.76-.46-.35-.4-.78-.17-1.26.34-.71.74-1.32,1.5-1.69,1.05-.52,1.91-1.29,2.59-2.26,1.09-1.54.84-1.07,2.86,1.33,1.96,2.33,3.74,4.79,5.54,7.25.65.9,1.19.88,2.1.08,1.37-1.2,2.81-2.34,4.39-3.27,1.69-.99,2.09-1.38.91-2.28M52.2,207.07c-.61.23-.7-.56-1.03-.71-.9-.41-1.44-1.33-1.79-2.25-.62-1.64-1.66-3-2.62-4.4-.26-.38-.23-.71.16-.99.65-.46,1.31-.36,1.46,2.19.14,2.43,1.97,4.15,4.25,4.99.2.07.21.3.26.45-.06.42-.36.59-.68.72M73.4,228.33c-.16-.19-.41-.36-.47-.58-.42-1.55-1.75-2.17-2.99-2.75-.89-.42-1.14-1.01-1.24-1.84,2.65.73,4.19,2.48,4.7,5.17M58.51,218.17c-1.37-2.11-2.73-4.23-4.07-6.36-.21-.33-.67-.7-.23-1.12.4-.37.89-.63,1.25-.88.49.04.64.32.81.55,1.76,2.31,3.5,4.63,5.28,6.92.56.73.3,1.07-.4,1.46-1.65.93-1.64.96-2.64-.58M60.85,221.82c-.34-.49-.18-1.08.35-1.34.4-.2.8-.43,1.18-.66.58-.35,1.06-.28,1.41.32.67,1.14,1.62,1.84,3.03,1.97-1.33.59-1.86,1.78-2.48,2.88-.47.84-.84.99-1.4.06-.65-1.1-1.37-2.17-2.09-3.22M63.55,244.02c-2.11-1.66-3.49-3.85-4.39-6.37-.16-.45.09-.74.47-.93.38-.19.56.1.69.37,1.1,2.13,2.62,3.9,4.51,5.37.19.15.31.39.41.52,0,.78-1.16,1.47-1.7,1.04M71.89,230.68c-.81,1.03-1.22,2.2-1.47,3.49-.34,1.73-1.47,3.01-3.04,3.76-.92.44-1.54,1.01-1.91,1.94-.1.26-.18.6-.64.6-.16-.13-.36-.28-.54-.46-.85-.85-1.54-1.83-2.2-2.83-.73-1.1-1.19-2.11-.07-3.32.59-.64.43-1.62.42-2.47-.01-.86-.08-1.71-.01-2.56.04-.53.09-1.28.95-.46.58.56.85-.13.99-.51.46-1.23,1.38-2.16,1.98-3.29.14-.25.27-.59.64-.55.44.05.45.47.53.78.1.41.15.84.23,1.26.08.42.3.81.74.72,2.09-.46,2.64,1.29,3.56,2.47.34.44.21.98-.14,1.43M83.97,241.81c-1.06.73-2.13,1.45-3.13,2.27-1.06.86-1.21-.34-3.09-3.72-1.21-2.18-2.99-3.96-4.95-5.5-.46-.36-.68-.79-.65-1.31.01-.65.29-1.2.8-1.54.58-.38.93.2,1.31.5,3.23,2.53,6.44,5.1,9.71,7.59.97.73.82,1.14,0,1.71" fill="#fff"/>
      <path d="M98.65,160.64c-4.15.06-7.3,3.23-7.3,7.37,0,4.17,3.25,7.45,7.38,7.44,3.94-.02,7.34-3.47,7.33-7.45,0-3.97-3.47-7.41-7.41-7.36M98.63,173.12c-2.8,0-5.07-2.22-5.12-5.04-.06-2.72,2.38-5.17,5.16-5.19,2.76-.02,5.05,2.28,5.06,5.09,0,2.92-2.18,5.13-5.1,5.14" fill="#fff"/>
      <path d="M155.06,193.75c-.35-.18-.77-.05-.95.3-2.86,5.43-7.88,11.81-12.31,17.44-1.05,1.34-2.06,2.61-2.98,3.81-3.3,1.26-6.04,3.88-7.5,7.08-.02-.19-.05-.37-.08-.56.19-1.24.44-2.52.75-3.92,6.52-1.97,5.3-10.59,4.69-14.8-.03-.21-.16-.4-.34-.51-.18-.11-.41-.12-.61-.05l-.09.04c-2.75,1.1-4.9,3.46-5.88,6.46-.97,2.96-.65,6.07.85,8.57-.07.31-.14.62-.2.93-1.42-3.72-4.22-6.91-7.82-8.65-.24-.12-.53-.09-.74.08-.21.16-.31.43-.26.69.96,4.94,2.83,11.52,8.03,12.77-.34,3.25-.24,6.44.38,10.76.05.35.35.61.7.61.03,0,.07,0,.1,0,.39-.06.65-.41.6-.8-.34-2.38-.51-4.41-.55-6.3.02,0,.03,0,.05,0h0c7.13-.02,10.4-8.56,11.47-12.22,0,0,0-.02,0-.03.06-.22,0-.45-.14-.63-.16-.19-.39-.28-.64-.25-.17.02-.33.06-.49.09.58-.75,1.19-1.52,1.81-2.31,4.47-5.67,9.53-12.11,12.45-17.65.18-.35.05-.77-.3-.95M131.09,209.49c.76-2.32,2.31-4.2,4.32-5.25.67,5.14.65,10.29-3.05,12.04.23-.94.48-1.94.75-3,.1-.38-.13-.76-.51-.86-.38-.1-.76.13-.86.51-.23.88-.43,1.7-.63,2.5-.66-1.84-.69-3.93-.03-5.93M123.27,211.89c2.9,1.83,5.08,4.73,6.1,8-.52-.75-1.09-1.48-1.71-2.15-.27-.28-.71-.3-1-.04-.28.26-.3.71-.04,1,.83.9,1.54,1.9,2.17,2.95-3.15-1.55-4.66-5.91-5.52-9.75M132.68,226.05c.96-1.01,2.06-2.01,3.38-2.77.34-.2.45-.63.25-.97-.2-.34-.63-.45-.97-.25-1.32.77-2.43,1.74-3.39,2.72,1.1-4.14,4.51-7.58,8.69-8.59-1.1,3.29-3.55,8.66-7.97,9.86" fill="#fff"/>
      <path d="M151.96,219.36l-11.27,11.02c-.3-1.03-.86-1.96-1.68-2.76-.28-.27-.73-.27-1,0-.27.28-.27.73,0,1,1.22,1.19,1.72,2.76,1.45,4.53-.56,3.62-4.07,7.47-9.14,10.03-1.64.72-3.46,1.08-5.19,1.38-.96.16-1.9.3-2.82.38-.13-.25-.29-.47-.44-.66-.16-.2-.3-.38-.36-.57-.12-.4-.09-.73.08-1.03.65-1.07,3.1-1.53,3.91-1.68.28-.05.6-.11.92-.24.39-.16.7-.38.98-.58.2-.15.4-.29.6-.38.53-.25,1.11-.39,1.69-.41.1,0,.28-.01.48-.13.22-.12.33-.31.39-.4.34-.57.91-1,1.55-1.17.38-.1.6-.48.5-.86-.1-.38-.48-.6-.86-.5-.94.24-1.77.84-2.32,1.67-.7.05-1.4.24-2.04.54-.32.15-.58.34-.82.52-.23.17-.45.32-.67.41-.19.08-.41.12-.66.16-1.8.34-3.98.91-4.85,2.34-.39.64-.47,1.38-.23,2.17.11.36.3.64.49.87-.54-.01-1.07-.06-1.57-.17-.27-.06-.51-.13-.72-.23-.24-.11-.32-.2-.32-.23,0,0-.02-.06.03-.22.09-.31.33-.58.61-.89.14-.16.27-.32.39-.48.02-.02.03-.04.05-.06.02-.02.04-.04.06-.07,0-.01,0-.03.02-.04.05-.07.12-.13.14-.22.39-1.44,2.12-2.42,3.8-3.37,1.26-.71,2.56-1.44,3.39-2.42.25-.3.22-.74-.08-.99-.3-.25-.74-.22-.99.08-.67.79-1.81,1.43-3.01,2.1-1.62.91-3.27,1.86-4.09,3.32-.05-.06-.1-.1-.12-.13-.23-.31-.38-.65-.43-.97-.07-.45.07-.8.43-1.1.27-.23.58-.42.91-.63.28-.17.56-.35.83-.55l.55-.41c.42-.32.83-.63,1.27-.93.87-.59,1.76-1.2,2.56-1.97,1.4-1.36,2.27-3.19,2.53-5.29.03-.25-.08-.5-.29-.65-.21-.15-.48-.18-.71-.07-.71.33-2.12.61-2.91.59-.22-.01-.43.09-.57.26-.14.17-.19.4-.14.61.34,1.48-.81,2.44-1.17,2.7-.69.49-1.5.72-2.11.62.07-.25.13-.49.2-.73,1.22-4.47,1.78-6.52,6.83-8.27.37-.13.56-.53.43-.9-.13-.37-.53-.56-.9-.43-5.75,2-6.46,4.57-7.73,9.23-.12.43-.24.87-.37,1.34-.08.3.04.63.31.79,1.12.69,2.79.48,4.16-.51,1.18-.86,1.83-2.06,1.81-3.34.49-.05,1.03-.15,1.53-.27-.33,1.3-.97,2.42-1.9,3.31-.71.69-1.56,1.26-2.37,1.82-.46.31-.89.64-1.33.97l-.53.41c-.23.17-.48.32-.73.48-.36.22-.73.45-1.08.75-.74.63-1.06,1.45-.91,2.39.08.56.33,1.12.7,1.61,0,0,.2.26.47.52-.33.37-.69.79-.87,1.37-.12.39-.13.75-.02,1.07.15.46.51.82,1.08,1.08.31.14.65.25,1.01.32.72.15,1.45.22,2.2.22,1.41,0,2.88-.22,4.38-.47,1.82-.31,3.74-.7,5.55-1.49,5.5-2.78,9.3-7.03,9.93-11.09.07-.44.08-.86.08-1.28,0,0,.02-.01.03-.02l11.97-11.71c.28-.27.28-.72,0-1-.27-.28-.72-.28-1-.01" fill="#fff"/>
      <path d="M109.55,112.55h.02c1.19,0,1.92.94,2.77,2.03.97,1.24,2.07,2.66,4.06,2.66h.03c2.07-.01,2.96-1.56,3.67-2.79.73-1.26,1.19-1.97,2.27-1.98,1.21.01,1.94.94,2.79,2.03.97,1.25,2.07,2.64,4.09,2.66,2.07-.02,2.96-1.56,3.67-2.8.73-1.26,1.19-1.97,2.27-1.98h.01c1.19,0,1.93.94,2.77,2.03.97,1.25,2.09,2.69,4.09,2.66,2.07-.01,2.96-1.56,3.67-2.8.73-1.26,1.19-1.97,2.27-1.98.45,0,.81-.37.81-.82,0-.45-.37-.81-.81-.81h0c-2.07.01-2.96,1.56-3.67,2.8-.73,1.26-1.19,1.97-2.27,1.98-1.2.04-1.94-.93-2.79-2.03-.97-1.24-2.07-2.66-4.06-2.66h-.03c-2.07.01-2.96,1.56-3.67,2.8-.73,1.26-1.19,1.97-2.27,1.98h-.02c-1.19,0-1.92-.94-2.77-2.03-.97-1.25-2.1-2.65-4.09-2.66-2.07.02-2.96,1.56-3.67,2.8-.73,1.26-1.19,1.97-2.27,1.98h-.02c-1.19,0-1.92-.94-2.77-2.03-.98-1.25-2.07-2.69-4.09-2.66-.45,0-.81.37-.81.82,0,.45.37.81.81.81" fill="#fff"/>
      <path d="M109.55,119.99h.02c1.19,0,1.92.94,2.77,2.03.97,1.25,2.07,2.66,4.06,2.66h.03c2.07-.01,2.96-1.56,3.67-2.8.73-1.26,1.19-1.97,2.27-1.98h.02c1.19,0,1.92.94,2.77,2.03.97,1.25,2.07,2.66,4.05,2.66h.03c2.07-.01,2.96-1.56,3.68-2.8.73-1.26,1.19-1.97,2.27-1.98h.01c1.19,0,1.93.94,2.77,2.03.97,1.25,2.07,2.66,4.06,2.66h.03c2.07-.01,2.96-1.56,3.67-2.8.73-1.26,1.19-1.97,2.27-1.98.45,0,.81-.37.81-.82,0-.45-.35-.79-.82-.81-2.07.01-2.96,1.56-3.67,2.8-.73,1.26-1.19,1.97-2.27,1.98h-.01c-1.19,0-1.93-.94-2.77-2.03-.97-1.25-2.07-2.66-4.06-2.66h-.03c-2.07.01-2.96,1.56-3.67,2.8-.73,1.26-1.19,1.97-2.27,1.98h-.02c-1.19,0-1.92-.94-2.77-2.03-.97-1.24-2.07-2.66-4.05-2.66h-.03c-2.07.01-2.96,1.56-3.67,2.8-.73,1.26-1.19,1.97-2.27,1.98h-.01c-1.19,0-1.93-.94-2.77-2.03-.97-1.25-2.07-2.66-4.06-2.66h-.03c-.45,0-.81.37-.81.82,0,.45.37.81.81.81" fill="#fff"/>
      <path d="M109.55,127.8h.02c1.19,0,1.92.94,2.77,2.03.97,1.24,2.07,2.66,4.06,2.66h.03c2.07-.01,2.96-1.56,3.67-2.79.73-1.26,1.19-1.97,2.27-1.98,1.21.02,1.94.94,2.79,2.03.97,1.25,2.07,2.65,4.09,2.66,2.07-.02,2.96-1.56,3.67-2.8.73-1.26,1.19-1.97,2.27-1.98h.01c1.19,0,1.93.94,2.77,2.03.97,1.25,2.09,2.69,4.09,2.66,2.07-.01,2.96-1.56,3.67-2.8.73-1.26,1.19-1.97,2.27-1.98.45,0,.81-.37.81-.82,0-.45-.37-.81-.81-.81h0c-2.07.01-2.96,1.56-3.67,2.8-.73,1.26-1.19,1.97-2.27,1.98-1.2.04-1.94-.94-2.79-2.03-.97-1.24-2.07-2.66-4.06-2.66h-.03c-2.07.01-2.96,1.56-3.67,2.8-.73,1.26-1.19,1.97-2.27,1.98h-.02c-1.19,0-1.92-.94-2.77-2.03-.97-1.25-2.1-2.65-4.09-2.66-2.07.02-2.96,1.56-3.67,2.8-.73,1.26-1.19,1.97-2.27,1.98h-.02c-1.19,0-1.92-.94-2.77-2.03-.97-1.25-2.07-2.66-4.06-2.66h-.03c-.45,0-.81.37-.81.82,0,.45.37.81.81.81" fill="#fff"/>
      <path d="M109.55,136.21h.02c1.19,0,1.92.94,2.77,2.03.97,1.25,2.07,2.66,4.06,2.66h.03c2.07-.02,2.96-1.56,3.67-2.8.73-1.26,1.19-1.97,2.27-1.98h.02c1.19,0,1.92.94,2.77,2.03.97,1.25,2.07,2.66,4.05,2.66h.03c2.07-.01,2.96-1.56,3.68-2.8.73-1.26,1.19-1.97,2.27-1.98,1.22-.02,1.94.94,2.79,2.03.97,1.25,2.07,2.66,4.05,2.66h.03c2.07-.01,2.96-1.56,3.67-2.8.73-1.26,1.19-1.97,2.27-1.98.45,0,.81-.37.81-.82,0-.45-.37-.81-.81-.81h0c-2.07.01-2.96,1.56-3.67,2.8-.73,1.26-1.19,1.97-2.27,1.98-1.2.02-1.94-.93-2.79-2.03-.97-1.25-2.09-2.69-4.09-2.66-2.07.01-2.96,1.56-3.67,2.8-.73,1.26-1.19,1.97-2.27,1.98-1.21.03-1.94-.93-2.79-2.03-.97-1.25-2.09-2.69-4.09-2.66-2.07.01-2.96,1.56-3.67,2.8-.73,1.26-1.19,1.97-2.27,1.98-1.21-.01-1.94-.94-2.79-2.03-.97-1.25-2.07-2.66-4.06-2.66h-.03c-.45,0-.81.37-.81.82,0,.45.37.81.81.81" fill="#fff"/>
      <path d="M109.55,144.61h0c1.2-.03,1.94.94,2.79,2.03.97,1.25,2.07,2.66,4.06,2.66h.03c2.07-.01,2.96-1.56,3.67-2.8.73-1.26,1.19-1.97,2.27-1.98h.01c1.19,0,1.93.94,2.77,2.03.97,1.24,2.07,2.66,4.05,2.66h.03c2.07-.01,2.96-1.56,3.68-2.79.73-1.26,1.19-1.97,2.27-1.98h.01c1.19,0,1.93.94,2.77,2.03.97,1.25,2.07,2.66,4.06,2.66h.03c2.07-.01,2.96-1.56,3.67-2.8.73-1.26,1.19-1.97,2.27-1.98.45,0,.81-.37.81-.82,0-.45-.37-.81-.81-.81h0c-2.07.01-2.96,1.56-3.67,2.8-.73,1.26-1.19,1.97-2.27,1.98h-.01c-1.19,0-1.93-.94-2.77-2.03-.97-1.24-2.07-2.66-4.06-2.66h-.03c-2.07.02-2.96,1.56-3.67,2.8-.73,1.26-1.19,1.97-2.27,1.98-1.21,0-1.94-.94-2.79-2.03-.97-1.25-2.07-2.66-4.06-2.66h-.03c-2.07.01-2.96,1.56-3.67,2.8-.73,1.26-1.19,1.97-2.27,1.98h-.01c-1.19,0-1.93-.94-2.77-2.03-.98-1.25-2.07-2.68-4.09-2.66-.45,0-.81.37-.81.82,0,.45.37.81.81.81" fill="#fff"/>
      <path d="M158.35,105.48c-.45,0-.81.36-.81.81v3.48l-2.71-3.94s-.04-.03-.05-.05c-.04-.04-.08-.08-.12-.12-.04-.03-.08-.06-.13-.08-.04-.02-.09-.04-.14-.06-.06-.02-.11-.03-.17-.03-.02,0-.04-.01-.07-.01-.03,0-.05.01-.08.01-.06,0-.11.02-.16.03-.05.02-.1.04-.15.06-.02.01-.05.02-.07.03-.02.01-.03.04-.05.05-.04.04-.08.08-.12.12-.03.04-.06.08-.08.12-.02.05-.04.09-.06.14-.02.05-.03.11-.03.16,0,.02-.01.05-.01.07v43.97c0,.45.37.81.82.81s.81-.36.81-.81v-5.42l2.54,3.69s.02.01.03.02v1.7c0,.45.36.81.81.81s.82-.36.82-.81v-43.97c0-.45-.37-.81-.82-.81M155.1,130.18l2.44-3.55v7.09l-2.44-3.55ZM154.97,127.49v-6.6l2.27,3.3-2.27,3.3ZM155.1,118.2l2.44-3.55v7.09l-2.44-3.55ZM154.97,115.51v-6.6l2.27,3.3-2.27,3.3ZM154.97,132.87l2.27,3.3-2.27,3.3v-6.6ZM155.1,142.15l2.44-3.55v7.09l-2.44-3.55Z" fill="#fff"/>
      <path d="M222.61,53.81h38.73c21.45,0,36.01,9.75,36.01,31.85v.91c0,23.4-15.99,32.5-36.01,32.5h-12.87v25.74h-25.87V53.81ZM258.87,96.06c8.19,0,12.87-2.34,12.87-9.49v-.39c0-6.76-4.55-8.97-12.87-8.97h-10.4v18.85h10.4Z" fill="#cf995d"/>
      <path d="M303.46,114.64v-60.83h25.87v55.11c0,7.67,5.07,12.48,13.52,12.48h.39c9.23,0,13.65-4.68,13.65-12.48v-55.11h25.87v60.7c0,20.41-14.3,31.72-39.13,31.72h-.39c-25.47,0-39.77-11.31-39.77-31.59" fill="#cf995d"/>
      <polygon points="392.11 53.81 459.44 53.81 459.44 77.21 417.97 77.21 417.97 89.82 458.27 89.82 458.27 108.27 417.97 108.27 417.97 121.4 459.31 121.4 459.31 144.8 392.11 144.8 392.11 53.81" fill="#cf995d"/>
      <path d="M467.5,53.81h43.81c18.85,0,28.59,8.06,28.59,22.23,0,11.96-7.02,19.24-17.42,20.8v.65c10.79,1.17,21.19,7.15,21.19,22.75s-11.05,24.57-33.54,24.57h-42.63V53.81ZM505.06,90.73c5.59,0,8.32-2.34,8.32-7.28,0-4.68-2.73-6.76-8.84-6.76h-11.18v14.04h11.7ZM505.97,121.92c7.28,0,10.53-1.82,10.53-7.28s-3.12-7.67-9.75-7.67h-13.39v14.95h12.61Z" fill="#cf995d"/>
      <polygon points="551.08 53.81 576.95 53.81 576.95 121.4 615.81 121.4 615.81 144.8 551.08 144.8 551.08 53.81" fill="#cf995d"/>
      <path d="M649.87,53.81h31.07l32.1,90.99h-27.3l-5.98-17.81h-30.67l-5.59,17.81h-27.17l33.53-90.99ZM674.95,107.24l-10.53-32.89-10.27,32.89h20.8Z" fill="#cf995d"/>
      <path d="M234.02,231.76v-.09c0-1.59-.91-3-3.28-3h-.19c-1.97,0-3.38.97-3.72,3.63l-4.1-.53c.53-4.6,3.32-6.57,7.88-6.57h.28c5.1,0,7.51,2.59,7.51,6.29v.09c0,6.66-8.63,8.88-10.89,12.48h10.64v3.54h-15.61v-1.6c0-7.23,11.48-8.85,11.48-14.23" fill="#fff"/>
      <path d="M281.88,236.96v-.38c0-7.38,3.97-11.29,9.1-11.29h.22c4.91,0,8.88,3.79,8.88,11.26v.37c0,7.26-3.75,11.07-9.04,11.07h-.22c-4.97,0-8.95-3.72-8.95-11.04M295.73,236.74v-.31c0-4.22-1.88-7.2-4.72-7.2h-.22c-2.78,0-4.78,2.75-4.78,7.29v.31c0,4.35,1.91,7.22,4.78,7.22h.22c2.85,0,4.72-2.75,4.72-7.32" fill="#fff"/>
      <path d="M354.79,231.76v-.09c0-1.59-.91-3-3.28-3h-.19c-1.97,0-3.38.97-3.72,3.63l-4.1-.53c.53-4.6,3.32-6.57,7.88-6.57h.28c5.1,0,7.51,2.59,7.51,6.29v.09c0,6.66-8.63,8.88-10.89,12.48h10.64v3.54h-15.61v-1.6c0-7.23,11.48-8.85,11.48-14.23" fill="#fff"/>
      <path d="M411.5,242.74h-10.39v-3.32l9.98-13.73h4.6v13.58h2.6v3.47h-2.75v4.85h-4.04v-4.85ZM411.72,239.3v-8.63l-6.41,8.63h6.41Z" fill="#fff"/>
      <rect x="461.92" y="237.71" width="7.51" height="2.38" fill="#fff"/>
      <path d="M525.23,231.76v-.09c0-1.59-.91-3-3.28-3h-.19c-1.97,0-3.38.97-3.72,3.63l-4.1-.53c.53-4.6,3.32-6.57,7.88-6.57h.28c5.1,0,7.51,2.59,7.51,6.29v.09c0,6.66-8.63,8.88-10.89,12.48h10.64v3.54h-15.61v-1.6c0-7.23,11.48-8.85,11.48-14.23" fill="#fff"/>
      <path d="M573.09,236.96v-.38c0-7.38,3.97-11.29,9.1-11.29h.22c4.91,0,8.88,3.79,8.88,11.26v.37c0,7.26-3.75,11.07-9.04,11.07h-.22c-4.97,0-8.95-3.72-8.95-11.04M586.95,236.74v-.31c0-4.22-1.88-7.2-4.72-7.2h-.22c-2.78,0-4.78,2.75-4.78,7.29v.31c0,4.35,1.91,7.22,4.78,7.22h.22c2.85,0,4.72-2.75,4.72-7.32" fill="#fff"/>
      <path d="M634.46,241.65l4.16-.81c.44,2.82,2.1,3.81,4.22,3.81h.06c2,0,3.78-1.13,3.78-3.5v-.16c0-2.5-1.41-3.41-4.78-3.41h-1v-2.5l.66-.03c2.94-.03,4.6-1.16,4.6-3.28v-.09c0-1.6-.91-3-3.1-3h-.16c-1.97,0-3.44.91-3.82,3.44l-4.19-.66c.62-4.41,3.97-6.26,8.04-6.26h.22c4.53,0,7.19,2.6,7.19,5.82v.09c0,2.53-1.28,4.13-3.53,4.94v.06c2.91.53,4.32,2.28,4.32,5.38v.09c0,4.16-3.54,6.51-8.29,6.51h-.06c-4.69,0-7.82-2.22-8.32-6.44" fill="#fff"/>
      <path d="M694.46,236.96v-.38c0-7.38,3.97-11.29,9.1-11.29h.22c4.91,0,8.88,3.79,8.88,11.26v.37c0,7.26-3.75,11.07-9.04,11.07h-.22c-4.97,0-8.95-3.72-8.95-11.04M708.32,236.74v-.31c0-4.22-1.88-7.2-4.72-7.2h-.22c-2.78,0-4.79,2.75-4.79,7.29v.31c0,4.35,1.91,7.22,4.79,7.22h.22c2.85,0,4.72-2.75,4.72-7.32" fill="#fff"/>
      <path d="M465.84,411.24c0,10.14-6.4,18.73-17.48,18.73h-11.24v14.98h-19.97v-52.43h31.21c11.16,0,17.48,8.58,17.48,18.72M445.86,411.87c0-3.82-2.26-5.62-4.99-5.62h-3.75v11.24h3.75c2.73,0,4.99-1.72,4.99-5.62" fill="#fff"/>
      <path d="M518.5,392.52v29.96c0,13.81-9.99,23.72-26.22,23.72s-26.22-9.91-26.22-23.72v-29.96h19.97v28.71c0,6.24,1.87,8.74,6.24,8.74s6.24-2.5,6.24-8.74v-28.71h19.97Z" fill="#fff"/>
      <polygon points="541.21 407.5 541.21 412.49 553.69 412.49 553.69 424.97 541.21 424.97 541.21 429.97 557.44 429.97 557.44 444.95 521.23 444.95 521.23 392.52 557.44 392.52 557.44 407.5 541.21 407.5" fill="#fff"/>
      <path d="M608.86,429.19c0,9.05-6.71,15.76-17.95,15.76h-30.74v-52.43h28.16c11.24,0,18.02,5.38,18.02,14.43,0,4.14-2.03,7.8-4.91,10.53,4.29,2.42,7.41,6.48,7.41,11.71M580.14,413.74h2.26c2.18,0,3.98-1.17,3.98-3.74s-1.8-3.75-3.98-3.75h-2.26v7.49ZM588.88,427.47c0-2.57-2.57-3.74-5.85-3.74h-2.89v7.49h2.89c3.28,0,5.85-1.17,5.85-3.74" fill="#fff"/>
      <polygon points="645.92 429.97 645.92 444.95 609.71 444.95 609.71 392.52 629.69 392.52 629.69 429.97 645.92 429.97" fill="#fff"/>
      <path d="M704.82,444.95h-19.97l-2.11-6.24h-15.76l-2.1,6.24h-19.97l20.83-52.43h18.26l20.83,52.43ZM677.83,423.73l-2.97-8.89-2.96,8.89h5.93Z" fill="#fff"/>
      <path d="M598.04,346.62c-11.85,0-21.48,9.22-21.48,20.55s9.63,20.55,21.48,20.55,21.48-9.22,21.48-20.55-9.63-20.55-21.48-20.55M611.35,367.8c-.91,1.56-2.11,2.87-3.3,4.16-3.33,3.62-6.7,7.24-10.03,10.86-3.33-3.62-6.66-7.24-9.99-10.86-1.19-1.29-2.39-2.6-3.3-4.16-.91-1.56-1.52-3.43-1.39-5.3.2-2.86,2.19-5.32,4.58-6.2,1.95-.72,4.48-.49,6.28.63,1.8,1.12,3.28,2.48,3.82,4.75.54-2.27,1.89-3.63,3.69-4.75,1.8-1.12,4.49-1.35,6.44-.63,2.38.88,4.37,3.34,4.58,6.2.13,1.87-.48,3.74-1.39,5.3" fill="#cf995d"/>
      <path d="M435.53,368.67c0,4.99-3.33,8.91-8.95,8.91h-5.62v9.19h-3.8v-26.62h8.24c6.93,0,10.14,3.49,10.14,8.51M431.73,368.91c0-3.49-2.57-4.95-5.35-4.95h-5.43v9.82h5.66c2.77,0,5.11-1.42,5.11-4.87" fill="#fff"/>
      <path d="M463.85,373.46c0,7.53-6.1,13.63-13.62,13.63s-13.63-6.1-13.63-13.63,6.1-13.63,13.63-13.63,13.62,6.1,13.62,13.63M460.05,373.46c0-5.47-4.36-9.82-9.82-9.82s-9.82,4.36-9.82,9.82,4.36,9.82,9.82,9.82,9.82-4.36,9.82-9.82" fill="#fff"/>
      <path d="M480.76,386.77l-6.61-9.19h-4.16v9.19h-3.8v-26.62h8.24c6.93,0,10.14,3.49,10.14,8.52,0,4.12-2.26,7.49-6.22,8.56l6.85,9.55h-4.44ZM469.99,373.78h5.66c2.77,0,5.11-1.43,5.11-4.87s-2.26-4.95-5.03-4.95h-5.74v9.82Z" fill="#fff"/>
      <path d="M529.68,386.77h-14.94l-1.58-4.67h-11.79l-1.58,4.67h-14.94l15.58-39.22h13.66l15.58,39.22ZM509.49,370.9l-2.22-6.65-2.22,6.65h4.44Z" fill="#cf995d"/>
      <polygon points="577.31 386.77 563.31 386.77 562.55 369.03 557.88 386.77 546.67 386.77 541.83 369.03 541.07 386.77 527.06 386.77 529.86 347.55 545.74 347.55 552.27 369.03 559.75 347.55 574.51 347.55 577.31 386.77" fill="#cf995d"/>
      <path d="M659.38,386.77h-16.81l-7.47-11.21v11.21h-14.94v-39.22h23.35c8.35,0,13.07,6.42,13.07,14.01,0,5.43-2.45,10.21-6.89,12.55l9.69,12.66ZM641.64,362.03c0-2.86-1.69-4.2-3.74-4.2h-2.8v8.4h2.8c2.04,0,3.74-1.28,3.74-4.2" fill="#cf995d"/>
      <path d="M676.66,381.07h-11.96l-2.57,5.7h-4.12l12.67-27.25,12.68,27.25h-4.12l-2.57-5.7ZM674.92,377.27l-4.24-9.35-4.24,9.35h8.48Z" fill="#fff"/>
      <polygon points="362.38 354.61 362.38 438.2 363.58 438.2 363.58 354.61 362.9 354.61 362.38 354.61" fill="#cf9a5d"/>
      <path d="M82.07,345.2c5.46,0,10.01,1.71,13.67,5.14,3.65,3.43,5.48,8,5.48,13.71s-1.83,10.28-5.48,13.71c-3.65,3.43-8.21,5.14-13.67,5.14h-6.01v14.87h-15.02v-52.57h21.03ZM82.07,368.33c1.15,0,2.13-.39,2.93-1.16.8-.78,1.2-1.81,1.2-3.12s-.4-2.34-1.2-3.12c-.8-.78-1.78-1.16-2.93-1.16h-6.01v8.56h6.01Z" fill="#fff"/>
      <path d="M114.25,384.41c1.17,2.44,3.66,3.66,7.47,3.66,2.24,0,4.32-.78,6.23-2.34l8.86,7.47c-3.66,3.96-8.84,5.93-15.53,5.93-6.25,0-11.27-1.82-15.05-5.45-3.78-3.64-5.68-8.22-5.68-13.73s1.84-10.21,5.53-13.92c3.69-3.71,8.34-5.57,13.95-5.57s10.15,1.82,13.73,5.46c3.59,3.64,5.38,8.22,5.38,13.73,0,1.61-.2,3.2-.59,4.76h-24.32ZM114.03,375.69h12.3c-.83-2.93-2.81-4.4-5.93-4.4s-5.3,1.46-6.37,4.4" fill="#fff"/>
      <path d="M163.98,360.46c4,0,7.21,1.38,9.63,4.14,2.42,2.76,3.63,6.87,3.63,12.34v21.17h-13.55v-19.7c0-3.27-1.51-4.91-4.54-4.91-1.61,0-2.85.51-3.7,1.54-.86,1.02-1.28,2.44-1.28,4.25v18.82h-13.55v-36.62h13.55v3.59c2.25-3.08,5.52-4.61,9.81-4.61" fill="#fff"/>
      <path d="M193.27,372.25c0,.59.45,1.05,1.36,1.39.9.34,2.04.6,3.41.77,1.37.17,2.83.5,4.4.99,1.56.49,3.03,1.1,4.39,1.83,1.37.73,2.5,1.89,3.41,3.48.9,1.59,1.35,3.5,1.35,5.75s-.52,4.4-1.57,6.15c-1.05,1.76-2.43,3.07-4.14,3.95-1.71.88-3.45,1.53-5.24,1.94-1.78.42-3.62.62-5.53.62-8.84,0-14.55-2.9-17.14-8.72l11.79-5.27c.93,2.49,2.66,3.74,5.2,3.74,1.66,0,2.49-.54,2.49-1.61,0-.63-.61-1.15-1.83-1.54-1.22-.39-2.69-.79-4.4-1.21-1.71-.41-3.43-.98-5.16-1.68-1.73-.71-3.21-1.89-4.43-3.55-1.22-1.66-1.83-3.74-1.83-6.23,0-4,1.52-7.1,4.58-9.3,3.05-2.2,6.58-3.3,10.58-3.3,8.01,0,13.3,3.1,15.89,9.3l-11.21,4.03c-.88-2.05-2.25-3.07-4.1-3.07-1.51,0-2.27.51-2.27,1.54" fill="#fff"/>
      <path d="M238.02,361.48h13.55v36.62h-13.55v-3.3c-2.34,2.88-5.62,4.32-9.81,4.32-4.93,0-8.96-1.83-12.08-5.49-3.13-3.66-4.69-8.28-4.69-13.84s1.56-10.18,4.69-13.84c3.12-3.66,7.15-5.49,12.08-5.49,4.2,0,7.47,1.44,9.81,4.32v-3.3ZM226.78,384.7c1.2,1.32,2.77,1.98,4.72,1.98s3.53-.66,4.73-1.98c1.19-1.32,1.79-2.95,1.79-4.91s-.6-3.59-1.79-4.91c-1.2-1.32-2.77-1.98-4.73-1.98s-3.53.66-4.72,1.98c-1.2,1.32-1.79,2.95-1.79,4.91s.6,3.59,1.79,4.91" fill="#fff"/>
      <path d="M268.42,368.59c.68-2.49,2.02-4.42,4.03-5.79,2-1.37,4.32-2.05,6.96-2.05v14.65c-2.93-.39-5.49.18-7.69,1.72-2.2,1.54-3.3,3.99-3.3,7.36v7.89h-13.55v-30.89h13.55v7.1Z" fill="#fff"/>
      <path d="M136.94,416.59c.68-2.49,2.02-4.42,4.03-5.79,2-1.37,4.32-2.05,6.96-2.05v14.65c-2.93-.39-5.49.18-7.69,1.72-2.2,1.54-3.3,3.99-3.3,7.36v13.62h-13.55v-36.62h13.55v7.1Z" fill="#fff"/>
      <path d="M173.63,409.48h13.55v36.62h-13.55v-3.3c-2.34,2.88-5.62,4.32-9.81,4.32-4.93,0-8.96-1.83-12.08-5.49-3.13-3.66-4.69-8.28-4.69-13.84s1.56-10.18,4.69-13.84c3.12-3.66,7.15-5.49,12.08-5.49,4.2,0,7.47,1.44,9.81,4.32v-3.3ZM162.39,432.7c1.2,1.32,2.77,1.98,4.72,1.98s3.53-.66,4.73-1.98c1.19-1.32,1.79-2.95,1.79-4.91s-.6-3.59-1.79-4.91c-1.2-1.32-2.77-1.98-4.73-1.98s-3.53.66-4.72,1.98c-1.2,1.32-1.79,2.95-1.79,4.91s.6,3.59,1.79,4.91" fill="#fff"/>
      <path d="M213.84,408.46c4,0,7.21,1.38,9.63,4.14,2.42,2.76,3.63,6.87,3.63,12.34v21.17h-13.55v-19.7c0-3.27-1.51-4.91-4.54-4.91-1.61,0-2.85.51-3.7,1.54-.86,1.02-1.28,2.44-1.28,4.25v18.82h-13.55v-36.62h13.55v3.59c2.25-3.08,5.52-4.61,9.81-4.61" fill="#fff"/>
      <path d="M254.85,394.84h13.55v51.27h-13.55v-3.3c-2.34,2.88-5.62,4.32-9.81,4.32-4.93,0-8.96-1.83-12.08-5.49-3.13-3.66-4.69-8.28-4.69-13.84s1.56-10.18,4.69-13.84c3.12-3.66,7.15-5.49,12.08-5.49,4.2,0,7.47,1.44,9.81,4.32v-17.94ZM243.61,432.7c1.2,1.32,2.77,1.98,4.72,1.98s3.53-.66,4.73-1.98c1.19-1.32,1.79-2.95,1.79-4.91s-.6-3.59-1.79-4.91c-1.2-1.32-2.77-1.98-4.73-1.98s-3.53.66-4.72,1.98c-1.2,1.32-1.79,2.95-1.79,4.91s.6,3.59,1.79,4.91" fill="#fff"/>
      <path d="M283.63,432.41c1.17,2.44,3.66,3.66,7.47,3.66,2.24,0,4.32-.78,6.22-2.34l8.86,7.47c-3.66,3.95-8.84,5.93-15.53,5.93-6.25,0-11.27-1.82-15.05-5.45-3.79-3.64-5.68-8.22-5.68-13.73s1.84-10.21,5.53-13.92c3.69-3.71,8.34-5.57,13.95-5.57s10.15,1.82,13.73,5.46c3.59,3.64,5.39,8.22,5.39,13.73,0,1.61-.2,3.2-.59,4.76h-24.32ZM283.41,423.69h12.3c-.83-2.93-2.81-4.4-5.93-4.4s-5.3,1.46-6.37,4.4" fill="#fff"/>
      <path d="M79.65,423.31c.68-.52,1.34-1.07,1.99-1.63.03-.02.12-.11.26-.26v-.06c0-3.65,1.12-6.63,3.35-8.94,2.18-2.24,5-3.4,8.47-3.45,3.77-3.99,7.82-8.27,11.18-11.83-3.44-1.53-7.17-2.31-11.18-2.31-7.5,0-13.75,2.54-18.74,7.61-5,5.07-7.5,11.35-7.5,18.85,0,2.87.37,5.55,1.1,8.06,2.28-.57,4.66-1.74,6.89-3.12,1.43-.88,2.83-1.87,4.18-2.92" fill="#fff"/>
      <path d="M103.67,413.58l12.26-6.99c-1.51-2.42-3.4-4.49-5.66-6.24-2.69,2.93-6.17,6.6-9.67,10.24,1.22.74,2.25,1.74,3.07,3" fill="#fff"/>
      <path d="M94.69,416.68c-.28.29-.55.57-.83.85v11.41h10.74c-1.68,3.56-5.02,5.34-10.02,5.34-4.33,0-7.52-1.29-9.59-3.86-.66-.82-1.21-1.69-1.66-2.6-.03.02-.05.04-.08.07-1.48,1.18-3.02,2.31-4.66,3.34-1.62,1.04-3.35,1.98-5.19,2.78-.79.33-1.6.63-2.44.9,1.09,1.85,2.42,3.57,4.01,5.17,5,5.02,11.44,7.54,19.32,7.54s13.64-2.36,18.28-7.07c4.64-4.71,6.96-10.67,6.96-17.88v-5.98h-24.84Z" fill="#fff"/>
      <path d="M110.27,400.35c.8-.87,1.52-1.68,2.16-2.4-.02.02-.04.04-.05.05-.02.02-.02.03,0,0,.02-.02.05-.05.05-.05v-8.75c-.17.17-3.32,3.49-7.53,7.95.6.27,1.19.55,1.76.87,1.29.7,2.49,1.48,3.6,2.34" fill="#cf9a5d"/>
      <path d="M66.73,429.68c-.69.05-1.37.07-1.98-.04-.6-.07-.92-.23-1.21-.42-.27-.2-.52-.48-.77-.96-.25-.48-.46-1.11-.63-1.84-.34-1.45-.51-3.18-.74-5.03-.12-.93-.25-1.9-.47-2.93-.22-1.03-.51-2.12-1.07-3.29-.55-1.15-1.48-2.44-2.83-3.31-1.34-.89-2.86-1.22-4.13-1.28-.32-.02-.64-.02-.95,0-.3,0-.69.04-1.02.08-.68.1-1.33.27-1.94.48-1.22.43-2.24,1.04-3.16,1.69-1.83,1.31-3.23,2.81-4.5,4.34-.01.01-.02.03-.03.04.48-2.06.96-4.13,1.42-6.19l-6.74-2.8h0c-.97,1.65-2.23,3.28-3.6,4.84-1.38,1.55-2.87,3.06-4.45,4.46-3.17,2.8-6.62,5.36-10.27,7.33-1.82.97-3.71,1.79-5.53,2.28-1.8.5-3.61.56-4.5.08-.46-.23-.74-.48-1.13-1.13-.27-.45-.46-.99-.6-1.59,4.25-1.26,8.3-3.35,11.67-6.37,1.84-1.68,3.52-3.6,4.78-5.95.62-1.18,1.14-2.47,1.4-3.95.25-1.46.25-3.21-.56-4.93-.4-.84-1.01-1.63-1.72-2.22-.71-.59-1.49-1.02-2.26-1.3-.39-.14-.74-.25-1.16-.34-.43-.09-.86-.15-1.29-.17-.86-.04-1.7.06-2.47.26-1.54.4-2.8,1.13-3.91,1.91-1.1.8-2.04,1.69-2.89,2.63-1.69,1.88-3.04,3.93-4.17,6.09-1.11,2.16-2.01,4.44-2.61,6.85-.58,2.41-.93,4.96-.56,7.71.2,1.37.59,2.79,1.33,4.15.37.67.81,1.32,1.43,1.97.6.63,1.33,1.16,2.09,1.56,1.54.8,3.15,1.03,4.57,1.03,1.44,0,2.76-.21,4.02-.51,2.5-.61,4.75-1.55,6.88-2.62,4.27-2.14,8.15-4.76,11.78-7.72.17-.14.34-.29.52-.44-.28,1.27-.55,2.54-.83,3.8-1.21,5.49-2.45,11-3.73,16.45l6.54,1.95c1.14-3.23,2.49-6.56,3.93-9.74,1.46-3.19,3.04-6.32,4.83-9.22.9-1.45,1.85-2.85,2.87-4.11,1.01-1.26,2.11-2.42,3.22-3.22.55-.4,1.1-.71,1.58-.89.24-.09.47-.15.68-.18.11-.01.18-.03.33-.03.14,0,.28,0,.41,0,.52.02.82.12,1,.24.18.11.39.31.63.78.48.94.79,2.56,1.02,4.26.25,1.73.42,3.61.93,5.67.26,1.03.6,2.13,1.2,3.25.58,1.11,1.5,2.28,2.72,3.11,1.2.83,2.64,1.28,3.83,1.41,1.18.18,2.32.14,3.43.03,1.27-.14,2.47-.41,3.62-.77-1.02-1.74-1.82-3.59-2.39-5.55-.62.15-1.24.27-1.84.32M6.18,418.33c.93-3.83,2.85-7.68,5.4-10.6,1.25-1.43,2.79-2.63,4.07-2.93,1.09-.37,2.46.31,2.6.84.15.31.24.89.1,1.62-.13.72-.43,1.53-.85,2.32-.84,1.59-2.13,3.1-3.6,4.39-2.23,1.95-4.89,3.45-7.73,4.45,0-.03.01-.06.02-.09" fill="#cf9a5d"/>
      <path d="M112.43,397.94s-.03.03-.05.05c.01-.01.02-.02.05-.05" fill="#b4144b"/>
      <path d="M93.73,408.97c-5.63,5.95-10.64,11.24-11.82,12.46,0,2.33.49,4.46,1.44,6.39.71-.57,1.42-1.16,2.1-1.76.24-.22,3.83-3.82,8.43-8.53v-.85h.83c1.88-1.93,3.9-4,5.91-6.1-1.78-1.08-3.97-1.62-6.59-1.62-.1,0-.19,0-.29,0" fill="#cf9a5d"/>
      <path d="M78.6,431.22c1.63-1.03,3.17-2.16,4.66-3.34.02-.02.05-.04.08-.07-.95-1.93-1.43-4.05-1.44-6.39-.14.14-.23.23-.26.26-.65.56-1.32,1.1-1.99,1.63-1.35,1.05-2.75,2.04-4.18,2.92-2.23,1.38-4.61,2.55-6.89,3.12.57,1.96,1.37,3.81,2.39,5.55.84-.26,1.65-.57,2.44-.9,1.85-.8,3.57-1.74,5.2-2.78" fill="#fff"/>
      <path d="M94.01,408.97c2.62,0,4.82.54,6.59,1.62,3.5-3.64,6.98-7.31,9.67-10.24-1.11-.86-2.31-1.64-3.6-2.34-.58-.31-1.17-.6-1.76-.87-3.36,3.56-7.41,7.84-11.18,11.83.09,0,.19,0,.29,0" fill="#cf9a5d"/>
      <path d="M93.87,417.53c.27-.28.55-.56.83-.85h-.83v.85Z" fill="#cf9a5d"/>
      <g>
        <g>
          <path d="M222,176.86v-.38c0-12.04,4.65-19.26,16.52-19.26,9.74,0,14.44,4.76,15.21,13.4l-7.44,1.37c-.6-6.07-3.34-7.82-7.66-7.82h-.22c-6.02,0-8.86,3.77-8.86,12.91v.22c0,8.86,2.3,12.91,8.7,12.91h.22c4.71,0,7.61-2.46,7.99-8.81h-7.17v-4.38h14.77v19.37h-6.57v-5.25c-1.86,4.32-5.42,6.13-10.4,6.13h-.16c-11.11,0-14.94-7.93-14.94-20.41ZM238.58,157.22h-.11.11Z" fill="#fff"/>
          <path d="M257.51,183.48v-.6c0-8.75,5.47-14.72,14.99-14.72h.66c9.3,0,14.22,5.8,14.22,14.12v.49c0,8.21-4.87,14.5-14.83,14.5h-.49c-9.79,0-14.55-5.8-14.55-13.79ZM280.38,182.71v-.38c0-4.6-2.24-8.21-7.6-8.21h-.49c-5.42,0-8.04,3.5-8.04,8.43v.44c0,4.65,2.3,8.26,7.82,8.26h.27c5.8,0,8.04-3.88,8.04-8.53Z" fill="#fff"/>
          <path d="M298.38,192.23v4.16h-7.17v-38.85h7.17v15.65c2.02-3.12,5.42-5.03,9.52-5.03h.6c6.57,0,11.54,5.58,11.54,13.84v.55c0,10.01-4.81,14.72-11.98,14.72h-.44c-4.81,0-7.61-2.13-9.25-5.03ZM312.99,182.6v-.38c0-4.76-2.41-8.04-7-8.04h-.27c-4.43,0-6.89,3.39-7.33,6.46v4.05c.49,3.56,3.06,6.29,7.06,6.29h.38c4.92,0,7.17-3.17,7.17-8.37Z" fill="#fff"/>
          <path d="M323.22,158.04c0-2.52,1.97-4.27,4.27-4.27s4.21,1.91,4.21,4.27-1.91,4.27-4.21,4.27-4.27-1.91-4.27-4.27ZM323.82,169.03h7.17v27.36h-7.17v-27.36Z" fill="#fff"/>
          <path d="M334.87,182.77v-.6c0-7.82,4.71-14.06,13.9-14.06h.38c8.86,0,14.01,4.98,14.17,13.29l.05,2.57h-22.05c.55,5.14,3.56,7.66,7.93,7.66h.22c3.39,0,6.24-1.53,6.95-4.82l6.18,2.41c-1.75,5.09-6.18,8.04-13.13,8.04h-.27c-8.64,0-14.33-4.98-14.33-14.5ZM356.43,180.09v-.6c-.05-3.99-2.57-6.46-7-6.46h-.27c-4.76,0-7.39,2.52-7.88,7.06h15.16Z" fill="#fff"/>
          <path d="M366.82,169.03h7.17v5.2c1.75-3.39,5.25-5.2,9.74-5.2h1.09v6.68h-2.3c-4.76,0-7.39,1.64-8.54,5.58v15.1h-7.17v-27.36Z" fill="#fff"/>
          <path d="M401.24,174.94c-3.67,0-6.07,1.86-7.33,5.2v16.25h-7.17v-27.36h7.17v4.21c2.13-3.28,5.53-5.09,10.12-5.09,6.73,0,10.23,3.56,10.23,10.18v18.05h-7.22v-16.03c0-3.56-2.08-5.42-5.8-5.42Z" fill="#fff"/>
          <path d="M418.09,183.48v-.6c0-8.75,5.47-14.72,14.99-14.72h.66c9.3,0,14.22,5.8,14.22,14.12v.49c0,8.21-4.87,14.5-14.83,14.5h-.49c-9.79,0-14.55-5.8-14.55-13.79ZM440.96,182.71v-.38c0-4.6-2.24-8.21-7.6-8.21h-.49c-5.42,0-8.04,3.5-8.04,8.43v.44c0,4.65,2.3,8.26,7.82,8.26h.27c5.8,0,8.04-3.88,8.04-8.53Z" fill="#fff"/>
          <path d="M480.13,192.23c-1.64,2.9-4.27,5.03-9.08,5.03h-.44c-7.17,0-12.09-4.71-12.09-14.72v-.55c0-8.48,5.2-13.84,12.04-13.84h.6c4.1,0,7,1.92,8.97,5.03v-15.65h7.17v38.85h-7.17v-4.16ZM480.13,184.68v-3.72c-.27-3.06-2.63-6.78-7.06-6.78h-.33c-4.6,0-7.17,3.06-7.17,7.93v.38c0,5.31,2.35,8.48,7.28,8.48h.38c3.99,0,6.46-2.74,6.89-6.29Z" fill="#fff"/>
          <path d="M491.13,182.77v-.6c0-7.82,4.71-14.06,13.9-14.06h.38c8.86,0,14.01,4.98,14.17,13.29l.05,2.57h-22.05c.55,5.14,3.56,7.66,7.93,7.66h.22c3.39,0,6.24-1.53,6.95-4.82l6.18,2.41c-1.75,5.09-6.18,8.04-13.13,8.04h-.27c-8.64,0-14.33-4.98-14.33-14.5ZM512.69,180.09v-.6c-.05-3.99-2.57-6.46-7-6.46h-.27c-4.76,0-7.39,2.52-7.88,7.06h15.16Z" fill="#fff"/>
          <path d="M523.08,157.54h7.17v38.85h-7.17v-38.85Z" fill="#fff"/>
          <path d="M572,189.55l6.78-.71c.88,2.46,3.77,3.5,7.66,3.5h.27c5.09,0,6.4-1.81,6.4-3.88v-.06c0-6.24-20.35-1.53-20.35-11.98v-.33c0-5.31,5.25-7.93,12.75-7.93h.38c6.62,0,11.87,2.41,12.69,8.7l-6.24.49c-.6-3.88-3.83-4.82-6.84-4.82h-.27c-4.1,0-5.85,1.42-5.85,3.45v.05c0,5.36,19.86,1.09,19.86,12.47v.16c0,5.36-3.5,8.59-12.8,8.59h-.22c-8.81,0-13.3-2.85-14.23-7.71Z" fill="#fff"/>
          <path d="M605.59,187.25v-12.75h-5.85v-5.47h6.07v-10.94h6.95v10.94h5.96v5.47h-5.96v11.65c0,3.06.71,4.32,3.12,4.32h1.97v5.91h-3.01c-6.35,0-9.25-2.74-9.25-9.14Z" fill="#fff"/>
          <path d="M639.73,190.7c-1.59,3.78-5.85,6.51-10.34,6.51h-.44c-5.74,0-9.57-2.85-9.57-7.82v-.27c0-5.69,4.16-7.82,11.98-8.81l8.1-.88v-.38c.05-3.56-2.13-5.64-5.8-5.64h-.33c-3.06,0-5.74,1.15-6.4,4.76l-6.35-1.31c1.37-6.02,6.73-8.7,12.97-8.7h.49c8.21,0,12.58,3.5,12.58,10.5v17.73h-6.89v-5.69ZM639.29,182.82l-6.13.71c-4.76.6-6.62,1.97-6.62,4.49v.33c0,1.86,1.64,3.72,4.54,3.72h.49c3.78,0,7.22-3.28,7.71-9.25Z" fill="#fff"/>
          <path d="M672.07,192.23c-1.64,2.9-4.27,5.03-9.08,5.03h-.44c-7.17,0-12.09-4.71-12.09-14.72v-.55c0-8.48,5.2-13.84,12.04-13.84h.6c4.1,0,7,1.92,8.97,5.03v-15.65h7.17v38.85h-7.17v-4.16ZM672.07,184.68v-3.72c-.27-3.06-2.63-6.78-7.06-6.78h-.33c-4.6,0-7.17,3.06-7.17,7.93v.38c0,5.31,2.35,8.48,7.28,8.48h.38c3.99,0,6.46-2.74,6.89-6.29Z" fill="#fff"/>
          <path d="M683.06,183.48v-.6c0-8.75,5.47-14.72,14.99-14.72h.66c9.3,0,14.23,5.8,14.23,14.12v.49c0,8.21-4.87,14.5-14.83,14.5h-.49c-9.79,0-14.55-5.8-14.55-13.79ZM705.93,182.71v-.38c0-4.6-2.24-8.21-7.61-8.21h-.49c-5.42,0-8.04,3.5-8.04,8.43v.44c0,4.65,2.3,8.26,7.82,8.26h.27c5.8,0,8.04-3.88,8.04-8.53Z" fill="#fff"/>
        </g>
        <path d="M545.31,158.64h24.92v6.53h-17.69v9.44h16.99v5.29h-16.99v9.98h17.74v6.53h-24.97v-37.75Z" fill="#fff"/>
      </g>
    </g>
  </g>
</svg>