<?xml version="1.0" encoding="UTF-8"?>
<svg id="uuid-b5e7d21e-dabc-4248-92f0-2f37fa7c6b2e" data-name="Capa 2" xmlns="http://www.w3.org/2000/svg" viewBox="0 0 563.05 77.65">
  <g id="uuid-10b3f446-b48b-4d7e-8122-56e4cbc0da70" data-name="Capa 1">
    <g>
      <g>
        <polygon points="180.75 53.01 56.01 53.01 56.01 54.31 180.75 54.31 180.75 53.57 180.75 53.01" fill="#911635"/>
        <path d="M47.84,10.54c.43-.11.79-.37,1.17-.57.5-.27.53-.66.05-1-.31-.22-.62-.45-.93-.67-.16-.11-.21-.25-.16-.44.18-.84.35-1.68.52-2.53.05-.25.06-.51-.21-.67-.26-.16-.48-.03-.67.15-.43.37-.86.72-1.36,1.15.07-.27.1-.44.14-.61.06-.23.08-.46-.13-.63s-.44-.14-.67-.03c-.73.31-1.47.61-2.21.9-.12.05-.25.08-.38.1-.24.04-.37-.04-.36-.31.02-.34,0-.7,0-1.04,0-.39-.25-.66-.63-.71-.14-.02-.28-.02-.43-.02h-7.48c-.31,0-.42-.09-.42-.41.02-.8,0-1.61,0-2.42,0-.48-.26-.74-.75-.77H15.6c-.48.04-.71.28-.71.76v2.29c0,.36-.18.54-.54.54h-7.58c-.59,0-.86.26-.88.85v.69c0,.34-.04.37-.36.24-.58-.24-1.17-.48-1.76-.71-.22-.09-.44-.15-.64.04-.2.18-.16.4-.11.64.03.16.12.31.06.53-.46-.39-.89-.76-1.32-1.12-.2-.16-.41-.26-.66-.1-.24.16-.25.38-.2.63.17.82.33,1.64.51,2.46.06.26,0,.44-.22.58-.33.21-.64.45-.94.7-.33.26-.33.62.02.85.37.23.75.46,1.16.61.3.11.27.21.17.44-.32.75-.63,1.5-.94,2.27-.15.37-.1.62.21.75.22.1.27.24.27.45v4.51c0,.21-.06.35-.26.47-.91.5-.94,1.69-.06,2.23.24.15.33.3.33.57v12.39c0,.25-.07.4-.31.54-.9.52-.88,1.76.02,2.24.22.12.28.26.28.48v12.42c0,.21-.06.35-.26.47-.94.53-.94,1.73,0,2.27.21.11.26.25.26.47v12.46c0,.23-.07.37-.28.49-.92.53-.92,1.73,0,2.26.21.12.28.26.28.49,0,.5-.02,1,.04,1.5.22,1.8,1.77,3.21,3.59,3.23h2.19c.21,0,.34.04.44.25.24.48.62.75,1.17.73.54-.02.94-.26,1.16-.76.07-.16.18-.23.35-.22.34,0,.7,0,1.04,0,.24,0,.33.09.33.33,0,.44,0,.87,0,1.31,0,.4.24.75.59.8.53.09,1.08.1,1.63,0,.21-.04.38-.05.57,0l3.89,1.23c.27.09.54.12.84.08.48-.07.98-.1,1.46-.16.83-.09,1.67-.17,2.5-.26.24-.02.42-.14.5-.37.08-.24.02-.45-.16-.62-.1-.09-.18-.19-.28-.27-.23-.19-.16-.29.09-.36.2-.06.39-.14.58-.21.42-.16.56-.34.56-.78v-1.44c0-.36-.16-.6-.48-.75-.3-.14-.58-.29-.89-.42-.22-.09-.29-.15-.06-.33.25-.2.48-.44.71-.67.12-.12.2-.26.13-.44-.07-.19-.21-.26-.4-.28-1.43-.16-2.86-.3-4.29-.45-.3-.03-.58,0-.87.1-1.35.44-2.7.85-4.05,1.27-.11.03-.23.07-.35.05-.47-.08-.94-.06-1.4-.02-.54.04-.82.34-.83.9v.88c0,.21-.09.3-.3.29h-1.08c-.17,0-.27-.07-.35-.22-.24-.47-.62-.76-1.17-.76s-.94.26-1.17.75c-.08.17-.2.24-.38.23-.74,0-1.48,0-2.23,0-1.46-.03-2.66-1.06-2.96-2.5-.11-.53-.02-1.07-.06-1.6-.02-.24.07-.39.28-.53.95-.6.93-1.73-.06-2.28-.22-.12-.22-.29-.22-.49v-12.39c0-.2,0-.38.24-.48.48-.21.71-.62.73-1.12.02-.52-.23-.94-.69-1.17-.24-.12-.29-.29-.29-.53v-12.33c0-.25.07-.41.3-.54.9-.52.9-1.74,0-2.23-.25-.14-.3-.3-.3-.55v-12.36c0-.26.07-.43.31-.57.8-.46.93-1.61.18-2.08-.48-.3-.53-.65-.49-1.1,0-.11,0-.22,0-.33-.02-.21.07-.34.26-.44.75-.39,1.49-.8,2.24-1.22.4-.22.43-.21.43.24-.02,2.2-.03,4.4-.04,6.6-.03,12.89-.02,25.78-.02,38.67,0,.31.02.63.05.94.26,2.36,2.05,4.31,4.38,4.75,1.72.33,3.48.33,5.23.44,1.4.09,2.8.19,4.19.41,1.9.3,3.73.81,5.43,1.71.49.26.94.29,1.42.02.79-.43,1.62-.76,2.47-1.02,2.38-.74,4.85-.9,7.32-1.04,1.35-.08,2.72-.14,4.06-.34,1.43-.21,2.66-.84,3.65-1.87,1.22-1.27,1.79-2.82,1.79-4.6,0-11.59,0-23.18,0-34.77v-9.94c0-.4.02-.42.37-.23.57.3,1.12.67,1.73.92.74.3,1.02.77.9,1.55-.03.21-.07.34-.28.45-.91.48-.97,1.73-.07,2.23.3.17.34.35.34.65v12.26c0,.28-.06.45-.33.59-.45.24-.67.65-.65,1.16.02.5.25.88.71,1.09.22.11.26.25.26.46v12.55c0,.16-.05.25-.21.33-.49.22-.76.62-.76,1.16,0,.54.25.94.74,1.17.19.09.24.22.24.41v12.51c0,.21-.07.34-.26.43-.48.23-.71.63-.71,1.16s.25.93.73,1.14c.2.09.25.21.25.4v1.17c-.02,1.45-1.12,2.74-2.56,2.96-.92.14-1.85.03-2.78.06-.17,0-.24-.11-.3-.25-.25-.48-.64-.74-1.18-.73s-.94.27-1.16.76c-.07.15-.16.22-.32.21h-1.14c-.2,0-.27-.09-.27-.28v-1.08c0-.45-.24-.76-.68-.82-.51-.07-1.03-.08-1.53.05-.19.05-.35.05-.54,0-1.27-.4-2.55-.8-3.83-1.21-.34-.11-.68-.13-1.03-.09-.8.08-1.6.16-2.41.25-.48.05-.95.1-1.43.16-.25.03-.44.15-.52.39-.07.24,0,.45.19.62.11.1.21.21.33.32.14.12.14.21-.05.26-.24.07-.47.17-.71.25-.39.12-.56.4-.56.79s.02.8,0,1.21c-.03.53.21.87.69,1.05.32.12.64.27.83.39-.22.27-.44.55-.67.82-.15.16-.31.31-.22.57.09.25.32.27.53.3,1.27.14,2.55.25,3.83.4.5.06.96,0,1.44-.16,1.25-.42,2.51-.8,3.77-1.18.11-.03.21-.07.32-.06.44.07.9.02,1.34.03.62,0,.91-.29.91-.93,0-.34.02-.7,0-1.04-.02-.28.07-.4.37-.39.31.02.63.02.94,0,.22,0,.35.06.46.27.22.45.61.71,1.12.71s.94-.21,1.17-.69c.11-.22.25-.3.48-.29.7,0,1.4,0,2.09,0,2.09,0,3.69-1.6,3.7-3.68,0-.34.02-.67,0-1.01,0-.25.07-.41.31-.53.44-.22.67-.61.67-1.12,0-.53-.22-.91-.67-1.14-.25-.12-.31-.28-.31-.53v-12.33c0-.27.07-.44.32-.57.45-.23.67-.62.66-1.15-.02-.5-.23-.9-.68-1.11-.25-.12-.3-.29-.3-.53v-12.29c0-.27.07-.43.33-.56.44-.22.66-.62.66-1.12s-.22-.9-.66-1.12c-.28-.14-.33-.31-.33-.59v-12.39c0-.18.02-.34.22-.43.49-.22.75-.61.76-1.15,0-.57-.25-.95-.75-1.2-.16-.07-.23-.18-.23-.35v-4.71c0-.11,0-.21.12-.28.52-.31.53-.4.3-.96-.31-.74-.62-1.49-.92-2.23-.04-.11-.13-.21.07-.27M22.64,73.67c.05-.16-.13-.48.25-.48.41,0,.21.34.25.53.02.11,0,.21,0,.32,0,.19-.11.24-.28.23-.16,0-.23-.09-.23-.25v-.36M14.99,71.56c1.13-.36,2.27-.71,3.39-1.08.3-.1.58-.02.87,0,1.06.09,2.12.21,3.18.32.07,0,.14,0,.17.07.04.09-.04.13-.09.19-.11.13-.26.12-.42.09-.71-.13-1.44-.25-2.15-.39-.24-.05-.44,0-.66.09-1.54.76-3.09,1.53-4.62,2.28-.26.13-.39.05-.39-.25v-.36q0-.76.72-.99M21.91,72.02c.24.02.4.18.38.47-.02.19-.02.35-.27.34-.35-.02-.2-.3-.26-.47.07-.11-.09-.36.16-.34M22.28,73.73v.36c0,.14-.11.18-.22.18-.13,0-.25-.02-.26-.17-.02-.24,0-.48,0-.72,0-.16.11-.2.24-.2s.24.04.25.19c0,.11,0,.24,0,.36M21.78,75.14v-.26c0-.09.04-.17.14-.19.11-.02.22-.04.31.05.14.13.05.71-.11.8-.24.13-.33.08-.34-.2v-.2h0ZM20.88,75.54c-.02-.08,0-.17,0-.26h0v-.36c0-.19.1-.25.27-.24.16,0,.24.08.24.24v.62c0,.24-.14.3-.34.3-.25,0-.15-.19-.17-.3M21.13,74.27c-.39,0-.22-.31-.25-.51-.02-.11,0-.21,0-.32,0-.17.07-.26.25-.26s.26.07.25.25v.35c-.06.16.15.48-.25.48M20.87,72.2v-.3c0-.11-.03-.27.14-.28.16,0,.33.05.34.23.02.27.02.54,0,.81,0,.15-.13.16-.25.16s-.23-.02-.24-.16,0-.3,0-.46h0M20,74.94c0-.15,0-.26.19-.26.16,0,.28.04.28.23v.85c0,.19-.14.24-.29.25-.18.02-.16-.13-.17-.25,0-.15-.02-.3-.02-.45h.02v-.36M20.21,74.27c-.19,0-.25-.11-.25-.27v-.56c0-.19.09-.27.28-.27s.23.13.23.29v.53c0,.18-.07.29-.26.29M19.97,72.13v-.43c0-.13.05-.23.21-.23s.29.04.3.23v.91c0,.15-.08.21-.23.21s-.26-.04-.27-.21v-.48h0ZM19.61,74.04c0,.16-.08.23-.25.23-.15,0-.25-.05-.26-.21v-.65c0-.16.09-.23.25-.23.17,0,.26.07.26.25v.33h0v.3M19.36,72.83c-.18,0-.26-.08-.25-.25v-.72c0-.22.17-.29.34-.34.11-.04.16.04.16.14v.49h0v.43c0,.17-.07.25-.25.25M19.11,74.85c0-.16.14-.16.26-.16.11,0,.22.03.22.17v.52h0c0,.1,0,.2,0,.29-.02.11.07.29-.1.29s-.37-.06-.39-.26c-.02-.28-.02-.56,0-.85M18.71,72.34c-.05.2.1.48-.27.48-.3,0-.25-.21-.25-.39,0-.27.19-.53.39-.49.23.05.07.27.12.39M18.56,75.51c-.24,0-.4-.18-.37-.47.02-.16-.03-.36.24-.36.37,0,.25.27.28.48-.07.11.11.37-.16.35M18.19,73.46c0-.18.06-.29.26-.29s.26.11.25.29v.26h0v.35c0,.16-.12.19-.25.19s-.24-.04-.25-.2v-.62M17.84,74.04c0,.16-.09.23-.25.23s-.25-.07-.25-.23v-.66c0-.15.09-.21.23-.21.15,0,.26.04.27.21v.65M16.93,73.4v.32h0v.35c0,.16-.11.19-.25.19s-.24-.03-.25-.19v-.68c0-.17.1-.22.25-.22s.25.05.25.22M16.03,73.99c0,.2-.06.26-.25.16-.2-.11-.41-.21-.61-.3-.15-.07-.15-.15,0-.22.17-.09.34-.18.53-.26.3-.15.33-.13.34.21v.43M14.27,74.54c0-.4.02-.41.37-.24,1.41.7,2.83,1.38,4.24,2.1.5.25.98.35,1.53.21.53-.14,1.09-.21,1.63-.3.25-.04.47.06.67.3-.9.1-1.73.18-2.57.27-.2.02-.39.02-.58.07-.7.14-1.35,0-2.01-.23-.95-.33-1.92-.62-2.9-.9-.29-.08-.43-.21-.39-.53.02-.25,0-.5,0-.75M12.36,71.81c.31,0,.63,0,.94,0,.25,0,.3.17.3.38v3.23c0,.25-.11.36-.35.35h-.88c-.21,0-.32-.11-.32-.32v-3.29c0-.21.1-.34.31-.34M8.55,72.92c.34,0,.67.3.67.67s-.3.67-.66.67c-.35,0-.67-.3-.67-.66s.29-.67.65-.67M27.05,70.82c1.16-.12,2.31-.24,3.47-.37.18-.02.34-.02.52.04,1.2.38,2.41.76,3.6,1.13q.52.16.52.72v.23c0,.54-.24.68-.73.44-1.43-.71-2.87-1.41-4.3-2.12-.23-.11-.46-.16-.72-.11-.68.14-1.37.25-2.05.37-.11.02-.22.04-.32.02-.13-.02-.27-.12-.27-.25,0-.17.18-.11.29-.11M34.31,73.81c-.08.05-.17.1-.26.13-.22.07-.48.37-.63.22-.18-.18-.05-.53-.06-.81,0-.07.03-.12.16-.1.25.12.53.26.8.41.08.04.05.11-.02.15M32.96,73.72v.32c0,.15-.08.21-.22.21s-.23-.07-.23-.21v-.65c0-.16.08-.23.25-.23.15,0,.21.08.21.22v.32M32.1,73.98c0,.18-.06.28-.26.28s-.25-.12-.25-.3v-.26h0v-.33c0-.17.11-.21.26-.21s.25.07.25.23v.58M30.67,75.13c.04-.19-.08-.46.26-.46.29,0,.25.21.25.39,0,.26-.18.5-.38.47-.24-.05-.07-.27-.14-.39M31.18,74.02c0,.18-.1.25-.27.24-.16,0-.24-.07-.24-.23v-.55c0-.19.04-.31.26-.31s.25.13.25.3v.23h0v.32M30.95,72.77c-.37,0-.22-.29-.28-.47.07-.11-.09-.36.14-.35s.42.16.39.46c-.02.17.02.36-.25.36M29.81,75.33h0v-.43c0-.19.11-.24.27-.24s.23.09.23.25v.68c0,.07-.02.14-.07.18-.1.1-.23.21-.37.16-.12-.03-.07-.19-.07-.29,0-.11,0-.21,0-.33M30.32,73.74h0v.32c0,.16-.1.2-.24.21-.15,0-.26-.03-.26-.21v-.65c0-.19.11-.24.27-.24s.24.08.23.24v.32M30.32,72.58c0,.16-.11.19-.25.19-.14,0-.24-.04-.25-.2v-.48h0c0-.09,0-.17,0-.26.02-.11-.07-.3.13-.3.15,0,.34.08.36.27.02.25.02.52,0,.78M28.91,73.4c0-.16.08-.23.24-.23.15,0,.25.04.25.21v.65c0,.16-.08.23-.25.23-.17,0-.26-.07-.26-.25v-.32h0v-.3M28.92,74.88c0-.17.11-.21.26-.21.14,0,.23.06.23.21v.46h0v.43c0,.11,0,.26-.17.24-.15-.02-.32-.02-.33-.24v-.88M29.41,72.09v.45c0,.16-.09.23-.25.23s-.25-.06-.25-.22v-.81c0-.22.15-.26.32-.27.21-.02.17.15.18.26v.36h0ZM28.01,73.74c-.02-.11,0-.21,0-.32,0-.16.07-.24.23-.24s.27.05.27.24v.36c-.06.16.15.5-.27.49-.39,0-.2-.33-.24-.52M28,71.94c-.02-.23.13-.3.32-.31.22,0,.18.16.19.3v.55c0,.17-.04.3-.25.3s-.26-.1-.26-.28,0-.37,0-.55M28.01,74.84c0-.14.11-.17.23-.17.13,0,.25.03.25.19,0,.13,0,.26,0,.39h0v.3c0,.13,0,.29-.19.28-.15,0-.3-.06-.31-.23-.02-.25-.02-.5,0-.75M27.52,75.46c-.22.02-.39-.19-.39-.47,0-.18.02-.33.25-.33.35,0,.23.26.26.46-.06.11.09.3-.14.33M27.37,72.77s-.11-.02-.16-.04c-.16-.12-.09-.71.11-.8.25-.12.32-.08.33.2v.19c-.04.17.11.48-.28.46M27.41,73.17c.24,0,.25.16.25.33v.49c0,.18-.06.29-.26.28-.21,0-.25-.12-.25-.3v-.48c0-.19.03-.31.26-.31M26.73,73.72v.36c0,.16-.11.19-.25.19s-.25-.03-.25-.19v-.68c0-.17.1-.22.25-.22s.25.05.25.22v.33h0M34.89,75.76c-1.3.4-2.59.82-3.89,1.22-.34.11-.69,0-1.03-.03-1.02-.1-2.03-.21-3.05-.32-.05,0-.11,0-.16-.07.11-.19.25-.31.52-.26.69.14,1.4.25,2.09.38.29.06.55.02.82-.11,1.54-.77,3.1-1.54,4.65-2.3.32-.16.33-.16.34.21v.91c0,.21-.08.31-.28.38M37.33,75.32c0,.24-.12.33-.34.32-.26,0-.53,0-.78,0-.3.02-.44-.11-.44-.43,0-.53,0-1.04,0-1.57s0-1.03,0-1.54c0-.3.12-.41.41-.4.27.02.54,0,.81,0,.23,0,.34.1.34.34v3.27M40.82,74.26c-.35-.02-.62-.3-.62-.67s.28-.67.66-.67c.35,0,.66.33.64.69,0,.35-.34.66-.69.65M47.68,5.39c.07-.06.13-.18.24-.13.11.06.04.18.02.27-.14.68-.3,1.36-.41,2.04-.06.36-.25.46-.57.48-.75.03-1.49.09-2.24.13-.91.05-1.82.09-2.73.14v.02h-.33c-.31.02-.48-.15-.43-.46.03-.21.21-.17.34-.18.57-.03,1.12-.07,1.69-.07.48,0,.95-.03,1.43-.07.16,0,.29-.07.42-.16.94-.55,1.72-1.32,2.57-2M36.75,9.56c-1.26-.21-2.53-.44-3.79-.64-.19-.03-.33-.09-.34-.32,0-.23.07-.35.31-.34h.33c.82.06,1.65.12,2.47.18.16.02.33.02.49.02.18,0,.21-.12.21-.26s-.07-.19-.2-.2c-.24-.02-.48-.07-.71-.07-.27,0-.29-.16-.29-.37s.02-.34.28-.34c.36,0,.75-.07,1.07.07.37.16.62.52.97.74.04.02.02.15.03.22.02.21.12.37.3.43.54.16,1.09.31,1.67.21.36-.07.68-.23.96-.46.07-.06.13-.2.23-.13.07.04.08.17.08.27.07.84-.19,1.58-.68,2.26-.47.65-.96.9-1.81.6-1.46-.53-2.98-.9-4.48-1.33-.11-.03-.24-.07-.33-.13-.13-.09-.25-.24-.2-.38.06-.15.23-.07.34-.04.99.16,2,.34,2.99.51.17.03.3.04.34-.18.04-.24-.09-.28-.27-.3M38.09,8.1c0-.11.1-.13.19-.16.7-.16,1.4-.33,2.09-.49.07-.02.13-.03.18.02.06.07.03.15-.02.21-.34.42-.75.72-1.38.75-.25-.05-.55-.1-.86-.16-.09-.02-.21-.05-.2-.17M40.17,11.59c.12-.07.18.03.24.11.53.66,1.08,1.31,1.6,1.97.12.16.07.68-.07.82-.02.02-.07.04-.11.04-.06,0-.11-.02-.16-.02-.65-.13-1.06-.52-1.25-1.17-.14-.49-.28-.99-.39-1.41-.02-.18.03-.27.14-.33M42.02,12.92c-.37-.58-.85-1.1-1.31-1.63-.17-.2-.05-.3.03-.45.1-.17.21-.1.33-.02,1.36.8,2.72,1.61,4.08,2.41.16.09.21.17.03.3-.19.13-.35.29-.53.43-.07.07-.16.11-.34.1-.75-.29-1.72-.24-2.28-1.13M45.01,12.57c-1.23-.73-2.46-1.46-3.7-2.19-.14-.08-.27-.16-.16-.35.03-.06.07-.11.17-.09.05.02.11.06.18.1,1.23.73,2.47,1.46,3.7,2.19.11.07.32.09.22.29-.1.19-.25.14-.41.05M42.93,6.17c.25,0,.47-.06.7-.15.63-.26,1.26-.53,1.9-.78.1-.04.21-.13.3-.06.11.08.02.21,0,.3-.02.08-.06.17-.06.25,0,.65-.43.98-.94,1.25-.09.05-.18.07-.28.08-1.07.04-2.13.09-3.19.14-.18,0-.34,0-.48-.14-.19-.18-.42-.14-.65-.09-.69.16-1.38.31-2.06.49-.29.07-.53,0-.82-.2.57-.32,1.08-.62,1.61-.9.08-.04.19-.06.29-.06,1.22-.05,2.46-.1,3.68-.13M6.56,4.7c0-.41.02-.43.42-.43h7.58c.73,0,.96-.23.96-.96s0-1.5,0-2.26c0-.28.07-.39.37-.39h16.82c.29,0,.38.11.37.39-.02.75,0,1.5,0,2.26s.21.96.98.96h7.74c.16,0,.24.09.24.25v.94c0,.16-.08.24-.24.25-.21.02-.41.04-.62.05-.7.02-1.4.05-2.09.07-.17,0-.32.07-.46.15-.34.21-.7.39-1.04.61-.21.12-.41.17-.65.17-.53,0-1.07-.02-1.6-.02-.41,0-.54.14-.56.55v.2c.04.33-.13.39-.41.36-.53-.05-1.06-.09-1.59-.11-.47-.02-.66.17-.67.64,0,.16,0,.33,0,.49,0,.14.05.31.19.36.37.14.49.47.64.78.13.28.34.44.63.52,1.79.52,3.58,1.03,5.36,1.55.07.02.16.07.22.06.4-.07.48.18.56.48.14.57.32,1.13.48,1.7.06.22.18.38.4.42.55.11,1.07.4,1.66.26.06-.02.13.02.19.05.47.25.94.51,1.41.76.14.07.2.18.2.34v5.07s-.02.04-.02.08c-.14-.07-.21-.19-.29-.3-2.32-2.9-4.63-5.81-6.94-8.71-.25-.31-.55-.44-.94-.4-.31.03-.62.06-.94.08-.3.02-.52.19-.74.38-1.01.86-1.74,1.95-2.36,3.1-.22.4-.49.54-.94.52-.9-.05-1.81-.04-2.71-.07-.36,0-.67.08-.9.36-.21.24-.45.28-.73.13-.07-.04-.16-.06-.24-.1-.72-.41-1.49-.28-2.27-.23-.2.02-.38.11-.54.21-.27.19-.54.36-.81.55-.21.15-.38.15-.57-.07-.53-.62-1.4-.56-1.87.11-.33.46-.67.92-1,1.37-.25.34-.39.36-.72.1-1.36-1.05-2.73-2.1-4.08-3.15-.4-.31-.81-.62-1.22-.94-.29-.22-.59-.25-.95-.19-.94.16-1.57.68-2.13,1.45-1.48,2.04-3.02,4.02-4.55,6.03-.07.08-.1.2-.22.22-.08-.1-.04-.21-.04-.31v-5.13c0-.29.06-.48.34-.59.12-.04.24-.11.34-.2.67-.57,1.53-.51,2.32-.65.59-.11.9-.37,1.02-.96.11-.53.3-1.05.44-1.58.05-.17.1-.28.31-.21.15.04.3-.02.44-.07,1.72-.5,3.42-1.01,5.15-1.49.43-.12.71-.34.89-.73.1-.24.21-.47.49-.57.16-.06.24-.22.24-.4v-.46c0-.53-.17-.71-.71-.68-.5.02-1,.06-1.49.11-.36.03-.4,0-.41-.35-.02-.62-.14-.75-.75-.75-.3,0-.62-.02-.91,0-.57.05-1.11-.03-1.57-.4-.69-.56-1.51-.54-2.32-.57-.74-.03-1.48-.06-2.22-.07-.26,0-.35-.11-.34-.35.02-.21,0-.44,0-.66M30.71,20.37c-.44-.29-.9-.49-1.43-.51-1.28-.04-2.37-.62-3.4-1.29-.62-.4-1.26-.42-1.94-.39-.14,0-.25.08-.35.16-.39.25-.8.48-1.18.76-1.17.89-2.51,1.37-3.87,1.86-.11.04-.21.07-.3.11-1.1.53-2.25.69-3.48.67-2.69-.06-5.38-.02-8.07-.02-.12,0-.3.07-.36-.07-.05-.11.09-.21.16-.3,1.54-2.03,3.08-4.06,4.61-6.1.21-.27.48-.33.76-.45.57-.25,1.01-.13,1.47.27.72.62,1.5,1.18,2.26,1.77.06.04.14.07.16.22h-2.76c-.22,0-.3.1-.3.32s.11.28.3.28c.9,0,1.81.04,2.71-.02.67-.04,1.23.11,1.72.58.25.25.56.45.85.67.51.38.98.32,1.36-.18.37-.48.71-.99,1.08-1.48.3-.4.66-.41.99-.02.3.35.75.44,1.15.21.25-.15.49-.32.74-.48.65-.45,1.36-.36,2.07-.23.27.05.53.2.8.3.39.15.76.15,1.06-.17.28-.3.62-.37,1-.33.92.1,1.85.05,2.78.06.21,0,.39.04.57.13,1.95.93,3.9,1.84,5.85,2.77.21.1.34.14.48-.11.13-.27-.02-.34-.21-.43-1.84-.87-3.68-1.75-5.52-2.61-.29-.14-.3-.25-.13-.5.25-.36.48-.73.68-1.12.41-.8,1.08-1.35,1.71-1.95.27-.26.67-.14,1-.21s.57.07.78.34c1.02,1.31,2.06,2.59,3.09,3.89.07.09.22.17.16.3-.05.09-.21.04-.3.04h-1.83c-.21,0-.36.05-.36.3s.15.3.35.3h2.45c.21,0,.34.07.47.23.92,1.17,1.86,2.33,2.78,3.51.06.07.18.14.14.25-.05.12-.19.06-.3.07h-9.77c-.31,0-.57-.07-.83-.24-.6-.38-1.21-.73-1.81-1.12M31.58,21.7h-13.14s0-.04-.02-.06c.35-.13.69-.29,1.05-.39,1.24-.38,2.35-1.02,3.42-1.75.21-.14.43-.26.62-.41.62-.44,1.26-.44,1.91-.06.62.35,1.24.68,1.86,1.03.49.27,1.05.31,1.58.34,1.1.06,1.86.76,2.71,1.31M4.32,13.2c.9-.53,1.8-1.07,2.69-1.6.43-.25.86-.52,1.29-.76.11-.06.22-.18.34-.02.11.14.21.27.06.46-.6.72-1.18,1.45-1.77,2.18-.02.03-.06.07-.1.08-.59.24-1.21.35-1.76.53-.17,0-.91-.53-.94-.64-.04-.16.1-.18.18-.23M3.94,12.49c-.05-.11.07-.15.14-.19,1.3-.77,2.59-1.54,3.89-2.31.07-.04.15-.12.23-.04.05.05.07.13.09.17,0,.15-.1.2-.18.25-1.23.73-2.46,1.46-3.7,2.19-.07.04-.14.07-.21.09-.12.02-.21-.05-.26-.16M9.1,8.59c.44.29.92.38,1.44.3.18-.02.36-.08.54-.11.43-.06.76-.21.77-.71,0-.03,0-.07.03-.09.31-.19.55-.5.84-.67.34-.2.83-.13,1.25-.08.24.02.16.25.16.4s-.04.27-.23.29c-.24.02-.48.05-.71.07-.16,0-.25.07-.24.25,0,.16.1.24.25.23.41-.02.82-.06,1.24-.08.67-.04,1.35-.08,2.02-.11.17,0,.33,0,.34.24,0,.22-.03.37-.3.41-1.28.21-2.55.43-3.83.65-.15.02-.32.03-.3.25.02.23.13.28.35.25.99-.18,2-.34,2.99-.51.12-.02.3-.11.34.03.05.14-.07.29-.19.39-.07.06-.17.08-.27.11-1.69.49-3.38.98-5.07,1.49-.33.1-.55.03-.79-.2-.85-.84-1.17-1.49-1.17-2.51.02-.16-.08-.45.06-.53.16-.09.31.17.47.27M8.83,7.53c.04-.08.11-.1.19-.08.71.16,1.42.34,2.13.5.07.02.15.07.16.15,0,.11-.08.15-.17.16-.31.07-.62.12-.86.17-.62-.02-1.05-.31-1.4-.72-.04-.05-.07-.11-.04-.18M9.38,11.93c-.15.51-.29,1.03-.44,1.54-.25.86-.33.94-1.23,1.04h-.07c-.11,0-.2-.02-.23-.14-.07-.25-.23-.48-.02-.74.47-.56.92-1.13,1.38-1.69.07-.07.11-.16.18-.23.07-.08.14-.22.29-.13.12.07.16.19.12.34M3.79,5.2c.48.21.98.37,1.45.6.65.34,1.35.39,2.05.42.94.03,1.87.06,2.8.07.19,0,.36.05.53.15.39.23.77.44,1.16.67.07.04.19.07.19.16,0,.12-.13.12-.21.17-.14.08-.29.07-.44.03-.69-.16-1.37-.33-2.06-.48-.11-.02-.24-.05-.36-.07-.08.02-.2,0-.25.06-.39.38-.86.21-1.31.21-.8,0-1.6-.07-2.41-.11-.49-.02-1.1-.52-1.22-1-.06-.22-.1-.44-.16-.67-.07-.25.02-.3.24-.2M1.39,5.22l.08-.04c.55.46,1.1.91,1.64,1.38.38.33.8.6,1.22.86.33.2.72.15,1.08.16.78.04,1.57.05,2.35.09.39.02.42.1.34.48-.04.2-.14.2-.3.19-1.38-.08-2.76-.16-4.14-.23-.46-.02-.91-.06-1.37-.08-.25-.02-.38-.12-.43-.39-.15-.81-.33-1.62-.49-2.42M.61,9.51c-.09-.04,0-.11.04-.15.36-.26.71-.53,1.08-.78.18-.12.4-.05.62-.07,1.79.11,3.6.21,5.41.33.14,0,.26.02.28.21s-.09.25-.25.27c-.76.09-1.51.18-2.27.27-1.24.15-2.48.3-3.72.44-.48.05-.81-.32-1.21-.51M1.11,13.4c.26-.63.58-1.25.76-1.9.23-.84.7-1.15,1.57-1.19,1.2-.05,2.39-.26,3.6-.35-1.95,1.16-3.92,2.32-5.87,3.48-.02-.02-.04-.03-.07-.05M2.11,67.55c0,.39-.28.65-.67.64-.37,0-.64-.31-.63-.68.02-.37.28-.62.66-.62s.65.27.64.67M2.11,51.85c0,.39-.26.65-.65.65s-.64-.26-.65-.62c0-.38.28-.67.64-.67.39,0,.66.26.66.65M2.11,36.22c0,.38-.25.65-.62.66-.39,0-.68-.28-.68-.67,0-.36.26-.62.64-.63.39,0,.66.25.66.65M2.11,20.54c0,.38-.29.66-.67.65-.37,0-.64-.3-.63-.69,0-.34.3-.63.66-.64.36,0,.65.3.65.67M2.13,17.1c-.33.18-.34.17-.34-.22v-.75c-.25-.87.18-1.35.94-1.65.11-.04.21-.12.31-.18.13-.07.16-.16.08-.29-.07-.12-.16-.21-.31-.11-.26.16-.53.3-.79.46-.15.09-.21.06-.23-.11-.04-.35-.02-.64.39-.81.35-.16.68-.39,1.02-.59.12-.07.23-.1.35,0,.14.11.11.21.05.34-.11.24-.02.44.16.62.15.13.3.25.46.37.18.13.17.23-.02.34-.3.16-.58.34-.87.51-.15.08-.21.16-.11.33.1.16.21.17.34.08.03-.02.07-.04.11-.07.85-.62,1.83-.94,2.84-1.17.14-.03.27-.11.34.11.06.18,0,.27-.17.36-1.52.82-3.04,1.65-4.56,2.47M44.06,61.44c0,3.07-2.07,5.42-5.12,5.85-1.31.18-2.64.25-3.97.32-2.58.16-5.15.34-7.63,1.16-.77.25-1.54.56-2.26.94-.3.16-.56.16-.86,0-2.09-1.1-4.34-1.65-6.68-1.93-1.8-.21-3.6-.3-5.4-.39-.92-.05-1.85-.12-2.76-.26-2.16-.34-3.87-2.13-4.09-4.29-.03-.34-.05-.67-.05-1.01,0-11.68,0-23.38.02-35.06,0-1.22.04-2.44.06-3.65,0-.45.36-.79.81-.79,3.48,0,6.97,0,10.45,0,8.83,0,17.66,0,26.49,0h.2c.59,0,.77.19.77.79v19.35h0v18.98M46.39,14.35c.32.19.63.39.96.56.22.11.31.27.3.52-.02.53,0,1.07,0,1.6,0,.24-.07.29-.28.17-1.31-.71-2.62-1.43-3.92-2.14-.24-.13-.48-.26-.71-.39-.18-.1-.25-.22-.16-.43.09-.21.24-.09.36-.07.96.22,1.88.55,2.69,1.12.07.05.16.08.23.12.14.08.22.02.29-.1.08-.12.07-.22-.06-.3-.3-.18-.6-.35-.9-.53-.16-.1-.2-.19-.02-.31.17-.13.34-.27.51-.41.21-.17.3-.39.16-.63-.07-.13-.04-.22.07-.31.11-.1.21-.08.32,0,.41.25.82.5,1.23.73.23.12.23.32.21.57-.02.07.07.25-.06.31-.11.06-.21-.07-.31-.13-.22-.12-.44-.25-.65-.38-.15-.09-.26-.12-.37.07-.12.21.02.27.15.35M48.62,67.55c0,.37-.3.65-.67.65-.34,0-.64-.29-.65-.64,0-.36.29-.66.67-.66s.67.27.66.66M48.62,51.87c0,.38-.29.64-.67.64-.35,0-.64-.29-.65-.64,0-.36.3-.67.66-.67s.67.31.67.67M48.62,36.24c0,.35-.3.62-.66.63-.36,0-.67-.3-.67-.67s.3-.64.68-.64.66.3.64.67M48.62,20.53c0,.34-.3.65-.64.66-.37,0-.68-.28-.69-.64,0-.34.31-.67.66-.68.36,0,.67.3.67.67M48.29,13.38s-.04.04-.06.07c-1.95-1.16-3.9-2.31-5.85-3.47,0-.02.02-.04.02-.07.97.11,1.93.22,2.9.34.48.06.97.11,1.45.17.16.02.33.04.4.22.38.91.76,1.82,1.13,2.73M47.03,9.98c-1.72-.26-3.45-.43-5.18-.62-.09,0-.17-.03-.25-.04-.16-.02-.27-.07-.26-.25.02-.21.16-.2.3-.21,1.54-.09,3.08-.18,4.62-.26.27-.02.54-.08.83-.05.36-.09.67.06.94.3.21.17.44.33.66.48.16.11.2.18,0,.3-.52.29-1.01.47-1.66.38" fill="#494748"/>
        <path d="M42.75,25.32c-.04-.71-.68-1.15-1.22-1.01-.14.04-.3.02-.45.02-5.61-.04-11.21.02-16.82-.04-5.49-.07-10.98-.02-16.46-.02h-.23c-.5.05-.9.42-.97.92-.03.21-.04.41-.04.62v34.6c0,.95.16,1.86.64,2.7,1,1.77,2.59,2.52,4.55,2.67,1.68.12,3.35.15,5.02.25,2.56.15,5.07.54,7.37,1.77.35.19.71.17,1.07,0,.26-.13.53-.26.8-.38,2.09-.94,4.34-1.18,6.59-1.31,1.58-.08,3.17-.11,4.75-.26,3.19-.32,5.42-2.75,5.42-5.96V25.32M37.53,65.19c-1.29.16-2.58.2-3.88.25-2.18.09-4.35.21-6.45.85-.73.22-1.45.5-2.12.86-.3.16-.56.15-.86,0-1.57-.8-3.24-1.26-4.98-1.5-1.58-.21-3.19-.29-4.78-.34-1.25-.05-2.5-.05-3.74-.3-2.06-.41-3.52-2.18-3.52-4.28V25.36c.02-.28.16-.44.45-.45h.36c5.39,0,10.78.05,16.17-.02,5.61-.07,11.22,0,16.82-.04h.36c.59.02.73.16.73.74,0,11.47-.02,22.94.02,34.41,0,2.46-1.82,4.84-4.58,5.17" fill="#494748"/>
        <path d="M17.72,5.65c-.05.08-.09.17-.12.26-.36.89-.04,1.53.89,1.75.07.02.12.03.19.04.29.03.3.16.18.39-.34.65-.37,1.31-.05,1.98.07.14.07.25-.02.39-.25.44-.21.86.11,1.2.2.21.34.4.39.68.07.32.31.51.65.48.26-.02.48,0,.64.24.07.11.22.16.35.14.31-.04.59-.02.83.22.09.09.25.08.38.05.24-.06.43.08.64.11.57.1,1.15.21,1.73.16.09,0,.18-.07.28-.02.28.12.55.09.81-.05.09-.05.18-.07.28-.04.32.11.62.06.89-.16.07-.05.14-.07.21-.04.62.17,1.09-.44,1.7-.32.04,0,.11-.06.16-.11.11-.17.26-.25.44-.19.5.02.74-.15.82-.59.03-.21.13-.34.28-.48.42-.39.48-.84.18-1.31-.07-.12-.07-.21,0-.33.33-.66.31-1.32,0-1.98-.11-.24-.04-.39.22-.44.07-.02.13-.02.19-.04.99-.22,1.08-.92.83-1.7-.02-.08-.07-.16-.11-.24-.25-.39-.17-.71.11-1.06.55-.68.3-1.3-.57-1.46-.13-.02-.26-.03-.39-.03-.11,0-.21-.03-.3-.11-.85-.75-1.38-.8-2.34-.2-.14.08-.21.08-.33-.04-.52-.53-1.19-.55-1.7-.03-.12.12-.18.13-.31.02-.79-.66-1.56-.66-2.36-.02-.13.11-.2.14-.34,0-.51-.51-1.14-.52-1.64,0-.16.17-.25.19-.44.03-.6-.48-1.45-.49-1.99,0-.28.25-.56.35-.92.39-.96.12-1.21.77-.59,1.51.25.31.32.6.11.95M25.42,8.33c.16.14.31.27.47.41.05.04.11.1.08.16-.02.07-.11.07-.16.07h-2.18c-.07,0-.14.02-.17-.06-.03-.09.04-.14.09-.19.17-.16.36-.31.53-.48.3-.29.33-.5.16-.85-.16-.33-.48-.53-.8-.49-.21.02-.44.07-.63.15-.33.14-.58.07-.83-.18,1.84-.59,3.65-.59,5.5,0-.2.19-.39.33-.68.22-.21-.07-.42-.13-.63-.17-.42-.09-.77.08-.94.45-.18.36-.11.66.22.96M22.06,7.47c.16.11.3.13.48.09.27-.07.53-.2.82-.22.2-.02.37.03.46.23.09.2-.02.34-.16.45-.31.25-.62.51-.81.88-.07.14-.24.16-.38.15-.15,0-.11-.16-.14-.26-.23-.82-1-1.29-1.78-1.05-.75.22-1.15,1.08-.87,1.88.04.13.19.28-.07.36-.21.07-.38.08-.47-.18-.08-.23-.13-.46-.12-.71.02-.83.46-1.39,1.16-1.76.64-.34,1.28-.3,1.88.12M21.54,9.52c-.22.11-.45.21-.67.34-.27.16-.48.07-.65-.15-.25-.33-.25-.68-.09-1.04.16-.34.42-.54.82-.53.39-.03.67.18.86.48.23.35.11.71-.26.9M21.07,12.75c-.26,0-.31-.18-.33-.39-.02-.33.24-.31.44-.35.22-.04.19.14.21.27-.02.22,0,.46-.31.48M22.42,12.75c0,.2-.11.3-.3.31-.18.02-.3-.08-.32-.25-.02-.31-.04-.63,0-.94.03-.25.3-.31.5-.41.1-.05.11.08.11.15v1.13M23.47,12.19v.75c0,.19-.08.32-.29.32s-.34-.11-.34-.31c0-.51,0-1.02,0-1.54,0-.24.2-.22.36-.22.17,0,.27.06.27.25v.75M24.46,13.07c0,.16-.03.32-.24.31-.18,0-.28-.11-.29-.29v-1.66c0-.16.09-.23.25-.23.16,0,.27.05.27.24v.88h0v.75M25.49,13.04c0,.22-.1.35-.33.35s-.25-.16-.25-.34v-1.56c0-.21.1-.29.3-.28.19,0,.28.07.28.27v1.57M26.54,12.97c0,.21-.12.32-.33.31-.2,0-.3-.11-.3-.31v-.78h0v-.71c0-.2.09-.27.28-.26.19,0,.36.02.36.26v1.49M27.6,12.14c-.02.06,0,.13,0,.2h0c0,.16,0,.33,0,.48-.02.16-.11.25-.29.25-.16,0-.28-.09-.28-.25-.02-.4,0-.8,0-1.2,0-.16.09-.17.21-.1.25.14.47.29.38.62M28.36,12.76c-.3,0-.3-.21-.3-.45.02-.11-.07-.33.19-.29.18.02.46,0,.44.3-.02.2-.02.43-.32.43M30.23,11.32c-.18.26-.44.38-.76.39-.67.04-1.31-.07-1.87-.45-.51-.34-1.05-.48-1.67-.47-.86.03-1.72.02-2.58,0-.54-.02-1.03.11-1.48.42-.58.39-1.22.56-1.92.51-.3-.02-.58-.11-.77-.36-.24-.32-.16-.62.18-.82.23-.13.48-.11.78-.11.41.03.85-.08,1.22-.33.86-.54,1.78-.74,2.8-.67.71.05,1.44,0,2.15,0,.19,0,.37.03.53.11.31.15.64.28.94.45.54.31,1.11.5,1.74.44.18-.02.34.03.5.12.3.18.38.49.17.78M27.47,9.07c-.02-.53.44-.95.99-.94.41,0,.7.19.83.57s.11.75-.16,1.07c-.15.16-.32.22-.53.12-.3-.15-.61-.3-.91-.44-.16-.07-.21-.21-.21-.37M30.22,9.87c-.07.14-.15.18-.31.15-.24-.05-.31-.11-.21-.39.3-.76-.11-1.67-.81-1.88-.84-.25-1.64.23-1.83,1.09-.02.1-.02.22-.15.21-.14,0-.3-.02-.38-.15-.21-.39-.53-.66-.86-.93-.11-.1-.19-.21-.13-.37.07-.16.18-.27.37-.27.3,0,.57.11.85.2.21.07.39.07.58-.07.62-.44,1.28-.44,1.94-.09.69.38,1.06.98,1.11,1.69,0,.33-.07.57-.18.8M30.94,3.96c0-.11-.11-.29.08-.33.21-.05.41,0,.57.16.11.11.14.25.06.39-.1.16-.21.3-.32.45-.25.33-.28.67-.09,1.04.15.3.3.58.28.93,0,.28-.13.48-.4.57-.3.08-.59.14-.89.21-.09.02-.17,0-.25-.07-.71-.57-1.59-.67-2.43-.89-.53-.14-1.08-.25-1.68-.38.41-.27.76-.52.97-.9.11-.19.17-.02.22.06.51.86,1.8,1.13,2.77.7.74-.34,1.14-1.03,1.12-1.94M27.37,4.71c1.09.92,2.08.75,2.99-.3,0,.62-.52,1.09-1.22,1.2-.79.11-1.54-.25-1.77-.9M28.22,3.64c.14-.39.62-.72,1.07-.73.45,0,.9.29,1.08.71.03.09.13.21,0,.28-.14.07-.21-.05-.26-.16-.25-.48-.6-.66-1.04-.53-.27.08-.45.25-.53.53-.04.14-.11.22-.25.17-.16-.06-.07-.18-.04-.28M29.6,4.42c-.34.55-1.22.56-1.77,0h1.77ZM26.66,3c.25-.16.53-.16.77,0s.31.44.28.72c-.02.14-.11.21-.25.21h-.56c-.19-.02-.44.09-.51-.21-.06-.29.02-.55.26-.72M23.54,3.6c.14-.45.67-.82,1.14-.82.53,0,1.03.35,1.18.85.02.09.11.22-.03.28s-.24-.02-.29-.18c-.11-.38-.35-.62-.76-.65-.45-.03-.76.17-.9.62-.04.14-.09.25-.25.21-.2-.05-.11-.2-.08-.32M25.71,4.34c-.44.57-1.55.59-1.86.08.61-.13,1.22-.07,1.86-.08M23.17,4.53c.85.95,2.14.98,3.02.07.09-.1.17-.34.34-.21.12.09,0,.29-.07.42-.27.6-.91.95-1.95.95-.53-.02-1.17-.24-1.54-.95-.04-.08-.07-.18-.11-.27-.02-.07-.04-.13.04-.17.06-.02.11,0,.15.04.04.03.07.08.11.12M21.76,3.28c.14-.34.53-.48.87-.35.3.12.48.52.38.85-.03.11-.11.15-.21.15h-.62c-.47,0-.61-.21-.42-.65M22,4.75c-.16.6-.9.97-1.67.88-.69-.08-1.3-.56-1.25-1.21.9.98,1.86,1.09,2.91.33M21.35,4.34c.07,0,.14,0,.16.07s-.05.11-.1.15c-.45.34-1.26.25-1.68-.23h1.62M19.02,3.67c.12-.41.66-.77,1.12-.76.48.02.95.37,1.07.78l.02.1c0,.14-.1.16-.21.11-.04-.02-.07-.07-.11-.11-.51-.84-1.15-.84-1.63,0-.06.11-.12.16-.23.11-.11-.05-.07-.14-.05-.23M17.79,3.81c.12-.18.33-.2.53-.19.14,0,.16.09.16.22,0,.86.19,1.64,1.05,2.04.85.39,1.69.32,2.46-.27.16-.13.29-.3.39-.48.06-.09.13-.14.2-.02.21.39.54.64.99.92-.62.14-1.16.25-1.68.38-.86.21-1.76.34-2.49.91-.08.07-.18.06-.28.03-.23-.06-.47-.1-.7-.16-.44-.11-.6-.37-.52-.83.04-.24.14-.46.25-.67.22-.4.18-.77-.11-1.12-.07-.08-.13-.17-.2-.26-.11-.16-.19-.33-.07-.51" fill="#494748"/>
        <path d="M39.07,45.76h-8.53c-.16,0-.23-.08-.25-.24-.07-.48-.08-.95-.07-1.44,0-.16.07-.26.24-.29.8-.12,1.22-.85.72-1.72s-1.03-1.72-1.54-2.58c-.1-.16-.21-.2-.38-.12-.33.15-.67.25-1.03.33-1.01.23-1.96.14-2.84-.48-.29-.2-.41-.42-.41-.78.02-2.54,0-5.07,0-7.61v-.33c0-.15-.07-.21-.22-.23-.29-.03-.37.06-.37.42,0,2.44-.03,4.88.02,7.32.02.74-.31,1.12-.9,1.42-.26.14-.53.25-.82.3-.91.19-1.77-.02-2.61-.35-.19-.07-.34-.11-.46.11-.5.87-1.04,1.72-1.53,2.59-.45.81-.16,1.45.73,1.68.2.05.26.14.26.34.02.39-.05.78-.07,1.17-.03.45-.07.47-.52.47h-8.33c-.15,0-.21.07-.23.22-.03.3.04.37.41.37h8.01q.48,0,.36.48c-.14.55-.34,1.08-.44,1.64-.34,1.76.39,3.1,2.03,3.78.62.26,1.28.42,1.95.53.32.05.65.09.97.14.45.07.77.35,1.07.66.2.2.1.48.1.72v8.65c0,.17-.03.36.22.4.29.04.37-.04.37-.4v-8.86c0-.59.27-.96.85-1.12.11-.03.21-.06.32-.07.7-.1,1.4-.18,2.09-.39.88-.27,1.7-.65,2.27-1.4.71-.95.66-2.01.39-3.1-.09-.37-.22-.73-.32-1.1-.15-.55-.14-.55.41-.55h8.2c.23,0,.3-.12.3-.33,0-.31-.24-.26-.42-.26M29.53,51.24c-.56.42-1.2.66-1.88.8-.52.11-1.05.18-1.58.26-.47.07-.88.25-1.22.57-.15.14-.28.16-.42,0-.45-.46-1.03-.58-1.63-.65-.94-.1-1.85-.3-2.69-.76-.14-.08-.28-.17-.41-.27-.06-.04-.16-.07-.12-.16.03-.07.12-.07.2-.08,1.67-.17,3.31-.53,4.98-.39,1.59-.12,3.14.15,4.69.36.08,0,.2-.02.23.08.02.11-.09.16-.16.22M20.61,48.51v-1.27c0-.24.11-.3.33-.3s.32.07.32.3v2.35c0,.21-.32.45-.53.42-.15-.02-.11-.15-.11-.23v-1.27M23.22,49.4c0,.24-.07.35-.33.35-1.04.02-1.04.03-1.04-1.01,0-.67,0-1.35,0-2.03,0-.29.12-.43.39-.47.13-.02.26-.02.39-.02.51.02.6.11.61.62v2.55M25.57,49.61h-.06v-1.27c0-.5-.36-.87-.82-.86-.44,0-.79.36-.8.85,0,.3-.02,1.29-.02,1.29h-.06v-3.26c0-.18.08-.26.25-.26h1.17c.25,0,.32.11.32.34v3.19M24.97,49.3c0,.17-.07.25-.25.25s-.26-.07-.26-.25v-.97c0-.14.06-.26.22-.26s.26.09.28.25v.97h0ZM27.59,48.06v1.4c0,.21-.07.3-.29.3h-.88c-.18,0-.25-.07-.25-.25v-2.87s0-.07,0-.1c.07-.24.44-.36.92-.29.25.04.49.11.48.45,0,.46,0,.91,0,1.37M28.82,49.64c0,.12.08.31-.14.34-.21.03-.48-.17-.49-.37,0-.41,0-.83,0-1.24v-1.11c0-.25.1-.33.34-.32.22,0,.31.09.31.31v2.38M30.38,50.06c-.08.37-.3.39-.6.34-.3-.04-.43-.16-.42-.48.02-1.06,0-2.11.02-3.17,0-.32-.11-.44-.42-.4-.14.02-.28,0-.43,0-.17,0-.28-.06-.4-.2-.43-.48-.99-.59-1.61-.48-.16.02-.3.11-.41-.11-.04-.09-.18-.06-.27-.06h-2.28c-.07,0-.16-.02-.19.02-.21.3-.48.11-.74.11-.54.02-1.07.09-1.39.61-.07.1-.16.1-.25.1-.21,0-.41,0-.62,0-.25-.02-.35.09-.34.34,0,.56,0,1.11,0,1.67h0v1.67c0,.25-.11.34-.34.38-.66.08-.71.03-.84-.62-.12-.67.02-1.3.22-1.93.38-1.26.68-2.52.63-3.85,0-.07,0-.16,0-.23-.04-.37-.24-.56-.61-.57-.51-.02-.71-.34-.46-.79.42-.75.88-1.48,1.31-2.22.11-.2.25-.11.39-.07.78.25,1.57.37,2.38.23.65-.11,1.22-.38,1.72-.81.16-.13.26-.15.42-.02,1.15.98,2.46,1.06,3.84.67.68-.19.49-.28.87.34.37.6.73,1.22,1.08,1.82.11.19.22.39.07.61-.16.21-.39.22-.62.21-.42-.02-.43,0-.47.44-.15,1.51.21,2.94.65,4.36.21.67.28,1.35.11,2.06" fill="#494748"/>
        <path d="M9.95,35.19c0,.42.03.45.44.45h2.03c.08,0,.2-.03.24.05.06.1-.06.17-.11.25-.13.21-.31.08-.47.05q-.8-.17-.97.62c-.17.82-.3.77.62.95.22.04.31.16.4.39.19.49,0,.77-.39,1.01-.07.04-.14.11-.21.16-.11.09-.14.18-.04.3.25.3.49.61.74.92.1.13.21.14.33.03.16-.13.33-.25.48-.39.15-.13.29-.18.46-.03.07.06.15.11.23.11.33.06.39.26.39.57-.02.77-.08.7.7.7.57,0,.86-.29.89-.87,0-.13,0-.25.15-.33.64-.34.64-.35,1.22.11.06.05.12.09.18.14.13.11.23.08.33-.04.23-.29.46-.57.69-.87.11-.15.11-.28-.05-.39-.17-.13-.34-.27-.52-.4-.14-.11-.15-.22-.12-.39.07-.49.3-.76.8-.79.08,0,.17-.04.25-.07.16-.04.21-.14.17-.3-.08-.36-.16-.72-.25-1.08-.04-.2-.16-.24-.34-.19-.21.06-.42.11-.64.15-.25.05-.39-.16-.41-.33-.02-.21.21-.1.33-.11.65-.02,1.31-.02,1.96,0,.31,0,.43-.11.41-.43-.02-.44,0-.9,0-1.34v-2.45c0-.13.02-.34-.21-.22-.34.18-.34,0-.36-.26-.06-1.08-.13-2.17-.19-3.26,0-.23-.11-.3-.32-.3-.38,0-.76.02-1.14,0-.28,0-.38.09-.39.38-.06,1.21-.14,2.41-.22,3.71-.06-.51-.27-.25-.41-.17-.19.11-.25.1-.27-.14-.06-1.14-.13-2.28-.19-3.42,0-.25-.09-.36-.34-.34-.24.02-.48,0-.71,0-.85.02-.76-.19-.83.81-.1,1.33-.16,2.67-.22,4.01h-.05c0-.14,0-.28,0-.42-.02-.21.1-.48-.07-.58-.18-.11-.36.12-.54.21-.35.19-.4.16-.42-.23-.07-1.17-.13-2.35-.2-3.51,0-.21-.1-.3-.3-.29-.39,0-.78,0-1.17,0-.25,0-.36.07-.38.35-.09,1.65-.21,3.3-.3,4.95-.02.26-.1.44-.34.53-.26.1-.34.3-.33.57.02.49,0,.98,0,1.47M17.73,36.46c.44-.11.45-.09.54.33.04.21-.03.3-.21.31-.55.04-.9.27-.85.88,0,.04-.02.08-.03.12-.12.39-.01.71.32.98.27.21.22.59-.09.72-.07.03-.12,0-.18-.04-.07-.05-.14-.11-.21-.16-.16-.12-.31-.3-.5-.36-.2-.06-.3.21-.48.3-.18.09-.36.16-.55.19s-.26.12-.25.3c0,.16,0,.33,0,.49.02.25-.1.34-.34.35-.27.02-.39-.04-.37-.33,0-.09,0-.17,0-.26.04-.34-.02-.59-.45-.6-.22,0-.42-.14-.54-.33-.14-.21-.25-.18-.42-.02-.11.11-.25.21-.38.31-.16.14-.3.25-.5,0-.19-.25-.2-.41.07-.57.04-.02.07-.05.11-.08.27-.22.35-.49.22-.8-.07-.19-.11-.39-.07-.57.04-.26-.07-.35-.3-.39-.18-.02-.36-.07-.54-.12-.27-.07-.18-.27-.15-.45.03-.19.11-.31.33-.23.54.22.94.14,1.19-.44.16-.36.5-.4.9-.31-1.35.94-1.14,2.42-.47,3.11.82.84,2.14.77,2.91-.14.8-.94.52-2.14-.7-3.02.57-.12.79-.02,1.15.52.2.3.47.4.83.31M14.92,35.94c.86,0,1.51.66,1.49,1.51,0,.84-.67,1.47-1.52,1.45-.8,0-1.47-.67-1.46-1.45,0-.84.67-1.52,1.48-1.51M17.48,31.78l.2-3.65c.02-.38.1-.4.68-.39.32,0,.33.19.34.43.05,1.03.11,2.06.18,3.1.02.21-.03.35-.23.45-.3.16-.58.34-.88.5-.28.16-.3.14-.31-.17v-.26h.02M14.73,28.02c0-.2.11-.26.29-.27.64-.05.71.02.74.64.04.87.09,1.74.14,2.69.21.45-.13.68-.54.88-.22.11-.44.25-.65.37-.13.07-.23.09-.21-.11.08-1.4.16-2.8.24-4.2M11.33,28.04c.02-.37.28-.28.48-.3.5,0,.53.03.56.51.06,1.08.12,2.17.19,3.25.02.22-.04.37-.25.48-.34.18-.68.38-1.02.57-.16.09-.21.06-.21-.12.09-1.46.18-2.93.25-4.39M11.35,33.05c.65-.27,1.22-.7,1.84-1.05.34-.2.34-.19.34.19v.98c0,.27.08.34.32.2.78-.45,1.56-.9,2.35-1.35.09-.05.18-.17.29-.12.11.06.05.2.06.3v.91c0,.31.05.34.31.18.76-.44,1.51-.86,2.26-1.31.23-.13.31-.14.3.16-.02.87-.02,1.74,0,2.61,0,.27-.09.36-.36.36-.94,0-1.87,0-3.28,0-1.34-.04-3.14.1-4.95.07-.43,0-.38-.02-.44-.44-.12-.83.16-1.35.95-1.68" fill="#494748"/>
        <path d="M21.58,61.03c-.85-.66-1.69-1.33-2.55-2-.17-.13-.26-.27-.25-.49.02-.38-.09-.73-.26-1.07-.21-.4-.48-.74-.9-.97-.4-.22-.76-.5-1.25-.53-.11,0-.16-.14-.23-.22-.61-.79-1.21-1.57-1.81-2.36-.13-.17-.25-.35-.31-.57-.06-.21-.16-.4-.36-.48-.5-.21-.64-.71-.9-1.11-.15-.21.16-.29.28-.4.07-.06.11-.06.17.03.18.3.48.34.67.06.44-.6.99-1.03,1.68-1.28.08-.03.19-.11.27-.02.06.07,0,.16-.04.25-.16.38-.3.77-.38,1.18-.13.71-.05,1.39.31,2.03.07.13.16.25.32.24.18-.02.25.1.31.22.34.6.75,1.16,1.32,1.56.75.52,1.26,1.19,1.46,2.09.03.15.11.3.3.3s.29-.13.34-.3c.06-.2.11-.4.17-.65.42.61.7,1.22.89,1.87.03.12.07.24.24.19.16-.05.16-.16.13-.29-.24-.84-.62-1.6-1.16-2.29-.09-.11-.21-.16-.34-.11s-.2.16-.2.3v.53c-.34-.8-.83-1.42-1.53-1.91-.61-.43-1.04-1.01-1.37-1.68-.1-.21-.19-.39-.47-.37-.11,0-.16-.1-.2-.19-.07-.18-.13-.37-.16-.57-.13-.85.19-1.58.52-2.32.07-.16.21-.33.06-.51-.15-.17-.34-.1-.52-.06-.88.24-1.61.7-2.17,1.43-.23-.35-.36-.39-.7-.17-.11.07-.21.14-.31.23-.15.13-.25.12-.36-.06-.11-.18-.24-.34-.35-.51q-.49-.73-1.2-.2c-.16.12-.17.22-.06.38.27.39.53.8.81,1.18.14.19.16.35.05.57-.3.57-.41,1.22-.42,1.86-.02.81.07,1.61.31,2.43-.23-.02-.41-.07-.52.13-.09.18.03.31.12.44.46.69.75,1.45.83,2.27.02.27.02.54,0,.81-.02.14.02.27.19.28.17.02.18-.11.2-.24v-.1c.07-1-.13-1.95-.63-2.82-.07-.11-.17-.21.07-.28.25-.07.25-.28.17-.48-.33-.92-.37-1.87-.32-2.84.02-.39.1-.78.27-1.13.03-.07.09-.25.19-.11.18.25.46.47.46.8,0,.3.14.5.36.67.1.07.19.16.25.27.71,1.09,1.4,2.18,2.11,3.27.09.14.09.32,0,.47-.14.27-.18.57-.11.87.11.51-.11.86-.46,1.17-1.09.96-2.21,1.88-3.47,2.61-.13.07-.14.25-.02.34.07.05.16.05.23,0,.47-.31.91-.61,1.35-.9.44-.3.89-.63,1.28-1,.19-.18.3-.2.41.06.27.61.67,1.12,1.19,1.54.16.12.19.22.04.37-.07.07-.12.13-.18.21-.03.04-.05.1-.03.16.03.16.22.21.33.09.16-.18.33-.36.49-.54.03-.04.09-.1.08-.13-.1-.25.09-.38.24-.51.16-.15.23-.29.02-.45-.11-.09-.11-.2-.04-.32.09-.18.19-.34.38-.43.26-.13.48-.33.66-.57.28-.39.21-.27.72.34.5.59.95,1.22,1.4,1.84.16.23.3.22.53.02.35-.3.71-.59,1.12-.83.43-.25.53-.35.23-.58M12.87,52.63c-.16.06-.18-.14-.26-.18-.23-.11-.37-.34-.45-.57-.16-.42-.42-.76-.67-1.12-.07-.1-.06-.18.04-.25.16-.11.34-.09.37.56.03.62.5,1.05,1.08,1.26.05.02.06.07.07.11-.02.11-.09.15-.17.18M18.25,58.03s-.11-.09-.11-.15c-.11-.39-.44-.55-.76-.7-.22-.11-.29-.25-.31-.47.67.19,1.07.63,1.19,1.31M14.47,55.45c-.34-.53-.69-1.08-1.03-1.62-.05-.08-.17-.18-.06-.29.1-.09.23-.16.32-.22.12,0,.16.08.21.14.44.58.89,1.17,1.34,1.76.14.19.07.27-.1.37-.42.24-.42.25-.67-.15M15.07,56.38c-.08-.12-.04-.27.09-.34.1-.05.21-.11.3-.17.15-.09.27-.07.36.08.17.29.41.47.77.5-.34.15-.48.45-.63.73-.12.21-.21.25-.35.02-.16-.28-.34-.55-.53-.82M15.75,62.02c-.53-.42-.89-.98-1.12-1.62-.04-.11.02-.19.12-.24.1-.05.14.02.17.09.28.54.67.99,1.15,1.36.05.04.08.1.11.13,0,.2-.3.37-.43.26M17.87,58.63c-.21.26-.31.56-.38.89-.09.44-.38.76-.77.95-.23.11-.39.25-.48.49-.02.07-.05.15-.16.16-.04-.03-.09-.07-.14-.11-.21-.21-.39-.47-.56-.72-.19-.28-.3-.53-.02-.85.15-.16.11-.41.11-.63s-.02-.44,0-.65c0-.13.02-.33.24-.11.15.14.21-.03.25-.13.11-.31.35-.55.5-.84.03-.07.07-.15.16-.14.11,0,.11.11.13.2.02.11.04.21.06.32s.07.21.19.18c.53-.11.67.33.9.62.09.11.05.25-.03.36M20.94,61.46c-.27.18-.54.37-.8.57-.27.22-.31-.09-.79-.94-.31-.56-.76-1-1.26-1.4-.11-.09-.17-.21-.16-.33,0-.16.07-.3.21-.39.15-.1.24.05.34.12.82.64,1.63,1.3,2.46,1.93.25.19.21.29,0,.44" fill="#494748"/>
        <path d="M24.67,40.83c-1.05.02-1.86.82-1.86,1.87s.83,1.9,1.87,1.89c1,0,1.86-.88,1.86-1.9s-.88-1.88-1.88-1.87M24.66,44c-.71,0-1.29-.57-1.31-1.28-.02-.69.61-1.31,1.31-1.32.71,0,1.28.58,1.29,1.3,0,.74-.56,1.31-1.3,1.31" fill="#494748"/>
        <path d="M39,49.25c-.09-.05-.2-.02-.24.07-.72,1.38-2,3-3.13,4.43-.27.34-.53.67-.76.97-.84.32-1.54.99-1.91,1.8,0-.05-.02-.09-.02-.14.05-.31.11-.64.19-.99,1.66-.5,1.35-2.69,1.19-3.76,0-.06-.04-.1-.09-.13-.05-.02-.11-.03-.16,0h-.02c-.7.29-1.25.89-1.49,1.65-.25.76-.16,1.54.21,2.18-.02.08-.03.16-.05.24-.36-.94-1.08-1.76-1.99-2.2-.07-.03-.13-.02-.19.02-.06.04-.08.11-.07.17.25,1.26.71,2.92,2.04,3.24-.09.83-.06,1.63.1,2.73.02.09.09.16.18.16h.02c.1-.02.16-.11.16-.21-.09-.61-.13-1.12-.14-1.6h.02c1.81,0,2.64-2.18,2.91-3.1h0c.02-.06,0-.11-.03-.16-.04-.05-.1-.07-.16-.07-.04,0-.08.02-.12.02.15-.19.3-.39.46-.59,1.13-1.45,2.42-3.08,3.16-4.48.05-.09.02-.2-.07-.24M32.91,53.25c.2-.59.59-1.07,1.1-1.33.17,1.31.16,2.61-.77,3.05.06-.24.12-.49.19-.76.02-.1-.03-.2-.13-.22s-.2.03-.22.13c-.06.22-.11.44-.16.63-.16-.47-.17-.99,0-1.51M30.92,53.86c.74.47,1.29,1.2,1.55,2.03-.13-.19-.28-.38-.44-.55-.07-.07-.18-.07-.25,0-.07.07-.07.18,0,.25.21.23.39.48.55.75-.8-.39-1.18-1.5-1.4-2.48M33.32,57.45c.25-.25.53-.51.85-.71.08-.05.11-.16.07-.25-.05-.08-.16-.11-.25-.07-.34.2-.62.44-.86.69.28-1.05,1.15-1.93,2.21-2.18-.28.84-.9,2.2-2.03,2.5" fill="#494748"/>
        <path d="M38.21,55.75l-2.87,2.8c-.07-.26-.22-.5-.43-.71-.07-.07-.18-.07-.25,0-.07.07-.07.18,0,.25.31.3.44.7.37,1.15-.14.92-1.03,1.9-2.32,2.55-.42.18-.88.28-1.32.35-.25.04-.48.07-.71.1-.03-.07-.07-.11-.11-.16s-.07-.1-.09-.14c-.03-.1-.02-.19.02-.26.16-.27.79-.39.99-.43.07-.02.16-.02.23-.06.1-.04.18-.1.25-.15.05-.04.1-.07.15-.1.13-.07.28-.1.43-.11.02,0,.07,0,.12-.03.06-.03.08-.07.1-.11.09-.15.23-.25.39-.3.1-.02.16-.12.13-.22-.02-.1-.12-.16-.22-.13-.24.07-.45.21-.59.43-.18.02-.35.06-.52.14-.08.04-.15.09-.21.13s-.11.08-.17.11c-.05.02-.11.03-.16.04-.46.08-1.01.23-1.23.59-.1.16-.11.35-.06.55.02.09.07.16.12.22-.14,0-.27-.02-.4-.04-.07-.02-.13-.03-.18-.06-.06-.02-.08-.05-.08-.06v-.06c.02-.08.08-.15.16-.23.03-.04.07-.08.1-.12,0,0,0,0,.02-.02,0,0,0,0,.02-.02h0s.03-.04.03-.07c.1-.37.54-.62.97-.85.32-.18.65-.37.86-.62.07-.07.06-.19-.02-.25-.07-.07-.19-.06-.25.02-.17.2-.46.36-.76.53-.41.23-.83.47-1.04.85-.02-.02-.02-.02-.03-.03-.06-.07-.1-.16-.11-.25-.02-.11.02-.21.11-.28.07-.06.15-.11.23-.16.07-.04.14-.09.21-.14l.14-.11c.11-.08.21-.16.32-.24.22-.15.44-.3.65-.5.35-.34.57-.81.64-1.35,0-.07-.02-.13-.07-.16-.05-.04-.12-.05-.18-.02-.18.08-.54.16-.74.15-.06,0-.11.02-.15.07-.03.04-.05.1-.03.16.09.38-.21.62-.3.69-.17.12-.38.18-.53.16.02-.07.03-.12.05-.19.31-1.13.45-1.66,1.73-2.1.09-.03.14-.13.11-.23-.03-.09-.13-.14-.23-.11-1.46.51-1.64,1.16-1.96,2.35-.03.11-.06.22-.09.34-.02.07,0,.16.08.21.29.17.71.12,1.06-.13.3-.21.47-.53.46-.85.12-.02.26-.04.39-.07-.08.33-.25.62-.48.85-.18.17-.39.32-.6.46-.11.08-.23.16-.34.25l-.14.11c-.06.04-.12.08-.19.12-.09.06-.19.11-.27.19-.19.16-.27.37-.23.61.02.14.08.29.18.41,0,0,.05.07.11.13-.08.09-.17.2-.22.34-.03.1-.03.19,0,.27.04.11.13.21.27.27.07.03.16.07.25.08.18.04.37.06.56.06.36,0,.73-.06,1.11-.12.46-.07.95-.18,1.41-.38,1.4-.71,2.36-1.79,2.52-2.82.02-.11.02-.22.02-.33h0l3.04-2.97c.07-.07.07-.18,0-.25-.07-.07-.18-.07-.25,0" fill="#494748"/>
        <path d="M27.44,28.62h0c.3,0,.49.24.71.52.25.31.53.67,1.03.67h0c.53,0,.76-.39.94-.71.19-.32.3-.5.57-.5.3,0,.49.24.71.52.25.32.53.67,1.03.67s.76-.39.94-.71.3-.5.57-.5h0c.3,0,.49.24.71.52.25.32.53.68,1.03.67.53,0,.76-.39.94-.71s.3-.5.57-.5c.11,0,.21-.09.21-.21s-.09-.21-.21-.21h0c-.53,0-.76.39-.94.71s-.3.5-.57.5c-.3,0-.49-.24-.71-.52-.25-.31-.53-.67-1.03-.67h0c-.53,0-.76.39-.94.71-.19.32-.3.5-.57.5h0c-.3,0-.49-.24-.71-.52-.25-.32-.53-.67-1.03-.67-.53,0-.76.39-.94.71-.19.32-.3.5-.57.5h0c-.3,0-.49-.24-.71-.52-.25-.32-.53-.68-1.03-.67-.11,0-.21.09-.21.21s.09.21.21.21" fill="#494748"/>
        <path d="M27.44,30.5h0c.3,0,.49.24.71.52.25.32.53.67,1.03.67h0c.53,0,.76-.39.94-.71.19-.32.3-.5.57-.5h0c.3,0,.49.24.71.52.25.32.53.67,1.03.67h0c.53,0,.76-.39.94-.71s.3-.5.57-.5h0c.3,0,.49.24.71.52.25.32.53.67,1.03.67h0c.53,0,.76-.39.94-.71s.3-.5.57-.5c.11,0,.21-.09.21-.21s-.09-.2-.21-.21c-.53,0-.76.39-.94.71s-.3.5-.57.5h0c-.3,0-.49-.24-.71-.52-.25-.32-.53-.67-1.03-.67h0c-.53,0-.76.39-.94.71-.19.32-.3.5-.57.5h0c-.3,0-.49-.24-.71-.52-.25-.31-.53-.67-1.03-.67h0c-.53,0-.76.39-.94.71-.19.32-.3.5-.57.5h0c-.3,0-.49-.24-.71-.52-.25-.32-.53-.67-1.03-.67h0c-.11,0-.21.09-.21.21s.09.21.21.21" fill="#494748"/>
        <path d="M27.44,32.49h0c.3,0,.49.24.71.52.25.31.53.67,1.03.67h0c.53,0,.76-.39.94-.71.19-.32.3-.5.57-.5.3,0,.49.24.71.52.25.32.53.67,1.03.67s.76-.39.94-.71.3-.5.57-.5h0c.3,0,.49.24.71.52.25.32.53.68,1.03.67.53,0,.76-.39.94-.71s.3-.5.57-.5c.11,0,.21-.09.21-.21s-.09-.21-.21-.21h0c-.53,0-.76.39-.94.71s-.3.5-.57.5c-.3,0-.49-.24-.71-.52-.25-.31-.53-.67-1.03-.67h0c-.53,0-.76.39-.94.71-.19.32-.3.5-.57.5h0c-.3,0-.49-.24-.71-.52-.25-.32-.53-.67-1.03-.67-.53,0-.76.39-.94.71-.19.32-.3.5-.57.5h0c-.3,0-.49-.24-.71-.52-.25-.32-.53-.67-1.03-.67h0c-.11,0-.21.09-.21.21s.09.21.21.21" fill="#494748"/>
        <path d="M27.44,34.63h0c.3,0,.49.24.71.52.25.32.53.67,1.03.67h0c.53,0,.76-.39.94-.71.19-.32.3-.5.57-.5h0c.3,0,.49.24.71.52.25.32.53.67,1.03.67h0c.53,0,.76-.39.94-.71s.3-.5.57-.5c.31,0,.49.24.71.52.25.32.53.67,1.03.67h0c.53,0,.76-.39.94-.71s.3-.5.57-.5c.11,0,.21-.1.21-.21,0-.11-.09-.21-.21-.21h0c-.53,0-.76.39-.94.71s-.3.5-.57.5c-.3,0-.49-.24-.71-.52-.25-.32-.53-.68-1.03-.67-.53,0-.76.39-.94.71-.19.32-.3.5-.57.5-.31,0-.49-.24-.71-.52-.25-.32-.53-.68-1.03-.67-.53,0-.76.39-.94.71-.19.32-.3.5-.57.5-.31,0-.49-.24-.71-.52-.25-.32-.53-.67-1.03-.67h0c-.11,0-.21.09-.21.21s.09.21.21.21" fill="#494748"/>
        <path d="M27.44,36.76h0c.3,0,.49.24.71.52.25.32.53.67,1.03.67h0c.53,0,.76-.39.94-.71.19-.32.3-.5.57-.5h0c.3,0,.49.24.71.52.25.31.53.67,1.03.67h0c.53,0,.76-.39.94-.71.18-.32.3-.5.57-.5h0c.3,0,.49.24.71.52.25.32.53.67,1.03.67h0c.53,0,.76-.39.94-.71s.3-.5.57-.5c.11,0,.21-.09.21-.21s-.09-.21-.21-.21h0c-.53,0-.76.39-.94.71s-.3.5-.57.5h0c-.3,0-.49-.24-.71-.52-.25-.31-.53-.67-1.03-.67h0c-.53,0-.76.39-.94.71-.19.32-.3.5-.57.5-.31,0-.49-.24-.71-.52-.25-.32-.53-.67-1.03-.67h0c-.53,0-.76.39-.94.71-.19.32-.3.5-.57.5h0c-.3,0-.49-.24-.71-.52-.25-.32-.53-.68-1.03-.67-.11,0-.21.09-.21.21s.09.21.21.21" fill="#494748"/>
        <path d="M39.84,26.82c-.11,0-.21.09-.21.21v.89l-.69-1s0,0-.02-.02l-.03-.03s-.02-.02-.03-.02c0,0-.02,0-.03-.02-.02,0-.02,0-.04,0h-.03s-.02,0-.04,0c-.02,0-.02,0-.04.02h-.02s0,0-.02.02l-.03.03s-.02.02-.02.03c0,0,0,.02-.02.03,0,.02,0,.02,0,.04v11.19c0,.11.09.21.21.21s.21-.09.21-.21v-1.38l.65.94h0v.44c0,.11.09.21.21.21s.21-.09.21-.21v-11.18c0-.11-.09-.21-.21-.21M39.01,33.09l.62-.9v1.8l-.62-.9h0ZM38.98,32.41v-1.68l.57.84-.57.84ZM39.01,30.05l.62-.9v1.8l-.62-.9h0ZM38.98,29.37v-1.68l.57.84-.57.84ZM38.98,33.78l.57.84-.57.84v-1.68ZM39.01,36.14l.62-.9v1.8l-.62-.9h0Z" fill="#494748"/>
        <path d="M56.16,13.69h9.85c5.45,0,9.15,2.48,9.15,8.09v.23c0,5.94-4.06,8.26-9.15,8.26h-3.27v6.54h-6.57V13.68h0ZM65.38,24.42c2.08,0,3.27-.59,3.27-2.41v-.1c0-1.72-1.16-2.28-3.27-2.28h-2.64v4.79h2.64Z" fill="#911635"/>
        <path d="M76.71,29.15v-15.45h6.57v14c0,1.95,1.29,3.17,3.43,3.17h.1c2.35,0,3.47-1.19,3.47-3.17v-14h6.57v15.42c0,5.18-3.63,8.06-9.94,8.06h-.1c-6.47,0-10.11-2.87-10.11-8.02" fill="#911635"/>
        <polygon points="99.23 13.69 116.34 13.69 116.34 19.63 105.81 19.63 105.81 22.84 116.05 22.84 116.05 27.53 105.81 27.53 105.81 30.87 116.31 30.87 116.31 36.81 99.23 36.81 99.23 13.69" fill="#911635"/>
        <path d="M118.39,13.69h11.13c4.79,0,7.27,2.04,7.27,5.65,0,3.04-1.78,4.89-4.43,5.29v.16c2.74.3,5.39,1.81,5.39,5.78s-2.81,6.24-8.52,6.24h-10.83V13.69h0ZM127.94,23.07c1.42,0,2.11-.59,2.11-1.85,0-1.19-.69-1.72-2.25-1.72h-2.84v3.56h2.98ZM128.17,31c1.85,0,2.68-.46,2.68-1.85s-.8-1.95-2.48-1.95h-3.4v3.8h3.2Z" fill="#911635"/>
        <polygon points="139.63 13.69 146.2 13.69 146.2 30.87 156.08 30.87 156.08 36.81 139.63 36.81 139.63 13.69" fill="#911635"/>
        <path d="M164.73,13.69h7.89l8.15,23.12h-6.94l-1.52-4.52h-7.79l-1.42,4.52h-6.91l8.52-23.12h0ZM171.1,27.26l-2.68-8.36-2.61,8.36h5.29,0Z" fill="#911635"/>
        <path d="M59.06,58.91v-.02c0-.4-.23-.76-.84-.76h-.05c-.5,0-.86.25-.94.92l-1.04-.13c.13-1.17.85-1.67,2-1.67h.07c1.3,0,1.91.66,1.91,1.6v.02c0,1.69-2.19,2.26-2.77,3.17h2.7v.9h-3.97v-.4c0-1.84,2.91-2.25,2.91-3.61" fill="#494748"/>
        <path d="M71.22,60.23v-.1c0-1.87,1.01-2.87,2.32-2.87h.06c1.25,0,2.26.96,2.26,2.86v.1c0,1.85-.95,2.82-2.3,2.82h-.06c-1.26,0-2.27-.94-2.27-2.81M74.74,60.17v-.08c0-1.08-.48-1.83-1.2-1.83h-.06c-.71,0-1.22.7-1.22,1.86v.08c0,1.1.48,1.84,1.22,1.84h.06c.72,0,1.2-.7,1.2-1.86" fill="#494748"/>
        <path d="M89.76,58.91v-.02c0-.4-.23-.76-.84-.76h-.05c-.5,0-.86.25-.94.92l-1.04-.13c.13-1.17.85-1.67,2-1.67h.07c1.3,0,1.91.66,1.91,1.6v.02c0,1.69-2.19,2.26-2.77,3.17h2.7v.9h-3.97v-.4c0-1.84,2.91-2.25,2.91-3.61" fill="#494748"/>
        <path d="M104.17,61.7h-2.64v-.85l2.54-3.49h1.17v3.45h.66v.88h-.7v1.23h-1.03v-1.23h0ZM104.22,60.82v-2.19l-1.63,2.19h1.63Z" fill="#494748"/>
        <rect x="116.98" y="60.42" width="1.91" height=".61" fill="#494748"/>
        <path d="M133.06,58.91v-.02c0-.4-.23-.76-.84-.76h-.05c-.5,0-.86.25-.94.92l-1.04-.13c.13-1.17.85-1.67,2-1.67h.07c1.3,0,1.91.66,1.91,1.6v.02c0,1.69-2.19,2.26-2.77,3.17h2.7v.9h-3.97v-.4c0-1.84,2.91-2.25,2.91-3.61" fill="#494748"/>
        <path d="M145.22,60.23v-.1c0-1.87,1.01-2.87,2.32-2.87h.06c1.25,0,2.26.96,2.26,2.86v.1c0,1.85-.95,2.82-2.3,2.82h-.06c-1.26,0-2.27-.94-2.27-2.81M148.74,60.17v-.08c0-1.08-.48-1.83-1.2-1.83h-.06c-.71,0-1.22.7-1.22,1.86v.08c0,1.1.48,1.84,1.22,1.84h.06c.72,0,1.2-.7,1.2-1.86" fill="#494748"/>
        <path d="M160.82,61.42l1.06-.21c.11.71.53.97,1.08.97h.02c.51,0,.96-.29.96-.89v-.04c0-.63-.36-.87-1.22-.87h-.25v-.63h.16c.75-.02,1.17-.3,1.17-.85v-.02c0-.4-.23-.76-.79-.76h-.04c-.5,0-.87.23-.97.87l-1.07-.16c.16-1.12,1.01-1.59,2.04-1.59h.06c1.15,0,1.83.66,1.83,1.48v.02c0,.64-.33,1.05-.9,1.26v.02c.74.13,1.1.58,1.1,1.36v.02c0,1.06-.9,1.65-2.1,1.65h-.02c-1.19,0-1.99-.57-2.11-1.63" fill="#494748"/>
        <path d="M176.06,60.23v-.1c0-1.87,1.01-2.87,2.32-2.87h.06c1.25,0,2.26.96,2.26,2.86v.1c0,1.85-.95,2.82-2.3,2.82h-.06c-1.26,0-2.27-.94-2.27-2.81M179.58,60.17v-.08c0-1.08-.48-1.83-1.2-1.83h-.06c-.71,0-1.22.7-1.22,1.86v.08c0,1.1.48,1.84,1.22,1.84h.06c.72,0,1.2-.7,1.2-1.86" fill="#494748"/>
        <path d="M56.1,44.94v-.1c0-3.05,1.18-4.89,4.2-4.89,2.47,0,3.67,1.21,3.87,3.41l-1.89.34c-.16-1.54-.85-1.99-1.95-1.99h-.06c-1.53,0-2.25.96-2.25,3.28v.06c0,2.25.58,3.28,2.21,3.28h.06c1.2,0,1.93-.62,2.03-2.24h-1.82v-1.11h3.75v4.92h-1.67v-1.34c-.48,1.1-1.38,1.56-2.64,1.56h-.04c-2.82,0-3.79-2.01-3.79-5.19ZM60.31,39.95h-.02.02Z" fill="#494748"/>
        <path d="M65.12,46.62v-.16c0-2.23,1.39-3.74,3.81-3.74h.16c2.36,0,3.61,1.47,3.61,3.59v.12c0,2.09-1.24,3.69-3.77,3.69h-.12c-2.49,0-3.7-1.47-3.7-3.51ZM70.93,46.43v-.1c0-1.17-.57-2.09-1.93-2.09h-.12c-1.38,0-2.04.89-2.04,2.14v.11c0,1.18.58,2.1,1.99,2.1h.07c1.47,0,2.04-.99,2.04-2.17h0Z" fill="#494748"/>
        <path d="M75.51,48.85v1.06h-1.82v-9.87h1.82v3.97c.52-.79,1.38-1.28,2.42-1.28h.16c1.67,0,2.93,1.42,2.93,3.51v.14c0,2.55-1.22,3.74-3.05,3.74h-.11c-1.22,0-1.93-.54-2.35-1.28h0ZM79.22,46.4v-.1c0-1.21-.62-2.04-1.78-2.04h-.07c-1.12,0-1.75.86-1.86,1.64v1.03c.12.9.78,1.6,1.79,1.6h.1c1.25,0,1.82-.8,1.82-2.13Z" fill="#494748"/>
        <path d="M81.82,40.15c0-.64.5-1.08,1.08-1.08s1.07.48,1.07,1.08-.48,1.08-1.07,1.08-1.08-.48-1.08-1.08ZM81.97,42.95h1.82v6.95h-1.82v-6.95Z" fill="#494748"/>
        <path d="M84.78,46.44v-.16c0-1.99,1.2-3.57,3.53-3.57h.1c2.25,0,3.56,1.26,3.6,3.37l.02.66h-5.6c.14,1.31.9,1.95,2.01,1.95h.06c.86,0,1.58-.39,1.77-1.22l1.57.62c-.44,1.29-1.57,2.04-3.33,2.04h-.07c-2.2,0-3.65-1.26-3.65-3.69h0ZM90.26,45.76v-.16c-.02-1.02-.66-1.64-1.78-1.64h-.07c-1.21,0-1.88.64-2,1.79h3.85Z" fill="#494748"/>
        <path d="M92.9,42.95h1.82v1.32c.44-.86,1.34-1.32,2.47-1.32h.28v1.7h-.58c-1.21,0-1.88.42-2.17,1.42v3.83h-1.82v-6.95Z" fill="#494748"/>
        <path d="M101.65,44.45c-.93,0-1.54.48-1.86,1.32v4.13h-1.82v-6.95h1.82v1.07c.54-.84,1.4-1.29,2.57-1.29,1.71,0,2.6.9,2.6,2.59v4.59h-1.83v-4.07c0-.9-.53-1.38-1.47-1.38h0Z" fill="#494748"/>
        <path d="M105.92,46.62v-.16c0-2.23,1.39-3.74,3.81-3.74h.16c2.36,0,3.61,1.47,3.61,3.59v.12c0,2.09-1.24,3.69-3.77,3.69h-.12c-2.49,0-3.7-1.47-3.7-3.51ZM111.74,46.43v-.1c0-1.17-.57-2.09-1.93-2.09h-.12c-1.38,0-2.04.89-2.04,2.14v.11c0,1.18.58,2.1,1.99,2.1h.07c1.47,0,2.04-.99,2.04-2.17h0Z" fill="#494748"/>
        <path d="M121.69,48.85c-.42.74-1.08,1.28-2.31,1.28h-.11c-1.82,0-3.07-1.2-3.07-3.74v-.14c0-2.15,1.32-3.51,3.05-3.51h.16c1.04,0,1.78.48,2.28,1.28v-3.97h1.82v9.87h-1.82v-1.06h0ZM121.69,46.93v-.94c-.07-.78-.67-1.72-1.79-1.72h-.08c-1.17,0-1.82.78-1.82,2.02v.1c0,1.35.6,2.15,1.85,2.15h.1c1.02,0,1.64-.7,1.75-1.6Z" fill="#494748"/>
        <path d="M124.49,46.44v-.16c0-1.99,1.2-3.57,3.53-3.57h.1c2.25,0,3.56,1.26,3.6,3.37l.02.66h-5.6c.14,1.31.9,1.95,2.01,1.95h.06c.86,0,1.58-.39,1.77-1.22l1.57.62c-.44,1.29-1.57,2.04-3.33,2.04h-.07c-2.2,0-3.65-1.26-3.65-3.69h0ZM129.97,45.76v-.16c-.02-1.02-.66-1.64-1.78-1.64h-.07c-1.21,0-1.88.64-2,1.79h3.85Z" fill="#494748"/>
        <path d="M132.6,40.03h1.82v9.87h-1.82v-9.87Z" fill="#494748"/>
        <path d="M145.03,48.17l1.72-.18c.22.62.96.89,1.95.89h.07c1.29,0,1.63-.46,1.63-.99v-.02c0-1.58-5.17-.39-5.17-3.05v-.08c0-1.35,1.34-2.02,3.24-2.02h.1c1.68,0,3.01.62,3.23,2.21l-1.58.12c-.16-.99-.98-1.22-1.74-1.22h-.07c-1.04,0-1.49.36-1.49.88v.02c0,1.36,5.05.28,5.05,3.17v.04c0,1.36-.89,2.18-3.25,2.18h-.06c-2.24,0-3.37-.72-3.61-1.96h0Z" fill="#494748"/>
        <path d="M153.57,47.58v-3.24h-1.49v-1.39h1.54v-2.78h1.77v2.78h1.52v1.39h-1.52v2.96c0,.78.18,1.1.8,1.1h.5v1.5h-.76c-1.61,0-2.35-.7-2.35-2.32h0Z" fill="#494748"/>
        <path d="M162.24,48.45c-.4.96-1.49,1.65-2.63,1.65h-.11c-1.46,0-2.43-.72-2.43-1.99v-.07c0-1.45,1.06-1.99,3.05-2.24l2.06-.22v-.1c.02-.9-.54-1.43-1.47-1.43h-.08c-.78,0-1.46.3-1.63,1.21l-1.61-.34c.34-1.53,1.71-2.21,3.29-2.21h.12c2.09,0,3.19.89,3.19,2.67v4.51h-1.75v-1.45h0ZM162.14,46.45l-1.56.18c-1.21.16-1.68.5-1.68,1.14v.08c0,.48.42.94,1.16.94h.12c.96,0,1.83-.84,1.96-2.35Z" fill="#494748"/>
        <path d="M170.46,48.85c-.42.74-1.08,1.28-2.31,1.28h-.11c-1.82,0-3.07-1.2-3.07-3.74v-.14c0-2.15,1.32-3.51,3.05-3.51h.16c1.04,0,1.78.48,2.28,1.28v-3.97h1.82v9.87h-1.82v-1.06h0ZM170.46,46.93v-.94c-.07-.78-.67-1.72-1.79-1.72h-.08c-1.17,0-1.82.78-1.82,2.02v.1c0,1.35.6,2.15,1.85,2.15h.1c1.02,0,1.64-.7,1.75-1.6Z" fill="#494748"/>
        <path d="M173.26,46.62v-.16c0-2.23,1.39-3.74,3.81-3.74h.16c2.36,0,3.61,1.47,3.61,3.59v.12c0,2.09-1.24,3.69-3.77,3.69h-.12c-2.49,0-3.7-1.47-3.7-3.51ZM179.07,46.43v-.1c0-1.17-.57-2.09-1.93-2.09h-.12c-1.38,0-2.04.89-2.04,2.14v.11c0,1.18.58,2.1,1.99,2.1h.07c1.47,0,2.04-.99,2.04-2.17h0Z" fill="#494748"/>
        <path d="M138.25,40.31h6.33v1.66h-4.49v2.4h4.32v1.35h-4.32v2.54h4.51v1.66h-6.35v-9.59h0Z" fill="#494748"/>
      </g>
      <rect x="199.24" y="22.47" width=".81" height="32.51" transform="translate(399.3 77.45) rotate(180)" fill="#bfbebf"/>
      <g>
        <path d="M216.26,14.56h7.66c2.36,0,4.11.51,5.25,1.52,1.13,1.02,1.7,2.46,1.7,4.32,0,1.61-.36,2.87-1.08,3.79-.72.92-1.62,1.55-2.71,1.88v.11c1.25.09,2.34.7,3.26,1.81.92,1.11,1.38,2.74,1.38,4.89s-.58,3.68-1.75,4.8c-1.17,1.12-3.21,1.68-6.12,1.68h-7.59V14.56ZM224.09,25.66c1.56,0,2.77-.42,3.63-1.26.86-.84,1.29-2.05,1.29-3.63s-.46-2.75-1.38-3.49c-.92-.74-2.36-1.12-4.33-1.12h-5.32v9.5h6.1ZM223.24,37.78c1.73,0,3.07-.19,4.04-.57.97-.38,1.64-.94,2.02-1.7.38-.76.57-1.76.57-3.01,0-1.91-.42-3.3-1.26-4.15-.84-.85-2.25-1.28-4.24-1.28h-6.38v10.71h5.25Z" fill="#deddde"/>
        <path d="M236.29,14.56h1.74v24.81h-1.74V14.56Z" fill="#deddde"/>
        <path d="M243.91,14.56h13.79v1.63h-12.05v9.75h11.45v1.49h-11.45v10.32h12.23v1.63h-13.97V14.56Z" fill="#deddde"/>
        <path d="M261.85,14.56h1.7l12.83,21.73V14.56h1.7v24.81h-1.77l-12.8-21.69v21.69h-1.67V14.56Z" fill="#deddde"/>
        <path d="M281.24,14.56h1.81l7.83,23.11,7.69-23.11h1.81l-8.37,24.81h-2.27l-8.51-24.81Z" fill="#deddde"/>
        <path d="M303.53,14.56h13.79v1.63h-12.05v9.75h11.45v1.49h-11.45v10.32h12.23v1.63h-13.97V14.56Z" fill="#deddde"/>
        <path d="M321.47,14.56h1.7l12.83,21.73V14.56h1.7v24.81h-1.77l-12.8-21.69v21.69h-1.67V14.56Z" fill="#deddde"/>
        <path d="M343.59,14.56h1.74v24.81h-1.74V14.56Z" fill="#deddde"/>
        <path d="M351.21,14.56h6.91c2.48,0,4.46.43,5.94,1.29s2.55,2.19,3.21,3.99c.66,1.8.99,4.15.99,7.05v.14c0,2.91-.32,5.26-.96,7.05-.64,1.8-1.7,3.13-3.19,3.99-1.49.86-3.5,1.29-6.03,1.29h-6.88V14.56ZM357.95,37.75c2.15,0,3.83-.35,5.05-1.05,1.22-.7,2.09-1.81,2.62-3.35.53-1.54.8-3.64.8-6.31v-.14c0-2.65-.27-4.74-.81-6.29-.54-1.55-1.43-2.67-2.66-3.37-1.23-.7-2.88-1.05-4.96-1.05h-5.03v21.55h5Z" fill="#deddde"/>
        <path d="M376.12,38.63c-1.45-.87-2.5-2.24-3.14-4.09-.64-1.85-.96-4.33-.96-7.43v-.21c0-3.1.34-5.58,1.03-7.46.69-1.88,1.75-3.26,3.21-4.13,1.45-.87,3.37-1.31,5.76-1.31h.18c2.34,0,4.22.44,5.65,1.31,1.43.87,2.48,2.25,3.15,4.13.67,1.88,1.01,4.37,1.01,7.46v.21c0,3.1-.32,5.58-.96,7.44-.64,1.87-1.68,3.23-3.12,4.09-1.44.86-3.37,1.29-5.78,1.29h-.14c-2.48,0-4.45-.44-5.9-1.31ZM386.87,37.16c1.16-.72,1.99-1.89,2.5-3.51.51-1.62.76-3.83.76-6.65v-.18c0-2.76-.27-4.96-.8-6.58-.53-1.62-1.38-2.78-2.53-3.49-1.16-.71-2.72-1.06-4.68-1.06h-.14c-2.03,0-3.63.35-4.8,1.06s-2.02,1.88-2.55,3.51c-.53,1.63-.8,3.86-.8,6.7v.18c0,2.77.27,4.95.8,6.54s1.38,2.75,2.55,3.47c1.17.72,2.77,1.08,4.8,1.08h.11c2.03,0,3.63-.36,4.79-1.08Z" fill="#deddde"/>
        <path d="M397.76,38.03c-1.56-1.28-2.38-3.19-2.45-5.74l1.67-.35c.05,2.34.73,4.01,2.06,5.02,1.32,1,2.95,1.51,4.89,1.51h.14c2.1,0,3.69-.49,4.75-1.47,1.06-.98,1.6-2.24,1.6-3.77v-.11c0-1.25-.32-2.26-.96-3.03-.64-.77-1.42-1.35-2.36-1.75-.93-.4-2.19-.82-3.78-1.24-1.63-.45-2.94-.89-3.94-1.31-.99-.43-1.83-1.06-2.5-1.91-.67-.85-1.01-1.97-1.01-3.37v-.14c0-1.23.31-2.32.94-3.28.63-.96,1.54-1.71,2.75-2.25,1.21-.54,2.65-.82,4.32-.82h.32c2.22,0,4.02.59,5.41,1.77,1.38,1.18,2.18,3.07,2.39,5.67l-1.81.28c-.17-2.22-.77-3.8-1.83-4.73-1.05-.93-2.46-1.4-4.24-1.4h-.28c-2.15,0-3.7.44-4.66,1.33s-1.44,2-1.44,3.35v.18c0,1.04.28,1.88.85,2.52.57.64,1.28,1.13,2.13,1.47.85.34,2.02.73,3.51,1.15,1.75.5,3.16.98,4.22,1.45,1.06.47,1.97,1.19,2.73,2.14.76.96,1.13,2.24,1.13,3.85v.18c0,2.03-.72,3.66-2.16,4.89-1.44,1.23-3.45,1.84-6.03,1.84h-.21c-2.55,0-4.61-.64-6.17-1.91Z" fill="#deddde"/>
      </g>
      <g>
        <path d="M220.49,45.69h1.42l6.49,18.46h-1.4l-1.93-5.51h-7.86l-1.9,5.51h-1.4l6.57-18.46ZM224.74,57.5l-3.59-10.37-3.56,10.37h7.15Z" fill="#bdbdbc"/>
        <path d="M231.2,45.69h1.29v17.25h8.39v1.21h-9.68v-18.46Z" fill="#bdbdbc"/>
        <path d="M248.6,45.69h4.62c2.2,0,3.85.48,4.96,1.44,1.11.96,1.66,2.33,1.66,4.13v.24c0,4.04-2.2,6.07-6.59,6.07h-3.35v6.59h-1.29v-18.46ZM253.17,56.32c1.76,0,3.09-.39,4-1.17.91-.78,1.36-2,1.36-3.65v-.21c0-1.42-.46-2.51-1.37-3.26-.91-.75-2.28-1.12-4.09-1.12h-3.16v9.42h3.27Z" fill="#bdbdbc"/>
        <path d="M265.21,63.59c-1.08-.65-1.86-1.67-2.33-3.05-.47-1.38-.71-3.22-.71-5.53v-.16c0-2.3.25-4.15.76-5.55.51-1.4,1.31-2.42,2.39-3.07,1.08-.65,2.51-.98,4.29-.98h.13c1.74,0,3.14.33,4.21.98,1.06.65,1.85,1.67,2.35,3.07.5,1.4.75,3.25.75,5.55v.16c0,2.3-.24,4.15-.71,5.54-.47,1.39-1.25,2.4-2.32,3.05-1.07.64-2.51.96-4.3.96h-.11c-1.85,0-3.31-.33-4.39-.98ZM273.21,62.5c.86-.54,1.48-1.41,1.86-2.61.38-1.2.57-2.85.57-4.95v-.13c0-2.06-.2-3.69-.59-4.89-.4-1.2-1.02-2.07-1.89-2.6-.86-.53-2.02-.79-3.48-.79h-.11c-1.51,0-2.7.26-3.57.79-.87.53-1.5,1.4-1.9,2.61-.4,1.21-.59,2.87-.59,4.98v.13c0,2.06.2,3.68.59,4.87.4,1.19,1.03,2.05,1.9,2.58.87.54,2.06.8,3.57.8h.08c1.51,0,2.7-.27,3.56-.8Z" fill="#bdbdbc"/>
        <path d="M280.62,45.69h6.46c1.67,0,2.95.45,3.84,1.36.89.91,1.33,2.24,1.33,4v.13c0,1.41-.29,2.59-.88,3.56-.59.97-1.44,1.58-2.55,1.85l4.38,7.57h-1.56l-4.19-7.28h-5.54v7.28h-1.29v-18.46ZM286.87,55.66c1.44,0,2.47-.39,3.07-1.17.61-.78.91-1.89.91-3.34v-.03c0-1.39-.35-2.44-1.05-3.15-.7-.71-1.8-1.07-3.3-1.07h-4.59v8.76h4.96Z" fill="#bdbdbc"/>
        <path d="M300.01,46.9h-5.62v-1.21h12.58v1.21h-5.64v17.25h-1.32v-17.25Z" fill="#bdbdbc"/>
        <path d="M312.9,45.69h1.42l6.49,18.46h-1.4l-1.93-5.51h-7.86l-1.9,5.51h-1.4l6.57-18.46ZM317.15,57.5l-3.59-10.37-3.56,10.37h7.15Z" fill="#bdbdbc"/>
        <path d="M323.61,45.69h1.29v17.25h8.39v1.21h-9.68v-18.46Z" fill="#bdbdbc"/>
        <path d="M343.15,45.69h5.14c1.85,0,3.32.32,4.42.96,1.1.64,1.89,1.63,2.39,2.97.49,1.34.74,3.09.74,5.25v.11c0,2.16-.24,3.91-.71,5.25-.47,1.34-1.27,2.33-2.37,2.97-1.11.64-2.6.96-4.48.96h-5.12v-18.46ZM348.16,62.93c1.6,0,2.85-.26,3.76-.78.91-.52,1.56-1.35,1.95-2.49.4-1.14.59-2.71.59-4.69v-.11c0-1.97-.2-3.53-.61-4.68-.4-1.15-1.06-1.99-1.98-2.51-.91-.52-2.15-.78-3.69-.78h-3.75v16.04h3.72Z" fill="#bdbdbc"/>
        <path d="M359.42,45.69h10.26v1.21h-8.97v7.25h8.52v1.11h-8.52v7.67h9.1v1.21h-10.39v-18.46Z" fill="#bdbdbc"/>
        <path d="M377.28,45.69h5.35c2.22,0,3.9.49,5.06,1.48,1.16.98,1.74,2.42,1.74,4.3v.21c0,2.11-.59,3.67-1.77,4.68-1.18,1.01-2.85,1.52-5.01,1.52h-3.17v6.28h-2.22v-18.46ZM382.47,55.84c1.56,0,2.75-.33,3.55-1,.8-.67,1.2-1.72,1.2-3.16v-.19c0-1.25-.4-2.19-1.21-2.83-.81-.64-2.01-.96-3.61-.96h-2.9v8.15h2.98Z" fill="#bdbdbc"/>
        <path d="M396.24,45.69h2.53l6.51,18.46h-2.35l-1.77-5.09h-7.49l-1.71,5.09h-2.35l6.62-18.46ZM400.7,57.29l-3.24-9.55-3.24,9.55h6.49Z" fill="#bdbdbc"/>
        <path d="M408.23,62.18c-1.08-1.59-1.62-4.03-1.62-7.32v-.13c0-3.18.6-5.56,1.79-7.12,1.2-1.56,3.11-2.35,5.75-2.35,2.22,0,3.87.53,4.97,1.58,1.1,1.06,1.72,2.66,1.86,4.8l-2.24.4c-.16-1.76-.6-2.97-1.33-3.64-.73-.67-1.82-1-3.26-1h-.08c-1.76,0-3.06.58-3.92,1.73-.85,1.15-1.28,3.06-1.28,5.74v.13c0,1.79.17,3.23.5,4.3s.87,1.86,1.62,2.37c.75.51,1.75.76,3.02.76h.08c1.49,0,2.64-.46,3.43-1.37.79-.91,1.22-2.41,1.29-4.48h-4.17v-1.45h6.38v9.02h-1.98v-2.95c-.46,1.2-1.13,2.06-2.02,2.58-.89.53-1.97.79-3.26.79h-.08c-2.57,0-4.39-.8-5.47-2.39Z" fill="#bdbdbc"/>
        <path d="M427.15,63.58c-1.13-.66-1.94-1.68-2.44-3.07-.5-1.39-.75-3.2-.75-5.43v-.24c0-3.34.61-5.77,1.83-7.29,1.22-1.52,3.17-2.28,5.84-2.28h.13c2.62,0,4.54.76,5.75,2.28,1.21,1.52,1.82,3.95,1.82,7.29v.21c0,3.31-.59,5.72-1.78,7.24-1.19,1.52-3.12,2.28-5.79,2.28h-.13c-1.86,0-3.36-.33-4.48-.99ZM434.8,61.7c.76-.49,1.3-1.27,1.64-2.35s.5-2.54.5-4.4v-.13c0-1.81-.17-3.25-.51-4.33-.34-1.07-.89-1.85-1.65-2.35s-1.78-.74-3.09-.74h-.08c-1.34,0-2.39.25-3.17.74-.77.49-1.34,1.28-1.69,2.36-.35,1.08-.53,2.54-.53,4.39v.13c0,1.81.18,3.25.53,4.33.35,1.07.91,1.85,1.69,2.35.77.49,1.83.74,3.17.74h.05c1.34,0,2.38-.25,3.14-.74Z" fill="#bdbdbc"/>
        <path d="M443.49,63.11c-1.24-.98-1.89-2.42-1.96-4.34l2.22-.34c.03,1.53.48,2.63,1.34,3.31s1.94,1.02,3.24,1.02h.11c1.37,0,2.4-.31,3.1-.94.69-.62,1.04-1.43,1.04-2.41v-.08c0-.81-.22-1.46-.66-1.95-.44-.49-.98-.87-1.62-1.13-.64-.26-1.53-.55-2.65-.87-1.25-.33-2.25-.66-3.01-.99-.76-.33-1.4-.81-1.93-1.46-.53-.65-.79-1.51-.79-2.58v-.11c0-.95.25-1.8.76-2.56.51-.76,1.24-1.35,2.2-1.77.96-.42,2.09-.63,3.39-.63h.26c1.79,0,3.24.44,4.34,1.33,1.1.89,1.73,2.31,1.89,4.26l-2.29.32c-.12-1.46-.54-2.49-1.24-3.1-.7-.61-1.64-.91-2.82-.91h-.18c-1.39,0-2.4.28-3.02.84-.62.56-.94,1.27-.94,2.14v.11c0,.65.2,1.18.59,1.6s.89.74,1.49.98c.6.24,1.42.51,2.48.8,1.34.37,2.42.73,3.24,1.09.83.36,1.53.91,2.11,1.64.58.73.87,1.69.87,2.89v.13c0,1.04-.27,1.95-.8,2.73-.54.78-1.3,1.39-2.28,1.82-.98.43-2.14.65-3.46.65h-.16c-2,0-3.63-.49-4.87-1.46Z" fill="#bdbdbc"/>
        <path d="M462.81,45.69h11.05v2h-8.84v6.2h8.41v1.71h-8.41v6.54h8.91v2h-11.13v-18.46Z" fill="#bdbdbc"/>
        <path d="M476.71,45.69h2.16l8.65,14.77v-14.77h2.11v18.46h-2.19l-8.62-14.66v14.66h-2.11v-18.46Z" fill="#bdbdbc"/>
        <path d="M498.25,45.69h2.22v16.46h8.25v2h-10.47v-18.46Z" fill="#bdbdbc"/>
        <path d="M510.68,42.6l2.45-3.35,1.32,1.13-2.82,3.03-.95-.82ZM511.47,45.69h2.21v18.46h-2.21v-18.46Z" fill="#bdbdbc"/>
        <path d="M517.64,45.69h2.16l8.65,14.77v-14.77h2.11v18.46h-2.19l-8.62-14.66v14.66h-2.11v-18.46Z" fill="#bdbdbc"/>
        <path d="M534.52,45.69h11.05v2h-8.83v6.2h8.41v1.71h-8.41v6.54h8.91v2h-11.13v-18.46Z" fill="#bdbdbc"/>
        <path d="M553.53,45.69h2.53l6.51,18.46h-2.35l-1.77-5.09h-7.49l-1.71,5.09h-2.35l6.62-18.46ZM557.99,57.29l-3.24-9.55-3.24,9.55h6.49Z" fill="#bdbdbc"/>
      </g>
    </g>
  </g>
</svg>