<?xml version="1.0" encoding="UTF-8"?>
<svg id="uuid-2fdac0bb-ce80-4394-93ac-ea83b04a8122" data-name="Capa 2" xmlns="http://www.w3.org/2000/svg" viewBox="0 0 84.93 84.93">
  <g id="uuid-bba53a6f-f8f9-4118-9b42-0fc9f882af60" data-name="Capa 1">
    <g>
      <path d="M21.78,46.36c.2.45.61.57,1.14.46.15-.03.42-.02.48.07.89,1.34,2.87,1.08,3.68,2.52.1.18.26.3.47.32.89.08,1.51.55,1.91,1.33.13.25.33.37.58.44.74.22,1.29.66,1.58,1.39.11.27.38.31.56.47,1.14,1,1.99,2.25,2.85,3.46.31.44.41,1.04.94,1.37.28.18.6.45.6.78-.02.89.47,1.42,1.11,1.92.26.21.45.59.39.9-.14.74.21,1.16.73,1.6.66.56.76,1.34.31,2.06-.4.62-.51,1.24-.52,1.96-.02,1.23-.74,2.06-1.97,2.41-.4.11-.61.31-.74.69-.62,1.8-1.88,2.96-3.69,3.51-.66.2-.85.47-.38,1.04.11.13.18.28.27.42,1.28,2.09.72,3.84-1.56,4.8-.23.1-.47.19-.72.25-1.02.24-1.44.9-1.53,1.93-.22,2.46-1.86,3.18-3.83,1.67-.74-.57-1.44-.89-2.39-.95-1.87-.1-3.38-1.68-3.6-3.64-.07-.63-.25-.75-.86-.74-1.84.03-2.98-1.13-2.98-2.99,0-.51-.18-.58-.62-.63-2.63-.29-4.03-1.71-4.27-4.33-.04-.45-.17-.53-.61-.53-1.87.02-3.06-1.22-3.04-3.14,0-.43-.12-.58-.53-.67-2.85-.67-3.72-1.72-3.9-4.63-.02-.31-.14-.53-.33-.74-.23-.25-.46-.5-.64-.77-1.28-1.87-.62-3.46,1.63-3.69,1.16-.12,1.9-.55,2.14-1.72.04-.22.12-.44.22-.63.97-1.88,2.41-3,4.61-1.6.14.09.28.19.42.28q.87.58,1.22-.39c.63-1.77,1.81-3.01,3.6-3.62.32-.11.5-.25.58-.61.33-1.42,1.24-2.12,2.72-2.07.52.02.95-.06,1.4-.38.95-.67,1.7-.53,2.57.41M34.03,67.45c.55.55.98,1.03,1.64,1.22.99.27,1.67-.16,1.82-1.16.11-.81-.23-1.48-.74-2.07-1.18-1.36-2.64-2.24-4.41-2.58-1.37-.26-2.49-.93-3.45-1.94-1.53-1.6-3.08-3.18-4.7-4.69-1.16-1.08-1.88-2.34-2.18-3.88-.34-1.72-1.29-3.08-2.58-4.23-.59-.53-1.28-.81-2.09-.66-.89.16-1.32.86-1.1,1.74.11.45.33.85.68,1.14,1.27,1.04,1.95,2.41,2.38,3.97.24.86.6,1.69.9,2.53.16.46.43.85.77,1.19,1.32,1.3,2.72,2.52,3.93,3.91,1.71,1.98,3.75,3.31,6.3,3.88,1.14.26,2.14.83,2.83,1.64M15.67,65.01c-.85-1.34-1.64-2.52-2.37-3.74-1.13-1.92-2.55-3.71-2.81-6.03-.03-.23-.12-.43-.33-.56-.66-.41-1.31-.85-2-1.24-.64-.36-1.24-.21-1.77.29-.64.6-.91,1.4-1.17,2.2-.34,1-1.02,1.58-2.06,1.73-.47.07-.94.13-1.41.23-.41.09-.6.39-.61.8,0,.59.28,1.04.75,1.33.44.28.55-.23.76-.45,1.6-1.69,3.6-2.25,5.56-1.51,2.55.96,4.4,3.8,3.76,6.31-.06.23-.24.66.3.51,1.09-.3,2.16-.11,3.4.14M19.83,69.2c.3,1.31.47,2.39.13,3.47-.11.34.13.37.39.31.52-.12,1.04-.22,1.58-.15,2.47.32,4.12,1.71,4.97,3.98.86,2.28-.22,4.06-1.79,5.63-.24.23-.35.44-.1.71.36.38.76.71,1.31.61.56-.09.73-.55.81-1.05.04-.28.09-.55.11-.83.11-1.16.7-1.91,1.84-2.23.59-.17,1.17-.4,1.68-.75.99-.68,1.17-1.41.57-2.44-.31-.53-.66-1.04-.99-1.56-.14-.22-.3-.41-.57-.44-2.37-.29-4.24-1.68-6.19-2.87-1.19-.72-2.35-1.49-3.75-2.38M24.3,70.63c0-.89-.34-1.49-1.19-1.84-.51-.21-.99-.54-1.42-.88-.69-.54-.88-1.48-.57-2.38.33-.94.78-1.26,1.84-1.25.62,0,1.23.08,1.85.1.19,0,.42.03.52-.19.08-.19-.09-.31-.2-.42-1.32-1.33-2.65-2.66-3.98-3.98-.12-.11-.25-.27-.43-.17-.17.08-.17.28-.16.45.03.53.08,1.06.1,1.59.05,1.16-.36,1.82-1.34,2.15-1,.34-1.94.02-2.55-.9-.31-.47-.59-.95-.83-1.46-.34-.71-.93-.82-1.65-.83,2.29,4.43,5.6,7.74,10.02,10.01M12.93,51.23c-1.22,1.39-1.64,3.15-1.07,5.1.54,1.84,1.75,3.05,3.69,3.37.6.1.94.42,1.19.93.34.67.64,1.38,1.2,1.92.35.34.74.37,1.16.18.4-.18.48-.52.44-.91-.12-1.09-.2-2.17.11-3.25.11-.39-.16-.71-.41-.97-.24-.25-.45,0-.66.13-1.91,1.24-4.24.65-5.32-1.34-.9-1.66.02-4.08,1.95-4.9.69-.29.67-.55.33-1.08-.23-.36-.45-.44-.83-.3-.61.22-1.17.53-1.78,1.13M33.69,71.87c.47-.43.79-.93,1.06-1.51.29-.64-.03-.91-.53-1.17-.61-.32-.63.21-.78.53-.96,1.96-3.25,2.81-5.02,1.85-1.83-.99-2.4-3.24-1.32-5.16.13-.22.47-.44.22-.73-.24-.26-.57-.54-.96-.42-1.02.32-2.05.23-3.08.13-.47-.05-.92,0-1.11.53-.19.52.03.92.42,1.26.56.48,1.26.72,1.89,1.09.42.25.65.56.73,1.05.32,1.85,1.41,3.11,3.19,3.65,1.93.59,3.77.39,5.3-1.09M14.74,56.48c1,1.03,2.59,1.06,3.52.09.3-.31.43-.64.28-1.06-.29-.82-.56-1.64-.85-2.46-.2-.56-.62-.77-1.18-.74-1.1.06-1.81.71-2.25,1.64-.44.93-.25,1.78.48,2.54M28.42,70.14c.69.76,1.54.88,2.45.53.95-.36,1.61-1.01,1.73-2.07.08-.72-.14-1.25-.91-1.47-.62-.17-1.22-.4-1.83-.61-1.03-.35-1.89.09-2.12,1.16-.2.92-.09,1.79.68,2.45M17.64,67.96c-1.89-1.89-3.69-2.41-5.29-1.81-.36.13-.94.26-.88.64.08.53.65.24,1,.23,3.25-.06,5.56,2.36,5.37,5.63,0,.14-.02.28-.02.42,0,.14.04.29.19.34.21.07.31-.09.39-.23.11-.22.23-.45.31-.69.62-1.98-.15-3.55-1.07-4.53M26.79,53.74h0c.47-.48.95-.94,1.42-1.43.34-.36.37-.74.02-1.11-.38-.39-.78-.42-1.17-.03-.92.9-1.82,1.81-2.73,2.72-.45.45-.16.79.17,1.13.34.35.64.39.99.02.42-.45.87-.87,1.3-1.31M31.24,58.14c-.45.45-.91.91-1.37,1.37-.34.33-.27.63.05.93.31.29.62.67,1.06.25.95-.91,1.88-1.85,2.79-2.79.37-.38.33-.82-.05-1.19-.39-.36-.77-.26-1.11.07-.46.45-.91.91-1.37,1.36M28.73,55.39c.47-.48.95-.95,1.43-1.43.32-.32.58-.66.17-1.08-.41-.42-.84-.36-1.24.05-.95.96-1.89,1.91-2.85,2.85-.36.35-.33.64.01,1,.36.37.68.44,1.06.03.46-.49.95-.95,1.42-1.43M9.71,66.73s0,0,0,0c-.26-.26-.51-.52-.77-.77-.25-.25-.55-.31-.83-.08-.58.46-.96,1.06-.81,1.82.14.75.66,1.26,1.4,1.4.76.14,1.38-.2,1.8-.83.44-.66-.24-.92-.54-1.31-.07-.09-.16-.16-.24-.24M18.25,75.27s0,0,0,0c-.28-.27-.55-.55-.83-.83-.19-.19-.4-.26-.67-.12-.78.41-1.18,1.45-.84,2.23.38.88,1.36,1.29,2.22.95,1.13-.45,1.27-1.09.42-1.94-.1-.1-.2-.2-.3-.3M25.09,80.32c1.26-1.1,1.02-3.05-.09-4.47-1.23-1.57-3.24-2.24-4.63-1.44,3.33.53,4.87,2.49,4.72,5.91M29.66,56.12s0,0,0,0c-.53.53-1.07,1.07-1.6,1.6-.34.34-.24.63.07.93.29.28.57.33.87.03,1.01-1.01,2.02-2.02,3.02-3.03.33-.33.33-.72.01-1.05-.37-.38-.71-.16-1.01.14-.46.45-.91.91-1.37,1.36M4.53,59.77c3.55-.23,5.67,1.24,5.98,4.91.78-1.6.09-3.63-1.56-4.86-1.48-1.1-3.26-1.17-4.41-.05M11.87,73.1c.88.88,2.5,1.14,3.59.58.28-.14.7-.26.43-.72-.22-.39-.51-.27-.85-.09-1.07.56-2.01.38-2.77-.52-.69-.8-.69-1.67-.21-2.57.19-.36.18-.67-.2-.84-.39-.17-.45.23-.57.45-.65,1.19-.39,2.74.59,3.71M33.15,60.06c-.35.36-.72.7-1.06,1.07-.13.13-.34.38-.08.47.53.19,1.14.57,1.66.18.64-.48,1.18-1.11,1.71-1.71.29-.33.24-.74-.11-1.04-.37-.32-.75-.33-1.12.03-.33.34-.67.67-1.01,1.01M24.01,50.41s-.01-.01-.02-.02c-.12.12-.22.27-.36.35-.78.46-.65,1.13-.46,1.83.1.35.26.51.57.21.73-.73,1.47-1.45,2.17-2.2.29-.31.24-.67-.04-.98-.29-.31-.65-.34-.97-.07-.32.27-.59.58-.89.88M3.73,64.47c.81.8,2.31,1.09,3.27.62.23-.11.61-.19.44-.57-.16-.35-.45-.33-.78-.14-.63.36-1.28.33-1.92-.01-1.06-.57-1.39-1.53-.95-2.86.11-.32.19-.65-.18-.78-.39-.14-.44.27-.53.49-.46,1.09-.18,2.44.65,3.26M20.01,77.56c-.04.07-.09.15-.13.22-.55.96-.31,2.47.52,3.36.81.86,2.45,1.18,3.41.66.2-.11.43-.22.33-.5-.11-.29-.33-.3-.62-.22-2.39.67-3.56-.51-2.96-2.95.03-.13.07-.29.02-.4-.12-.26-.31-.4-.59-.16M16.42,71.64c.36-1.5-1.71-3.47-3.55-3.25,1.19,1.16,2.2,2.38,3.55,3.25M23.76,79.28c.11-1.66-1.22-3.29-2.65-3.49-.17-.02-.36-.08-.45.1-.1.17.04.32.16.44.94.95,1.88,1.89,2.95,2.95M9.13,64.37c.03-2.01-1.62-3.61-3.22-3.22l3.22,3.22ZM35.2,61.8c-.21.26-.6.54-.11.86.43.29.89.78,1.44.14.35-.41.61-.84.11-1.3-.58-.54-1-.08-1.43.29M23.11,49.6c.44-.44.82-.82.26-1.37-.55-.54-.99-.14-1.37.19-.61.53-.04.98.24,1.35.39.54.63-.04.87-.18" fill="#e5e4e4"/>
      <path d="M46.36,63.15c.45-.2.57-.61.46-1.14-.03-.15-.02-.42.07-.48,1.34-.9,1.08-2.87,2.52-3.69.18-.1.3-.26.32-.47.08-.89.55-1.51,1.33-1.91.24-.13.37-.33.44-.58.22-.74.66-1.29,1.39-1.58.27-.11.31-.38.47-.56,1-1.14,2.25-1.99,3.46-2.85.44-.31,1.04-.41,1.37-.94.18-.28.46-.6.78-.59.89.02,1.42-.47,1.92-1.11.21-.26.59-.45.9-.39.74.14,1.16-.21,1.6-.73.56-.66,1.34-.76,2.06-.31.62.4,1.24.51,1.96.52,1.23.02,2.06.74,2.41,1.97.11.4.31.61.69.74,1.8.62,2.96,1.88,3.51,3.69.2.66.47.85,1.04.38.13-.11.28-.19.42-.27,2.09-1.28,3.84-.72,4.8,1.56.1.23.19.47.25.72.24,1.02.9,1.44,1.93,1.53,2.46.22,3.18,1.86,1.67,3.83-.57.74-.89,1.44-.94,2.39-.1,1.87-1.68,3.38-3.64,3.6-.63.07-.75.25-.74.86.03,1.84-1.13,2.98-2.99,2.98-.51,0-.58.18-.63.62-.29,2.63-1.71,4.03-4.33,4.27-.45.04-.53.17-.53.61.02,1.87-1.23,3.06-3.14,3.03-.43,0-.58.12-.67.53-.67,2.85-1.72,3.72-4.63,3.9-.31.02-.53.14-.74.33-.25.23-.5.46-.77.64-1.88,1.28-3.47.62-3.69-1.63-.12-1.16-.55-1.9-1.72-2.14-.22-.04-.44-.12-.63-.22-1.88-.97-3-2.41-1.6-4.61.09-.14.19-.28.28-.42q.58-.87-.39-1.22c-1.77-.63-3.01-1.81-3.62-3.6-.11-.32-.25-.5-.61-.58-1.42-.33-2.12-1.24-2.07-2.72.02-.52-.06-.95-.38-1.4-.67-.95-.53-1.7.41-2.57M67.45,50.91c.55-.55,1.03-.98,1.21-1.64.27-.99-.16-1.67-1.16-1.82-.81-.12-1.48.23-2.07.74-1.36,1.18-2.24,2.64-2.57,4.41-.26,1.37-.93,2.49-1.94,3.45-1.6,1.53-3.18,3.08-4.69,4.7-1.08,1.16-2.34,1.88-3.88,2.18-1.72.34-3.08,1.29-4.23,2.58-.53.59-.81,1.28-.66,2.09.16.89.86,1.32,1.74,1.1.45-.11.85-.33,1.14-.68,1.04-1.27,2.41-1.95,3.97-2.38.86-.24,1.69-.6,2.53-.9.46-.16.85-.43,1.19-.77,1.3-1.32,2.52-2.72,3.91-3.93,1.98-1.71,3.31-3.75,3.89-6.31.26-1.14.83-2.14,1.64-2.82M65.01,69.26c-1.34.85-2.52,1.64-3.74,2.37-1.92,1.13-3.71,2.55-6.03,2.81-.23.03-.43.12-.56.33-.41.66-.85,1.31-1.24,2-.36.64-.21,1.24.28,1.77.6.64,1.4.91,2.2,1.17,1,.34,1.58,1.02,1.73,2.07.07.47.13.94.23,1.41.09.41.39.6.8.61.59,0,1.04-.28,1.33-.75.28-.44-.23-.55-.45-.76-1.69-1.6-2.25-3.6-1.51-5.56.96-2.55,3.8-4.4,6.31-3.76.23.06.66.24.51-.3-.3-1.09-.11-2.16.14-3.4M69.2,65.1c1.31-.3,2.39-.48,3.47-.13.34.11.37-.13.31-.39-.12-.52-.22-1.04-.15-1.58.32-2.47,1.71-4.12,3.98-4.97,2.29-.86,4.06.22,5.63,1.79.24.24.44.36.71.1.38-.36.71-.76.61-1.31-.09-.56-.55-.73-1.05-.81-.28-.04-.55-.09-.83-.11-1.16-.11-1.91-.7-2.23-1.84-.17-.59-.4-1.17-.75-1.68-.68-.99-1.41-1.17-2.44-.57-.53.31-1.04.66-1.56.99-.22.14-.41.3-.44.57-.29,2.37-1.68,4.24-2.87,6.19-.73,1.19-1.49,2.35-2.38,3.75M70.63,60.63c-.89,0-1.49.34-1.84,1.19-.21.51-.54.99-.88,1.42-.54.69-1.48.88-2.38.57-.94-.33-1.26-.78-1.25-1.84,0-.62.08-1.23.1-1.85,0-.19.03-.42-.19-.52-.19-.08-.31.09-.42.2-1.33,1.32-2.66,2.65-3.98,3.98-.12.11-.27.25-.18.43.08.17.28.17.45.16.53-.03,1.06-.08,1.59-.1,1.16-.05,1.82.36,2.15,1.34.34,1,.02,1.94-.9,2.55-.47.31-.95.59-1.46.83-.71.34-.82.93-.83,1.65,4.43-2.29,7.74-5.6,10.01-10.02M51.23,72c1.39,1.22,3.15,1.64,5.1,1.07,1.84-.54,3.05-1.75,3.37-3.69.1-.6.42-.94.93-1.19.67-.34,1.38-.64,1.92-1.2.34-.35.37-.74.18-1.16-.18-.4-.52-.48-.91-.44-1.09.12-2.17.2-3.25-.11-.39-.11-.71.16-.97.41-.25.24,0,.45.13.66,1.24,1.91.65,4.24-1.34,5.32-1.66.9-4.07-.02-4.9-1.95-.29-.69-.54-.67-1.08-.33-.36.23-.44.45-.3.83.22.61.53,1.17,1.13,1.78M71.87,51.24c-.43-.47-.93-.79-1.5-1.06-.64-.29-.92.03-1.18.53-.32.61.21.63.53.78,1.96.96,2.81,3.25,1.85,5.02-.99,1.83-3.24,2.4-5.16,1.32-.22-.13-.44-.47-.73-.22-.26.24-.54.57-.42.96.32,1.02.23,2.05.13,3.08-.05.47,0,.92.53,1.11.52.19.92-.03,1.26-.42.48-.56.72-1.26,1.09-1.89.25-.42.56-.65,1.05-.73,1.86-.32,3.11-1.41,3.65-3.19.59-1.93.39-3.77-1.09-5.3M56.48,70.19c1.03-1,1.06-2.59.09-3.52-.31-.3-.64-.43-1.06-.28-.82.29-1.64.56-2.46.85-.56.2-.77.62-.74,1.18.06,1.1.71,1.81,1.64,2.25.93.44,1.78.25,2.54-.48M70.15,56.51c.76-.69.88-1.54.53-2.45-.36-.95-1.01-1.61-2.07-1.73-.72-.08-1.25.14-1.47.91-.17.62-.4,1.22-.61,1.83-.35,1.04.09,1.89,1.16,2.12.92.2,1.79.09,2.45-.68M67.96,67.29c-1.89,1.89-2.41,3.69-1.81,5.29.13.36.26.94.64.88.53-.08.24-.65.23-1-.06-3.25,2.36-5.57,5.63-5.38.14,0,.28.02.42.02.14,0,.29-.04.34-.19.07-.21-.09-.31-.23-.38-.22-.12-.45-.23-.69-.31-1.98-.62-3.55.15-4.53,1.07M53.74,58.15h0c-.47-.47-.94-.95-1.42-1.42-.36-.34-.74-.37-1.11-.02-.39.38-.42.78-.03,1.17.9.92,1.81,1.82,2.72,2.73.45.45.79.16,1.13-.17.35-.34.39-.64.02-.99-.45-.42-.87-.87-1.31-1.3M58.14,53.69c.46.45.91.91,1.37,1.37.33.34.63.27.93-.05.29-.31.67-.62.25-1.06-.91-.95-1.85-1.88-2.79-2.79-.38-.37-.82-.33-1.19.05-.37.38-.27.77.07,1.11.45.46.91.91,1.36,1.37M55.39,56.2c-.48-.48-.95-.95-1.43-1.43-.32-.32-.66-.58-1.08-.17-.42.41-.36.84.05,1.24.96.95,1.91,1.89,2.85,2.85.35.36.64.33,1-.01.37-.36.44-.68.03-1.06-.49-.46-.95-.95-1.43-1.42M66.73,75.22s0,0,0,0c-.26.26-.52.52-.77.77-.25.25-.31.55-.08.83.46.58,1.06.96,1.82.81.75-.14,1.26-.66,1.4-1.4.14-.75-.2-1.38-.83-1.8-.66-.44-.92.24-1.31.54-.09.07-.16.16-.24.24M75.27,66.68s0,0,0,0c-.28.28-.55.55-.83.83-.19.19-.27.4-.12.67.41.78,1.45,1.18,2.23.84.88-.38,1.29-1.36.95-2.22-.45-1.13-1.08-1.27-1.94-.42l-.3.3ZM80.32,59.84c-1.1-1.26-3.05-1.02-4.47.09-1.57,1.23-2.24,3.24-1.44,4.63.53-3.34,2.5-4.87,5.91-4.72M56.12,55.27s0,0,0,0c.53.53,1.07,1.07,1.6,1.6.34.34.63.24.93-.07.28-.29.33-.57.03-.87-1.01-1.01-2.01-2.02-3.03-3.02-.33-.33-.72-.33-1.05-.01-.38.37-.16.71.14,1.01.45.46.91.91,1.36,1.36M59.77,80.4c-.23-3.55,1.24-5.67,4.91-5.98-1.6-.78-3.63-.09-4.86,1.56-1.1,1.48-1.17,3.26-.05,4.41M73.1,73.06c.87-.88,1.14-2.5.58-3.59-.15-.28-.27-.7-.72-.43-.39.22-.27.51-.09.85.57,1.07.38,2.01-.52,2.77-.8.69-1.67.69-2.57.21-.36-.19-.67-.18-.84.2-.17.39.23.45.45.57,1.19.65,2.74.39,3.71-.59M60.06,51.77c.36.35.7.72,1.07,1.06.13.13.38.34.47.08.19-.53.57-1.14.18-1.66-.48-.64-1.11-1.18-1.71-1.71-.33-.29-.74-.24-1.04.11-.32.37-.33.75.03,1.12.34.33.67.67,1.01,1.01M50.41,60.92s-.01.01-.02.02c.12.12.27.22.35.36.46.78,1.13.65,1.83.46.36-.1.51-.26.21-.57-.73-.73-1.45-1.47-2.2-2.17-.31-.29-.67-.24-.98.04-.31.3-.34.65-.07.97.27.32.58.6.88.89M64.47,81.2c.8-.81,1.09-2.31.62-3.27-.11-.23-.19-.61-.57-.44-.35.16-.33.45-.14.78.36.63.33,1.28-.01,1.92-.56,1.06-1.53,1.39-2.86.95-.32-.11-.65-.19-.78.18-.14.39.27.44.5.53,1.08.46,2.44.18,3.26-.65M77.56,64.92c.07.04.15.08.22.13.96.55,2.47.31,3.36-.52.86-.81,1.18-2.45.65-3.41-.11-.2-.22-.43-.5-.33-.28.11-.3.33-.22.62.67,2.39-.51,3.56-2.95,2.96-.13-.03-.29-.07-.4-.02-.26.12-.4.31-.16.59M71.64,68.51c-1.5-.36-3.47,1.71-3.25,3.55,1.16-1.19,2.38-2.2,3.25-3.55M79.28,61.17c-1.66-.11-3.29,1.22-3.49,2.65-.02.17-.08.36.1.45.17.1.32-.04.44-.16.95-.94,1.89-1.88,2.95-2.95M64.37,75.79c-2.01-.03-3.61,1.62-3.22,3.22,1.05-1.05,2.08-2.08,3.22-3.22M61.8,49.73c.26.21.54.6.86.11.29-.43.78-.89.14-1.44-.41-.35-.84-.61-1.3-.11-.54.58-.08,1,.29,1.43M49.6,61.82c-.43-.44-.82-.82-1.37-.26-.54.55-.14.99.19,1.37.53.61.98.04,1.35-.24.54-.39-.04-.63-.18-.87" fill="#e5e4e4"/>
      <path d="M63.15,38.57c-.2-.45-.61-.57-1.14-.46-.16.03-.42.02-.48-.07-.89-1.34-2.87-1.08-3.69-2.52-.1-.18-.26-.3-.47-.32-.89-.08-1.51-.55-1.91-1.33-.13-.25-.33-.37-.58-.44-.74-.22-1.29-.66-1.58-1.39-.11-.27-.38-.31-.56-.47-1.14-1-1.99-2.25-2.85-3.46-.31-.44-.41-1.04-.94-1.37-.28-.18-.6-.45-.6-.78.02-.89-.47-1.42-1.11-1.92-.27-.21-.45-.59-.39-.9.15-.74-.21-1.16-.72-1.6-.66-.56-.76-1.34-.31-2.06.4-.62.51-1.24.52-1.96.02-1.23.74-2.06,1.97-2.41.4-.11.61-.31.74-.69.62-1.8,1.88-2.96,3.69-3.51.66-.2.85-.47.38-1.04-.11-.13-.19-.28-.27-.42-1.28-2.09-.72-3.84,1.56-4.8.23-.1.47-.19.71-.25,1.03-.24,1.44-.9,1.54-1.93.22-2.46,1.86-3.18,3.83-1.67.74.57,1.44.89,2.39.95,1.87.1,3.38,1.68,3.6,3.64.07.63.25.75.86.74,1.84-.03,2.98,1.13,2.98,2.99,0,.51.18.58.62.63,2.63.29,4.03,1.71,4.27,4.33.04.45.17.53.61.53,1.87-.02,3.06,1.22,3.03,3.14,0,.43.13.58.53.67,2.85.67,3.72,1.72,3.9,4.63.02.31.14.53.33.74.23.25.46.5.64.77,1.28,1.87.62,3.46-1.63,3.69-1.16.12-1.9.55-2.14,1.72-.04.22-.12.44-.22.63-.97,1.88-2.41,3-4.61,1.6-.14-.09-.28-.19-.42-.28q-.87-.58-1.22.39c-.63,1.77-1.81,3.01-3.6,3.62-.32.11-.5.25-.58.61-.33,1.42-1.24,2.12-2.72,2.07-.52-.02-.95.06-1.4.38-.95.67-1.7.53-2.57-.41M50.9,17.48c-.55-.55-.98-1.03-1.64-1.21-.99-.27-1.67.16-1.82,1.16-.11.81.23,1.48.74,2.07,1.18,1.36,2.64,2.24,4.42,2.58,1.37.26,2.49.93,3.45,1.94,1.53,1.6,3.08,3.18,4.7,4.69,1.16,1.08,1.88,2.34,2.18,3.88.34,1.72,1.29,3.08,2.58,4.23.59.53,1.28.81,2.09.66.89-.16,1.32-.86,1.1-1.74-.11-.45-.33-.85-.68-1.14-1.27-1.04-1.95-2.41-2.38-3.97-.24-.86-.6-1.69-.9-2.53-.16-.46-.43-.85-.77-1.19-1.32-1.3-2.72-2.52-3.93-3.91-1.71-1.98-3.75-3.31-6.3-3.88-1.14-.26-2.14-.83-2.83-1.64M69.26,19.92c.85,1.34,1.64,2.52,2.37,3.74,1.13,1.92,2.55,3.71,2.81,6.03.03.23.12.43.33.56.66.41,1.31.85,2,1.24.64.36,1.24.21,1.77-.29.64-.6.9-1.4,1.17-2.2.34-1,1.02-1.58,2.06-1.73.47-.07.94-.13,1.41-.23.41-.09.6-.39.61-.8,0-.59-.28-1.04-.75-1.33-.44-.28-.55.23-.75.45-1.6,1.69-3.6,2.25-5.56,1.51-2.55-.96-4.4-3.8-3.76-6.31.06-.23.24-.66-.3-.51-1.09.3-2.16.11-3.4-.14M65.1,15.73c-.3-1.31-.47-2.39-.13-3.47.11-.34-.13-.37-.39-.31-.52.12-1.04.22-1.58.15-2.47-.32-4.12-1.71-4.97-3.98-.86-2.28.22-4.06,1.79-5.63.24-.24.36-.44.1-.71-.35-.38-.76-.71-1.31-.61-.56.09-.73.55-.81,1.05-.04.28-.09.55-.11.83-.11,1.16-.7,1.91-1.84,2.23-.59.17-1.17.4-1.68.75-.99.68-1.16,1.41-.57,2.44.31.53.66,1.04.99,1.56.14.22.3.41.57.44,2.37.29,4.24,1.68,6.19,2.87,1.19.72,2.35,1.49,3.75,2.38M60.63,14.3c0,.89.34,1.49,1.19,1.84.51.21.99.54,1.42.88.69.54.88,1.48.57,2.38-.33.94-.78,1.26-1.84,1.25-.61,0-1.23-.08-1.84-.1-.19,0-.42-.03-.52.19-.08.19.09.31.2.42,1.32,1.33,2.65,2.66,3.98,3.98.12.11.25.27.43.17.17-.08.17-.28.16-.45-.03-.53-.08-1.06-.1-1.59-.05-1.16.36-1.82,1.34-2.15,1-.34,1.95-.02,2.55.9.31.47.59.95.83,1.46.34.71.93.82,1.65.83-2.29-4.43-5.6-7.74-10.02-10.01M72,33.7c1.22-1.39,1.64-3.15,1.07-5.1-.54-1.84-1.75-3.05-3.69-3.37-.6-.1-.94-.42-1.19-.93-.34-.67-.64-1.38-1.2-1.92-.35-.34-.74-.37-1.16-.18-.4.18-.48.52-.44.91.12,1.09.2,2.17-.11,3.25-.11.39.16.71.41.97.24.25.45,0,.66-.13,1.91-1.24,4.24-.65,5.32,1.34.9,1.66-.02,4.08-1.95,4.9-.69.29-.67.55-.33,1.08.23.36.45.44.83.3.62-.22,1.17-.53,1.78-1.13M51.24,13.06c-.47.43-.79.93-1.06,1.51-.29.64.03.91.53,1.17.61.32.63-.21.78-.53.96-1.96,3.25-2.81,5.02-1.85,1.83.99,2.4,3.24,1.32,5.16-.13.22-.47.44-.22.73.24.26.57.54.96.42,1.02-.32,2.05-.23,3.08-.13.47.05.92,0,1.11-.53.19-.52-.03-.92-.42-1.26-.56-.48-1.26-.72-1.89-1.09-.42-.25-.64-.56-.73-1.05-.32-1.86-1.41-3.11-3.19-3.65-1.93-.59-3.77-.39-5.3,1.09M70.19,28.45c-1-1.03-2.59-1.06-3.52-.09-.3.31-.43.64-.28,1.06.29.82.56,1.64.85,2.46.19.56.62.77,1.18.74,1.1-.06,1.81-.71,2.25-1.64.44-.93.25-1.78-.48-2.54M56.51,14.79c-.69-.76-1.54-.88-2.45-.53-.95.36-1.61,1.01-1.73,2.07-.08.72.14,1.25.91,1.47.62.17,1.22.4,1.83.61,1.03.35,1.89-.09,2.12-1.16.2-.92.09-1.79-.68-2.45M67.29,16.97c1.89,1.89,3.69,2.41,5.29,1.81.36-.13.94-.26.88-.64-.08-.53-.65-.24-1-.23-3.25.06-5.56-2.36-5.37-5.63,0-.14.02-.28.02-.42,0-.14-.04-.29-.19-.34-.21-.07-.31.09-.39.23-.11.22-.23.45-.31.69-.62,1.98.15,3.55,1.07,4.53M58.14,31.19s0,0,0,0c-.47.47-.95.94-1.42,1.42-.34.36-.37.74-.02,1.11.38.39.78.42,1.17.03.92-.9,1.82-1.81,2.73-2.72.45-.45.16-.79-.17-1.13-.34-.35-.64-.39-.99-.02-.42.44-.87.87-1.3,1.31M53.69,26.79c.45-.45.91-.91,1.37-1.37.34-.33.27-.63-.05-.93-.31-.29-.63-.67-1.06-.25-.95.91-1.88,1.85-2.79,2.79-.37.38-.33.82.05,1.19.39.36.77.26,1.11-.07.46-.45.91-.91,1.37-1.36M56.2,29.54c-.47.48-.95.95-1.43,1.43-.32.32-.58.66-.17,1.08.41.42.84.36,1.24-.05.95-.96,1.89-1.91,2.85-2.85.36-.35.33-.64-.01-1-.36-.37-.68-.44-1.06-.03-.46.49-.95.95-1.42,1.43M75.22,18.2s0,0,0,0c.26.26.51.52.77.77.25.25.55.31.83.08.58-.46.96-1.06.81-1.82-.14-.75-.66-1.26-1.4-1.4-.76-.14-1.38.2-1.8.83-.44.66.24.92.54,1.31.07.09.16.16.24.24M66.68,9.66h0c.28.27.55.55.83.82.19.19.4.26.67.12.78-.41,1.18-1.45.84-2.23-.38-.88-1.36-1.29-2.22-.95-1.13.45-1.27,1.09-.42,1.94.1.1.2.2.3.3M59.84,4.61c-1.26,1.1-1.02,3.05.09,4.47,1.23,1.57,3.24,2.24,4.63,1.44-3.33-.53-4.87-2.5-4.72-5.91M55.27,28.81s0,0,0,0c.53-.53,1.07-1.07,1.6-1.6.34-.34.24-.63-.07-.93-.29-.28-.57-.33-.87-.03-1.01,1.01-2.02,2.02-3.02,3.03-.33.33-.33.72-.01,1.05.37.38.71.16,1.01-.14.46-.45.91-.91,1.37-1.36M80.4,25.16c-3.55.23-5.67-1.24-5.98-4.91-.78,1.6-.09,3.63,1.56,4.86,1.48,1.1,3.26,1.17,4.41.05M73.06,11.83c-.88-.87-2.5-1.14-3.59-.58-.28.14-.7.26-.43.72.23.39.52.27.86.09,1.07-.57,2.01-.38,2.77.52.69.8.69,1.67.21,2.57-.19.36-.18.67.2.84.39.17.45-.23.57-.45.65-1.19.39-2.74-.59-3.71M51.77,24.87c.36-.36.72-.7,1.06-1.07.13-.13.34-.38.08-.47-.53-.19-1.14-.57-1.66-.18-.64.48-1.18,1.11-1.71,1.71-.29.33-.24.74.11,1.04.37.32.75.33,1.12-.03.33-.34.67-.67,1.01-1.01M60.92,34.52s.01.01.02.02c.12-.12.22-.27.36-.35.78-.46.65-1.13.46-1.83-.1-.35-.26-.51-.57-.21-.73.73-1.47,1.45-2.17,2.2-.29.31-.24.67.04.98.29.31.65.34.97.07.32-.27.59-.58.89-.88M81.2,20.46c-.81-.8-2.31-1.09-3.27-.62-.23.11-.61.19-.44.57.16.35.45.33.78.14.63-.36,1.28-.33,1.92.01,1.06.57,1.39,1.53.95,2.86-.11.32-.19.65.18.78.39.14.43-.27.53-.5.46-1.08.18-2.44-.65-3.26M64.92,7.37c.04-.07.08-.15.13-.22.55-.96.31-2.47-.52-3.36-.81-.86-2.45-1.18-3.41-.66-.2.11-.43.22-.33.5.11.29.32.3.62.22,2.39-.67,3.56.51,2.96,2.95-.03.13-.07.29-.02.4.12.26.31.4.59.16M68.51,13.29c-.36,1.5,1.71,3.47,3.55,3.25-1.19-1.16-2.2-2.38-3.55-3.25M61.17,5.65c-.11,1.66,1.22,3.29,2.65,3.49.17.02.36.08.45-.1.1-.17-.04-.32-.16-.44-.94-.95-1.89-1.89-2.95-2.95M75.8,20.56c-.03,2.01,1.62,3.61,3.22,3.22l-3.22-3.22ZM49.73,23.13c.21-.26.6-.54.11-.86-.43-.29-.89-.78-1.44-.14-.35.41-.61.84-.11,1.3.58.54,1,.08,1.43-.29M61.82,35.33c-.44.43-.82.82-.26,1.37.55.54.99.14,1.37-.19.61-.53.04-.98-.24-1.35-.39-.54-.63.04-.87.18" fill="#e5e4e4"/>
      <path d="M38.57,21.78c-.45.2-.57.61-.46,1.14.03.16.02.42-.07.48-1.34.89-1.08,2.87-2.52,3.68-.18.1-.3.26-.32.47-.08.89-.55,1.51-1.33,1.91-.24.13-.37.33-.44.58-.22.74-.66,1.29-1.39,1.58-.27.11-.31.38-.47.56-1,1.14-2.25,1.99-3.46,2.85-.44.31-1.04.41-1.37.94-.18.28-.46.6-.78.6-.89-.02-1.42.47-1.92,1.11-.21.27-.59.45-.9.39-.74-.15-1.16.21-1.6.72-.56.66-1.34.76-2.06.31-.62-.4-1.24-.51-1.96-.52-1.23-.02-2.06-.74-2.41-1.97-.11-.4-.31-.61-.69-.74-1.8-.62-2.96-1.88-3.51-3.69-.2-.66-.47-.85-1.04-.38-.13.11-.28.19-.42.27-2.09,1.28-3.84.72-4.8-1.56-.1-.23-.19-.47-.25-.71-.24-1.03-.9-1.44-1.93-1.54C0,28.04-.73,26.41.79,24.43c.57-.74.89-1.44.95-2.39.1-1.87,1.68-3.38,3.64-3.6.63-.07.75-.25.74-.86-.03-1.84,1.13-2.98,2.99-2.98.51,0,.58-.18.63-.62.29-2.63,1.71-4.03,4.33-4.27.45-.04.53-.17.53-.61-.02-1.87,1.22-3.06,3.14-3.04.43,0,.58-.12.67-.53.67-2.85,1.72-3.72,4.63-3.9.31-.02.53-.14.74-.33.25-.23.5-.46.77-.64,1.88-1.28,3.47-.62,3.69,1.63.12,1.16.55,1.9,1.72,2.14.22.04.44.12.63.22,1.88.97,3,2.41,1.6,4.61-.09.14-.19.28-.28.42q-.58.87.39,1.22c1.77.63,3.01,1.81,3.62,3.6.11.32.25.5.61.58,1.42.33,2.12,1.24,2.07,2.72-.02.52.06.95.38,1.4.67.95.53,1.7-.41,2.57M17.48,34.03c-.55.55-1.03.98-1.21,1.64-.27.99.16,1.67,1.16,1.82.81.11,1.48-.23,2.07-.74,1.36-1.18,2.24-2.64,2.58-4.42.26-1.37.93-2.49,1.94-3.45,1.6-1.53,3.18-3.08,4.69-4.7,1.08-1.16,2.34-1.88,3.88-2.18,1.72-.34,3.08-1.29,4.23-2.58.53-.59.81-1.28.66-2.09-.16-.89-.86-1.32-1.74-1.1-.45.11-.85.33-1.14.68-1.04,1.27-2.41,1.95-3.97,2.38-.86.24-1.69.6-2.53.9-.46.16-.85.43-1.19.77-1.3,1.32-2.52,2.72-3.91,3.93-1.98,1.71-3.31,3.75-3.89,6.3-.26,1.14-.83,2.14-1.64,2.83M19.92,15.67c1.34-.85,2.52-1.64,3.74-2.37,1.92-1.13,3.71-2.55,6.03-2.81.23-.03.43-.12.56-.33.41-.66.85-1.31,1.24-2,.36-.64.21-1.24-.28-1.77-.6-.64-1.4-.91-2.2-1.17-1-.34-1.58-1.02-1.73-2.06-.07-.47-.13-.94-.23-1.41-.09-.41-.39-.6-.8-.61-.59,0-1.04.28-1.33.75-.28.44.23.55.45.75,1.69,1.6,2.25,3.6,1.51,5.56-.96,2.55-3.81,4.4-6.31,3.76-.23-.06-.66-.24-.51.3.3,1.09.11,2.16-.14,3.4M15.73,19.83c-1.31.3-2.39.47-3.47.13-.34-.11-.37.13-.31.39.12.52.22,1.04.15,1.58-.32,2.47-1.71,4.12-3.98,4.97-2.28.86-4.06-.22-5.63-1.79-.24-.24-.44-.36-.71-.1-.38.35-.71.76-.61,1.31.09.56.55.73,1.05.81.28.04.55.09.83.11,1.16.11,1.91.7,2.23,1.84.17.59.4,1.17.75,1.68.68.99,1.41,1.17,2.44.57.53-.31,1.04-.66,1.56-.99.22-.14.41-.3.44-.57.29-2.37,1.68-4.24,2.87-6.19.73-1.19,1.49-2.35,2.38-3.75M14.3,24.3c.89,0,1.49-.34,1.84-1.19.21-.51.54-.99.88-1.42.54-.69,1.48-.88,2.38-.57.94.33,1.26.78,1.25,1.84,0,.61-.08,1.23-.1,1.84,0,.19-.03.42.19.52.19.08.31-.09.42-.2,1.33-1.32,2.66-2.65,3.98-3.98.12-.12.27-.25.18-.43-.08-.17-.28-.17-.45-.16-.53.03-1.06.08-1.59.1-1.16.05-1.82-.36-2.15-1.34-.34-1-.02-1.95.9-2.55.47-.31.95-.59,1.46-.83.71-.34.82-.93.83-1.65-4.43,2.29-7.74,5.6-10.01,10.02M33.7,12.93c-1.39-1.22-3.15-1.64-5.1-1.07-1.84.54-3.05,1.75-3.37,3.69-.1.6-.42.94-.93,1.19-.67.34-1.38.64-1.92,1.2-.34.35-.37.74-.18,1.16.18.4.52.48.91.44,1.09-.12,2.17-.2,3.25.11.39.11.71-.16.97-.41.25-.24.01-.45-.13-.66-1.24-1.91-.65-4.24,1.34-5.32,1.66-.9,4.08.02,4.9,1.95.29.69.54.67,1.08.33.36-.23.44-.45.3-.83-.22-.62-.53-1.17-1.13-1.78M13.06,33.69c.43.47.93.79,1.5,1.06.64.29.92-.03,1.18-.53.32-.61-.21-.63-.53-.78-1.96-.96-2.81-3.25-1.85-5.02.99-1.83,3.24-2.4,5.16-1.32.22.13.44.47.73.22.26-.24.54-.57.42-.96-.32-1.02-.23-2.05-.13-3.08.05-.47,0-.92-.53-1.11-.52-.19-.92.03-1.26.42-.48.56-.72,1.26-1.09,1.89-.25.42-.56.64-1.05.73-1.86.32-3.11,1.41-3.65,3.19-.59,1.93-.39,3.77,1.09,5.3M28.45,14.74c-1.03,1-1.06,2.59-.09,3.52.31.3.64.43,1.06.28.82-.29,1.64-.56,2.46-.85.56-.19.77-.62.74-1.18-.06-1.1-.71-1.81-1.64-2.25-.93-.44-1.78-.25-2.54.48M14.78,28.42c-.75.69-.88,1.54-.53,2.45.36.95,1.01,1.61,2.07,1.73.72.08,1.25-.14,1.47-.91.17-.62.4-1.22.61-1.83.35-1.03-.09-1.89-1.16-2.12-.92-.2-1.79-.09-2.45.68M16.97,17.64c1.89-1.89,2.41-3.69,1.81-5.29-.13-.36-.26-.94-.64-.88-.53.08-.24.65-.23,1,.06,3.25-2.36,5.56-5.63,5.37-.14,0-.28-.02-.42-.02-.14,0-.29.04-.34.19-.07.21.09.31.23.39.22.11.45.23.69.31,1.98.62,3.55-.15,4.53-1.07M31.19,26.79h0c.47.47.94.95,1.42,1.42.36.34.74.37,1.11.02.39-.38.42-.78.03-1.17-.9-.92-1.81-1.82-2.72-2.73-.45-.45-.79-.16-1.13.17-.35.34-.39.64-.02.99.45.42.87.87,1.31,1.3M26.79,31.24c-.45-.45-.91-.91-1.37-1.37-.33-.34-.63-.27-.93.05-.29.31-.67.63-.25,1.06.91.95,1.85,1.88,2.79,2.79.38.37.82.33,1.19-.05.37-.39.27-.77-.07-1.11-.45-.46-.91-.91-1.36-1.37M29.54,28.73c.48.47.95.95,1.43,1.43.32.32.66.58,1.08.17.42-.41.36-.84-.05-1.24-.96-.95-1.91-1.89-2.85-2.85-.35-.36-.64-.33-1,.01-.37.36-.44.68-.03,1.06.49.46.95.95,1.43,1.42M18.2,9.71s0,0,0,0c.26-.26.52-.51.77-.77.25-.25.31-.55.08-.83-.46-.58-1.06-.96-1.82-.81-.75.14-1.26.66-1.4,1.4-.14.76.2,1.38.83,1.8.66.44.92-.24,1.31-.54.09-.07.16-.16.24-.24M9.66,18.25h0c.28-.28.55-.55.83-.83.19-.19.27-.4.12-.67-.41-.78-1.45-1.18-2.23-.84-.88.38-1.29,1.36-.95,2.22.45,1.13,1.08,1.27,1.94.42.1-.1.2-.2.3-.3M4.61,25.09c1.1,1.26,3.05,1.02,4.47-.09,1.57-1.23,2.24-3.24,1.44-4.63-.53,3.33-2.5,4.87-5.91,4.72M28.81,29.66h0c-.53-.53-1.07-1.06-1.6-1.6-.34-.34-.63-.24-.93.07-.28.29-.33.57-.03.87,1.01,1.01,2.02,2.02,3.03,3.02.33.33.72.33,1.05.01.38-.37.16-.71-.14-1.01-.45-.46-.91-.91-1.36-1.37M25.16,4.53c.23,3.56-1.24,5.67-4.91,5.98,1.6.78,3.63.09,4.86-1.56,1.1-1.48,1.17-3.26.05-4.41M11.83,11.87c-.87.88-1.14,2.5-.58,3.59.14.28.26.7.72.43.39-.23.27-.52.09-.86-.57-1.07-.38-2.01.52-2.77.8-.69,1.67-.69,2.57-.21.36.19.67.18.84-.2.17-.39-.23-.45-.45-.57-1.19-.65-2.74-.39-3.71.59M24.87,33.16c-.36-.36-.7-.72-1.07-1.06-.13-.13-.38-.34-.47-.08-.19.53-.57,1.14-.18,1.66.48.64,1.11,1.18,1.71,1.71.33.29.74.24,1.04-.11.32-.37.33-.75-.03-1.12-.34-.33-.67-.67-1.01-1.01M34.52,24.01s.01-.01.02-.02c-.12-.12-.27-.22-.35-.36-.46-.78-1.13-.65-1.83-.46-.36.1-.51.26-.21.57.73.73,1.45,1.47,2.2,2.17.31.29.67.24.98-.04.31-.29.34-.65.07-.97-.27-.32-.58-.59-.88-.89M20.46,3.73c-.8.81-1.09,2.31-.62,3.27.11.23.19.61.57.44.35-.16.33-.45.14-.78-.36-.63-.33-1.28.01-1.92.56-1.06,1.53-1.39,2.86-.95.32.11.65.19.78-.18.14-.39-.27-.43-.5-.53-1.08-.46-2.44-.18-3.26.65M7.37,20.01c-.07-.04-.15-.08-.22-.13-.96-.55-2.47-.31-3.36.52-.86.81-1.18,2.45-.66,3.41.11.2.22.43.5.33.29-.11.3-.33.22-.62-.67-2.39.51-3.56,2.95-2.96.13.03.29.07.4.02.26-.12.4-.31.16-.59M13.29,16.42c1.5.36,3.47-1.71,3.25-3.55-1.16,1.19-2.38,2.2-3.25,3.55M5.65,23.76c1.66.11,3.29-1.22,3.49-2.65.02-.17.08-.36-.1-.45-.17-.1-.32.04-.44.16-.95.94-1.89,1.88-2.95,2.95M20.56,9.13c2.01.03,3.61-1.62,3.22-3.22l-3.22,3.22ZM23.13,35.2c-.26-.21-.54-.6-.86-.11-.29.43-.78.89-.14,1.44.41.35.84.61,1.3.11.54-.58.08-1-.29-1.43M35.33,23.11c.43.44.82.82,1.37.26.54-.55.14-.99-.19-1.37-.53-.61-.98-.04-1.35.24-.54.39.04.63.18.87" fill="#e5e4e4"/>
      <path d="M48.93,48.92c3.57-3.57,3.57-9.35,0-12.92-3.57-3.57-9.35-3.57-12.92,0-3.57,3.57-3.57,9.35,0,12.92,3.57,3.57,9.35,3.57,12.92,0M36.83,48.1c-3.11-3.11-3.11-8.16,0-11.28,3.11-3.11,8.16-3.11,11.28,0,3.11,3.12,3.11,8.16,0,11.28-3.11,3.11-8.16,3.11-11.28,0" fill="#e5e4e4"/>
      <path d="M47.28,47.28c2.66-2.66,2.66-6.97,0-9.64-2.66-2.66-6.98-2.66-9.64,0-2.66,2.66-2.66,6.98,0,9.64,2.66,2.66,6.97,2.66,9.64,0M38.47,46.46c-2.21-2.21-2.21-5.79,0-7.99,2.21-2.21,5.79-2.21,7.99,0,2.21,2.21,2.21,5.79,0,7.99-2.21,2.21-5.79,2.21-7.99,0" fill="#e5e4e4"/>
    </g>
  </g>
</svg>